<?xml version="1.0" encoding="UTF-8"?>
<svg id="_圖層_2" xmlns="http://www.w3.org/2000/svg" version="1.1" viewBox="0 0 668.9 182.48">
  <!-- Generator: Adobe Illustrator 30.4.0, SVG Export Plug-In . SVG Version: 2.1.4 Build 226)  -->
  <defs>
    <style>
      .st0 {
        opacity: .39;
      }

      .st1 {
        fill: #7324b5;
      }
    </style>
  </defs>
  <g>
    <path class="st1" d="M70.11,87.95l-7.88,11.77c-2.85-2.03-8.96-5.54-18.32-10.54l7.59-10.54c9.31,4.3,15.51,7.41,18.61,9.31h0ZM56.82,141.98l-11.97-9.49c6.9-9.68,13.07-19.81,18.51-30.39l10.35,9.49c-4.88,9.75-10.51,19.88-16.9,30.38h0ZM74.39,61.46l-8.36,11.39c-1.33-1.01-6.64-4.28-15.95-9.78-.57-.38-1.08-.7-1.52-.95l7.98-10.16c10.26,5.32,15.98,8.36,17.19,9.12.25.13.48.25.66.38h0ZM135.44,92.42h-23.74v10.26h19.66v39.89h-13.38v-3.51h-26.2v3.89h-12.82v-40.26h19.37v-10.26h-24.88v-13.58h24.88v-8.93c-6.64.95-12.53,1.65-17.66,2.09-.51-3.54-1.78-7.57-3.8-12.06,17.72-1.65,32.06-4.62,43.01-8.93.57-.19,1.08-.38,1.52-.57l10.83,11.11c-6.71,2.6-13.55,4.59-20.51,5.98v11.3h23.74v13.6ZM117.97,126.32v-10.92h-26.2v10.92h26.2Z"/>
    <path class="st1" d="M212.09,72.29h19.27c0,.06-.04,2.06-.1,5.98-.57,28.55-1.39,45.96-2.47,52.23-.57,2.98-1.26,5.09-2.09,6.37-1.84,2.79-4.24,4.55-7.22,5.32-.38.13-.73.22-1.05.29-2.4.5-6.49.7-12.25.57-.31-4.75-1.59-9.08-3.8-13.01-.13-.13-.22-.25-.29-.38,2.66.25,5.7.38,9.12.38,1.39-.06,2.5-.63,3.33-1.71,1.58-2.21,2.59-14.27,3.04-36.18,0-2.21.03-4.53.1-6.93h-5.98c-.95,18.36-3.77,32.35-8.45,41.97-3.29,6.64-7.69,12.22-13.2,16.71-1.08-1.96-3.16-4.49-6.27-7.59-18.55,1.78-32.32,3.04-41.31,3.8l-1.52-11.68c.95-.06,7.28-.48,18.99-1.24v-4.18h-16.33v-9.78h16.33v-2.56h-15.95v-30.86h15.95v-2.47h-18.23v-9.97h18.23v-2.38c-5.19.25-10.35.44-15.48.57-.44-3.16-1.43-6.45-2.94-9.88,17.16-.76,31.18-2.31,42.06-4.65l5.98,10.35c-4.81,1.01-10.44,1.86-16.9,2.56v3.42h17.66v9.97h-17.66v2.47h16.33v30.86h-16.33v2.56h17v9.78c4.62-7.28,7.44-17.95,8.45-32.01.13-1.84.22-3.77.29-5.79h-7.69v-12.92h7.98v-19.75h13.48c0,8.99-.04,15.57-.1,19.75h0ZM155.11,88.34v2.85h4.84v-2.85h-4.84ZM155.11,102.11h4.84v-2.94h-4.84v2.94ZM177.52,88.34h-4.84v2.85h4.84v-2.85ZM177.52,102.11v-2.94h-4.84v2.94h4.84ZM172.68,123v3.33h.57l.1-.1h1.24l.1-.1h1.14l.1-.1h1.24l.1-.1h1.24l.1-.1h1.14l.1-.1h1.24l.1-.1h1.24l.1-.1h1.14l.1-.1h1.24l.1-.1h1.24l.1-.1h1.14l.1-.1h.57c.82-1.2,1.33-1.93,1.52-2.19h-17l-.06.04Z"/>
    <path class="st1" d="M306.59,118.24h-13.3v-48.9l-8.64,10.16c-2.6-2.98-4.05-4.65-4.37-5.03v4.46h-22.03v-3.14c-4.3,3.55-6.59,5.41-6.84,5.6h37.32v32.28h-30.86c-.06.76-.22,1.65-.48,2.66h32.95v26.4h-12.25v-2.28h-13.01v2.47h-11.77v-12.25c-1.71,4.18-3.68,7.69-5.89,10.54-1.71-2.28-4.24-4.69-7.59-7.22-.76-.57-1.36-.98-1.8-1.24,6.27-8.42,9.4-21.18,9.4-38.27v-10.26l-1.71,1.05c-1.52-2.98-3.89-5.98-7.12-9.02-.51-.44-.95-.82-1.33-1.14,10.13-5.7,17.97-13.07,23.55-22.13.19-.31.35-.6.48-.85h12.53c8.67,6.58,15.16,12.12,19.46,16.62v-6.17h13.3v55.65l-.02-.02ZM259.01,104.2h17.19v-2.66h-17l-.19,2.66ZM276.19,90.99h-16.81v2.47h16.81v-2.47ZM264.42,69.73h11.21c-2.28-2.21-4.37-4.08-6.27-5.6-1.33,1.65-2.98,3.51-4.94,5.6ZM278.09,126.22h-13.01v4.28h13.01v-4.28ZM314.28,52.73h13.77v73.88c0,5.89-1.14,9.91-3.42,12.06-.64.56-1.36,1.08-2.19,1.52-3.74,1.84-10.03,2.75-18.9,2.75-.51-4.18-1.99-8.89-4.46-14.15-.06-.13-.1-.22-.1-.29,3.54.19,7.88.29,13.01.29,1.45-.13,2.21-.89,2.28-2.28V52.73h0Z"/>
    <path class="st1" d="M346.86,141.32l-11.02-7.5c5.63-3.8,9.66-9.12,12.06-15.95.06-.19.13-.35.19-.48l11.87,4.28c-3.29,9.24-7.66,15.8-13.11,19.66h0ZM425.29,70.48v10.83h-84.99v-10.83h19.56l-1.43-4.55h-13.3v-10.73h30.29v-4.55h14.25v4.55h30.29v10.73h-11.49c-1.65,2.4-2.69,3.93-3.14,4.55h19.95ZM379.8,130.78h11.21c1.84,0,3-.57,3.51-1.71.38-.95.66-2.69.85-5.23,2.85,1.9,6.62,3.33,11.3,4.28.25.06.44.1.57.1-.82,6.2-2.69,10.19-5.6,11.97-2.09,1.2-5.19,1.8-9.31,1.8h-14.25c-7.41,0-12.18-1.26-14.34-3.8-1.71-2.03-2.56-5.41-2.56-10.16v-9.02h9.68l3.99-3.89h-24.79v-30.48h66.38v30.48h-29.06c2.98,1.45,5.38,2.88,7.22,4.28l-8.54,8.73c-2.6-2.15-6.33-4.46-11.21-6.93v6.65c0,1.52.44,2.4,1.33,2.66.7.19,1.9.29,3.6.29v-.02ZM363.38,92.99v2.94h39.12v-2.94h-39.12ZM363.38,103.81v2.94h39.12v-2.94h-39.12ZM393.01,65.92h-20.6c.89,2.6,1.39,4.11,1.52,4.55h17.76l-.48-.1c.19-.57.56-1.52,1.14-2.85.31-.76.54-1.3.66-1.61h0ZM403.08,122.05l11.02-5.98c6.58,6.08,11.43,11.74,14.53,17,.25.31.44.64.57.95l-11.68,6.74c-2.4-4.88-6.52-10.42-12.34-16.62-.76-.76-1.46-1.45-2.09-2.09h0Z"/>
    <path class="st1" d="M515.13,60.98l10.07,7.03c-2.65,2.34-5.89,4.94-9.68,7.79,4.05,1.9,8.01,3.33,11.87,4.28-2.98,2.79-5.67,6.27-8.07,10.44-.13.25-.22.44-.29.57-3.55-1.14-6.71-2.38-9.49-3.7v6.64c0,1.26.04,1.99.1,2.19.25.25.5.38.76.38h1.05c.38,0,.64-.04.76-.1.31-.19.57-.54.76-1.05.13-.57.25-1.9.38-3.99,2.28,1.96,5.35,3.58,9.21,4.84.25.06.44.13.56.19-.44,3.04-1.01,5.13-1.71,6.27-.95,1.39-2.25,2.38-3.89,2.94-1.45.51-3.14.76-5.03.76h-5.03c-3.16-.06-5.54-.89-7.12-2.47-1.65-2.28-2.5-5.6-2.56-9.97v-3.89h-6.37c-.76,7.98-4.03,13.99-9.78,18.04h26.68l2.09-.29,7.69,2.47c-2.47,7.53-5.89,13.55-10.26,18.04,4.62,1.59,9.68,2.69,15.2,3.33-2.91,2.79-5.5,6.37-7.79,10.73-.13.25-.22.44-.29.57-7.03-1.39-13.07-3.58-18.14-6.55-5,2.73-11.46,4.9-19.37,6.55-1.59-4.05-3.45-7.34-5.6-9.88-.64,2.4-1.49,4.21-2.56,5.41-1.9,2.09-4.65,3.35-8.26,3.8h-.29c-3.1.31-7.44.41-13.01.29-.38-4.49-1.71-8.45-3.99-11.87,3.8.31,7.59.48,11.39.48,1.71-.06,2.91-.35,3.6-.85.95-1.01,1.71-4.21,2.28-9.59h-9.78l-.57,2.09-11.3-1.71c2.34-8.93,4.11-17.37,5.32-25.35h17v-5.03h-15.48v-.48c-1.71.7-3.45,1.39-5.23,2.09-2.03-3.8-4.53-7.24-7.5-10.35,5.07-1.45,9.94-3.58,14.62-6.37-3.23-2.03-5.79-3.51-7.69-4.46l7.03-6.64h-3.42v-10.92h25.07l2.28-.48,8.74,4.18c-3.74,9.18-9.49,16.84-17.28,22.98h11.21v18.23c3.8-3.29,5.76-7.44,5.89-12.44v-6.45h17.95c-7.73-6.45-13.93-15.06-18.61-25.83l11.21-3.23c.95,2.15,2.5,4.84,4.65,8.07,3.04-2.85,5.35-5.32,6.93-7.41l10.16,7.03c-3.42,2.91-6.9,5.6-10.44,8.07,1.52,1.39,2.94,2.6,4.28,3.6,3.74-3.23,6.77-6.23,9.12-9.02h0ZM461.3,64.6h-11.21c1.9.89,4.37,2.21,7.41,3.99,1.26-1.2,2.53-2.53,3.8-3.99ZM487.41,117.39h-9.97v-9.21h2.94c-1.71-2.15-3.83-4.34-6.37-6.55v5.32h-12.34v-.95h-7.32l-1.05,4.75h20.89c0,.06-.1,1.61-.29,4.65-.51,8.23-1.17,14.06-1.99,17.47,5.44-.89,10.48-2.24,15.1-4.08-2.85-3.1-5.16-6.27-6.93-9.49l7.32-1.9h0ZM501.93,117.39h-10.63c1.52,2.03,3.39,3.83,5.6,5.41,2.15-1.84,3.83-3.64,5.03-5.41Z"/>
    <path class="st1" d="M548.86,110.27v-15.29c-2.91,4.5-5.76,8.07-8.54,10.73-2.28-3.35-5.16-6.49-8.64-9.4-.19-.13-.35-.25-.48-.38,5.63-4.18,10.57-10.29,14.81-18.32.25-.5.5-1.01.76-1.52h-13.01v-11.87h15.1v-13.38h13.39v13.38h12.72v11.87h-12.72v2.47c3.93,2.34,8.96,5.73,15.1,10.16l-7.41,11.3c-1.59-1.84-4.15-4.43-7.69-7.79v18.04h-13.39,0ZM544.58,137.53l-13.01-6.37c3.67-5.76,6.39-12.51,8.17-20.23l12.63,4.94c-2.34,9.43-4.94,16.65-7.79,21.65ZM625.49,129.26l-13.3,6.84c-1.39-3.16-3.64-7.24-6.74-12.25-.95,7.41-2.85,12.25-5.69,14.53-2.4,1.84-6.2,2.75-11.39,2.75h-16.15c-8.04,0-13.3-1.46-15.76-4.37-1.84-2.28-2.75-6.02-2.75-11.21v-12.16h13.96v11.97c0,1.65.54,2.63,1.61,2.94.76.25,2.25.38,4.46.38h13.48c2.21,0,3.67-.7,4.37-2.09.64-1.39,1.08-4.4,1.33-9.02,2.59,1.84,6.45,3.42,11.58,4.75l-3.99-6.55,12.34-5.89c6.9,10.19,11.11,16.65,12.63,19.37h0ZM568.51,113.31l9.59-7.88.48.38v-50.33h40.74v53.56h-37.03c4.37,3.93,7.38,6.84,9.02,8.74l-10.16,8.73c-2.15-2.79-6.37-7.18-12.63-13.2ZM591.4,66.4v3.7h14.43v-3.7h-14.43ZM591.4,80.36v3.8h14.43v-3.8h-14.43ZM591.4,94.23v3.89h14.43v-3.89s-14.43,0-14.43,0Z"/>
  </g>
  <g class="st0">
    <g>
      <path class="st1" d="M274.17,41.51c-2.74,0-4.97-.91-6.67-2.75-1.7-1.86-2.55-4.32-2.55-7.4,0-3.37,1.05-6.03,3.14-7.97,1.73-1.6,3.81-2.38,6.23-2.38,2.25,0,4.2.83,5.87,2.49.04.04.06.06.08.08l-2.47,3.04c-1.13-1.04-2.27-1.56-3.4-1.56-1.48,0-2.66.68-3.55,2.05-.71,1.11-1.06,2.47-1.06,4.11,0,2.72.75,4.58,2.27,5.59.67.43,1.43.65,2.3.65,1.39-.02,2.64-.63,3.73-1.82l2.47,2.99c-1.69,1.94-3.81,2.9-6.38,2.9h0Z"/>
      <path class="st1" d="M293.97,41.15l-1.16-4.55h-5.79l-1.13,4.55h-4.79l6.08-19.79h5.64l6.11,19.79h-4.96ZM287.92,32.95h4.02l-.44-1.69c-.19-.71-.47-1.85-.82-3.4-.32-1.35-.56-2.34-.72-2.96h-.1c-.34,1.58-.85,3.69-1.52,6.37l-.41,1.69h0Z"/>
      <path class="st1" d="M301.08,41.15v-19.79h5.1l3.11,8.54c.09.28.45,1.48,1.08,3.61h.13c.13-.41.32-1.04.56-1.87.22-.8.39-1.37.51-1.74l2.99-8.54h5.12v19.79h-4.3v-6.78c0-1.12.21-3.41.62-6.86h-.11l-1.65,4.72-2.63,7.22h-2.6l-2.65-7.22-1.6-4.72h-.1c.41,3.46.62,5.75.62,6.86v6.78h-4.22.02Z"/>
      <path class="st1" d="M324.34,41.15v-19.79h6.88c4.46,0,7.04,1.57,7.73,4.7.12.56.18,1.13.18,1.74,0,2.72-1.12,4.65-3.37,5.82-1.26.64-2.72.96-4.4.96h-2.3v6.57s-4.72,0-4.72,0ZM329.04,30.84h2.06c2.25-.04,3.38-1.05,3.4-3.04,0-1.45-.73-2.31-2.19-2.57-.39-.07-.84-.11-1.34-.11h-1.93v5.71h0Z"/>
      <path class="st1" d="M352.96,41.15l-1.16-4.55h-5.79l-1.13,4.55h-4.79l6.08-19.79h5.64l6.11,19.79h-4.96ZM346.91,32.95h4.02l-.44-1.69c-.19-.71-.47-1.85-.82-3.4-.32-1.35-.56-2.34-.72-2.96h-.11c-.34,1.58-.85,3.69-1.52,6.37l-.41,1.69h0Z"/>
      <path class="st1" d="M360.07,41.15v-19.79h4.71v19.79h-4.71Z"/>
      <path class="st1" d="M378.25,41.51c-3.09,0-5.52-1-7.32-2.99-1.61-1.82-2.42-4.2-2.42-7.16,0-3.41,1.08-6.08,3.22-8,1.77-1.58,3.92-2.37,6.44-2.37,2.49.02,4.58.88,6.28,2.57l-2.52,3.04c-1.2-1-2.4-1.52-3.6-1.56-1.8,0-3.15.77-4.04,2.31-.62,1.06-.92,2.34-.92,3.85,0,3.51,1.31,5.54,3.92,6.08.47.11.95.15,1.47.15.77,0,1.39-.17,1.86-.52v-3.19h-3.11v-3.86h7.32v9.24c-1.24,1.19-2.86,1.95-4.87,2.29-.56.09-1.12.13-1.68.13h-.02Z"/>
      <path class="st1" d="M388.87,41.15v-19.79h4.79l4.89,9.48,1.93,4.38h.13c-.43-3.51-.65-5.95-.65-7.32v-6.54h4.48v19.79h-4.79l-4.87-9.56-1.9-4.34h-.13c.04.38.1.99.18,1.82.28,2.49.41,4.33.41,5.5v6.57h-4.48Z"/>
    </g>
  </g>
  <g>
    <path class="st1" d="M199.43,160.57l-.93,1.33c-.99-.67-2.3-1.45-3.97-2.34l.89-1.16c2.01,1.03,3.35,1.75,4.01,2.17h0ZM196.38,171.68l-1.33-1.09c1.31-1.83,2.66-4.13,4.07-6.9l1.16,1.06c-1.17,2.39-2.47,4.71-3.91,6.95h0ZM200.52,154.74l-.93,1.29c-.76-.54-2.1-1.33-4.01-2.38l.89-1.14c1.73.84,3.08,1.59,4.05,2.24h0ZM214.16,160.08h-5.93v3.55h4.52v8.23h-1.52v-.8h-7.7v.91h-1.48v-8.34h4.66v-3.55h-6.23v-1.56h6.23v-3.51c-1.76.25-3.35.45-4.77.59-.07-.39-.22-.85-.42-1.37,4.76-.49,8.24-1.13,10.44-1.92l1.29,1.25c-1.43.49-3.11.9-5.02,1.23v3.74h5.93v1.56h0ZM211.22,169.56v-4.46h-7.7v4.46h7.7Z"/>
    <path class="st1" d="M230.89,157.23h4.58s0,.29-.02.82c-.17,6.35-.39,10.21-.65,11.59-.13.66-.3,1.13-.5,1.39-.28.47-.74.74-1.35.8h-.08c-.56.07-1.43.07-2.62,0-.05-.57-.22-1.08-.47-1.52.86.07,1.66.11,2.4.11.35-.02.61-.13.78-.34.38-.48.66-2.87.84-7.17.04-1.18.08-2.57.13-4.16h-3.1c-.18,4.27-.86,7.51-2.03,9.75-.77,1.45-1.78,2.64-3.02,3.57-.3-.41-.7-.79-1.2-1.14.22-.15.54-.41.95-.76-4.12.48-7.15.82-9.05,1.01l-.23-1.42c1.23-.1,2.79-.24,4.69-.42v-1.86h-4.07v-1.25h4.07v-1.31h-4.03v-6.42h4.03v-1.37h-4.66v-1.25h4.66v-1.43c-1.86.14-3.21.22-4.05.25-.08-.47-.22-.87-.4-1.2,4.08-.22,7.19-.56,9.33-1.06l.81,1.25c-.99.22-2.39.41-4.22.61v1.59h4.58v1.25h-4.58v1.37h4.2v6.42h-4.2v1.31h4.24v1.25h-4.24v1.71c.96-.08,2.4-.24,4.33-.47v.11c1.38-1.87,2.22-4.63,2.54-8.29.04-.56.08-1.16.11-1.79h-2.54v-1.52h2.57c.03-1.03.04-2.6.04-4.72h1.5c0,2.14-.02,3.71-.04,4.72h0ZM218.21,159.62v1.56h2.73v-1.56h-2.73ZM218.21,163.81h2.73v-1.59h-2.73v1.59ZM225.22,159.62h-2.82v1.56h2.82v-1.56ZM225.22,163.81v-1.59h-2.82v1.59h2.82Z"/>
    <path class="st1" d="M245.95,155.92h-3.02c-.41,2.52-1.34,4.39-2.79,5.61-.39.32-.82.61-1.29.87-.28-.49-.61-.89-1-1.18,1.69-.87,2.79-2.3,3.29-4.3.08-.32.15-.65.22-1h-3.1v-1.42h3.29c.05-.71.1-1.45.13-2.24h1.59c-.05,1-.12,1.75-.17,2.24h4.43s-.02.23-.04.65c-.18,3.09-.43,4.97-.74,5.61-.07.15-.14.28-.23.36-.3.32-.71.51-1.25.55-.5.04-1.22.04-2.13,0-.05-.54-.21-1-.44-1.42.74.05,1.38.08,1.9.08.3-.02.5-.08.64-.22.3-.37.54-1.78.72-4.22v.02ZM256.95,165.31h-7.26c1.41,1.6,3.33,2.94,5.78,4.01.72.3,1.42.55,2.11.76-.38.34-.74.78-1.06,1.33-2.57-.9-4.82-2.24-6.75-4.03-.44-.41-.83-.82-1.18-1.23v5.85h-1.65v-6c-1.52,1.85-3.51,3.41-5.97,4.69-.66.35-1.32.65-1.96.89-.24-.41-.59-.84-1.06-1.31,2.28-.76,4.37-1.91,6.25-3.46.6-.51,1.13-1,1.56-1.5h-7.37v-1.43h8.55v-2.07h1.65v2.07h8.36v1.43h0ZM256.63,153.98v7.31h-7.54v-7.31h7.54ZM255.05,159.87v-4.47h-4.43v4.47h4.43Z"/>
    <path class="st1" d="M279.54,160.51h-5.89v1.23h4.33v2.73h1.43v1.23h-1.43v1.67h1.48v1.2h-1.48v1.78c0,.69-.19,1.14-.57,1.35-.05.03-.11.04-.14.06-.41.14-1.36.22-2.87.22-.14-.49-.31-.92-.53-1.29h2.26c.24-.03.37-.14.38-.34v-1.78h-6.89v3.42h-1.48v-3.42h-1.69v-1.2h1.69v-1.67h-1.62v-1.06l-.08.13c-.31-.55-.95-1.47-1.92-2.76v9.96h-1.5v-10c-.87,2.69-1.78,4.71-2.73,6.06-.08-.22-.36-.67-.82-1.39,1.08-1.53,2.04-3.66,2.87-6.37.22-.67.39-1.33.53-1.95h-2.93v-1.48h3.08v-4.58h1.5v4.58h2.64v1.48h-2.64v1.84c.91.94,1.86,2,2.82,3.16l-.74,1.17h1.54v-2.73h4.1v-1.23h-5.72v-1.25h3.23v-1.42h-2.07v-1.16h2.07v-1.42h-2.57v-1.2h2.57v-1.84h1.5v1.84h3.46v-1.84h1.5v1.84h2.7v1.2h-2.7v1.42h2.28v1.16h-2.28v1.42h3.33v1.25h0ZM269.61,162.97v1.48h2.62v-1.48h-2.62ZM269.61,165.67v1.67h2.62v-1.67h-2.62ZM271.24,155.27v1.42h3.46v-1.42h-3.46ZM271.24,157.84v1.42h3.46v-1.42h-3.46ZM276.49,162.97h-2.85v1.48h2.85v-1.48ZM276.49,167.34v-1.67h-2.85v1.67h2.85Z"/>
    <path class="st1" d="M290.05,167.55l-1.12,1.18c-.6-.91-1.55-2.12-2.82-3.61-.61,2.87-1.84,5.07-3.69,6.61-.25-.41-.61-.8-1.08-1.18,2.2-1.65,3.41-4.42,3.63-8.32h-3.51v-1.45h3.57v-3.55h-3.1v-1.42h3.1v-3.35h1.5v3.35h3.04v1.42h-3.04v3.55h3.44v1.45h-3.51c-.02.34-.05.75-.11,1.25.82.82,2.04,2.18,3.69,4.07h0ZM297.93,170.17h1.37c.24,0,.39-.14.47-.42.08-.35.14-1.16.17-2.43.28.22.73.42,1.33.59-.08,1.8-.33,2.91-.74,3.33-.25.22-.61.34-1.06.34h-1.75c-.84,0-1.37-.21-1.59-.61-.14-.3-.22-.75-.22-1.37v-4.58h-1.92c-.27,2.3-.98,4.01-2.13,5.15-.77.74-1.78,1.34-3.04,1.78-.18-.42-.48-.82-.87-1.18-.02-.02-.03-.03-.04-.04,1.98-.64,3.31-1.73,3.97-3.29.27-.66.47-1.46.59-2.4h-1.73v-11.95h9.23v11.95h-2.57v4.58c0,.32.07.51.22.55.08.02.19.02.31.02h0ZM292.24,154.53v2.11h6.17v-2.11h-6.17ZM292.24,157.97v2.13h6.17v-2.13h-6.17ZM292.24,161.41v2.17h6.17v-2.17h-6.17Z"/>
    <path class="st1" d="M303.24,171.43l-.13-1.29c.22-.02,4.34-.21,12.39-.57l-.04,1.25c-6.55.34-10.63.54-12.22.61h0ZM314.2,153.62v2.09h1.35v1.09h-1.35v2.17h-4.22v1h4.54v1.01h-4.54v1h5.44v1.12h-12.16v-1.12h5.24v-1h-4.22v-1.01h4.22v-1h-4.05v-1.01h4.05v-1.16h-5.36v-1.09h5.36v-1.06h-3.97v-1.03h3.97v-1.37h1.48v1.37h4.22ZM304.57,164.03h9.6v4.75h-9.6v-4.75ZM305.88,164.92v1.03h2.79v-1.03h-2.79ZM305.88,166.83v1.03h2.79v-1.03h-2.79ZM309.97,154.65v1.06h2.83v-1.06h-2.83ZM312.81,157.97v-1.16h-2.83v1.16h2.83ZM312.83,165.95v-1.03h-2.76v1.03h2.76ZM312.83,167.87v-1.03h-2.76v1.03h2.76ZM317.81,154.82v11.88h-1.45v-11.88h1.45ZM320.43,152.65h1.52v17.31c0,.83-.22,1.37-.67,1.62-.07.04-.13.08-.19.11-.5.18-1.62.28-3.35.28-.05-.49-.22-1.01-.48-1.56,1.34.04,2.23.05,2.68.02.32-.07.49-.22.51-.47v-17.31h0Z"/>
    <path class="st1" d="M342.55,161.46v1.5h-7.11v7.11h-1.48v-7.11h-7.11v-1.5h7.11v-7.11h1.48v7.11h7.11Z"/>
    <path class="st1" d="M351.94,167.47l1.48.55c-1.41,1.31-3.23,2.5-5.47,3.57-.03,0-.04.02-.06.02-.47-.49-.88-.85-1.25-1.08,2.24-.9,4.01-1.92,5.3-3.06h0ZM366.07,166.85l-1.2.95c-.44-.47-.86-.85-1.26-1.16-2.76.08-4.9.14-6.44.17v5.13h-1.56v-5.08c-1.17.03-3.96.08-8.38.17l-.13-1.35c.83,0,2.5-.02,5.02-.04.07-.04.18-.12.31-.22.28-.17.48-.3.61-.38-1.07-.81-2.41-1.61-4.03-2.43l1.03-.91,1.39.7c.82-.62,1.61-1.32,2.38-2.09h-6.8v-1.29h8.57v-1.37h-6.25v-1.23h6.25v-1.39h-7.43v-1.23h7.43v-1.6h1.59v1.6h7.73v1.23h-7.73v1.39h6.48v1.23h-6.48v1.37h8.71v1.29h-9.96c-1.31,1.18-2.43,2.09-3.35,2.73.51.3,1.1.68,1.79,1.16,1.9-1.31,3.42-2.49,4.56-3.55l1.42.8c-1.78,1.48-3.73,2.86-5.83,4.13,1.38-.03,3.87-.07,7.47-.13-.77-.56-1.53-1.06-2.28-1.48l1.09-.84c2.03,1.11,3.65,2.23,4.88,3.35.14.13.27.25.38.36h0ZM359.29,168.31l1.2-.84c1.9.83,3.52,1.75,4.88,2.74.15.13.3.24.42.34l-1.25.95c-1.07-.93-2.64-1.91-4.71-2.93-.2-.08-.38-.17-.55-.25h0Z"/>
    <path class="st1" d="M377.4,162.97l-1.01,1.37c-.41-.65-1.24-1.79-2.49-3.44v11.04h-1.59v-10.38c-1.06,2.84-2.21,4.99-3.44,6.45-.17-.45-.47-.95-.89-1.5,1.26-1.38,2.38-3.35,3.35-5.93.28-.76.52-1.49.72-2.2h-3.33v-1.54h3.59v-4.63h1.59v4.63h2.96v1.54h-2.96v.55c.13.14,1.29,1.49,3.51,4.03h0ZM387.98,156.87v1.54h-2.24v11.36c0,.9-.25,1.48-.74,1.73-.08.04-.17.08-.25.11-.6.22-1.87.34-3.8.34-.1-.49-.3-1.04-.59-1.65.5.02,1.58.02,3.21.02.34-.07.52-.24.55-.53v-9.21c-1.51,2.73-3.27,5.03-5.3,6.9-.44.39-.86.74-1.26,1.06-.37-.52-.74-.95-1.14-1.29,1.85-1.26,3.59-3.12,5.25-5.59.74-1.08,1.37-2.17,1.88-3.25h-5.89v-1.54h6.45v-4.6h1.62v4.6h2.24Z"/>
    <path class="st1" d="M390.72,163.45v-2.51h1.16v2.54c0,2.96-.31,5.22-.95,6.78-.28-.32-.62-.57-1.01-.76.54-1.41.81-3.42.81-6.03h0ZM397.86,159.4h-3.06v12.56h-1.37v-12.56h-3.23v-1.43h7.67v1.43h0ZM397.44,153.64v1.43h-6.63v-1.43h6.63ZM397.48,160.93v7.68h-1.14v-7.68h1.14ZM406.32,170.45h1.62c.25,0,.41-.14.48-.42.08-.32.14-1.05.17-2.17.3.25.74.46,1.31.61-.08,1.66-.34,2.67-.78,3.04-.25.2-.59.3-1.01.3h-2.01c-.87,0-1.42-.21-1.62-.61-.14-.3-.22-.74-.22-1.35v-4.46h-1.75c-.27,2.21-.97,3.85-2.09,4.94-.72.69-1.64,1.24-2.76,1.65-.24-.47-.55-.88-.93-1.25,1.85-.62,3.08-1.66,3.69-3.12.25-.6.44-1.34.55-2.21h-1.71v-12.05h9.01v12.05h-2.56v4.46c0,.34.08.53.23.57.08.03.21.04.36.04v-.02ZM400.75,154.68v2.24h6v-2.24h-6ZM400.75,158.18v2.28h6v-2.28h-6ZM400.75,161.72v2.3h6v-2.3h-6Z"/>
    <path class="st1" d="M425.6,170.42h3.38c.44,0,.71-.13.82-.4.11-.27.2-.86.25-1.78.32.22.77.39,1.35.48-.08,1.39-.35,2.27-.8,2.62-.32.24-.81.36-1.45.36h-3.69c-1.21,0-1.97-.19-2.28-.57-.2-.28-.3-.71-.3-1.29v-1.62h-3.16c-.45,1.24-1.35,2.14-2.7,2.73-1.08.45-2.61.79-4.58,1.01-.14-.42-.38-.83-.72-1.25,2.77-.22,4.6-.67,5.49-1.39.38-.3.67-.66.87-1.09h-2.54v-7.05h12.08v7.05h-3.16v1.6c0,.3.11.48.34.53.17.04.44.06.82.06h-.03ZM413.97,160.15v1.96h-1.43v-3.08h2.07l-.3-5.89,1.23.3c.76-.3,1.62-.7,2.6-1.2l.89.72c-.67.41-1.75.86-3.23,1.35l.04.78h2.85v1h-2.81l.04.97h2.9v1h-2.85l.06,1h3.69c-.22-.22-.44-.41-.67-.57.59-.3,1.22-.67,1.88-1.14-.44-.3-.82-.54-1.16-.72l.7-.64c.31.17.73.41,1.25.74.42-.38.77-.75,1.03-1.12l1,.28c-.32.45-.74.92-1.25,1.42.45.31.82.63,1.09.95l-.72.7c-.37-.38-.74-.72-1.14-1.01-.74.54-1.28.91-1.65,1.12h7.11c.02-.13.04-.46.06-1h-2.76v-1h2.85l.04-.97h-2.76v-1h2.81l.04-.95h-3.13v-1.08h4.6c-.07,2.12-.18,4.11-.31,5.97h2.04v3.08h-1.48v-1.96h-15.25ZM417.05,162.17v1.03h8.99v-1.03h-8.99ZM417.05,164.14v1.08h8.99v-1.08h-8.99ZM417.05,166.14v1.12h8.99v-1.12h-8.99ZM423.27,154.79l-.72.7c-.22-.25-.56-.55-1.01-.89-.74.54-1.28.9-1.65,1.09-.25-.32-.52-.57-.8-.74.45-.22,1-.53,1.65-.95-.35-.24-.7-.45-1.03-.64l.7-.64c.25.14.63.36,1.12.65.39-.35.71-.7.95-1.03l1,.28c-.37.52-.75.96-1.16,1.31.39.28.72.56.97.84h-.02Z"/>
    <path class="st1" d="M437.59,152.36l1.48.42c-.52,1.52-1.08,2.92-1.69,4.2v14.99h-1.52v-12.11c-.72,1.18-1.4,2.15-2.04,2.91-.24-.62-.51-1.16-.82-1.62,1.69-1.95,3.08-4.49,4.2-7.6.15-.41.29-.8.4-1.18h0ZM450.19,166.22l1.01.57c-.77,1.09-1.95,2.05-3.51,2.87,1.66.5,3.56.85,5.7,1.03-.3.32-.59.77-.89,1.35-2.52-.3-4.72-.83-6.59-1.6-1.88.7-4.12,1.23-6.71,1.56-.14-.31-.39-.71-.76-1.2,2.18-.22,4.13-.61,5.85-1.17-.87-.49-1.62-1.06-2.26-1.69-.96.54-1.8.95-2.54,1.25-.28-.41-.6-.74-.97-1,2.1-.72,3.81-1.69,5.13-2.93-.44-.13-.68-.45-.74-.95-.02-.13-.02-.25-.02-.38v-1.37h1.33v1.37c0,.24.1.38.3.4.13.03.31.04.55.04h2.68c.31,0,.5-.1.57-.3.04-.14.08-.36.11-.65.3.17.66.3,1.09.38-.08.79-.31,1.26-.7,1.43-.22.1-.53.14-.91.14h-2.57c-.27.28-.58.58-.95.91h5.49l.3-.08h0ZM440.96,155.57h3.77c.03-.13.07-.31.13-.57.05-.27.1-.46.13-.57h-5.53v-1.23h13.34v1.23h-6.1c-.18.48-.34.86-.47,1.14h4.92v5.41h2.01v2.9h-1.45v-1.86h-5.47c.6.39,1.08.77,1.42,1.14l-.97.7c-.52-.6-1.23-1.16-2.11-1.65-.04-.03-.08-.04-.11-.06l.17-.13h-4.37v1.86h-1.42v-2.9h2.11v-5.41h0ZM440.35,165.65l-1-.82c.82-.45,1.58-1.18,2.28-2.2l1.06.59c-.8,1.14-1.59,1.95-2.34,2.43h0ZM449.64,157.4v-.91h-7.2v.91h7.2ZM449.64,159.17v-.93h-7.2v.93h7.2ZM442.44,160.96h7.2v-.93h-7.2v.93ZM448.88,167.34h-5.64c.66.6,1.58,1.17,2.74,1.71,1.23-.52,2.19-1.09,2.9-1.71ZM449.17,163.14l1.01-.59c1.03.77,1.84,1.58,2.43,2.4.03.04.05.07.06.08l-1.08.64c-.49-.79-1.26-1.6-2.28-2.43-.05-.04-.11-.08-.14-.11h0Z"/>
    <path class="st1" d="M461.04,152.56l1.52.53c-.67,1.58-1.47,3.08-2.38,4.49v14.34h-1.62v-12.08c-.99,1.23-1.92,2.24-2.81,3.06-.27-.57-.59-1.12-.97-1.62,2.03-1.69,3.78-3.91,5.28-6.65.37-.69.7-1.38,1-2.07h-.02ZM467.95,169.94h3.99c.51,0,.83-.22,1-.67.15-.42.27-1.33.34-2.7.42.32.93.56,1.52.72-.13,1.83-.43,3.01-.91,3.55-.39.42-1,.64-1.84.64h-4.22c-1.23,0-2.02-.27-2.37-.8-.3-.44-.44-1.15-.44-2.13v-5.05c-1.31.76-1.98,1.15-2.03,1.17-.37-.62-.67-1.07-.91-1.35,1.17-.6,2.14-1.15,2.93-1.62v-9.16h1.62v8.15c2.55-1.7,4.49-3.3,5.83-4.79l1.5.8c-1.98,1.98-4.43,3.93-7.32,5.83v6.08c0,.67.13,1.08.38,1.23.2.1.51.15.93.15v-.03Z"/>
  </g>
</svg>