<?xml version="1.0" encoding="UTF-8"?>
<svg id="_圖層_2" xmlns="http://www.w3.org/2000/svg" version="1.1" viewBox="0 0 718.4 169.45">
  <!-- Generator: Adobe Illustrator 30.4.0, SVG Export Plug-In . SVG Version: 2.1.4 Build 226)  -->
  <defs>
    <style>
      .st0 {
        fill: #f8f8f8;
      }
    </style>
  </defs>
  <g>
    <path class="st0" d="M369.91,62.85l-.27-3.24,1.42-.12v-17.71h-1.11v-3.07h12.33v3.07h-1.48v16.74l1.42-.15c-.09,1.38-.15,2.46-.17,3.24-.42.04-.84.09-1.25.15v4.8h-3.61v-4.45c-3.19.31-5.62.56-7.28.74h0ZM374.63,45.38h2.56v-3.59h-2.56v3.59ZM374.63,51.92h2.56v-3.59h-2.56v3.59ZM377.19,58.9v-4.07h-2.56v4.3l2.56-.24h0ZM385.64,43.17h1.69c.81-1.02,1.68-2.17,2.59-3.45l2.97,1.74c-2.54,2.91-4.83,5.48-6.87,7.72.95-.08,1.91-.16,2.9-.24-.23-.55-.45-1.11-.67-1.68l2.52-.83c.63,1.32,1.37,3.01,2.22,5.07l-2.8.89-.37-1.06c-2.88.16-5.12.33-6.74.53l-1.28-2.8c1.08-.79,2.24-1.9,3.47-3.33-1.1.04-1.94.11-2.52.21l-1.31-2.62c1.05-.75,2.59-2.8,4.61-6.16l3.16,1.33c-.85,1.2-2.04,2.76-3.57,4.68h0ZM382.85,53.45h3.23v3.65h1.38c.16-1.28.25-2.81.27-4.6h3.84c0,4.12-.32,7.08-.95,8.87-.61,1.85-1.94,3.64-4.01,5.39-.76-.71-1.92-1.52-3.47-2.42,2.04-1.28,3.3-2.79,3.78-4.54h-4.08v-6.37h0v.02ZM391.68,43.37c1.3-.96,2.83-3.04,4.58-6.22l3.07,1.42c-1.44,1.93-2.68,3.52-3.74,4.77h2.12c.67-.91,1.42-1.95,2.22-3.12l2.9,1.74c-2.07,2.65-4.15,5.08-6.27,7.28.63-.04,1.55-.1,2.76-.18l-.81-1.77,2.66-.92c.65,1.38,1.44,3.07,2.36,5.1l-2.86,1c-.11-.33-.24-.67-.37-1-3.03.16-5.19.3-6.47.41l-1.31-3.01c.97-.67,2.02-1.65,3.16-2.95-.99.06-1.77.13-2.36.21l-1.65-2.77h0ZM401.99,53.45v7.49h-3.23v-1.12h-1.65v6.75h-3.91v-14.06h3.91v4.6h1.65v-3.65h3.23Z"/>
    <path class="st0" d="M405.56,58.02l3.23.38c-.25,2.22-.62,4.77-1.11,7.66l-3.71-.56c.67-2.52,1.2-5.01,1.58-7.49h0ZM408.89,45.61c.95,0,1.77-.02,2.49-.06.76-1.24,1.47-2.46,2.12-3.65l3.94,1.53c-1.69,2.73-4.28,6.14-7.78,10.22,1.48-.1,2.74-.2,3.78-.3-.29-.92-.61-1.85-.95-2.77l2.66-.83c.81,1.87,1.68,4.12,2.59,6.78l-3.03.83c-.11-.33-.23-.68-.34-1.03-4.53.3-7.43.65-8.69,1.06l-1.35-3.24c.74-.35,1.48-.98,2.22-1.89.92-1.18,1.79-2.34,2.63-3.48-1.77.06-3.09.23-3.94.5l-1.14-3.39c.42-.18.95-.71,1.55-1.59,1.46-2.22,2.68-4.54,3.67-6.96l4.25,1.12c-1.53,2.61-3.09,4.99-4.68,7.13h0v.02ZM413.54,64.97l-3.44.32c-.11-1.95-.31-4.24-.57-6.9l3-.27c.4,2.12.74,4.4,1.01,6.84h0ZM418.73,66.53v-2.51l-3.44.92c-.52-2.34-1.13-4.6-1.85-6.78l3-.74c.81,2.06,1.57,4.18,2.29,6.37v-9.11h16.78v11.84h-4.25v-1.3h-8.29v1.3h-4.25.01ZM436.21,40.37v3.33c-1.17,2.2-2.86,4.1-5.09,5.72,1.91.65,4.1,1.12,6.57,1.42-.34,1.22-.66,2.51-.98,3.86-3.71-.69-6.88-1.68-9.53-2.98-2.67,1.26-5.83,2.25-9.46,2.98-.58-1.48-1.12-2.64-1.62-3.51,2.78-.47,5.21-1.08,7.28-1.83-.99-.75-1.85-1.57-2.59-2.48-.56.59-1.14,1.12-1.75,1.59-1.14-1.22-2.02-2.1-2.63-2.65,2.72-2.5,4.85-5.31,6.4-8.46l4.45.47c-.47.89-.96,1.73-1.45,2.54h10.41-.01ZM431.26,58.37h-8.29v3.18h8.29v-3.18ZM423.31,44.02c.97,1.4,2.26,2.58,3.87,3.57,1.79-1.08,3.09-2.34,3.87-3.77h-7.58l-.17.21h.01Z"/>
    <path class="st0" d="M439.38,58.23l-.84-4.18c2.08-.16,4.13-.33,6.16-.53v-3.77h-6.13v-3.77h6.13v-2.9l-4.75.31c-.09-.91-.29-2.16-.61-3.77,5.03-.24,9.86-.65,14.48-1.24l1.04,3.68c-1.63.22-3.36.41-5.19.59v3.33h6.54l-.44-8.37h4.78c.07,2.86.18,5.65.32,8.37h11.07v3.77h-10.86c.16,2.25.4,4.15.72,5.7,1.98-1.6,3.75-3.39,5.32-5.38l3.61,2.56c-2.21,2.49-4.73,4.75-7.56,6.81.9,1.88,1.91,2.81,3.03,2.81.15,0,.31-.03.48-.1.18-.07.41-.6.7-1.6s.55-2.21.79-3.64c1.57.91,2.94,1.57,4.11,2.01-.64,2.97-1.36,4.98-2.17,6.03s-1.94,1.57-3.38,1.57c-3.23,0-5.71-1.5-7.41-4.51-1.9,1.14-3.92,2.21-6.06,3.21-.7-1.1-1.62-2.25-2.76-3.45,2.65-.97,5.09-2.14,7.32-3.51-.63-2.2-1.08-5.04-1.35-8.52h-6.79v3.26c1.93-.22,3.84-.45,5.73-.69-.07.87-.1,1.65-.1,2.37,0,.57.02,1.09.07,1.57l-5.69.62v5.86c0,1.08-.28,1.91-.83,2.48s-1.56.91-3.02,1-3.16.14-5.12.14c-.4-1.73-.83-3.03-1.28-3.89,1.09.08,2.2.12,3.33.12h.67c.4.01.71-.11.93-.36s.32-.64.32-1.17v-3.57l-5.32.74h0ZM464.51,38.31c2.6,1.85,4.57,3.34,5.9,4.48-1.3,1.04-2.36,1.93-3.16,2.65-1.64-1.61-3.5-3.17-5.59-4.68l2.86-2.45h0Z"/>
  </g>
  <g>
    <path class="st0" d="M51.91,100.81l-1.4,1.61c4.22,5.21,10.04,9.21,17.46,11.98-1.33,2.18-2.48,4.09-3.44,5.74-7.51-3.85-13.34-8.33-17.5-13.43-3.91,5.13-9.83,9.84-17.76,14.15-.79-1.33-1.98-3.19-3.57-5.57,8.33-3.77,14.52-8.59,18.56-14.49h7.65ZM27.14,135.27h6.03v-16.31h6.2v16.31h6.12v-21.37h6.2v8.11h10.79v5.48h-10.79v7.77h14.87v5.48H27.14v-5.48h0Z"/>
    <path class="st0" d="M69.54,141.47l-.34-3.91c9.37,0,18.8-.13,28.29-.38-.37,1.53-.6,2.75-.68,3.65-11.36.17-20.45.38-27.27.64h0ZM70.01,120.52h10.66v-1.49h-9.47v-2.89h9.47v-1.45h-9.26v-2.89h9.26v-1.61h-11.17v-2.97h11.17v-1.61h-9.18v-2.89h9.18v-2.21h5.01v2.21h9.18v4.5h2.33v2.97h-2.33v4.5h-9.18v1.45h9.22v2.89h-9.22v1.49h11.09v3.02h-26.77v-3.02h.01ZM70.9,125.03h24.72v11.21h-24.72v-11.21h0ZM75.49,129.4h5.69v-1.49h-5.69v1.49ZM75.49,133.36h5.69v-1.49h-5.69v1.49ZM91.04,127.92h-5.69v1.49h5.69v-1.49ZM91.04,133.36v-1.49h-5.69v1.49h5.69ZM90.7,105.61h-5.01v1.61h5.01v-1.61ZM90.7,111.82v-1.61h-5.01v1.61h5.01ZM98.01,103.87h4.67v28.42h-4.67v-28.42h0ZM104.76,100.51h5.1v35.56c0,3.94-1.86,5.96-5.57,6.08-1.64.05-3.23.1-4.76.13-.23-1.78-.62-3.65-1.19-5.61,1.02.06,2.31.11,3.86.17,1.7.03,2.55-.89,2.55-2.76v-33.56h.01Z"/>
    <path class="st0" d="M124.73,136.81h-2.37l-3.38-5.7c-.08-.13-.19-.39-.34-.78h-.05c-.01.05-.13.32-.35.79l-3.48,5.69h-2.38l5.03-7.61-4.63-7.54h2.39l2.99,5.24c.18.31.35.67.53,1.08h.04c.16-.35.35-.73.58-1.13l3.13-5.19h2.24l-4.73,7.51,4.8,7.64h-.02Z"/>
    <path class="st0" d="M137.01,111.52l4.97,3.19c-1.24,1.83-2.61,3.62-4.08,5.37v22.03h-5.9v-15.66c-1.3,1.26-2.66,2.5-4.08,3.72-.57-1.58-1.35-3.55-2.33-5.9,4.36-3.77,8.17-8.02,11.43-12.74h0ZM136.33,100.47c1.81,1.24,3.51,2.46,5.1,3.65-2.98,3.45-6.92,7.15-11.85,11.09-1.05-1.58-2.31-3.26-3.78-5.01,4.76-3.62,8.27-6.87,10.54-9.73h0ZM142.57,115.64h25.36v5.52h-6.63v13.68c0,2.27-.53,4-1.58,5.19-1.06,1.19-2.55,1.86-4.48,1.98-1.93.13-4.8.21-8.59.26-.39-1.87-.92-3.85-1.57-5.95,2.95.2,5.27.3,6.97.3,2.07,0,3.1-1.09,3.1-3.27v-12.19h-12.58v-5.52h0ZM143.97,103.49h22.09v5.52h-22.09v-5.52Z"/>
    <path class="st0" d="M185.48,118.61v4.33h-5.31v12.36c1.98-.2,4.08-.41,6.29-.64l-.6,4.5c-3.31.26-8.67.89-16.06,1.91l-.64-4.84c1.87-.14,3.86-.3,5.99-.47v-12.83h-5.52v-4.33h5.52v-3.1h-2.72v-1.78c-.71.85-1.45,1.71-2.21,2.59-.37-2.01-.77-4.05-1.19-6.12,2.55-2.75,4.87-5.93,6.97-9.56h6.03l-.98,1.4c2.24,2.75,4.17,5.23,5.78,7.43l-3.31,3.91c-.2-.34-.44-.74-.72-1.19v3.31h-2.64v3.1h5.31v.02ZM172.82,124.9c.74,3.57,1.29,6.46,1.66,8.67l-3.31.77c-.42-2.75-.93-5.67-1.53-8.75l3.19-.68h-.01ZM178.13,105.87c-1.16,1.76-2.44,3.58-3.83,5.48h7.99c-1.3-1.87-2.69-3.7-4.17-5.48h0ZM182.21,124.9l3.31.64c-.57,2.75-1.14,5.48-1.7,8.2l-3.06-.55c.65-3.14,1.13-5.9,1.45-8.28h0ZM189,101.41c2.21,2.61,4.06,4.92,5.57,6.92l-4.08,3.06c-1.9-2.75-3.65-5.11-5.27-7.09l3.78-2.89h0ZM192.49,142.27h-5.61v-30.29h8.58v-11.39h5.61v11.39h8.41v24.21c0,3.29-1.42,5.11-4.25,5.48-1.67.17-3.75.27-6.24.3-.23-1.3-.6-3.19-1.11-5.65,1.53.11,2.86.16,3.99.13,1.33,0,2-.71,2-2.12v-1.27h-11.39v9.22h0ZM203.87,117.17h-11.39v3.23h11.39v-3.23ZM192.49,128.34h11.39v-3.23h-11.39v3.23ZM207.06,101.49l4.29,3.1c-2.44,3.03-4.45,5.39-6.03,7.09l-3.7-3.14c1.92-2.1,3.74-4.45,5.44-7.05h0Z"/>
    <path class="st0" d="M224.65,136.81h-2.37l-3.38-5.7c-.08-.13-.19-.39-.34-.78h-.05c0,.05-.13.32-.35.79l-3.48,5.69h-2.38l5.03-7.61-4.63-7.54h2.39l2.99,5.24c.18.31.35.67.53,1.08h.04c.16-.35.35-.73.58-1.13l3.13-5.19h2.24l-4.73,7.51,4.8,7.64h-.02Z"/>
    <path class="st0" d="M234.38,142.49h-4.93v-18.35c-.74,1.39-1.49,2.7-2.25,3.95-.34-2.77-.88-5.42-1.61-7.95,2.64-5.13,5.1-11.7,7.39-19.71l5.23,1.15c-1.22,4.11-2.49,7.93-3.83,11.47v29.44h0ZM263.81,130.67v2.97c-1.58,1.27-3.4,2.42-5.44,3.44,2.83.42,5.96.67,9.39.72-.39.71-1.23,2.28-2.51,4.71-4.84-.48-9.18-1.45-13-2.89-4.28,1.42-9.21,2.45-14.78,3.1-.26-.65-1.06-2.15-2.42-4.5,4.45-.23,8.33-.62,11.64-1.19-1.08-.62-2.1-1.29-3.06-2-1.02.82-2.1,1.61-3.23,2.38-.85-1.08-1.84-2.18-2.97-3.31,2.97-1.36,5.54-3.05,7.69-5.05h1.87c-1.22-.42-1.83-1.4-1.83-2.93v-1.36c-1.24,1.76-2.69,3.64-4.33,5.65l-3.44-2.68c1.08-1.14,2.07-2.25,2.97-3.36h-3.52v-5.61h3.31v-11.64h7.9c.14-.57.27-1.11.38-1.61h-9.77v-3.48h28.42v3.48h-13.04c-.17.51-.37,1.05-.6,1.61h11.09v11.64h2.55v5.61h-2.55c.77.82,1.76,1.87,2.97,3.14l-3.61,2.8c-1.02-1.42-2.27-3-3.74-4.76-.11.71-.3,1.37-.55,2-.39,1.16-1.67,1.74-3.83,1.74h-6.33c-.37.48-.77.93-1.19,1.36h15.56v.02ZM241.89,122.52l3.27,1.91v-2.04h4.33v2.3c0,.88.52,1.32,1.57,1.32h1.36c-.65-.96-1.57-2.14-2.76-3.52l1.36-.89h-10.24v2.33c.37-.48.74-.95,1.11-1.4h0ZM259.65,109.69h-14.57v1.45h14.57v-1.45ZM245.08,114.96h14.57v-1.45h-14.57v1.45h0ZM245.08,118.78h14.57v-1.45h-14.57v1.45h0ZM252.34,135.73c1.84-.57,3.39-1.23,4.63-2h-9.47c1.42.79,3.03,1.46,4.84,2ZM256.38,122.39c.37.23,1.67.75,3.91,1.57l2.33-1.61c.05.05.23.24.51.55v-1.32h-9.73c.82.88,1.54,1.66,2.17,2.33l-2.93,2.08h1.57c1.13,0,1.77-.38,1.91-1.15.14-.99.23-1.81.26-2.46h0Z"/>
    <path class="st0" d="M279.49,100.81l5.9,1.95c-1.33,3.29-2.77,6.39-4.33,9.3v30.16h-6.12v-20.31c-1.37,1.89-2.8,3.67-4.29,5.36-.48-2.66-1.02-5.14-1.61-7.43,4.42-5.58,7.9-11.92,10.45-19.03h0ZM305.54,106.59l5.31,4.08c-4.22,4.7-9.05,9.11-14.49,13.23v8.69c0,2.12.92,3.19,2.76,3.19h1.83c1.4,0,2.32-.47,2.77-1.4.44-.93.81-3.74,1.1-8.41,2.32.74,4.48,1.36,6.46,1.87-.51,4.09-.95,7-1.33,8.73s-1.28,3.04-2.72,3.94c-1.44.9-3.42,1.35-5.94,1.35h-3.65c-5.1,0-7.65-2.54-7.65-7.61v-5.82c-1.64,1.09-3.33,2.15-5.05,3.19-.91-1.5-2.15-3.36-3.74-5.57,3.07-1.64,6-3.44,8.8-5.39v-19.67h6.37v14.76c3.3-2.8,6.36-5.85,9.18-9.16h-.01Z"/>
  </g>
  <g>
    <path class="st0" d="M384.89,105.33v-9.31c0-.86.05-1.94.13-3.24h-.08c-.2.99-.36,1.64-.48,1.97l-3.79,10.59h-2.61l-3.83-10.49c-.09-.25-.25-.94-.48-2.07h-.09c.08,1.29.13,2.58.13,3.87v8.68h-2.95v-15.36h4.75l3.31,9.27c.27.76.46,1.49.56,2.16h.07c.2-.84.42-1.57.63-2.18l3.32-9.25h4.63v15.36h-3.23,0Z"/>
    <path class="st0" d="M405.03,105.33h-3.57l-1.15-3.52h-5.58l-1.13,3.52h-3.55l5.62-15.36h3.85l5.51,15.36h0ZM399.54,99.28l-1.74-5.32c-.11-.34-.19-.78-.24-1.34h-.09c-.04.45-.13.88-.27,1.3l-1.76,5.36h4.1,0Z"/>
    <path class="st0" d="M410.23,89.98v15.36h-3.27v-15.36h3.27Z"/>
    <path class="st0" d="M422.79,105.33h-9.01v-15.36h3.27v12.68h5.74v2.68h0Z"/>
  </g>
  <g>
    <path class="st0" d="M467.43,95.03c.5-.27,1.16-.5,1.99-.67s1.53-.25,2.12-.25c3.06,0,4.6,1.53,4.6,4.61v6.62h-3.04v-1.59h-.04c-.74,1.24-1.84,1.86-3.28,1.86-1.04,0-1.87-.29-2.49-.89-.63-.59-.93-1.4-.93-2.42,0-2.1,1.25-3.32,3.76-3.66l3.01-.4c0-1.27-.67-1.91-1.99-1.91s-2.54.4-3.7,1.19v-2.47h0v-.02ZM471.05,100.37c-1.16.15-1.74.67-1.74,1.57,0,.41.14.74.42.99s.66.38,1.14.38c.65,0,1.2-.23,1.61-.69.42-.46.63-1.04.63-1.72v-.78l-2.07.27h0v-.02Z"/>
    <path class="st0" d="M489.13,105.33h-3.18v-1.67h-.05c-.82,1.29-1.94,1.94-3.36,1.94-2.55,0-3.83-1.54-3.83-4.62v-6.61h3.2v6.32c0,1.64.64,2.46,1.92,2.46.64,0,1.16-.22,1.53-.67.39-.45.57-1.06.57-1.82v-6.28h3.18v10.96h.02Z"/>
    <path class="st0" d="M502.63,104.12c0,2.04-.58,3.61-1.74,4.7-1.16,1.1-2.83,1.65-5.01,1.65-1.48,0-2.66-.21-3.53-.63v-2.74c1.14.66,2.29.99,3.44.99s2.04-.31,2.68-.91c.65-.61.97-1.46.97-2.54v-.91h-.05c-.77,1.25-1.92,1.87-3.45,1.87-1.38,0-2.49-.49-3.32-1.48s-1.24-2.31-1.24-3.95c0-1.84.46-3.32,1.37-4.42s2.12-1.65,3.61-1.65c1.35,0,2.36.52,3.03,1.57h.05v-1.31h3.19v9.75h0ZM499.47,99.15c0-.72-.22-1.34-.66-1.84s-.99-.75-1.66-.75c-.78,0-1.4.31-1.85.91-.45.61-.68,1.47-.68,2.57,0,.96.22,1.71.65,2.27s1.01.83,1.74.83,1.32-.28,1.78-.84.69-1.29.69-2.19v-.96h0Z"/>
    <path class="st0" d="M504.92,101.2c0-.89.25-1.69.77-2.38.52-.69,1.26-1.2,2.24-1.53-.78-.39-1.38-.89-1.81-1.49s-.64-1.27-.64-2.01.21-1.46.63-2.08c.42-.63,1.01-1.11,1.76-1.47.75-.35,1.59-.53,2.53-.53s1.79.18,2.55.52,1.35.84,1.78,1.46c.42.63.63,1.31.63,2.06,0,.71-.24,1.38-.7,1.99s-1.09,1.1-1.88,1.46c.96.33,1.7.84,2.24,1.53s.8,1.5.8,2.42c0,1.3-.5,2.36-1.52,3.18-1.01.82-2.33,1.23-3.93,1.23s-2.93-.41-3.93-1.23c-1.01-.82-1.52-1.87-1.52-3.15h0v.02ZM508.13,100.91c0,.71.2,1.29.61,1.72s.96.65,1.65.65,1.2-.22,1.63-.65c.43-.43.63-1,.63-1.72,0-.67-.22-1.22-.65-1.67s-.97-.67-1.61-.67-1.21.22-1.63.67c-.42.44-.63,1-.63,1.67h0ZM508.6,94.13c0,.56.18,1.05.52,1.44s.78.6,1.31.6.94-.2,1.3-.59.54-.88.54-1.46-.18-1.07-.52-1.48-.78-.61-1.31-.61-.98.2-1.33.61c-.34.4-.51.89-.51,1.48h0Z"/>
    <path class="st0" d="M525.2,89.64v15.69h-3.22v-12.08c-.4.35-.94.65-1.63.93s-1.32.44-1.89.51v-2.74c1.81-.53,3.38-1.29,4.7-2.3h2.04Z"/>
    <path class="st0" d="M533.87,102.67h6.51v2.66h-10.21v-1.14c0-.8.14-1.53.44-2.19.29-.66.7-1.28,1.21-1.85s1.31-1.24,2.4-2.01c.99-.74,1.69-1.4,2.08-1.97.4-.57.59-1.18.59-1.82,0-1.38-.75-2.07-2.26-2.07-1.32,0-2.59.53-3.79,1.59v-2.85c1.34-.87,2.85-1.3,4.52-1.3,1.53,0,2.74.39,3.64,1.18.89.78,1.34,1.86,1.34,3.23,0,.76-.13,1.46-.39,2.08s-.63,1.2-1.12,1.74-1.27,1.2-2.35,1.95c-1.04.74-1.74,1.31-2.09,1.72-.36.4-.54.75-.54,1.05h.02Z"/>
    <path class="st0" d="M543.35,102.35c.82.53,1.78.79,2.89.79,2.48,0,3.74-1.61,3.79-4.84l-.06-.02c-.67,1.04-1.72,1.55-3.12,1.55-1.27,0-2.33-.44-3.15-1.35-.82-.89-1.23-2.02-1.23-3.38,0-1.6.5-2.9,1.49-3.89.99-1,2.28-1.5,3.87-1.5s2.96.63,3.91,1.89,1.42,3.02,1.42,5.28c0,2.68-.57,4.81-1.71,6.36-1.14,1.56-2.78,2.34-4.92,2.34-1.21,0-2.27-.2-3.18-.59v-2.66h0v.02ZM545.61,94.82c0,.81.2,1.45.59,1.91s.93.69,1.61.69c.61,0,1.11-.22,1.5-.67.39-.44.59-.99.59-1.65,0-.78-.2-1.48-.59-2.06s-.92-.88-1.58-.88-1.16.25-1.54.76-.58,1.14-.58,1.88h0v.02Z"/>
    <path class="st0" d="M564.86,92.84c-.78-.44-1.63-.67-2.55-.67-1.18,0-2.13.46-2.84,1.39s-1.06,2.13-1.06,3.61h.06c.73-1.12,1.82-1.69,3.26-1.69,1.29,0,2.31.44,3.07,1.33s1.14,2.03,1.14,3.44c0,1.55-.49,2.82-1.48,3.83s-2.25,1.51-3.78,1.51c-1.76,0-3.1-.63-4.04-1.9s-1.4-3-1.4-5.21c0-2.6.61-4.71,1.82-6.33s2.9-2.44,5.06-2.44c1.16,0,2.08.14,2.74.42v2.7h0ZM558.51,100.29c0,.79.2,1.47.59,2.02s.92.84,1.57.84,1.17-.25,1.55-.76.56-1.14.56-1.91c0-1.72-.71-2.59-2.13-2.59-.64,0-1.16.23-1.55.69s-.59,1.03-.59,1.72h0Z"/>
    <path class="st0" d="M581.36,94.03c-.33,3.1-.48,5.08-.48,5.96,0,1.05.29,1.57.87,1.57s1.09-.39,1.48-1.16c.39-.77.57-1.76.57-2.97,0-1.7-.54-3.1-1.63-4.19s-2.6-1.63-4.53-1.63c-2.05,0-3.75.72-5.11,2.16s-2.04,3.18-2.04,5.24.61,3.61,1.84,4.77,2.89,1.74,4.98,1.74c1.62,0,3.09-.31,4.42-.92v1.96c-1.21.52-2.78.78-4.71.78-2.64,0-4.77-.76-6.41-2.28s-2.46-3.55-2.46-6.09.88-4.79,2.62-6.54c1.75-1.76,4-2.64,6.75-2.64,2.57,0,4.64.69,6.23,2.08,1.58,1.38,2.38,3.2,2.38,5.44,0,1.84-.48,3.31-1.44,4.43-.96,1.11-2.14,1.67-3.55,1.67-.69,0-1.26-.19-1.71-.57s-.69-.89-.72-1.54h-.07c-.5,1.41-1.42,2.11-2.76,2.11-.99,0-1.78-.36-2.38-1.08-.59-.72-.89-1.7-.89-2.97,0-1.63.42-2.96,1.25-3.99s1.85-1.54,3.04-1.54c1.08,0,1.76.42,2.02,1.28h.05c.01-.17.03-.35.05-.52s.04-.37.05-.56h2.29ZM574.97,99.35c0,.69.14,1.24.41,1.64.27.4.65.6,1.12.6.69,0,1.24-.37,1.64-1.12.4-.74.6-1.73.6-2.95,0-.6-.14-1.06-.41-1.4s-.64-.5-1.1-.5c-.65,0-1.2.37-1.62,1.1-.42.73-.64,1.61-.64,2.63h0Z"/>
    <path class="st0" d="M599.62,104.12c0,2.04-.58,3.61-1.74,4.7-1.16,1.1-2.83,1.65-5.01,1.65-1.48,0-2.66-.21-3.53-.63v-2.74c1.14.66,2.28.99,3.44.99s2.04-.31,2.68-.91c.65-.61.97-1.46.97-2.54v-.91h-.05c-.77,1.25-1.92,1.87-3.45,1.87-1.38,0-2.49-.49-3.31-1.48-.83-.99-1.25-2.31-1.25-3.95,0-1.84.46-3.32,1.37-4.42s2.12-1.65,3.61-1.65c1.35,0,2.36.52,3.03,1.57h.05v-1.31h3.19v9.75h0ZM596.45,99.15c0-.72-.22-1.34-.66-1.84s-.99-.75-1.66-.75c-.78,0-1.4.31-1.85.91-.45.61-.68,1.47-.68,2.57,0,.96.22,1.71.65,2.27s1.01.83,1.74.83,1.32-.28,1.78-.84.69-1.29.69-2.19v-.96h-.01Z"/>
    <path class="st0" d="M619.71,105.33h-3.19v-6.26c0-1.68-.61-2.51-1.84-2.51-.57,0-1.04.25-1.42.76s-.56,1.13-.56,1.86v6.15h-3.19v-6.34c0-1.63-.61-2.44-1.82-2.44-.6,0-1.08.24-1.44.72s-.54,1.13-.54,1.93v6.11h-3.2v-10.96h3.2v1.72h.04c.39-.63.89-1.12,1.53-1.46s1.3-.52,2.01-.52c1.54,0,2.59.69,3.16,2.07.84-1.38,2.08-2.07,3.68-2.07,2.38,0,3.58,1.48,3.58,4.42v6.81h0Z"/>
    <path class="st0" d="M622.71,95.03c.5-.27,1.16-.5,1.99-.67s1.54-.25,2.13-.25c3.06,0,4.6,1.53,4.6,4.61v6.62h-3.04v-1.59h-.04c-.74,1.24-1.84,1.86-3.28,1.86-1.04,0-1.87-.29-2.49-.89-.63-.59-.93-1.4-.93-2.42,0-2.1,1.25-3.32,3.76-3.66l3.01-.4c0-1.27-.67-1.91-1.99-1.91s-2.54.4-3.7,1.19v-2.47h0l-.02-.02ZM626.33,100.37c-1.16.15-1.74.67-1.74,1.57,0,.41.14.74.42.99s.66.38,1.14.38c.65,0,1.2-.23,1.61-.69.42-.46.63-1.04.63-1.72v-.78l-2.07.27h0v-.02Z"/>
    <path class="st0" d="M633.88,90.83c0-.49.18-.89.52-1.2s.79-.46,1.33-.46,1.01.16,1.35.47.52.71.52,1.18-.18.88-.52,1.2c-.35.32-.8.48-1.34.48s-.98-.16-1.33-.48c-.35-.33-.52-.72-.52-1.2h0ZM634.11,105.33v-10.96h3.19v10.96h-3.19Z"/>
    <path class="st0" d="M640.12,105.33v-16.22h3.19v16.22h-3.19Z"/>
    <path class="st0" d="M645.71,103.89c0-.5.19-.9.56-1.22.38-.32.82-.48,1.35-.48s.97.16,1.34.48.54.72.54,1.21-.18.92-.54,1.23-.82.47-1.38.47c-.52,0-.95-.16-1.32-.48s-.55-.73-.55-1.22h0Z"/>
    <path class="st0" d="M660.19,104.93c-.76.45-1.85.67-3.27.67-1.67,0-3.02-.51-4.06-1.53s-1.55-2.34-1.55-3.95c0-1.86.56-3.33,1.67-4.4s2.59-1.61,4.44-1.61c1.25,0,2.17.17,2.78.52v2.74c-.73-.54-1.53-.8-2.4-.8-.98,0-1.76.29-2.35.89-.59.59-.89,1.41-.89,2.45s.28,1.8.84,2.37c.56.58,1.33.87,2.29.87.86,0,1.69-.27,2.49-.82v2.6h.01Z"/>
    <path class="st0" d="M661.81,99.9c0-1.8.54-3.22,1.62-4.25s2.53-1.55,4.36-1.55,3.17.51,4.2,1.52,1.55,2.38,1.55,4.09c0,1.8-.54,3.23-1.59,4.29-1.06,1.06-2.5,1.59-4.32,1.59s-3.2-.51-4.25-1.53-1.57-2.41-1.57-4.17h0ZM665.05,99.86c0,2.19.89,3.28,2.68,3.28s2.57-1.12,2.57-3.37-.86-3.21-2.59-3.21c-.84,0-1.49.29-1.96.86s-.7,1.38-.7,2.44h0Z"/>
    <path class="st0" d="M693,105.33h-3.19v-6.26c0-1.68-.61-2.51-1.84-2.51-.57,0-1.04.25-1.42.76s-.56,1.13-.56,1.86v6.15h-3.19v-6.34c0-1.63-.61-2.44-1.82-2.44-.6,0-1.08.24-1.44.72s-.54,1.13-.54,1.93v6.11h-3.2v-10.96h3.2v1.72h.04c.39-.63.89-1.12,1.53-1.46s1.3-.52,2.01-.52c1.54,0,2.59.69,3.16,2.07.84-1.38,2.08-2.07,3.68-2.07,2.38,0,3.58,1.48,3.58,4.42v6.81h0Z"/>
  </g>
  <g>
    <path class="st0" d="M374.1,135.56v5.35h-3.27v-15.36h5.28c3.82,0,5.73,1.62,5.73,4.86,0,1.57-.57,2.83-1.73,3.78s-2.59,1.4-4.32,1.37h-1.69ZM374.1,128.09v4.96h1.42c1.92,0,2.89-.84,2.89-2.51s-.95-2.45-2.85-2.45h-1.46Z"/>
    <path class="st0" d="M397.26,140.91h-3.27v-6.34h-6.54v6.34h-3.27v-15.36h3.27v6.19h6.54v-6.19h3.27v15.36Z"/>
    <path class="st0" d="M399.89,133.43c0-2.4.71-4.36,2.11-5.87s3.26-2.27,5.56-2.27,3.96.73,5.3,2.19,2.01,3.34,2.01,5.63-.69,4.33-2.08,5.83-3.21,2.23-5.47,2.23-3.99-.72-5.36-2.17c-1.37-1.44-2.06-3.3-2.06-5.58h-.01ZM403.32,133.25c0,1.5.36,2.72,1.08,3.66s1.71,1.42,2.97,1.42,2.28-.46,2.99-1.37c.71-.91,1.07-2.13,1.07-3.66s-.35-2.86-1.04-3.79-1.67-1.39-2.93-1.39-2.29.48-3.03,1.43-1.1,2.18-1.1,3.7h0Z"/>
    <path class="st0" d="M431.11,140.91h-3.35l-6.5-9.93c-.34-.52-.58-.93-.73-1.25h-.05c.06.53.09,1.35.09,2.45v8.73h-3.1v-15.36h3.57l6.26,9.65c.42.64.67,1.04.76,1.22h.05c-.07-.37-.1-1.08-.1-2.12v-8.75h3.1v15.36h0Z"/>
    <path class="st0" d="M443.77,140.91h-9.09v-15.36h8.73v2.68h-5.46v3.62h5.07v2.66h-5.07v3.72h5.82v2.68h0Z"/>
  </g>
  <g>
    <path class="st0" d="M466.48,133.47c0-2.66.49-4.68,1.47-6.09.98-1.4,2.39-2.1,4.25-2.1,3.53,0,5.29,2.61,5.29,7.83,0,2.57-.48,4.55-1.44,5.95s-2.34,2.1-4.15,2.1c-3.61,0-5.41-2.56-5.41-7.69h-.01ZM469.71,133.39c0,3.54.76,5.31,2.27,5.31s2.23-1.82,2.23-5.47-.72-5.49-2.17-5.49c-1.55,0-2.33,1.88-2.33,5.65h0Z"/>
    <path class="st0" d="M479.94,137.91c.82.53,1.78.79,2.89.79,2.48,0,3.74-1.61,3.79-4.84l-.06-.02c-.67,1.04-1.72,1.55-3.12,1.55-1.27,0-2.33-.44-3.15-1.35-.82-.89-1.23-2.02-1.23-3.38,0-1.6.5-2.9,1.49-3.89.99-1,2.29-1.5,3.87-1.5s2.96.63,3.91,1.89,1.42,3.02,1.42,5.28c0,2.68-.57,4.81-1.71,6.36-1.14,1.56-2.78,2.34-4.92,2.34-1.21,0-2.27-.2-3.18-.59v-2.66h0v.02ZM482.22,130.38c0,.81.2,1.45.59,1.91s.93.69,1.61.69c.61,0,1.11-.22,1.5-.67.39-.44.59-.99.59-1.65,0-.78-.2-1.48-.59-2.06-.39-.59-.92-.88-1.58-.88s-1.16.25-1.54.76c-.39.51-.58,1.14-.58,1.88h0v.02Z"/>
    <path class="st0" d="M502.4,127.49c-1.24,2.23-2.17,4.02-2.78,5.38s-1.11,2.68-1.49,3.98c-.39,1.29-.68,2.64-.88,4.04h-3.44c.33-2.01.91-4.03,1.75-6.08s1.99-4.26,3.46-6.64h-7.32v-2.64h10.7v1.95h0Z"/>
    <path class="st0" d="M504.97,140.49v-2.76c1.06.65,2.19.97,3.4.97.91,0,1.61-.22,2.13-.67.51-.44.77-1.05.77-1.81,0-1.59-1.09-2.39-3.27-2.39-.8,0-1.74.06-2.78.18l.57-8.47h8.12v2.64h-5.54l-.22,3.23c.55-.05,1.05-.07,1.52-.07,1.5,0,2.68.41,3.55,1.23.87.82,1.31,1.93,1.31,3.33,0,1.55-.52,2.81-1.57,3.79s-2.48,1.47-4.28,1.47c-1.46,0-2.69-.22-3.7-.67h-.01Z"/>
    <path class="st0" d="M517.34,137.56c1.03.76,2.22,1.15,3.59,1.15.87,0,1.55-.19,2.06-.57s.76-.93.76-1.63-.3-1.28-.91-1.67-1.45-.57-2.54-.57h-1.37v-2.47h1.26c2.06,0,3.09-.69,3.09-2.08,0-1.31-.79-1.96-2.37-1.96-1.03,0-2.03.34-3,1.01v-2.65c1.06-.55,2.31-.82,3.74-.82s2.63.33,3.54,1.01c.91.67,1.36,1.6,1.36,2.79,0,2.01-1.02,3.27-3.05,3.79v.05c1.07.12,1.93.51,2.57,1.18s.96,1.47.96,2.42c0,1.46-.54,2.6-1.6,3.42-1.06.82-2.49,1.23-4.26,1.23-1.58,0-2.85-.26-3.81-.78v-2.83h0l-.02-.02Z"/>
    <path class="st0" d="M539.01,128.41c-.78-.44-1.63-.67-2.55-.67-1.18,0-2.13.46-2.84,1.39s-1.06,2.13-1.06,3.61h.06c.73-1.12,1.82-1.69,3.26-1.69,1.29,0,2.31.44,3.07,1.33.76.88,1.14,2.03,1.14,3.44,0,1.55-.49,2.82-1.48,3.83s-2.25,1.51-3.78,1.51c-1.76,0-3.1-.63-4.04-1.9s-1.4-3-1.4-5.21c0-2.6.61-4.71,1.82-6.33s2.9-2.44,5.06-2.44c1.16,0,2.08.14,2.74.42v2.7h0ZM532.66,135.85c0,.79.2,1.47.59,2.02s.92.84,1.57.84,1.17-.25,1.55-.76.56-1.14.56-1.91c0-1.72-.71-2.59-2.13-2.59-.64,0-1.16.23-1.55.69s-.59,1.03-.59,1.72h0Z"/>
    <path class="st0" d="M542.38,137.56c1.03.76,2.22,1.15,3.59,1.15.87,0,1.55-.19,2.06-.57s.76-.93.76-1.63-.3-1.28-.91-1.67-1.45-.57-2.54-.57h-1.37v-2.47h1.26c2.06,0,3.1-.69,3.1-2.08,0-1.31-.79-1.96-2.37-1.96-1.03,0-2.03.34-3,1.01v-2.65c1.06-.55,2.31-.82,3.74-.82s2.63.33,3.54,1.01c.91.67,1.36,1.6,1.36,2.79,0,2.01-1.02,3.27-3.05,3.79v.05c1.07.12,1.93.51,2.57,1.18s.96,1.47.96,2.42c0,1.46-.54,2.6-1.6,3.42-1.06.82-2.49,1.23-4.26,1.23-1.58,0-2.85-.26-3.81-.78v-2.82h-.01s-.02-.03-.02-.03Z"/>
    <path class="st0" d="M563.43,125.54v9.75h2.17v2.33h-2.17v3.27h-2.91v-3.27h-6.86v-2.35c1.42-1.59,2.75-3.27,4-5.04s2.18-3.34,2.81-4.7h2.97-.01ZM556.49,135.3h4.02v-5.63c-.31.59-.77,1.31-1.37,2.16-.59.84-1.48,2.01-2.66,3.47h0Z"/>
    <path class="st0" d="M567.57,137.91c.82.53,1.78.79,2.89.79,2.48,0,3.74-1.61,3.79-4.84l-.06-.02c-.67,1.04-1.72,1.55-3.12,1.55-1.27,0-2.33-.44-3.15-1.35-.82-.89-1.23-2.02-1.23-3.38,0-1.6.5-2.9,1.49-3.89.99-1,2.28-1.5,3.87-1.5s2.96.63,3.91,1.89c.95,1.26,1.42,3.02,1.42,5.28,0,2.68-.57,4.81-1.71,6.36-1.14,1.56-2.78,2.34-4.92,2.34-1.21,0-2.27-.2-3.18-.59v-2.66h0v.02ZM569.84,130.38c0,.81.2,1.45.59,1.91s.93.69,1.61.69c.61,0,1.11-.22,1.5-.67.39-.44.59-.99.59-1.65,0-.78-.2-1.48-.59-2.06-.39-.59-.92-.88-1.58-.88s-1.16.25-1.54.76c-.39.51-.58,1.14-.58,1.88h0v.02Z"/>
    <path class="st0" d="M580.08,140.49v-2.76c1.06.65,2.19.97,3.4.97.91,0,1.61-.22,2.13-.67s.77-1.05.77-1.81c0-1.59-1.09-2.39-3.27-2.39-.8,0-1.74.06-2.78.18l.57-8.47h8.12v2.64h-5.54l-.22,3.23c.55-.05,1.05-.07,1.52-.07,1.5,0,2.68.41,3.55,1.23.87.82,1.3,1.93,1.3,3.33,0,1.55-.52,2.81-1.57,3.79s-2.48,1.47-4.28,1.47c-1.46,0-2.69-.22-3.7-.67h0Z"/>
  </g>
  <g>
    <path class="st0" d="M35.64,74.69v-30.73h-10.36v-6.13h28.15v6.13h-10.45v30.73h-7.34Z"/>
    <path class="st0" d="M59.41,74.69v-36.85h7.39v14.49h13.9v-14.49h7.34v36.85h-7.34v-15.95h-13.9v15.95h-7.39Z"/>
    <path class="st0" d="M116.98,74.69l-2.58-9.48h-11.96l-2.58,9.48h-7.49l11.82-36.85h8.66l11.82,36.85h-7.69ZM104.05,59.52h8.75l-1.12-4.04c-.1-.33-.99-3.68-2.68-10.06-.19-.75-.38-1.41-.53-1.99h-.19c-.87,3.76-1.93,7.78-3.16,12.06l-1.07,4.04h0Z"/>
    <path class="st0" d="M128.99,74.69v-36.85h7.54l10.7,19.64,3.7,7.98h.24c-.65-6.42-.97-10.73-.97-12.93v-14.68h7v36.85h-7.49l-10.65-19.74-3.75-7.88h-.24c.06.65.16,1.69.29,3.11.42,4.38.63,7.62.63,9.72v14.78h-7,0Z"/>
    <path class="st0" d="M166.24,74.69v-36.85h7.39v16h.15l12.21-16h8.12l-11.28,14.49,13.27,22.37h-8.12l-9.53-16.53-4.81,6.17v10.36h-7.4Z"/>
    <path class="st0" d="M217.87,74.69v-13.52l-11.04-23.34h7.83l3.65,9c1.91,4.83,2.98,7.54,3.21,8.12h.19c1.53-3.73,2.63-6.44,3.31-8.12l3.65-9h7.68l-11.09,23.34v13.52h-7.39Z"/>
    <path class="st0" d="M255.17,75.37c-5.35,0-9.53-1.98-12.55-5.93-2.63-3.44-3.94-7.88-3.94-13.32,0-6.87,2.01-12.01,6.03-15.41,2.85-2.36,6.34-3.55,10.45-3.55,5.48,0,9.72,1.99,12.74,5.98,2.5,3.37,3.74,7.7,3.74,12.98,0,6.68-1.92,11.78-5.74,15.32-2.89,2.63-6.47,3.94-10.74,3.94h.01ZM255.17,69c3.34,0,5.8-1.65,7.39-4.96,1.07-2.17,1.6-4.81,1.6-7.93,0-5.35-1.41-9.06-4.23-11.13-1.4-1.01-2.98-1.51-4.76-1.51-3.47,0-5.98,1.7-7.54,5.1-.94,2.07-1.41,4.59-1.41,7.54,0,5.22,1.34,8.95,4.04,11.18,1.39,1.14,3.03,1.7,4.91,1.7h0Z"/>
    <path class="st0" d="M293,75.37c-9.53-.06-14.31-5.82-14.34-17.26v-20.28h7.39v20.91c0,5.87,1.65,9.21,4.96,10.01.62.16,1.28.24,1.99.24,3.83,0,6.11-2.14,6.86-6.42.19-1.14.29-2.41.29-3.84v-20.91h7.1v20.28c0,11.15-4.46,16.9-13.37,17.26h-.88Z"/>
  </g>
</svg>