<?xml version="1.0" encoding="UTF-8"?>
<svg id="_圖層_2" xmlns="http://www.w3.org/2000/svg" version="1.1" viewBox="0 0 370.4 366.45">
  <!-- Generator: Adobe Illustrator 30.4.0, SVG Export Plug-In . SVG Version: 2.1.4 Build 226)  -->
  <defs>
    <style>
      .st0 {
        fill: #f8f8f8;
      }
    </style>
  </defs>
  <g>
    <path class="st0" d="M26.88,228.88l-.27-3.24,1.42-.12v-17.71h-1.11v-3.07h12.33v3.07h-1.48v16.74l1.42-.15c-.09,1.38-.15,2.46-.17,3.24-.42.04-.84.09-1.25.15v4.8h-3.61v-4.45c-3.19.31-5.62.56-7.28.74h0ZM31.6,211.41h2.56v-3.59h-2.56v3.59ZM31.6,217.95h2.56v-3.59h-2.56v3.59ZM34.16,224.93v-4.07h-2.56v4.3l2.56-.24h0ZM42.61,209.2h1.69c.81-1.02,1.68-2.17,2.59-3.45l2.97,1.74c-2.54,2.91-4.83,5.48-6.87,7.72.95-.08,1.91-.16,2.9-.24-.23-.55-.45-1.11-.67-1.68l2.52-.83c.63,1.32,1.37,3.01,2.22,5.07l-2.8.89-.37-1.06c-2.88.16-5.12.33-6.74.53l-1.28-2.8c1.08-.79,2.24-1.9,3.47-3.33-1.1.04-1.94.11-2.52.21l-1.31-2.62c1.05-.75,2.59-2.8,4.61-6.16l3.16,1.33c-.85,1.2-2.04,2.76-3.57,4.68h0ZM39.82,219.48h3.23v3.65h1.38c.16-1.28.25-2.81.27-4.6h3.84c0,4.12-.32,7.08-.95,8.87-.61,1.85-1.94,3.64-4.01,5.39-.76-.71-1.92-1.52-3.47-2.42,2.04-1.28,3.3-2.79,3.78-4.54h-4.08v-6.37h0v.02ZM48.65,209.4c1.3-.96,2.83-3.04,4.58-6.22l3.07,1.42c-1.44,1.93-2.68,3.52-3.74,4.77h2.12c.67-.91,1.42-1.95,2.22-3.12l2.9,1.74c-2.07,2.65-4.15,5.08-6.27,7.28.63-.04,1.55-.1,2.76-.18l-.81-1.77,2.66-.92c.65,1.38,1.44,3.07,2.36,5.1l-2.86,1c-.11-.33-.24-.67-.37-1-3.03.16-5.19.3-6.47.41l-1.31-3.01c.97-.67,2.02-1.65,3.16-2.95-.99.06-1.77.13-2.36.21l-1.65-2.77h0ZM58.96,219.48v7.49h-3.23v-1.12h-1.65v6.75h-3.91v-14.06h3.91v4.6h1.65v-3.65h3.23Z"/>
    <path class="st0" d="M62.53,224.05l3.23.38c-.25,2.22-.62,4.77-1.11,7.66l-3.71-.56c.67-2.52,1.2-5.01,1.58-7.49h0ZM65.86,211.64c.95,0,1.77-.02,2.49-.06.76-1.24,1.47-2.46,2.12-3.65l3.94,1.53c-1.69,2.73-4.28,6.14-7.78,10.22,1.48-.1,2.74-.2,3.78-.3-.29-.92-.61-1.85-.95-2.77l2.66-.83c.81,1.87,1.68,4.12,2.59,6.78l-3.03.83c-.11-.33-.23-.68-.34-1.03-4.53.3-7.43.65-8.69,1.06l-1.35-3.24c.74-.35,1.48-.98,2.22-1.89.92-1.18,1.79-2.34,2.63-3.48-1.77.06-3.09.23-3.94.5l-1.14-3.39c.42-.18.95-.71,1.55-1.59,1.46-2.22,2.68-4.54,3.67-6.96l4.25,1.12c-1.53,2.61-3.09,4.99-4.68,7.13h0v.02ZM70.51,231l-3.44.32c-.11-1.95-.31-4.24-.57-6.9l3-.27c.4,2.12.74,4.4,1.01,6.84h0ZM75.7,232.56v-2.51l-3.44.92c-.52-2.34-1.13-4.6-1.85-6.78l3-.74c.81,2.06,1.57,4.18,2.29,6.37v-9.11h16.78v11.84h-4.25v-1.3h-8.29v1.3h-4.25.01ZM93.18,206.4v3.33c-1.17,2.2-2.86,4.1-5.09,5.72,1.91.65,4.1,1.12,6.57,1.42-.34,1.22-.66,2.51-.98,3.86-3.71-.69-6.88-1.68-9.53-2.98-2.67,1.26-5.83,2.25-9.46,2.98-.58-1.48-1.12-2.64-1.62-3.51,2.78-.47,5.21-1.08,7.28-1.83-.99-.75-1.85-1.57-2.59-2.48-.56.59-1.14,1.12-1.75,1.59-1.14-1.22-2.02-2.1-2.63-2.65,2.72-2.5,4.85-5.31,6.4-8.46l4.45.47c-.47.89-.96,1.73-1.45,2.54h10.41-.01ZM88.23,224.4h-8.29v3.18h8.29v-3.18ZM80.28,210.05c.97,1.4,2.26,2.58,3.87,3.57,1.79-1.08,3.09-2.34,3.87-3.77h-7.58l-.17.21h.01Z"/>
    <path class="st0" d="M96.35,224.26l-.84-4.18c2.08-.16,4.13-.33,6.16-.53v-3.77h-6.13v-3.77h6.13v-2.9l-4.75.31c-.09-.91-.29-2.16-.61-3.77,5.03-.24,9.86-.65,14.48-1.24l1.04,3.68c-1.63.22-3.36.41-5.19.59v3.33h6.54l-.44-8.37h4.78c.07,2.86.18,5.65.32,8.37h11.07v3.77h-10.86c.16,2.25.4,4.15.72,5.7,1.98-1.6,3.75-3.39,5.32-5.38l3.61,2.56c-2.21,2.49-4.73,4.75-7.56,6.81.9,1.88,1.91,2.81,3.03,2.81.15,0,.31-.03.48-.1.18-.07.41-.6.7-1.6s.55-2.21.79-3.64c1.57.91,2.94,1.57,4.11,2.01-.64,2.97-1.36,4.98-2.17,6.03s-1.94,1.57-3.38,1.57c-3.23,0-5.71-1.5-7.41-4.51-1.9,1.14-3.92,2.21-6.06,3.21-.7-1.1-1.62-2.25-2.76-3.45,2.65-.97,5.09-2.14,7.32-3.51-.63-2.2-1.08-5.04-1.35-8.52h-6.79v3.26c1.93-.22,3.84-.45,5.73-.69-.07.87-.1,1.65-.1,2.37,0,.57.02,1.09.07,1.57l-5.69.62v5.86c0,1.08-.28,1.91-.83,2.48s-1.56.91-3.02,1-3.16.14-5.12.14c-.4-1.73-.83-3.03-1.28-3.89,1.09.08,2.2.12,3.33.12h.67c.4.01.71-.11.93-.36s.32-.64.32-1.17v-3.57l-5.32.74h0ZM121.48,204.34c2.6,1.85,4.57,3.34,5.9,4.48-1.3,1.04-2.36,1.93-3.16,2.65-1.64-1.61-3.5-3.17-5.59-4.68l2.86-2.45h0Z"/>
  </g>
  <g>
    <path class="st0" d="M50.76,135.83l-1.59,1.83c4.81,5.93,11.43,10.49,19.88,13.64-1.51,2.48-2.82,4.66-3.92,6.54-8.55-4.38-15.19-9.49-19.93-15.3-4.45,5.84-11.2,11.21-20.23,16.12-.9-1.51-2.25-3.63-4.07-6.34,9.49-4.29,16.54-9.78,21.14-16.5h8.71ZM22.55,175.08h6.87v-18.58h7.06v18.58h6.97v-24.34h7.06v9.24h12.29v6.24h-12.29v8.85h16.94v6.24H22.55v-6.24h0Z"/>
    <path class="st0" d="M70.84,182.14l-.39-4.45c10.67,0,21.41-.15,32.22-.43-.42,1.74-.68,3.13-.77,4.16-12.94.19-23.29.43-31.06.73h0ZM71.37,158.28h12.14v-1.7h-10.79v-3.29h10.79v-1.65h-10.55v-3.29h10.55v-1.83h-12.72v-3.38h12.72v-1.83h-10.45v-3.29h10.45v-2.52h5.71v2.52h10.45v5.12h2.65v3.38h-2.65v5.12h-10.45v1.65h10.5v3.29h-10.5v1.7h12.63v3.44h-30.49v-3.44h.01ZM72.39,163.42h28.15v12.77h-28.15v-12.77h0ZM77.61,168.39h6.48v-1.7h-6.48v1.7ZM77.61,172.9h6.48v-1.7h-6.48v1.7ZM95.32,166.71h-6.48v1.7h6.48v-1.7ZM95.32,172.9v-1.7h-6.48v1.7h6.48ZM94.94,141.3h-5.71v1.83h5.71v-1.83ZM94.94,148.37v-1.83h-5.71v1.83h5.71ZM103.26,139.32h5.32v32.37h-5.32v-32.37h0ZM110.95,135.49h5.81v40.5c0,4.49-2.12,6.79-6.34,6.92-1.87.06-3.68.11-5.42.15-.26-2.03-.71-4.16-1.36-6.39,1.16.07,2.63.13,4.4.19,1.94.03,2.9-1.01,2.9-3.14v-38.22h.01Z"/>
    <path class="st0" d="M133.69,176.83h-2.7l-3.85-6.49c-.09-.15-.22-.44-.39-.89h-.06c-.01.06-.15.36-.4.9l-3.96,6.48h-2.71l5.73-8.67-5.27-8.59h2.72l3.41,5.97c.2.35.4.76.6,1.23h.05c.18-.4.4-.83.66-1.29l3.56-5.91h2.55l-5.39,8.55,5.47,8.7h-.02Z"/>
    <path class="st0" d="M147.68,148.03l5.66,3.63c-1.41,2.08-2.97,4.12-4.65,6.12v25.09h-6.72v-17.83c-1.48,1.43-3.03,2.85-4.65,4.24-.65-1.8-1.54-4.04-2.65-6.72,4.97-4.29,9.3-9.13,13.02-14.51h-.01ZM146.9,135.45c2.06,1.41,4,2.8,5.81,4.16-3.39,3.93-7.88,8.14-13.5,12.63-1.2-1.8-2.63-3.71-4.3-5.71,5.42-4.12,9.42-7.82,12-11.08h-.01ZM154.01,152.72h28.88v6.29h-7.55v15.58c0,2.59-.6,4.56-1.8,5.91-1.21,1.36-2.9,2.12-5.1,2.25-2.2.15-5.47.24-9.78.3-.44-2.13-1.05-4.38-1.79-6.78,3.36.23,6,.34,7.94.34,2.36,0,3.53-1.24,3.53-3.72v-13.88h-14.33v-6.29h0ZM155.6,138.89h25.16v6.29h-25.16v-6.29Z"/>
    <path class="st0" d="M202.88,156.11v4.93h-6.05v14.08c2.25-.23,4.65-.47,7.16-.73l-.68,5.12c-3.77.3-9.87,1.01-18.29,2.18l-.73-5.51c2.13-.16,4.4-.34,6.82-.54v-14.61h-6.29v-4.93h6.29v-3.53h-3.1v-2.03c-.81.97-1.65,1.95-2.52,2.95-.42-2.29-.88-4.61-1.36-6.97,2.9-3.13,5.55-6.75,7.94-10.89h6.87l-1.12,1.59c2.55,3.13,4.75,5.96,6.58,8.46l-3.77,4.45c-.23-.39-.5-.84-.82-1.36v3.77h-3.01v3.53h6.05v.02ZM188.46,163.27c.84,4.07,1.47,7.36,1.89,9.87l-3.77.88c-.48-3.13-1.06-6.46-1.74-9.97l3.63-.77h-.01ZM194.51,141.6c-1.32,2-2.78,4.08-4.36,6.24h9.1c-1.48-2.13-3.06-4.21-4.75-6.24h.01ZM199.15,163.27l3.77.73c-.65,3.13-1.3,6.24-1.94,9.34l-3.48-.63c.74-3.58,1.29-6.72,1.65-9.43h0ZM206.89,136.52c2.52,2.97,4.62,5.6,6.34,7.88l-4.65,3.48c-2.16-3.13-4.16-5.82-6-8.07l4.3-3.29h0ZM210.86,183.05h-6.39v-34.5h9.77v-12.97h6.39v12.97h9.58v27.57c0,3.75-1.62,5.82-4.84,6.24-1.9.19-4.27.31-7.11.34-.26-1.48-.68-3.63-1.26-6.43,1.74.13,3.26.18,4.54.15,1.51,0,2.28-.81,2.28-2.41v-1.45h-12.97v10.5h.01ZM223.82,154.47h-12.97v3.68h12.97v-3.68ZM210.86,167.19h12.97v-3.68h-12.97v3.68ZM227.46,136.61l4.89,3.53c-2.78,3.45-5.07,6.14-6.87,8.07l-4.21-3.58c2.19-2.39,4.26-5.07,6.2-8.03h0Z"/>
    <path class="st0" d="M247.49,176.83h-2.7l-3.85-6.49c-.09-.15-.22-.44-.39-.89h-.06c-.01.06-.15.36-.4.9l-3.96,6.48h-2.71l5.73-8.67-5.27-8.59h2.72l3.41,5.97c.2.35.4.76.6,1.23h.05c.18-.4.4-.83.66-1.29l3.56-5.91h2.55l-5.39,8.55,5.47,8.7h-.02Z"/>
    <path class="st0" d="M258.57,183.3h-5.61v-20.9c-.84,1.58-1.7,3.07-2.56,4.5-.39-3.15-1-6.17-1.83-9.05,3.01-5.84,5.81-13.32,8.42-22.45l5.96,1.31c-1.39,4.68-2.84,9.03-4.36,13.06v33.53h0ZM292.09,169.84v3.38c-1.8,1.45-3.87,2.76-6.2,3.92,3.22.48,6.79.76,10.69.82-.44.81-1.4,2.6-2.86,5.36-5.51-.55-10.45-1.65-14.81-3.29-4.87,1.62-10.49,2.79-16.83,3.53-.3-.74-1.21-2.45-2.76-5.12,5.07-.26,9.49-.71,13.26-1.36-1.23-.71-2.39-1.47-3.48-2.28-1.16.93-2.39,1.83-3.68,2.71-.97-1.23-2.1-2.48-3.38-3.77,3.38-1.55,6.31-3.47,8.76-5.75h2.13c-1.39-.48-2.08-1.59-2.08-3.34v-1.55c-1.41,2-3.06,4.15-4.93,6.43l-3.92-3.05c1.23-1.3,2.36-2.56,3.38-3.83h-4.01v-6.39h3.77v-13.26h9c.16-.65.31-1.26.43-1.83h-11.13v-3.96h32.37v3.96h-14.85c-.19.58-.42,1.2-.68,1.83h12.63v13.26h2.9v6.39h-2.9c.88.93,2,2.13,3.38,3.58l-4.11,3.19c-1.16-1.62-2.59-3.42-4.26-5.42-.13.81-.34,1.56-.63,2.28-.44,1.32-1.9,1.98-4.36,1.98h-7.21c-.42.55-.88,1.06-1.36,1.55h17.72v.02ZM267.12,160.56l3.72,2.18v-2.32h4.93v2.62c0,1,.59,1.5,1.79,1.5h1.55c-.74-1.09-1.79-2.44-3.14-4.01l1.55-1.01h-11.66v2.65c.42-.55.84-1.08,1.26-1.59h0ZM287.35,145.95h-16.59v1.65h16.59v-1.65ZM270.76,151.95h16.59v-1.65h-16.59v1.65h0ZM270.76,156.3h16.59v-1.65h-16.59v1.65h0ZM279.02,175.6c2.1-.65,3.86-1.4,5.27-2.28h-10.79c1.62.9,3.45,1.66,5.51,2.28ZM283.63,160.41c.42.26,1.9.85,4.45,1.79l2.65-1.83c.06.06.26.27.58.63v-1.5h-11.08c.93,1,1.75,1.89,2.47,2.65l-3.34,2.37h1.79c1.29,0,2.02-.43,2.18-1.31.16-1.13.26-2.06.3-2.8h0Z"/>
    <path class="st0" d="M309.94,135.83l6.72,2.22c-1.51,3.75-3.15,7.28-4.93,10.59v34.35h-6.97v-23.13c-1.56,2.15-3.19,4.18-4.89,6.1-.55-3.03-1.16-5.85-1.83-8.46,5.03-6.35,9-13.58,11.9-21.67h0ZM339.61,142.42l6.05,4.65c-4.81,5.35-10.31,10.38-16.5,15.07v9.9c0,2.41,1.05,3.63,3.14,3.63h2.08c1.59,0,2.64-.54,3.15-1.59.5-1.06.92-4.26,1.25-9.58,2.64.84,5.1,1.55,7.36,2.13-.58,4.66-1.08,7.97-1.51,9.94s-1.46,3.46-3.1,4.49c-1.64,1.02-3.89,1.54-6.76,1.54h-4.16c-5.81,0-8.71-2.89-8.71-8.67v-6.63c-1.87,1.24-3.79,2.45-5.75,3.63-1.04-1.71-2.45-3.83-4.26-6.34,3.5-1.87,6.83-3.92,10.02-6.14v-22.4h7.25v16.81c3.76-3.19,7.24-6.66,10.45-10.43h-.01Z"/>
  </g>
  <g>
    <path class="st0" d="M41.86,271.36v-9.31c0-.86.05-1.94.13-3.24h-.08c-.2.99-.36,1.64-.48,1.97l-3.79,10.59h-2.61l-3.83-10.49c-.09-.25-.25-.94-.48-2.07h-.09c.08,1.29.13,2.58.13,3.87v8.68h-2.95v-15.36h4.75l3.31,9.27c.27.76.46,1.49.56,2.16h.07c.2-.84.42-1.57.63-2.18l3.32-9.25h4.63v15.36h-3.23,0Z"/>
    <path class="st0" d="M62,271.36h-3.57l-1.15-3.52h-5.58l-1.13,3.52h-3.55l5.62-15.36h3.85l5.51,15.36h0ZM56.51,265.31l-1.74-5.32c-.11-.34-.19-.78-.24-1.34h-.09c-.04.45-.13.88-.27,1.3l-1.76,5.36h4.1,0Z"/>
    <path class="st0" d="M67.2,256.01v15.36h-3.27v-15.36h3.27Z"/>
    <path class="st0" d="M79.76,271.36h-9.01v-15.36h3.27v12.68h5.74v2.68h0Z"/>
  </g>
  <g>
    <path class="st0" d="M124.4,261.06c.5-.27,1.16-.5,1.99-.67s1.53-.25,2.12-.25c3.06,0,4.6,1.53,4.6,4.61v6.62h-3.04v-1.59h-.04c-.74,1.24-1.84,1.86-3.28,1.86-1.04,0-1.87-.29-2.49-.89-.63-.59-.93-1.4-.93-2.42,0-2.1,1.25-3.32,3.76-3.66l3.01-.4c0-1.27-.67-1.91-1.99-1.91s-2.54.4-3.7,1.19v-2.47h0v-.02ZM128.02,266.4c-1.16.15-1.74.67-1.74,1.57,0,.41.14.74.42.99s.66.38,1.14.38c.65,0,1.2-.23,1.61-.69.42-.46.63-1.04.63-1.72v-.78l-2.07.27h0v-.02Z"/>
    <path class="st0" d="M146.1,271.36h-3.18v-1.67h-.05c-.82,1.29-1.94,1.94-3.36,1.94-2.55,0-3.83-1.54-3.83-4.62v-6.61h3.2v6.32c0,1.64.64,2.46,1.92,2.46.64,0,1.16-.22,1.53-.67.39-.45.57-1.06.57-1.82v-6.28h3.18v10.96h.02Z"/>
    <path class="st0" d="M159.6,270.15c0,2.04-.58,3.61-1.74,4.7-1.16,1.1-2.83,1.65-5.01,1.65-1.48,0-2.66-.21-3.53-.63v-2.74c1.14.66,2.29.99,3.44.99s2.04-.31,2.68-.91c.65-.61.97-1.46.97-2.54v-.91h-.05c-.77,1.25-1.92,1.87-3.45,1.87-1.38,0-2.49-.49-3.32-1.48s-1.24-2.31-1.24-3.95c0-1.84.46-3.32,1.37-4.42s2.12-1.65,3.61-1.65c1.35,0,2.36.52,3.03,1.57h.05v-1.31h3.19v9.75h0ZM156.44,265.18c0-.72-.22-1.34-.66-1.84s-.99-.75-1.66-.75c-.78,0-1.4.31-1.85.91-.45.61-.68,1.47-.68,2.57,0,.96.22,1.71.65,2.27s1.01.83,1.74.83,1.32-.28,1.78-.84.69-1.29.69-2.19v-.96h0Z"/>
    <path class="st0" d="M161.89,267.23c0-.89.25-1.69.77-2.38.52-.69,1.26-1.2,2.24-1.53-.78-.39-1.38-.89-1.81-1.49s-.64-1.27-.64-2.01.21-1.46.63-2.08c.42-.63,1.01-1.11,1.76-1.47.75-.35,1.59-.53,2.53-.53s1.79.18,2.55.52,1.35.84,1.78,1.46c.42.63.63,1.31.63,2.06,0,.71-.24,1.38-.7,1.99s-1.09,1.1-1.88,1.46c.96.33,1.7.84,2.24,1.53s.8,1.5.8,2.42c0,1.3-.5,2.36-1.52,3.18-1.01.82-2.33,1.23-3.93,1.23s-2.93-.41-3.93-1.23c-1.01-.82-1.52-1.87-1.52-3.15h0v.02ZM165.1,266.94c0,.71.2,1.29.61,1.72s.96.65,1.65.65,1.2-.22,1.63-.65c.43-.43.63-1,.63-1.72,0-.67-.22-1.22-.65-1.67s-.97-.67-1.61-.67-1.21.22-1.63.67c-.42.44-.63,1-.63,1.67h0ZM165.57,260.16c0,.56.18,1.05.52,1.44s.78.6,1.31.6.94-.2,1.3-.59.54-.88.54-1.46-.18-1.07-.52-1.48-.78-.61-1.31-.61-.98.2-1.33.61c-.34.4-.51.89-.51,1.48h0Z"/>
    <path class="st0" d="M182.17,255.67v15.69h-3.22v-12.08c-.4.35-.94.65-1.63.93s-1.32.44-1.89.51v-2.74c1.81-.53,3.38-1.29,4.7-2.3h2.04Z"/>
    <path class="st0" d="M190.84,268.7h6.51v2.66h-10.21v-1.14c0-.8.14-1.53.44-2.19.29-.66.7-1.28,1.21-1.85s1.31-1.24,2.4-2.01c.99-.74,1.69-1.4,2.08-1.97.4-.57.59-1.18.59-1.82,0-1.38-.75-2.07-2.26-2.07-1.32,0-2.59.53-3.79,1.59v-2.85c1.34-.87,2.85-1.3,4.52-1.3,1.53,0,2.74.39,3.64,1.18.89.78,1.34,1.86,1.34,3.23,0,.76-.13,1.46-.39,2.08s-.63,1.2-1.12,1.74-1.27,1.2-2.35,1.95c-1.04.74-1.74,1.31-2.09,1.72-.36.4-.54.75-.54,1.05h.02Z"/>
    <path class="st0" d="M200.32,268.38c.82.53,1.78.79,2.89.79,2.48,0,3.74-1.61,3.79-4.84l-.06-.02c-.67,1.04-1.72,1.55-3.12,1.55-1.27,0-2.33-.44-3.15-1.35-.82-.89-1.23-2.02-1.23-3.38,0-1.6.5-2.9,1.49-3.89.99-1,2.28-1.5,3.87-1.5s2.96.63,3.91,1.89,1.42,3.02,1.42,5.28c0,2.68-.57,4.81-1.71,6.36-1.14,1.56-2.78,2.34-4.92,2.34-1.21,0-2.27-.2-3.18-.59v-2.66h0v.02ZM202.58,260.85c0,.81.2,1.45.59,1.91s.93.69,1.61.69c.61,0,1.11-.22,1.5-.67.39-.44.59-.99.59-1.65,0-.78-.2-1.48-.59-2.06s-.92-.88-1.58-.88-1.16.25-1.54.76-.58,1.14-.58,1.88h0v.02Z"/>
    <path class="st0" d="M221.83,258.87c-.78-.44-1.63-.67-2.55-.67-1.18,0-2.13.46-2.84,1.39s-1.06,2.13-1.06,3.61h.06c.73-1.12,1.82-1.69,3.26-1.69,1.29,0,2.31.44,3.07,1.33s1.14,2.03,1.14,3.44c0,1.55-.49,2.82-1.48,3.83s-2.25,1.51-3.78,1.51c-1.76,0-3.1-.63-4.04-1.9s-1.4-3-1.4-5.21c0-2.6.61-4.71,1.82-6.33s2.9-2.44,5.06-2.44c1.16,0,2.08.14,2.74.42v2.7h0ZM215.48,266.32c0,.79.2,1.47.59,2.02s.92.84,1.57.84,1.17-.25,1.55-.76.56-1.14.56-1.91c0-1.72-.71-2.59-2.13-2.59-.64,0-1.16.23-1.55.69s-.59,1.03-.59,1.72h0Z"/>
    <path class="st0" d="M238.33,260.06c-.33,3.1-.48,5.08-.48,5.96,0,1.05.29,1.57.87,1.57s1.09-.39,1.48-1.16c.39-.77.57-1.76.57-2.97,0-1.7-.54-3.1-1.63-4.19s-2.6-1.63-4.53-1.63c-2.05,0-3.75.72-5.11,2.16s-2.04,3.18-2.04,5.24.61,3.61,1.84,4.77,2.89,1.74,4.98,1.74c1.62,0,3.09-.31,4.42-.92v1.96c-1.21.52-2.78.78-4.71.78-2.64,0-4.77-.76-6.41-2.28s-2.46-3.55-2.46-6.09.88-4.79,2.62-6.54c1.75-1.76,4-2.64,6.75-2.64,2.57,0,4.64.69,6.23,2.08,1.58,1.38,2.38,3.2,2.38,5.44,0,1.84-.48,3.31-1.44,4.43-.96,1.11-2.14,1.67-3.55,1.67-.69,0-1.26-.19-1.71-.57s-.69-.89-.72-1.54h-.07c-.5,1.41-1.42,2.11-2.76,2.11-.99,0-1.78-.36-2.38-1.08-.59-.72-.89-1.7-.89-2.97,0-1.63.42-2.96,1.25-3.99s1.85-1.54,3.04-1.54c1.08,0,1.76.42,2.02,1.28h.05c.01-.17.03-.35.05-.52s.04-.37.05-.56h2.29ZM231.94,265.38c0,.69.14,1.24.41,1.64.27.4.65.6,1.12.6.69,0,1.24-.37,1.64-1.12.4-.74.6-1.73.6-2.95,0-.6-.14-1.06-.41-1.4s-.64-.5-1.1-.5c-.65,0-1.2.37-1.62,1.1-.42.73-.64,1.61-.64,2.63h0Z"/>
    <path class="st0" d="M256.59,270.15c0,2.04-.58,3.61-1.74,4.7-1.16,1.1-2.83,1.65-5.01,1.65-1.48,0-2.66-.21-3.53-.63v-2.74c1.14.66,2.28.99,3.44.99s2.04-.31,2.68-.91c.65-.61.97-1.46.97-2.54v-.91h-.05c-.77,1.25-1.92,1.87-3.45,1.87-1.38,0-2.49-.49-3.31-1.48-.83-.99-1.25-2.31-1.25-3.95,0-1.84.46-3.32,1.37-4.42s2.12-1.65,3.61-1.65c1.35,0,2.36.52,3.03,1.57h.05v-1.31h3.19v9.75h0ZM253.42,265.18c0-.72-.22-1.34-.66-1.84s-.99-.75-1.66-.75c-.78,0-1.4.31-1.85.91-.45.61-.68,1.47-.68,2.57,0,.96.22,1.71.65,2.27s1.01.83,1.74.83,1.32-.28,1.78-.84.69-1.29.69-2.19v-.96h-.01Z"/>
    <path class="st0" d="M276.68,271.36h-3.19v-6.26c0-1.68-.61-2.51-1.84-2.51-.57,0-1.04.25-1.42.76s-.56,1.13-.56,1.86v6.15h-3.19v-6.34c0-1.63-.61-2.44-1.82-2.44-.6,0-1.08.24-1.44.72s-.54,1.13-.54,1.93v6.11h-3.2v-10.96h3.2v1.72h.04c.39-.63.89-1.12,1.53-1.46s1.3-.52,2.01-.52c1.54,0,2.59.69,3.16,2.07.84-1.38,2.08-2.07,3.68-2.07,2.38,0,3.58,1.48,3.58,4.42v6.81h0Z"/>
    <path class="st0" d="M279.68,261.06c.5-.27,1.16-.5,1.99-.67s1.54-.25,2.13-.25c3.06,0,4.6,1.53,4.6,4.61v6.62h-3.04v-1.59h-.04c-.74,1.24-1.84,1.86-3.28,1.86-1.04,0-1.87-.29-2.49-.89-.63-.59-.93-1.4-.93-2.42,0-2.1,1.25-3.32,3.76-3.66l3.01-.4c0-1.27-.67-1.91-1.99-1.91s-2.54.4-3.7,1.19v-2.47h0l-.02-.02ZM283.3,266.4c-1.16.15-1.74.67-1.74,1.57,0,.41.14.74.42.99s.66.38,1.14.38c.65,0,1.2-.23,1.61-.69.42-.46.63-1.04.63-1.72v-.78l-2.07.27h0v-.02Z"/>
    <path class="st0" d="M290.85,256.86c0-.49.18-.89.52-1.2s.79-.46,1.33-.46,1.01.16,1.35.47.52.71.52,1.18-.18.88-.52,1.2c-.35.32-.8.48-1.34.48s-.98-.16-1.33-.48c-.35-.33-.52-.72-.52-1.2h0ZM291.08,271.36v-10.96h3.19v10.96h-3.19Z"/>
    <path class="st0" d="M297.09,271.36v-16.22h3.19v16.22h-3.19Z"/>
    <path class="st0" d="M302.68,269.92c0-.5.19-.9.56-1.22.38-.32.82-.48,1.35-.48s.97.16,1.34.48.54.72.54,1.21-.18.92-.54,1.23-.82.47-1.38.47c-.52,0-.95-.16-1.32-.48s-.55-.73-.55-1.22h0Z"/>
    <path class="st0" d="M317.16,270.96c-.76.45-1.85.67-3.27.67-1.67,0-3.02-.51-4.06-1.53s-1.55-2.34-1.55-3.95c0-1.86.56-3.33,1.67-4.4s2.59-1.61,4.44-1.61c1.25,0,2.17.17,2.78.52v2.74c-.73-.54-1.53-.8-2.4-.8-.98,0-1.76.29-2.35.89-.59.59-.89,1.41-.89,2.45s.28,1.8.84,2.37c.56.58,1.33.87,2.29.87.86,0,1.69-.27,2.49-.82v2.6h.01Z"/>
    <path class="st0" d="M318.78,265.93c0-1.8.54-3.22,1.62-4.25s2.53-1.55,4.36-1.55,3.17.51,4.2,1.52,1.55,2.38,1.55,4.09c0,1.8-.54,3.23-1.59,4.29-1.06,1.06-2.5,1.59-4.32,1.59s-3.2-.51-4.25-1.53-1.57-2.41-1.57-4.17h0ZM322.02,265.89c0,2.19.89,3.28,2.68,3.28s2.57-1.12,2.57-3.37-.86-3.21-2.59-3.21c-.84,0-1.49.29-1.96.86s-.7,1.38-.7,2.44h0Z"/>
    <path class="st0" d="M349.97,271.36h-3.19v-6.26c0-1.68-.61-2.51-1.84-2.51-.57,0-1.04.25-1.42.76s-.56,1.13-.56,1.86v6.15h-3.19v-6.34c0-1.63-.61-2.44-1.82-2.44-.6,0-1.08.24-1.44.72s-.54,1.13-.54,1.93v6.11h-3.2v-10.96h3.2v1.72h.04c.39-.63.89-1.12,1.53-1.46s1.3-.52,2.01-.52c1.54,0,2.59.69,3.16,2.07.84-1.38,2.08-2.07,3.68-2.07,2.38,0,3.58,1.48,3.58,4.42v6.81h0Z"/>
  </g>
  <g>
    <path class="st0" d="M31.07,301.59v5.35h-3.27v-15.36h5.28c3.82,0,5.73,1.62,5.73,4.86,0,1.57-.57,2.83-1.73,3.78s-2.59,1.4-4.32,1.37h-1.69ZM31.07,294.12v4.96h1.42c1.92,0,2.89-.84,2.89-2.51s-.95-2.45-2.85-2.45h-1.46Z"/>
    <path class="st0" d="M54.23,306.94h-3.27v-6.34h-6.54v6.34h-3.27v-15.36h3.27v6.19h6.54v-6.19h3.27v15.36Z"/>
    <path class="st0" d="M56.86,299.46c0-2.4.71-4.36,2.11-5.87s3.26-2.27,5.56-2.27,3.96.73,5.3,2.19,2.01,3.34,2.01,5.63-.69,4.33-2.08,5.83-3.21,2.23-5.47,2.23-3.99-.72-5.36-2.17c-1.37-1.44-2.06-3.3-2.06-5.58h-.01ZM60.29,299.28c0,1.5.36,2.72,1.08,3.66s1.71,1.42,2.97,1.42,2.28-.46,2.99-1.37c.71-.91,1.07-2.13,1.07-3.66s-.35-2.86-1.04-3.79-1.67-1.39-2.93-1.39-2.29.48-3.03,1.43-1.1,2.18-1.1,3.7h0Z"/>
    <path class="st0" d="M88.08,306.94h-3.35l-6.5-9.93c-.34-.52-.58-.93-.73-1.25h-.05c.06.53.09,1.35.09,2.45v8.73h-3.1v-15.36h3.57l6.26,9.65c.42.64.67,1.04.76,1.22h.05c-.07-.37-.1-1.08-.1-2.12v-8.75h3.1v15.36h0Z"/>
    <path class="st0" d="M100.74,306.94h-9.09v-15.36h8.73v2.68h-5.46v3.62h5.07v2.66h-5.07v3.72h5.82v2.68h0Z"/>
  </g>
  <g>
    <path class="st0" d="M123.45,299.5c0-2.66.49-4.68,1.47-6.09.98-1.4,2.39-2.1,4.25-2.1,3.53,0,5.29,2.61,5.29,7.83,0,2.57-.48,4.55-1.44,5.95s-2.34,2.1-4.15,2.1c-3.61,0-5.41-2.56-5.41-7.69h-.01ZM126.68,299.42c0,3.54.76,5.31,2.27,5.31s2.23-1.82,2.23-5.47-.72-5.49-2.17-5.49c-1.55,0-2.33,1.88-2.33,5.65h0Z"/>
    <path class="st0" d="M136.91,303.94c.82.53,1.78.79,2.89.79,2.48,0,3.74-1.61,3.79-4.84l-.06-.02c-.67,1.04-1.72,1.55-3.12,1.55-1.27,0-2.33-.44-3.15-1.35-.82-.89-1.23-2.02-1.23-3.38,0-1.6.5-2.9,1.49-3.89.99-1,2.29-1.5,3.87-1.5s2.96.63,3.91,1.89,1.42,3.02,1.42,5.28c0,2.68-.57,4.81-1.71,6.36-1.14,1.56-2.78,2.34-4.92,2.34-1.21,0-2.27-.2-3.18-.59v-2.66h0v.02ZM139.19,296.41c0,.81.2,1.45.59,1.91s.93.69,1.61.69c.61,0,1.11-.22,1.5-.67.39-.44.59-.99.59-1.65,0-.78-.2-1.48-.59-2.06-.39-.59-.92-.88-1.58-.88s-1.16.25-1.54.76c-.39.51-.58,1.14-.58,1.88h0v.02Z"/>
    <path class="st0" d="M159.37,293.52c-1.24,2.23-2.17,4.02-2.78,5.38s-1.11,2.68-1.49,3.98c-.39,1.29-.68,2.64-.88,4.04h-3.44c.33-2.01.91-4.03,1.75-6.08s1.99-4.26,3.46-6.64h-7.32v-2.64h10.7v1.95h0Z"/>
    <path class="st0" d="M161.94,306.52v-2.76c1.06.65,2.19.97,3.4.97.91,0,1.61-.22,2.13-.67.51-.44.77-1.05.77-1.81,0-1.59-1.09-2.39-3.27-2.39-.8,0-1.74.06-2.78.18l.57-8.47h8.12v2.64h-5.54l-.22,3.23c.55-.05,1.05-.07,1.52-.07,1.5,0,2.68.41,3.55,1.23.87.82,1.31,1.93,1.31,3.33,0,1.55-.52,2.81-1.57,3.79s-2.48,1.47-4.28,1.47c-1.46,0-2.69-.22-3.7-.67h-.01Z"/>
    <path class="st0" d="M174.31,303.59c1.03.76,2.22,1.15,3.59,1.15.87,0,1.55-.19,2.06-.57s.76-.93.76-1.63-.3-1.28-.91-1.67-1.45-.57-2.54-.57h-1.37v-2.47h1.26c2.06,0,3.09-.69,3.09-2.08,0-1.31-.79-1.96-2.37-1.96-1.03,0-2.03.34-3,1.01v-2.65c1.06-.55,2.31-.82,3.74-.82s2.63.33,3.54,1.01c.91.67,1.36,1.6,1.36,2.79,0,2.01-1.02,3.27-3.05,3.79v.05c1.07.12,1.93.51,2.57,1.18s.96,1.47.96,2.42c0,1.46-.54,2.6-1.6,3.42-1.06.82-2.49,1.23-4.26,1.23-1.58,0-2.85-.26-3.81-.78v-2.83h0l-.02-.02Z"/>
    <path class="st0" d="M195.98,294.44c-.78-.44-1.63-.67-2.55-.67-1.18,0-2.13.46-2.84,1.39s-1.06,2.13-1.06,3.61h.06c.73-1.12,1.82-1.69,3.26-1.69,1.29,0,2.31.44,3.07,1.33.76.88,1.14,2.03,1.14,3.44,0,1.55-.49,2.82-1.48,3.83s-2.25,1.51-3.78,1.51c-1.76,0-3.1-.63-4.04-1.9s-1.4-3-1.4-5.21c0-2.6.61-4.71,1.82-6.33s2.9-2.44,5.06-2.44c1.16,0,2.08.14,2.74.42v2.7h0ZM189.63,301.88c0,.79.2,1.47.59,2.02s.92.84,1.57.84,1.17-.25,1.55-.76.56-1.14.56-1.91c0-1.72-.71-2.59-2.13-2.59-.64,0-1.16.23-1.55.69s-.59,1.03-.59,1.72h0Z"/>
    <path class="st0" d="M199.35,303.59c1.03.76,2.22,1.15,3.59,1.15.87,0,1.55-.19,2.06-.57s.76-.93.76-1.63-.3-1.28-.91-1.67-1.45-.57-2.54-.57h-1.37v-2.47h1.26c2.06,0,3.1-.69,3.1-2.08,0-1.31-.79-1.96-2.37-1.96-1.03,0-2.03.34-3,1.01v-2.65c1.06-.55,2.31-.82,3.74-.82s2.63.33,3.54,1.01c.91.67,1.36,1.6,1.36,2.79,0,2.01-1.02,3.27-3.05,3.79v.05c1.07.12,1.93.51,2.57,1.18s.96,1.47.96,2.42c0,1.46-.54,2.6-1.6,3.42-1.06.82-2.49,1.23-4.26,1.23-1.58,0-2.85-.26-3.81-.78v-2.82h-.01s-.02-.03-.02-.03Z"/>
    <path class="st0" d="M220.4,291.57v9.75h2.17v2.33h-2.17v3.27h-2.91v-3.27h-6.86v-2.35c1.42-1.59,2.75-3.27,4-5.04s2.18-3.34,2.81-4.7h2.97-.01ZM213.46,301.33h4.02v-5.63c-.31.59-.77,1.31-1.37,2.16-.59.84-1.48,2.01-2.66,3.47h0Z"/>
    <path class="st0" d="M224.54,303.94c.82.53,1.78.79,2.89.79,2.48,0,3.74-1.61,3.79-4.84l-.06-.02c-.67,1.04-1.72,1.55-3.12,1.55-1.27,0-2.33-.44-3.15-1.35-.82-.89-1.23-2.02-1.23-3.38,0-1.6.5-2.9,1.49-3.89.99-1,2.28-1.5,3.87-1.5s2.96.63,3.91,1.89c.95,1.26,1.42,3.02,1.42,5.28,0,2.68-.57,4.81-1.71,6.36-1.14,1.56-2.78,2.34-4.92,2.34-1.21,0-2.27-.2-3.18-.59v-2.66h0v.02ZM226.81,296.41c0,.81.2,1.45.59,1.91s.93.69,1.61.69c.61,0,1.11-.22,1.5-.67.39-.44.59-.99.59-1.65,0-.78-.2-1.48-.59-2.06-.39-.59-.92-.88-1.58-.88s-1.16.25-1.54.76c-.39.51-.58,1.14-.58,1.88h0v.02Z"/>
    <path class="st0" d="M237.05,306.52v-2.76c1.06.65,2.19.97,3.4.97.91,0,1.61-.22,2.13-.67s.77-1.05.77-1.81c0-1.59-1.09-2.39-3.27-2.39-.8,0-1.74.06-2.78.18l.57-8.47h8.12v2.64h-5.54l-.22,3.23c.55-.05,1.05-.07,1.52-.07,1.5,0,2.68.41,3.55,1.23.87.82,1.3,1.93,1.3,3.33,0,1.55-.52,2.81-1.57,3.79s-2.48,1.47-4.28,1.47c-1.46,0-2.69-.22-3.7-.67h0Z"/>
  </g>
  <g>
    <path class="st0" d="M32.23,105.17v-35h-11.8v-6.98h32.06v6.98h-11.9v35h-8.36Z"/>
    <path class="st0" d="M59.3,105.17v-41.97h8.42v16.5h15.83v-16.5h8.36v41.97h-8.36v-18.17h-15.83v18.17h-8.42Z"/>
    <path class="st0" d="M124.87,105.17l-2.94-10.8h-13.62l-2.94,10.8h-8.53l13.46-41.97h9.86l13.46,41.97h-8.76ZM110.14,87.89h9.97l-1.28-4.6c-.11-.38-1.13-4.19-3.05-11.46-.22-.85-.43-1.61-.6-2.27h-.22c-.99,4.28-2.2,8.86-3.6,13.73l-1.22,4.6h0Z"/>
    <path class="st0" d="M138.54,105.17v-41.97h8.59l12.19,22.37,4.21,9.09h.27c-.74-7.31-1.1-12.22-1.1-14.73v-16.72h7.97v41.97h-8.53l-12.13-22.48-4.27-8.97h-.27c.07.74.18,1.92.33,3.54.48,4.99.72,8.68.72,11.07v16.83h-7.97,0Z"/>
    <path class="st0" d="M180.97,105.17v-41.97h8.42v18.22h.17l13.91-18.22h9.25l-12.85,16.5,15.11,25.48h-9.25l-10.85-18.83-5.48,7.03v11.8h-8.43Z"/>
    <path class="st0" d="M239.77,105.17v-15.4l-12.57-26.58h8.92l4.16,10.25c2.18,5.5,3.39,8.59,3.66,9.25h.22c1.74-4.25,3-7.33,3.77-9.25l4.16-10.25h8.75l-12.63,26.58v15.4h-8.42Z"/>
    <path class="st0" d="M282.25,105.94c-6.09,0-10.85-2.25-14.29-6.75-3-3.92-4.49-8.97-4.49-15.17,0-7.82,2.29-13.68,6.87-17.55,3.25-2.69,7.22-4.04,11.9-4.04,6.24,0,11.07,2.27,14.51,6.81,2.85,3.84,4.26,8.77,4.26,14.78,0,7.61-2.19,13.42-6.54,17.45-3.29,3-7.37,4.49-12.23,4.49h.01ZM282.25,98.68c3.8,0,6.61-1.88,8.42-5.65,1.22-2.47,1.82-5.48,1.82-9.03,0-6.09-1.61-10.32-4.82-12.68-1.59-1.15-3.39-1.72-5.42-1.72-3.95,0-6.81,1.94-8.59,5.81-1.07,2.36-1.61,5.23-1.61,8.59,0,5.94,1.53,10.19,4.6,12.73,1.58,1.3,3.45,1.94,5.59,1.94h0Z"/>
    <path class="st0" d="M325.33,105.94c-10.85-.07-16.3-6.63-16.33-19.66v-23.1h8.42v23.81c0,6.69,1.88,10.49,5.65,11.4.71.18,1.46.27,2.27.27,4.36,0,6.96-2.44,7.81-7.31.22-1.3.33-2.74.33-4.37v-23.81h8.09v23.1c0,12.7-5.08,19.25-15.23,19.66h-1Z"/>
  </g>
</svg>