<?xml version="1.0" encoding="UTF-8"?>
<svg id="_圖層_2" xmlns="http://www.w3.org/2000/svg" version="1.1" viewBox="0 0 698.39 667.51">
  <!-- Generator: Adobe Illustrator 30.4.0, SVG Export Plug-In . SVG Version: 2.1.4 Build 226)  -->
  <defs>
    <style>
      .st0 {
        fill: #939393;
      }

      .st1 {
        fill: none;
        stroke: #fff;
        stroke-miterlimit: 10;
        stroke-width: 1.35px;
      }

      .st2 {
        fill: #383838;
      }

      .st3 {
        display: none;
      }
    </style>
  </defs>
  <g id="_圖層_1-2" class="st3">
    <g>
      <g>
        <path class="st0" d="M38.4,96.69c.22.22.33.44.33.66s-.07.41-.22.55c-4.21,5.02-9.41,9.63-15.6,13.83-6.2,4.21-12.65,7.52-19.37,9.96-.15.07-.3.11-.44.11-.22,0-.44-.15-.66-.44l-1-1.22c-.15-.15-.22-.33-.22-.55,0-.3.15-.55.44-.77,5.24-3.69,10.33-8.34,15.27-13.94,4.87-5.61,8.56-10.81,11.07-15.6.22-.37.48-.55.77-.55s.55.11.78.33l8.85,7.64h0ZM62.63,28.52c1.11,1.77,1.66,3.43,1.66,4.98s-.55,3.03-1.66,4.43h42.83c.29,0,.51.08.66.22.15.15.22.37.22.66v3.21c0,.3-.07.52-.22.66-.15.15-.37.22-.66.22H4.54c-.3,0-.52-.07-.66-.22-.15-.15-.22-.29-.22-.44-.66-2.21-1-3.39-1-3.54s.09-.31.28-.5c.18-.18.42-.28.72-.28h48.8c-.96-2.43-2.55-4.94-4.76-7.52-2.43-2.95-4.98-5.42-7.64-7.41-.29-.22-.44-.46-.44-.72s.11-.5.33-.72l.77-.77c.15-.15.37-.22.66-.22,10.84.22,17.93,2.88,21.25,7.97h0ZM33.97,83.08v1.99c0,.44-.22.9-.66,1.38-.44.48-1.44,1.05-2.99,1.71-2.14.81-4.32,1.22-6.53,1.22h-1.55c-.3,0-.52-.07-.66-.22-.15-.15-.22-.37-.22-.66v-34.3c0-.29.07-.52.22-.66.15-.15.37-.22.66-.22h64.51c.29,0,.51.07.66.22s.22.37.22.66v30.21c0,.37-.15.7-.44,1-.52.52-1.7,1.11-3.54,1.77-2.29.74-4.32,1.11-6.09,1.11h-1.77c-.3,0-.52-.07-.66-.22-.15-.15-.22-.37-.22-.66v-4.32h-13.83v28.55c0,4.57-1.13,7.99-3.38,10.24s-6.55,3.6-12.89,4.04c-.07.07-.19.11-.33.11s-.3-.09-.44-.28c-.15-.19-.22-.39-.22-.61-.37-3.32-1.18-5.61-2.43-6.86-1.77-1.62-5.09-2.77-9.96-3.43-.22,0-.41-.07-.55-.22-.15-.15-.22-.37-.22-.66v-1.44c0-.29.07-.53.22-.72.15-.18.29-.28.44-.28s2.3.17,6.47.5,7.1.5,8.8.5c.66,0,1.11-.11,1.33-.33s.33-.52.33-.89v-28.22h-14.28,0ZM33.97,58.29v19.81h40.94v-19.81h-40.94ZM69.6,91.04c.22-.22.4-.33.55-.33s.26.04.33.11c14.09,3.69,23.46,9.04,28.11,16.05,1.7,2.58,2.55,4.94,2.55,7.08,0,1.33-.37,2.58-1.11,3.76-1.03,1.84-2.54,2.77-4.54,2.77-.89,0-1.92-.22-3.1-.66-.81-.3-1.29-.52-1.44-.66l-.33-.33c-1.84-3.91-4.87-8.19-9.07-12.84-4.28-4.72-8.59-8.89-12.95-12.5-.29-.22-.44-.46-.44-.72s.11-.5.33-.72l1.11-1h0Z"/>
        <path class="st0" d="M26.56,160.21h13.61c.29,0,.51.07.66.22s.22.37.22.66v3.21c0,.3-.07.52-.22.66-.15.15-.37.22-.66.22h-13.61v4.32c6.93,1.99,10.96,5.02,12.06,9.07.22.74.33,1.4.33,1.99,0,1.84-.77,3.28-2.32,4.32-.96.59-1.97.88-3.04.88s-2.23-.48-3.49-1.44c-.22-.15-.33-.37-.33-.66-.44-2.43-1.51-5.02-3.21-7.75v30.43c0,.44-.18.89-.55,1.33-.52.52-1.29,1-2.32,1.44-1.62.66-3.25,1-4.87,1h-1.77c-.3,0-.52-.07-.66-.22-.15-.15-.22-.37-.22-.66v-23.13c-3.69,6.27-8.04,11.91-13.06,16.93-.22.22-.44.33-.66.33l-.66-.33-1.44-1.55c-.22-.22-.33-.42-.33-.61s.07-.39.22-.61c6.12-9,10.7-20.69,13.72-35.08H3.87c-.3,0-.52-.07-.66-.22-.15-.15-.22-.29-.22-.44-.66-2.21-1-3.39-1-3.54s.09-.31.28-.5c.18-.18.42-.28.72-.28h13.17v-19.92c0-.29.07-.53.22-.72.15-.18.31-.28.5-.28s3.15.48,8.91,1.44c.22,0,.4.07.55.22s.22.37.22.66v18.61h0ZM21.91,220.51c0,.96-.07,1.88-.22,2.77-.44,3.62-1.33,6.57-2.66,8.85-1.33,2.29-2.92,4.06-4.76,5.31-1.55,1.03-3.17,1.55-4.87,1.55-2.88,0-4.83-1.07-5.86-3.21-.37-.81-.55-1.66-.55-2.54,0-2.21,1.51-4.13,4.54-5.75,2.36-1.33,4.48-3.5,6.36-6.53,1.88-3.02,2.86-6.23,2.93-9.63,0-.29.07-.53.22-.72.15-.18.29-.28.44-.28s.81.07,1.99.22c.37,0,.63.19.77.55,1.11,3.39,1.66,6.53,1.66,9.41h0ZM58.54,239.77h-14.94c-5.9,0-9.89-.63-11.95-1.88-1.99-1.26-2.99-3.84-2.99-7.75v-19.92c0-.29.07-.53.22-.72.15-.18.29-.28.44-.28s3.76.44,10.84,1.33c.22,0,.4.07.55.22.15.15.22.37.22.66v17.04c0,.37.11.59.33.66.51.22,1.81.33,3.87.33h14.27c7.01,0,10.99-.04,11.95-.11,1.25-.07,2.1-.44,2.55-1.11v-.11c.89-1.33,2.36-5.16,4.43-11.51.07-.15.17-.28.28-.39s.31-.17.61-.17h1.22c.29,0,.52.07.66.22.15.15.22.37.22.66l.33,11.4c1.48.52,2.56,1.16,3.26,1.94.7.77,1.05,1.75,1.05,2.93,0,1.33-.46,2.45-1.38,3.37s-2.42,1.6-4.48,2.05c-3.47.74-10.66,1.11-21.58,1.11l.02.03h0ZM58.65,160.87c.59,1.11.89,2.2.89,3.26s-.26,2.08-.78,3.04h12.73c.29,0,.51.07.66.22s.22.37.22.66v4.43c0,.15-.04.3-.11.44-2.58,4.5-5.64,8.37-9.18,11.62-.22.22-.43.33-.61.33s-.35-.07-.5-.22c-1.11-.59-1.73-.96-1.88-1.11s-.22-.29-.22-.44.04-.29.11-.44c1.18-3.32,2.17-6.82,2.99-10.51h-3.65v23.57c0,3.84-.81,6.57-2.43,8.19s-4.69,2.66-9.18,3.1c-.07.07-.18.11-.33.11s-.3-.09-.44-.28c-.15-.18-.22-.39-.22-.61-.15-2.58-.59-4.2-1.33-4.87-.96-.96-2.73-1.62-5.31-1.99-.22,0-.41-.07-.55-.22-.15-.15-.22-.37-.22-.66v-1.66c0-.29.07-.53.22-.72.15-.18.29-.28.44-.28s1.23.09,3.26.28c2.03.18,3.39.28,4.09.28s1.16-.04,1.38-.11c.07-.22.11-.48.11-.77v-10.29c-4.43,5.24-10.03,10.11-16.82,14.61-.22.15-.44.22-.66.22s-.44-.15-.66-.44l-1.33-1.66c-.15-.15-.22-.33-.22-.55s.15-.48.44-.77.66-.63,1.11-1c6.42-6.42,11.43-14.24,15.05-23.46h-10.51c-.3,0-.52-.07-.66-.22-.15-.15-.22-.29-.22-.44-.66-2.21-1-3.39-1-3.54s.09-.31.28-.5c.18-.18.42-.28.72-.28h16.05c-.96-1.55-2.21-3.1-3.76-4.65-1.99-2.21-3.98-4.02-5.98-5.42-.3-.22-.44-.46-.44-.72s.11-.5.33-.72l1-.89c.22-.15.37-.22.44-.22,5.16,0,9.22.77,12.17,2.32,1.62-2.58,2.8-4.54,3.54-5.87h-20.91c-.3,0-.5-.05-.61-.17s-.2-.24-.28-.39c-.74-2.29-1.11-3.5-1.11-3.65s.09-.31.28-.5c.18-.18.42-.28.72-.28h34.19c.29,0,.52.08.66.22.15.15.22.37.22.66v4.87c0,.29-.07.52-.22.66-3.39,3.03-7.38,5.83-11.95,8.41,0,0-.02.02-.02.02ZM47.92,206.57c.15-.15.29-.22.44-.22s.26.04.33.11c9.44,1.92,15.31,5.42,17.59,10.51.51,1.25.77,2.43.77,3.54,0,1.7-.63,3.17-1.88,4.43-1.18,1.11-2.43,1.66-3.76,1.66s-2.73-.52-4.21-1.55c-.22-.15-.33-.33-.33-.55-.52-2.73-1.73-5.5-3.65-8.3-1.92-2.88-4.06-5.35-6.42-7.41-.3-.22-.44-.44-.44-.66,0-.29.15-.55.44-.77l1.11-.77v-.02h.01ZM106.79,160.21c.29,0,.51.07.66.22s.22.37.22.66v3.21c0,.3-.07.52-.22.66-.15.15-.37.22-.66.22h-14.94c1.55,5.31,3.65,10.11,6.31,14.38,2.95,4.65,6.23,8.15,9.85,10.51.29.15.44.41.44.77,0,.08-.11.52-.33,1.33-.07.37-.29.59-.66.66-3.1.74-5.24,3.25-6.42,7.52,0,.15-.09.32-.28.5-.18.19-.39.28-.61.28-.44-.22-.7-.37-.77-.44-3.54-4.5-6.38-10.66-8.52-18.48v23.9c0,.44-.2.88-.61,1.33-.41.44-1.24.92-2.49,1.44-2.58.81-4.24,1.22-4.98,1.22-.08,0-.11-.04-.11-.11h-1.66c-.3,0-.52-.07-.66-.22-.15-.15-.22-.37-.22-.66v-23.9c-4.5,6.49-10,12.1-16.49,16.82-.22.15-.42.22-.61.22s-.39-.11-.61-.33l-1.33-1.55c-.22-.22-.33-.44-.33-.66s.11-.44.33-.66c8.19-8.48,14.09-19.77,17.71-33.86h-9.29c-.3,0-.52-.07-.66-.22-.15-.15-.22-.29-.22-.44-.66-2.21-1-3.39-1-3.54s.09-.31.28-.5c.18-.18.42-.28.72-.28h11.51v-19.59c0-.29.07-.53.22-.72.15-.18.31-.28.5-.28s3.26.48,9.24,1.44c.22,0,.41.07.55.22.15.15.22.37.22.66v18.26h15.94-.02,0ZM82.66,210.55c.15-.15.29-.22.44-.22s.29.04.44.11c10.77,3.54,17.67,8.63,20.69,15.27.89,2.07,1.33,3.98,1.33,5.75s-.55,3.39-1.66,4.87c-1.25,1.62-2.73,2.43-4.43,2.43-1.11,0-2.32-.33-3.65-1-1.18-.59-1.77-1.14-1.77-1.66-.44-3.69-1.88-7.67-4.32-11.95-2.43-4.35-5.2-8.11-8.3-11.29-.22-.22-.33-.44-.33-.66,0-.29.15-.55.44-.77l1.11-.89h0Z"/>
      </g>
      <g>
        <path class="st0" d="M202.82,38.35c-.24-.24-.59-.36-1.07-.36h-59.1c-.48,0-.83.12-1.07.36s-.36.6-.36,1.07v118.2c0,.48.12.83.36,1.07s.59.36,1.07.36h2.67c2.61,0,5.1-.36,7.48-1.07,2.37-.83,4.09-1.72,5.16-2.67,1.42-1.19,2.14-2.25,2.14-3.2v-16.02h24.39v13.35c0,.48.12.83.36,1.07s.59.36,1.07.36h2.49c2.85,0,5.93-.71,9.26-2.14,2.14-1.07,3.59-1.99,4.36-2.76.77-.77,1.16-1.51,1.16-2.23V39.41c0-.47-.12-.83-.36-1.07h0ZM184.49,128.07h-24.39v-37.74h24.39v37.74ZM184.49,82.49h-24.39v-36.49h24.39v36.49Z"/>
        <path class="st0" d="M606.82,91.7c0,.68-.18,1.19-.53,1.52-.35.34-.88.51-1.58.51h-49.8v12.95c22.48,7.62,36.36,17.7,41.63,30.23,1.4,3.22,2.11,6.18,2.11,8.89,0,4.06-1.5,7.45-4.48,10.16l-.26.25c-2.63,2.03-5.53,3.05-8.69,3.05s-6.59-1.35-10.27-4.06c-.53-.34-.79-.76-.79-1.27-2.11-9.14-8.52-20.23-19.23-33.27v109.73c0,1.35-1.15,2.79-3.43,4.32-1.76,1.35-4.39,2.54-7.9,3.56-3.52,1.02-7.21,1.52-11.07,1.52h-4.22c-.7,0-1.23-.17-1.58-.51-.35-.34-.53-.85-.53-1.52v-92.46c-12.65,20.15-51.42,51.04-51.07,50.53,20.02-24.72,35.77-61.28,45.96-102.09,0,0-46,.34-46,0,.17,0,0-11.36,0-11.43h51.11v-42.42c-15.99,2.54-50.51,2.32-50.15,2.32,1.64,0,3.75-1,5.34-1.45,1.95-.56,3.9-1.14,5.84-1.74,3.87-1.19,7.68-2.52,11.51-3.83,7.62-2.61,15.22-5.25,22.74-8.13,7.58-2.91,15.07-6.07,22.34-9.69,7.37-3.66,14.32-7.96,21.27-12.36,2.4-1.52,4.79-3.03,7.23-4.49.35-.34.75-.51,1.19-.51s.83.17,1.19.51c.35.34.61.6.79.76l11.86,23.88c.17.34.26.72.26,1.14s-.22.85-.66,1.27-.84.64-1.19.64c-6.68,2.03-16.95,4.32-30.83,6.86v47.24h49.8c.7,0,1.23.17,1.58.51.35.34.53.85.53,1.52v7.37h-.02Z"/>
        <g>
          <path class="st0" d="M141.23,238.87c1.12-.06,1.84-.24,2.17-.52s.49-.94.49-1.98v-12.38c0-1.02-.16-1.68-.49-1.98-.33-.29-1.05-.47-2.17-.52v-.52h7.79c2.23,0,3.99.36,5.3,1.07,1.31.72,1.96,1.95,1.96,3.7,0,1.31-.46,2.31-1.37,2.99-.52.39-1.29.71-2.32.97,1.28.31,2.37.82,3.27,1.54.91.72,1.36,1.73,1.36,3.02,0,2.17-1,3.67-3.01,4.48-1.06.42-2.36.64-3.91.64h-9.07v-.52h0ZM151.69,228.77c1.18-.54,1.77-1.52,1.77-2.93,0-1.66-.68-2.78-2.04-3.36-.75-.32-1.89-.48-3.42-.48-.58,0-.94.05-1.07.15-.14.1-.2.37-.2.82v6.29l2.65-.04c.93-.02,1.71-.17,2.32-.45h-.01ZM152.59,237.55c.96-.55,1.44-1.61,1.44-3.18s-.56-2.62-1.68-3.19-2.55-.86-4.29-.86h-1.33v6.93c0,.48.14.79.41.93s.9.21,1.89.21c1.42,0,2.61-.28,3.57-.83h-.01Z"/>
          <path class="st0" d="M161.28,238.87c1.02-.11,1.69-.29,1.99-.55.3-.26.46-.91.46-1.95v-12.38c0-.99-.15-1.63-.45-1.94-.3-.3-.96-.49-2-.56v-.52h14.78l.09,3.98h-.71c-.24-1.23-.59-2.02-1.06-2.38s-1.52-.54-3.15-.54h-3.79c-.41,0-.66.07-.76.2-.1.13-.14.38-.14.74v6.21h4.29c1.19,0,1.94-.18,2.27-.53s.59-1.06.79-2.14h.65v6.43h-.65c-.21-1.08-.48-1.79-.8-2.14-.33-.35-1.08-.52-2.25-.52h-4.29v6.89c0,.55.17.88.52.98.35.1,1.39.15,3.14.15,1.89,0,3.28-.21,4.18-.62.9-.41,1.7-1.41,2.42-3h.77l-1.26,4.7h-15.04v-.52h0Z"/>
          <path class="st0" d="M188.03,220.98v.52c-.65-.02-1.14.03-1.47.15s-.49.37-.49.76c0,.12.03.27.08.44.05.18.18.41.37.7l4.09,6,4-6.1c.16-.26.27-.48.32-.65s.07-.3.07-.38c0-.4-.21-.66-.64-.79-.25-.08-.69-.13-1.3-.14v-.52h6.08v.52c-.56.03-1.06.2-1.5.5-.69.48-1.46,1.37-2.32,2.68l-4.11,6.28v5.41c0,1.08.17,1.75.52,2.01s1.13.43,2.34.49v.52h-8.49v-.52c1.26-.07,2.04-.26,2.34-.56s.46-1.06.46-2.27v-4.83l-3.64-5.34c-1.26-1.84-2.14-3.02-2.65-3.54-.51-.52-1.12-.8-1.85-.84v-.52h7.78v.02h.01Z"/>
          <path class="st0" d="M205.02,223.04c1.71-1.64,3.82-2.46,6.32-2.46s4.62.82,6.33,2.47c1.86,1.78,2.79,4.16,2.79,7.13s-.96,5.42-2.88,7.2c-1.72,1.59-3.8,2.39-6.24,2.39-2.61,0-4.77-.88-6.49-2.65-1.75-1.8-2.62-4.12-2.62-6.94,0-2.97.93-5.35,2.8-7.15h0ZM207.1,236.68c1.15,1.4,2.57,2.1,4.24,2.1s3.04-.68,4.21-2.04c1.16-1.36,1.75-3.54,1.75-6.54s-.59-5.23-1.77-6.58c-1.18-1.35-2.58-2.02-4.19-2.02s-3.08.7-4.24,2.1c-1.16,1.4-1.73,3.57-1.73,6.5s.58,5.09,1.73,6.49h0Z"/>
          <path class="st0" d="M223.47,238.87c1.15-.12,1.89-.38,2.21-.78.33-.4.49-1.34.49-2.8v-12.26l-.38-.45c-.41-.48-.75-.78-1.04-.89s-.71-.18-1.28-.2v-.52h4.75l10.74,13.31v-9.25c0-1.52-.23-2.51-.68-2.97-.3-.3-.96-.49-1.98-.58v-.52h6.53v.52c-1.06.11-1.77.37-2.12.77-.35.41-.53,1.34-.53,2.8v14.64h-.47l-12.31-15.26v10.83c0,1.52.22,2.51.67,2.97.29.3.94.5,1.94.61v.52h-6.53v-.52.03h-.01Z"/>
          <path class="st0" d="M245.36,238.87c1.01-.11,1.68-.29,1.98-.55.31-.26.46-.91.46-1.95v-12.38c0-1.01-.15-1.67-.45-1.96-.3-.29-.96-.47-2-.54v-.52h7.5c2.53,0,4.66.42,6.41,1.25,3.15,1.5,4.73,4.17,4.73,8.02,0,1.39-.28,2.7-.85,3.95s-1.42,2.3-2.56,3.16c-.72.54-1.48.96-2.25,1.24-1.42.53-3.17.79-5.24.79h-7.73v-.52h0ZM250.97,238.14c.22.15.68.22,1.38.22,2.17,0,3.96-.43,5.37-1.29,2.16-1.32,3.23-3.58,3.23-6.78,0-2.86-.89-5-2.66-6.45-1.52-1.23-3.54-1.85-6.04-1.85-.62,0-1.05.07-1.27.2-.22.14-.33.44-.33.9v14.15c0,.45.11.75.33.9h-.01Z"/>
          <path class="st0" d="M275.36,220.98h15.73l.15,4.73h-.66c-.33-1.49-.74-2.45-1.24-2.9s-1.56-.67-3.17-.67h-1.55v14.24c0,1.07.17,1.74.5,1.99.33.26,1.07.42,2.2.51v.52h-8.11v-.52c1.18-.09,1.91-.28,2.2-.58s.43-1.04.43-2.24v-13.91h-1.56c-1.54,0-2.59.22-3.14.67-.56.44-.98,1.41-1.26,2.91h-.68l.16-4.73v-.02h0Z"/>
          <path class="st0" d="M296.61,223.04c1.71-1.64,3.82-2.46,6.32-2.46s4.62.82,6.33,2.47c1.86,1.78,2.79,4.16,2.79,7.13s-.96,5.42-2.88,7.2c-1.72,1.59-3.8,2.39-6.24,2.39-2.61,0-4.77-.88-6.49-2.65-1.75-1.8-2.62-4.12-2.62-6.94,0-2.97.93-5.35,2.8-7.15h-.01ZM298.7,236.68c1.15,1.4,2.57,2.1,4.24,2.1s3.04-.68,4.21-2.04c1.16-1.36,1.75-3.54,1.75-6.54s-.59-5.23-1.77-6.58-2.58-2.02-4.19-2.02-3.08.7-4.24,2.1c-1.16,1.4-1.73,3.57-1.73,6.5s.58,5.09,1.73,6.49h0Z"/>
          <path class="st0" d="M315.06,238.87c1.15-.12,1.89-.38,2.21-.78.33-.4.49-1.34.49-2.8v-11.29c0-1-.16-1.66-.48-1.96s-1.04-.48-2.16-.54v-.52h5.48l6.39,13.86,6.23-13.86h5.53v.52c-1.03.07-1.7.26-2,.56s-.45.95-.45,1.93v12.37c0,1.01.15,1.66.45,1.95.3.29.96.47,2,.56v.52h-7.78v-.52c1.12-.09,1.82-.29,2.1-.6.28-.31.41-1.06.41-2.23v-12.49l-7.12,15.84h-.38l-7-15.19v11.09c0,1.52.22,2.51.67,2.97.29.3.94.5,1.94.61v.52h-6.53v-.52h0Z"/>
          <path class="st0" d="M344.78,223.04c1.71-1.64,3.82-2.46,6.32-2.46s4.62.82,6.33,2.47c1.86,1.78,2.79,4.16,2.79,7.13s-.96,5.42-2.88,7.2c-1.72,1.59-3.8,2.39-6.24,2.39-2.61,0-4.77-.88-6.49-2.65-1.75-1.8-2.62-4.12-2.62-6.94,0-2.97.93-5.35,2.8-7.15h-.01ZM346.86,236.68c1.15,1.4,2.57,2.1,4.24,2.1s3.04-.68,4.21-2.04c1.17-1.36,1.75-3.54,1.75-6.54s-.59-5.23-1.77-6.58-2.58-2.02-4.19-2.02-3.08.7-4.24,2.1c-1.16,1.4-1.73,3.57-1.73,6.5s.58,5.09,1.73,6.49h0Z"/>
          <path class="st0" d="M363.23,238.87c1.07-.1,1.73-.31,2-.62s.39-1.05.39-2.2v-12.05c0-.98-.15-1.62-.44-1.92s-.94-.5-1.95-.58v-.52h7.7c1.6,0,2.94.2,4.01.61,2.03.77,3.04,2.18,3.04,4.25,0,1.38-.45,2.45-1.35,3.19s-2.13,1.23-3.67,1.46l5.73,7.06c.35.43.71.75,1.06.94.35.2.81.32,1.36.38v.52h-4.48l-6.96-8.57-1.22.07v5.48c0,1.03.16,1.68.47,1.96.31.28.99.46,2.04.55v.52h-7.73v-.52h0ZM372.74,229.22c1.48-.61,2.21-1.75,2.21-3.42s-.66-2.71-1.98-3.29c-.71-.32-1.64-.47-2.81-.47-.79,0-1.27.06-1.45.17-.18.11-.26.38-.26.79v6.85c2-.07,3.43-.28,4.29-.62h0Z"/>
          <path class="st0" d="M383.46,238.87c1.07-.1,1.73-.31,2-.62s.39-1.05.39-2.2v-12.05c0-.98-.15-1.62-.44-1.92s-.94-.5-1.95-.58v-.52h7.7c1.6,0,2.94.2,4.01.61,2.03.77,3.04,2.18,3.04,4.25,0,1.38-.45,2.45-1.35,3.19s-2.13,1.23-3.67,1.46l5.73,7.06c.35.43.71.75,1.06.94.35.2.81.32,1.36.38v.52h-4.48l-6.96-8.57-1.22.07v5.48c0,1.03.16,1.68.47,1.96.31.28.99.46,2.04.55v.52h-7.73v-.52h0ZM392.97,229.22c1.48-.61,2.21-1.75,2.21-3.42s-.66-2.71-1.98-3.29c-.71-.32-1.64-.47-2.81-.47-.79,0-1.27.06-1.45.17-.18.11-.26.38-.26.79v6.85c2-.07,3.43-.28,4.29-.62h0Z"/>
          <path class="st0" d="M407,223.04c1.71-1.64,3.82-2.46,6.32-2.46s4.62.82,6.33,2.47c1.86,1.78,2.79,4.16,2.79,7.13s-.96,5.42-2.88,7.2c-1.72,1.59-3.8,2.39-6.24,2.39-2.61,0-4.77-.88-6.49-2.65-1.75-1.8-2.62-4.12-2.62-6.94,0-2.97.93-5.35,2.8-7.15h-.01ZM409.08,236.68c1.15,1.4,2.57,2.1,4.24,2.1s3.04-.68,4.21-2.04c1.17-1.36,1.75-3.54,1.75-6.54s-.59-5.23-1.77-6.58-2.58-2.02-4.19-2.02-3.08.7-4.24,2.1c-1.16,1.4-1.73,3.57-1.73,6.5s.58,5.09,1.73,6.49h0Z"/>
          <path class="st0" d="M432.08,220.98v.52c-.55.02-.95.07-1.18.15-.42.15-.62.43-.62.84,0,.18.03.36.08.53s.12.39.22.67l4.02,10.46,2.94-7.8-1.3-3.41c-.25-.62-.61-1.03-1.1-1.24-.29-.13-.73-.19-1.32-.2v-.52h7.45v.52c-.7,0-1.18.06-1.44.15-.42.15-.62.47-.62.95,0,.16.02.31.05.43.04.12.13.37.27.75l4.02,10.43,3.48-9.44c.2-.53.33-1.01.41-1.43.04-.24.07-.43.07-.57,0-.52-.25-.87-.73-1.07-.27-.12-.68-.19-1.22-.2v-.52h5.52v.52c-.5.07-.88.19-1.14.34-.47.26-.82.72-1.06,1.36l-2.91,8.29-1.12,3.2-1.76,5.02h-.43l-1.22-3.18-3.22-8.57-4.27,11.75h-.42l-2.07-5.76-2.35-6.52c-.97-2.69-1.64-4.34-2.03-4.95-.38-.61-.98-.94-1.8-.98v-.52h6.82-.02,0Z"/>
        </g>
        <g>
          <path class="st0" d="M634.22,182.38V40.39h-26.61c-.7,0-1.23.17-1.58.51-.35.34-.53.85-.53,1.52v180.09c0,.67.17,1.18.53,1.52.35.34.88.51,1.58.51h4.22c5.27,0,10.18-1.1,14.75-3.3,2.81-1.36,4.78-2.63,5.93-3.81,1.14-1.19,1.71-2.37,1.71-3.55v-31.5h0Z"/>
          <path class="st0" d="M697.86,40.9c-.35-.34-.88-.51-1.58-.51h-53.63l14.62,6.31c7.21,3.11,11.87,10.21,11.87,18.05v117.63h-26.49l15.46,6.67c6.7,2.89,11.03,9.48,11.03,16.77v12.12c0,.67.17,1.18.53,1.52.35.34.88.51,1.58.51h3.95c4.04,0,8.52-.81,13.44-2.41,4.92-1.61,7.9-2.92,8.96-3.94.53-.67.79-1.35.79-2.03V42.42c0-.67-.18-1.18-.53-1.52h0Z"/>
        </g>
        <g>
          <path class="st0" d="M237,116.67c.71-7.12,1.07-15.01,1.07-23.68v-58.21h-17.62c-.47,0-.83.12-1.07.36s-.36.59-.36,1.07v56.96c0,10.09-.48,19.05-1.42,26.88-.95,7.83-2.79,15.78-5.52,23.85-5.22,16.26-15.61,30.32-31.15,42.19-.48.36-.71.77-.71,1.25,0,.36.09.62.27.8s1.04.92,2.58,2.23c.24.24.5.36.8.36s.56-.06.8-.18c16.14-7.83,28.13-17.38,35.96-28.66,7.59-10.92,12.64-23.32,15.13-37.21l1.25-8.01h-.01Z"/>
          <path class="st0" d="M292.9,35.14c-.24-.24-.59-.36-1.07-.36h-42.04l13.96,4.61c6.13,2.03,10.28,7.76,10.28,14.22v21.75h-24.24l13.96,4.61c6.13,2.03,10.28,7.76,10.28,14.22v22.47h-24.24l13.96,4.61c6.13,2.03,10.28,7.76,10.28,14.22v30.3c0,1.07-.18,1.72-.53,1.96l-.18.18c-.36.36-1.6.53-3.74.53s-6.94-.27-14.42-.8-11.33-.8-11.57-.8-.48.15-.71.45c-.24.3-.36.68-.36,1.16v2.67c0,.47.12.83.36,1.07s.53.36.89.36c8.42,1.31,14.3,3.32,17.62,6.05,2.25,1.78,3.74,5.34,4.45,10.68,0,.36.12.68.36.98.24.29.47.44.71.44s.41-.06.53-.18c10.32-.95,17.21-3.15,20.65-6.59s5.16-8.9,5.16-16.38V36.21c0-.47-.12-.83-.36-1.07h.01Z"/>
        </g>
        <path class="st0" d="M349.69,164.56V40.66h-18.87c-.48,0-.83.12-1.07.36-.24.24-.35.59-.35,1.07v145.79c0,.47.12.83.35,1.07.24.24.59.36,1.07.36h3.03c3.8,0,7.3-.77,10.5-2.31,3.56-1.9,5.34-3.8,5.34-5.7v-16.73h0Z"/>
        <path class="st0" d="M443.32,41.02c-.24-.24-.6-.36-1.07-.36h-84.84l56.35,6.92c5.09.62,8.91,4.94,8.91,10.07v43.89h-65.26l56.35,6.92c5.09.62,8.91,4.94,8.91,10.07v46.03h-65.26l56.35,6.92c5.09.62,8.91,4.95,8.91,10.07v5.09c0,.47.12.83.36,1.07s.59.36,1.07.36h2.85c0,.12.06.18.18.18,1.42,0,4.75-.83,9.97-2.49,2.97-1.19,4.92-2.26,5.88-3.2.47-.48.71-1.01.71-1.6V42.08c0-.47-.12-.83-.36-1.07h-.01Z"/>
      </g>
    </g>
    <g>
      <g>
        <path class="st0" d="M120.84,553.95v17.53c0,2.4-.47,3.56-1.93,4.21-1.4.64-3.74.76-7.3.76-.17-1.05-.76-2.8-1.29-3.91,2.45.06,4.79.06,5.49.06.76-.06,1.05-.23,1.05-1.05v-16.3l-6.78,2.22-1.23-4.21c2.22-.59,4.97-1.4,8-2.34v-11.92h-7.25v-4.03h7.25v-11.63h3.97v11.63h6.37v4.03h-6.37v10.69c1.93-.64,3.92-1.29,5.9-1.93l.76,3.97-6.66,2.22h.02ZM163.38,572.35c-.53.88-1.17,2.75-1.34,3.8h-10.17c-9,0-15.13-1.75-19.28-8.65-1.52,3.86-3.62,7.13-6.25,9.64-.58-.7-2.22-1.99-3.16-2.63,4.56-4.03,7.07-10.34,8.12-18l3.97.53c-.29,1.99-.64,3.86-1.11,5.61,1.81,4.56,4.62,7.07,8.3,8.41v-15.31h-11.86v-3.51h11.86v-4.97h-15.19v-3.56h15.19v-4.32h-11.86v-3.5h11.86v-3.92h-14.43v-3.56h14.43v-5.14h4.03v5.14h15.31v3.56h-15.31v3.92h12.62v7.83h4.03v3.56h-4.03v8.47h-12.62v4.85h13.38v3.56h-13.38v7.83c1.75.23,3.56.35,5.55.35h11.34ZM146.49,543.72h8.53v-4.32h-8.53v4.32ZM146.49,552.25h8.53v-4.97h-8.53v4.97Z"/>
        <path class="st0" d="M186.75,551.61c-.93,5.08-2.45,10.58-4.38,14.72,1.11.7,2.4,1.75,4.44,2.92,4.09,2.51,9.41,2.92,16.3,2.92,7.54,0,16.94-.58,23.49-1.23-.59,1.17-1.23,3.21-1.34,4.5-4.32.29-15.37.64-22.32.64-7.65,0-12.79-.64-17.06-3.21-2.34-1.4-4.56-3.39-5.84-3.39s-3.27,3.68-4.97,7.36l-2.98-3.91c2.22-3.21,4.44-5.78,6.37-6.84,1.64-3.21,2.86-7.77,3.68-11.8h-7.65c1.64-3.45,3.62-8.41,5.26-13.03h-6.78v-3.92h12.33c-1.52,4.21-3.45,9.11-5.08,13.15h3.27l.64-.18,2.63,1.29h-.01ZM178.98,534.26c-.7-2.51-1.99-6.49-2.98-9.52l3.86-1.11c.99,3.04,2.34,6.84,3.1,9.35l-3.97,1.29h-.01ZM192.01,535.84h-3.97v-10.52h36.22v10.52h-4.21v-7.07h-28.04v7.07h0ZM204.05,569.14v-4.85h-15.78v-3.33h15.78v-3.56h-12.74v-16.53h12.74v-3.51h-11.45v-3.27h11.45v-2.98h4.21v2.98h10.98v3.27h-10.98v3.51h12.91v16.53h-12.91v3.56h16.36v3.33h-16.36v4.85h-4.21ZM195.17,547.7h8.88v-3.86h-8.88v3.86ZM204.05,554.42v-3.86h-8.88v3.86h8.88ZM208.26,543.84v3.86h8.94v-3.86h-8.94ZM217.19,550.56h-8.94v3.86h8.94v-3.86Z"/>
        <path class="st0" d="M287.43,567.91v4.44h-50.25v-4.44h50.25ZM284.33,528.88v4.38h-43.82v-4.38h43.82ZM279.54,547.81v4.38h-35.35v-4.38h35.35Z"/>
        <path class="st0" d="M299.59,574.16c2.86-1.64,5.43-4.62,6.89-7.01l3.39,1.58c-1.69,2.57-4.03,5.49-6.84,7.36l-3.45-1.93h0ZM313.61,561.31v2.51h34.88s-.06,1.05-.12,1.52c-.53,5.96-1.17,8.47-2.28,9.52-.82.76-1.81,1.11-3.15,1.17-1.05.06-3.21.06-5.49-.12-.06-.82-.35-2.05-.88-2.92,2.05.23,3.92.23,4.67.23.7,0,1.23-.06,1.58-.41.53-.58.99-2.34,1.46-6.31h-34.94v-23.25h12.15c.53-1.05,1.05-2.16,1.4-3.1h-17.59v6.49h-4.03v-9.29h2.4c-.41-.88-1.29-2.04-1.99-2.63,7.89-1.87,9.87-5.2,10.46-11.63h3.62c-.23,2.28-.58,4.27-1.23,6.02,2.92,1.34,6.25,3.33,8.12,4.73l-1.99,2.57c-1.69-1.4-4.67-3.33-7.48-4.67-1.81,2.57-4.67,4.32-9.29,5.61h45.92v9.29h-4.21v-6.49h-18.17c-.53,1.17-1.17,2.16-1.81,3.1h16.12v12.91h-28.16v2.45h37.92v2.69h-37.92.03ZM305.96,530.81c-.88-1.4-2.8-3.56-4.32-5.2l2.34-1.69c1.69,1.52,3.56,3.56,4.5,4.91l-2.51,1.99h0ZM313.61,545.89v2.57h23.95v-2.57h-23.95ZM337.56,553.6v-2.75h-23.95v2.75h23.95ZM317.58,568.03c.99,2.16,1.64,5.02,1.75,6.95l-3.74.7c-.06-1.93-.7-4.85-1.46-7.01l3.45-.64h0ZM324.42,525.32c-1.58,1.75-3.21,3.33-4.5,4.56l-2.28-1.4c1.23-1.29,2.98-3.45,3.86-4.79l2.92,1.64h0ZM326.75,567.62c1.23,1.93,2.45,4.44,2.92,6.13l-3.45.99c-.47-1.69-1.58-4.38-2.75-6.25l3.27-.88h.01ZM329.85,530.29c-.76-1.34-2.57-3.45-3.97-4.97l2.4-1.64c1.52,1.4,3.27,3.33,4.15,4.56l-2.57,2.04h0ZM345.92,537.06c-1.99-1.52-5.49-3.62-8.88-5.08-1.81,2.34-4.62,3.97-9.11,5.08-.35-.88-1.29-2.16-1.99-2.8,7.77-1.69,9.64-4.73,10.11-11.16h3.68c-.17,2.51-.58,4.56-1.29,6.37,3.51,1.4,7.36,3.56,9.58,5.14l-2.1,2.45h0ZM335.29,567.21c1.52,1.29,2.92,3.16,3.68,4.5l-3.15,1.4c-.64-1.34-2.04-3.33-3.45-4.73l2.92-1.17h0ZM349.37,525.44c-1.75,1.87-3.56,3.56-5.02,4.79l-2.16-1.46c1.34-1.4,3.27-3.68,4.32-5.08l2.86,1.75h0Z"/>
        <path class="st0" d="M378.47,558.68c-.12-.99-.35-2.16-.58-3.33-11.63,1.69-13.44,2.1-14.49,2.69-.23-.93-.93-2.98-1.4-4.15,1.23-.29,2.51-1.69,4.27-3.86.88-.99,2.75-3.39,4.79-6.49-5.96.76-7.19.99-8,1.4-.23-.88-.93-2.86-1.4-3.97.99-.23,1.99-1.4,3.1-3.21,1.29-1.69,5.2-8.35,7.48-14.61l4.03,1.69c-2.51,5.43-5.67,11.1-8.82,15.42l6.08-.59c1.58-2.45,3.04-5.14,4.32-7.77l3.86,2.22c-3.74,6.72-8.35,13.5-13.03,18.87l8.41-1.11c-.53-1.99-1.11-3.97-1.75-5.78l3.33-.88c1.4,4.03,2.92,9.29,3.39,12.39l-3.56,1.05-.03.02h0ZM367.95,561.13c-.64,5.14-1.69,10.69-2.98,14.37-.76-.41-2.4-.93-3.33-1.23,1.4-3.62,2.28-8.88,2.8-13.73l3.51.58h0ZM373.38,560.43c.64,3.97,1.29,9.06,1.46,12.45l-3.45.64c-.06-3.39-.64-8.53-1.29-12.5l3.27-.58h.01ZM378.58,559.03c1.17,2.98,2.4,6.83,2.92,9.35l-3.21,1.05c-.47-2.57-1.69-6.54-2.75-9.52l3.04-.88h0ZM396.17,555.47c-2.1,8.82-7.19,15.07-13.09,18.4-.53-.93-1.69-2.4-2.51-3.1,4.44-2.22,8.59-6.78,10.69-12.44h-7.54v-3.62h9.23l.7-.17,2.51.93h0ZM414.17,554.53c-2.63,2.4-5.61,5.08-8.18,7.01,2.51,3.97,5.78,7.19,9.52,9.11-.93.76-2.16,2.34-2.86,3.45-4.62-2.86-8.3-7.59-11.04-13.26v10.98c0,2.22-.47,3.39-2.04,4.09-1.52.7-3.97.76-7.71.76-.23-1.23-.7-2.86-1.29-4.03,2.75.12,5.2.12,5.9.06.76-.06.99-.23.99-.93v-21.91h-11.63v-20.45h8.94c.82-1.99,1.58-4.38,1.99-6.19l4.85.99c-.82,1.75-1.69,3.62-2.45,5.2h13.15v20.45h-10.69v2.1c.7,2.34,1.58,4.56,2.75,6.72,2.28-2.1,4.97-4.79,6.54-6.78l3.27,2.63h0ZM389.92,537.94h18.17v-5.08h-18.17v5.08ZM389.92,546.41h18.17v-5.2h-18.17v5.2Z"/>
        <path class="st0" d="M424.16,567.04l2.69-3.51c2.51,2.63,5.78,4.91,10.63,4.91s8.71-3.04,8.71-7.95-3.45-8.59-13.32-8.59v-4.09c8.82,0,11.86-3.56,11.86-8.18,0-4.15-2.8-6.78-7.25-6.89-3.45.12-6.49,1.87-8.88,4.26l-2.86-3.39c3.21-2.98,7.01-5.14,11.98-5.14,7.19,0,12.45,3.86,12.45,10.75,0,5.2-3.1,8.65-7.65,10.34v.23c5.08,1.17,9.11,5.02,9.11,10.87,0,7.65-6.13,12.21-13.73,12.21-6.72,0-10.93-2.8-13.73-5.84h0Z"/>
        <path class="st0" d="M461.21,567.21l2.63-3.5c2.45,2.45,5.55,4.73,10.52,4.73s9.11-3.86,9.11-10.11-3.51-9.76-8.88-9.76c-2.86,0-4.67.88-7.13,2.51l-2.86-1.75,1.34-20.04h20.86v4.56h-16.18l-1.05,12.39c1.87-1.05,3.8-1.69,6.37-1.69,7.13,0,12.91,4.21,12.91,13.61s-6.78,14.72-14.02,14.72c-6.66,0-10.75-2.8-13.61-5.67h-.01Z"/>
        <path class="st0" d="M499.54,550.56c0-14.9,5.2-22.08,13.38-22.08s13.32,7.25,13.32,22.08-5.2,22.32-13.32,22.32-13.38-7.42-13.38-22.32h0ZM521.04,550.56c0-12.5-3.27-17.76-8.12-17.76s-8.18,5.26-8.18,17.76,3.27,18.05,8.18,18.05,8.12-5.43,8.12-18.05Z"/>
        <path class="st0" d="M557.62,554.47c-4.09,8.59-11.33,17.29-18,21.97-.7-1.11-2.16-2.63-3.21-3.5,6.54-4.03,13.73-12.15,17.41-19.87l3.8,1.4h0ZM565.15,549.92v26.7h-4.5v-26.7h-23.25v-4.26h23.25v-22.32h4.5v22.32h23.37v4.26h-23.37ZM548.74,542.03c-1.29-3.62-4.62-9.41-7.95-13.67l3.91-1.64c3.27,4.09,6.84,9.7,8.24,13.44l-4.21,1.87h.01ZM571.52,552.96c6.89,6.31,14.67,15.07,18,20.98l-3.68,2.51c-3.21-5.96-10.75-14.96-17.7-21.38l3.39-2.1h-.01ZM585.84,528.07c-2.8,4.91-6.54,10.75-9.46,14.43l-3.74-1.69c2.92-3.86,6.54-10.11,8.53-14.61l4.67,1.87Z"/>
        <path class="st0" d="M125.08,642.61h9.52v-31.96h-7.6v-3.39c3.8-.7,6.54-1.69,8.88-3.04h4.09v38.39h8.59v4.44h-23.49v-4.44h.01Z"/>
        <path class="st0" d="M163.35,640.1c1.81,2.04,4.44,3.27,7.19,3.27,5.55,0,10.34-4.56,10.75-17.88-2.57,3.21-6.25,5.32-9.87,5.32-7.13,0-11.8-4.62-11.8-13.5,0-8.3,5.61-13.91,12.27-13.91,8.24,0,14.37,6.78,14.37,20.39,0,17.35-7.48,24.01-15.54,24.01-4.62,0-7.89-1.87-10.28-4.38l2.92-3.33h-.01ZM181.23,621.11c-.58-8.82-3.86-13.5-9.35-13.5-4.09,0-7.24,3.86-7.24,9.7s2.57,9.52,7.65,9.52c2.86,0,6.08-1.64,8.94-5.73h0Z"/>
        <path class="st0" d="M196.78,636.42c0-5.73,3.97-9.7,7.89-11.8v-.29c-3.16-2.16-5.78-5.38-5.78-9.87,0-6.54,5.02-10.87,11.74-10.87,7.3,0,11.74,4.67,11.74,11.28,0,4.5-3.16,8.35-5.73,10.34v.29c3.74,2.16,7.25,5.38,7.25,11.22,0,6.25-5.38,11.1-13.44,11.1s-13.67-4.79-13.67-11.39h0ZM218.8,636.6c0-5.73-5.26-7.89-11.33-10.34-3.45,2.22-5.84,5.61-5.84,9.7,0,4.56,3.8,7.89,8.94,7.89s8.24-2.98,8.24-7.24h-.01ZM217.81,615.15c0-4.21-2.69-7.65-7.3-7.65-3.92,0-6.78,2.8-6.78,6.95,0,5.14,4.62,7.36,9.64,9.35,2.92-2.57,4.44-5.49,4.44-8.65h0Z"/>
        <path class="st0" d="M232.89,642.15l2.63-3.5c2.45,2.45,5.55,4.73,10.52,4.73s9.11-3.86,9.11-10.11-3.51-9.76-8.88-9.76c-2.86,0-4.67.88-7.13,2.51l-2.86-1.75,1.34-20.04h20.86v4.56h-16.18l-1.05,12.39c1.87-1.05,3.8-1.69,6.37-1.69,7.13,0,12.91,4.21,12.91,13.61s-6.78,14.72-14.02,14.72c-6.66,0-10.75-2.8-13.61-5.67h0Z"/>
        <path class="st0" d="M288.16,631.75l.64,3.8c-5.73,2.45-11.86,4.97-16.59,6.89l-1.58-4.38c2.05-.64,4.56-1.52,7.3-2.57v-19.22h-6.43v-4.15h6.43v-13.26h4.03v13.26h5.61v4.15h-5.61v17.76l6.19-2.28h0ZM324.21,630.81h-15.95v20.68h-4.27v-20.68h-15.89v-4.15h15.89v-21.38h-14.2v-4.15h32.83v4.15h-14.37v21.38h15.95v4.15h0ZM295.52,608.61c1.64,4.5,3.04,10.4,3.51,14.26l-3.74.99c-.35-3.86-1.69-9.82-3.27-14.37l3.51-.88h-.01ZM312.64,622.92c1.46-3.86,3.21-10.28,4.09-14.67l4.09.93c-1.46,4.97-3.27,10.98-4.85,14.66l-3.33-.93h0Z"/>
        <path class="st0" d="M348.05,598.21h4.15v53.34h-4.15v-20.57h-5.61v1.46c0,5.08-.76,13.32-4.97,19.11-.7-.7-2.28-1.81-3.33-2.34,3.74-5.2,4.32-12.45,4.32-16.94v-1.29h-4.15v-3.91h13.73v-8.71h-11.39v-17.7h4.03v13.73h7.36v-16.18h0ZM372.94,621.52v23.96h12.97v4.15h-30.21v-4.15h12.91v-23.96h-14.31v-4.21h14.31v-19.05h4.32v19.05h13.96v4.21h-13.96,0Z"/>
        <path class="st0" d="M404.03,618.78v32.78h-4.15v-50.77h21.38v18h-17.24,0ZM404.03,603.94v4.26h13.09v-4.26h-13.09ZM417.12,615.56v-4.44h-13.09v4.44h13.09ZM412.68,634.73c-1.34-1.46-4.09-3.45-6.49-4.56l2.22-2.16c2.45,1.05,5.26,2.86,6.6,4.32l-2.34,2.4h0ZM407.48,646.94c2.1-2.63,5.02-6.89,7.42-10.75l2.28,2.51c-2.04,3.56-4.62,7.59-7.01,10.98l-2.69-2.75h0ZM410.87,619.95c2.34,1.11,4.91,2.92,6.13,4.44l-2.34,2.28c-1.17-1.52-3.8-3.45-6.08-4.62l2.28-2.1h0ZM448.08,645.94c0,2.45-.47,3.8-2.1,4.56-1.52.7-4.03.82-7.89.82-.12-.82-.47-2.04-.88-3.1h-14.02v1.93h-3.51v-13.91h6.95v-4.03h-9.58v-3.16h9.58v-3.97c-2.57.35-5.2.58-7.6.76-.18-.76-.64-1.99-1.05-2.8,6.25-.59,13.73-1.64,18-2.92l2.45,2.75c-2.28.7-5.14,1.23-8.12,1.69v4.5h9.99v3.16h-9.99v4.03h7.07v10.75c2.45.12,4.73.06,5.43.06.76-.06,1.05-.29,1.05-1.17v-27.11h-17.7v-18h21.91v45.16h.01ZM433.89,639.28h-10.69v5.9h10.69v-5.9ZM430.32,603.94v4.26h13.55v-4.26h-13.55ZM443.88,615.56v-4.44h-13.55v4.44h13.55Z"/>
        <path class="st0" d="M500.85,629.76c3.27,3.86,8.24,7.25,13.15,9-.99.82-2.22,2.34-2.86,3.33-5.67-2.34-11.33-7.19-14.84-12.33h-18.29c-3.68,5.43-9.58,10.46-15.25,13.09-.64-1.05-1.81-2.51-2.8-3.33,4.85-1.93,9.87-5.61,13.2-9.76h-12.62v-3.68h11.57v-18.64h-8.88v-3.62h8.88v-5.61h4.26v5.61h21.21v-5.61h4.38v5.61h8.76v3.62h-8.76v18.64h11.28v3.68h-12.39ZM488.93,646.24h20.16v3.68h-44.05v-3.68h19.57v-6.13h-11.92v-3.56h11.92v-4.91h4.32v4.91h12.21v3.56h-12.21v6.13h0ZM476.37,607.44v3.91h21.21v-3.91h-21.21ZM476.37,618.66h21.21v-4.03h-21.21v4.03ZM476.37,626.08h21.21v-4.15h-21.21v4.15Z"/>
        <path class="st0" d="M535.09,632.62c2.1-.93,4.26-1.81,6.43-2.75l.88,3.86c-6.13,2.86-12.68,5.78-17.76,8.06l-1.69-4.32c2.22-.76,5.02-1.93,8.06-3.21v-18h-7.01v-4.15h7.01v-13.26h4.09v13.26h6.31v4.15h-6.31v16.36h-.01ZM568.63,646.29c3.39,0,3.97-1.58,4.38-8.3,1.05.76,2.69,1.46,3.91,1.64-.7,8-2.04,10.58-8.12,10.58h-14.37c-6.6,0-8.59-1.58-8.59-7.89v-18.35l-4.62,1.93-1.69-3.8,6.31-2.63v-15.89h4.15v14.08l7.83-3.27v-16.24h4.15v14.49l8.88-3.74,3.33,1.11-.23.7c-.58,8.24-1.58,18.99-3.04,25.59l-3.56-1.05c.99-5.32,1.75-13.96,2.22-21.33l-7.59,3.21v21.44h-4.15v-19.69l-7.83,3.33v20.16c0,3.15.76,3.91,4.56,3.91h14.08-.01Z"/>
      </g>
      <g>
        <path class="st0" d="M572.05,422.64l8.39-2.91,1.33,7.06c-4.99,2.16-13.1,5.43-24.35,9.8l-2.91-7.98c1.05-.33,2.77-.9,5.15-1.7,2.38-.8,4.1-1.37,5.15-1.7v-26.67h-8.81v-7.48h8.81v-19.03h7.23v19.03h7.73v7.48h-7.73v24.1h0ZM633.12,412.59v7.48h-22.35v29h-7.98v-29h-22.27v-7.48h22.27v-29.91h-19.86v-7.56h47.94v7.56h-20.11v29.91h22.36,0ZM585.51,388.49l6.23-1.66c2.55,6.92,4.18,13.71,4.9,20.36l-6.65,1.75c-.55-6.26-2.05-13.07-4.49-20.44h.01ZM622.24,408.68l-6.07-1.5c2.49-6.98,4.26-13.93,5.32-20.86l7.48,1.66c-3.21,10.75-5.46,17.64-6.73,20.69h0Z"/>
        <g>
          <path class="st0" d="M253.56,434.04c1.98-1.76,4.16-3.69,6.55-5.78,2.38-2.09,4.79-4.27,7.21-6.55,2.13-1.98,4.48-4.22,7.04-6.71,2.57-2.49,4.97-5.16,7.21-7.98s4.11-5.78,5.61-8.86,2.26-6.17,2.26-9.25c0-1.76-.39-3.39-1.16-4.9-.77-1.5-1.82-2.81-3.14-3.91s-2.88-1.94-4.68-2.53-3.73-.88-5.78-.88c-3.45,0-6.72.53-9.8,1.6-3.08,1.06-5.69,2.18-7.82,3.36l-1.1-9.47c3.23-1.39,6.51-2.49,9.85-3.3s6.77-1.21,10.29-1.21,6.7.46,9.74,1.38c3.05.92,5.69,2.29,7.93,4.13s4.02,4.13,5.34,6.88,1.98,5.93,1.98,9.52c0,3.23-.75,6.46-2.26,9.69-1.5,3.23-3.4,6.35-5.67,9.36-2.28,3.01-4.7,5.87-7.26,8.59-2.57,2.72-4.92,5.14-7.05,7.27s-4.44,4.29-6.94,6.5c-2.5,2.2-4.7,4.15-6.6,5.84h36.88v9.03h-48.66v-11.78l.03-.04h0Z"/>
          <path class="st0" d="M361.89,378h-31.92l-.66,20.59c1.03-.29,2.38-.55,4.07-.77s3.63-.33,5.83-.33c3.38,0,6.57.61,9.58,1.82,3.01,1.21,5.65,2.86,7.93,4.95,2.27,2.09,4.07,4.61,5.39,7.54,1.32,2.94,1.98,6.09,1.98,9.47,0,4.18-.79,7.89-2.37,11.12-1.58,3.23-3.71,5.95-6.38,8.15-2.68,2.2-5.8,3.85-9.36,4.95s-7.32,1.65-11.28,1.65c-4.18,0-7.63-.29-10.35-.88s-4.77-1.14-6.16-1.65l.33-10.35c2.35,1.32,4.75,2.29,7.21,2.92,2.46.62,5.38.94,8.75.94,2.27,0,4.5-.33,6.66-.99s4.07-1.63,5.72-2.92c1.65-1.28,2.99-2.88,4.02-4.79s1.54-4.07,1.54-6.5c0-2.71-.48-5.1-1.43-7.16-.96-2.05-2.28-3.78-3.96-5.17-1.69-1.39-3.67-2.42-5.94-3.08-2.28-.66-4.7-.99-7.27-.99-3.3,0-6.09.26-8.37.77-2.28.51-4.44,1.21-6.5,2.09l.66-40.4h42.27v9.03h.01Z"/>
          <path class="st0" d="M374.66,412.02h28.29v8.37h-28.29v-8.37Z"/>
          <path class="st0" d="M453.81,428.31h-35.78v-9.03l31.04-50.31h15.74v50.31h9.69v9.03h-9.69v17.5h-11.01v-17.5h.01ZM453.81,378h-.22l-24,41.28h24.22v-41.28Z"/>
          <path class="st0" d="M481.66,407.4c0-4.18.37-8.62,1.1-13.32s2.05-8.99,3.96-12.88,4.57-7.12,7.98-9.69,7.76-3.85,13.04-3.85,9.63,1.29,13.04,3.85c3.41,2.57,6.07,5.8,7.98,9.69s3.23,8.18,3.96,12.88c.73,4.7,1.1,9.14,1.1,13.32s-.37,8.62-1.1,13.32-2.05,8.99-3.96,12.88c-1.91,3.89-4.57,7.12-7.98,9.69s-7.76,3.85-13.04,3.85-9.63-1.29-13.04-3.85c-3.41-2.57-6.07-5.8-7.98-9.69s-3.23-8.18-3.96-12.88c-.73-4.7-1.1-9.14-1.1-13.32ZM493.33,407.4c0,1.62.05,3.49.16,5.61.11,2.13.33,4.33.66,6.6.33,2.28.81,4.51,1.43,6.72.62,2.2,1.47,4.18,2.53,5.94s2.38,3.17,3.96,4.24c1.58,1.06,3.47,1.6,5.67,1.6s4.09-.53,5.67-1.6c1.58-1.06,2.9-2.48,3.96-4.24,1.06-1.76,1.91-3.74,2.53-5.94.62-2.2,1.1-4.44,1.43-6.72.33-2.27.55-4.48.66-6.6.11-2.13.17-4,.17-5.61,0-2.42-.17-5.38-.5-8.86-.33-3.48-.99-6.86-1.98-10.13-.99-3.26-2.44-6.04-4.35-8.31s-4.44-3.41-7.6-3.41-5.69,1.14-7.6,3.41c-1.91,2.28-3.36,5.05-4.35,8.31-.99,3.27-1.65,6.64-1.98,10.13-.33,3.49-.5,6.44-.5,8.86h.03Z"/>
        </g>
        <g>
          <path class="st0" d="M105.56,377.1h33.07v6.9h-73.37v-6.9h32.24v-7.64h8.06v7.64ZM135.81,410.42v28.25c0,2.05-.28,3.66-.83,4.82s-1.55,2.05-2.99,2.66c-2.27.89-6.93,1.33-13.96,1.33-.28-2.05-1.11-4.49-2.49-7.31h-22.77v4.07h-6.9v-22.43h32.24v18.36c4.38.11,7.04.08,7.98-.08,1.16,0,1.75-.5,1.75-1.5v-21.52h-51.27v30.58h-7.73v-37.23h66.97ZM79.14,388.07h45.7v17.78h-45.7v-17.78ZM116.86,400.45v-6.9h-30.08v6.9h30.08ZM111.04,434.6v-7.23h-18.28v7.23h18.28Z"/>
          <path class="st0" d="M151.34,389.9v-6.32h33.98v6.32h-33.98ZM181.84,417.98v25.01h-19.69v3.57h-6.98v-28.58h26.67ZM155.33,401.28v-6.15h26.76v6.15h-26.76ZM155.33,412.66v-6.23h26.76v6.23h-26.76ZM182.17,372.36v6.15h-26.34v-6.15h26.34ZM174.77,424.3h-12.63v12.3h12.63v-12.3ZM229.7,376.6v7.64h-15.46v53.59c0,2.38-.32,4.22-.95,5.53-.64,1.3-1.76,2.29-3.37,2.95-2.33.88-7.51,1.33-15.54,1.33-.17-1.66-1.05-4.35-2.66-8.06,3.6.11,7.73.17,12.38.17,1.38-.05,2.08-.72,2.08-1.99v-53.51h-19.69v-7.64h43.21,0Z"/>
        </g>
      </g>
      <g>
        <line class="st1" x1="634.28" y1="507.14" x2="634.28" y2="667.51"/>
        <line class="st1" x1="64.1" y1="667.51" x2="64.1" y2="507.14"/>
      </g>
    </g>
  </g>
  <g>
    <path class="st2" d="M63.01,429.6l-.48-6.55,2.5-.24v-35.77h-1.96v-6.19h21.78v6.19h-2.62v33.8l2.5-.3c-.16,2.78-.26,4.96-.3,6.55-.75.08-1.49.18-2.2.3v9.7h-6.37v-8.99c-5.63.63-9.92,1.13-12.86,1.49h.01ZM71.34,394.31h4.52v-7.26h-4.52v7.26ZM71.34,407.52h4.52v-7.26h-4.52v7.26ZM75.86,421.63v-8.21h-4.52v8.69l4.52-.48ZM90.8,389.85h2.98c1.43-2.06,2.96-4.38,4.58-6.96l5.24,3.51c-4.48,5.87-8.53,11.07-12.14,15.59,1.67-.16,3.37-.32,5.12-.48-.4-1.11-.79-2.24-1.19-3.39l4.46-1.67c1.11,2.66,2.42,6.07,3.93,10.24l-4.94,1.79-.65-2.14c-5.08.32-9.05.67-11.9,1.07l-2.26-5.65c1.9-1.59,3.95-3.83,6.13-6.73-1.94.08-3.43.22-4.46.42l-2.32-5.3c1.86-1.51,4.58-5.65,8.15-12.44l5.59,2.68c-1.51,2.42-3.61,5.58-6.31,9.46h0ZM85.86,410.62h5.71v7.38h2.44c.28-2.58.44-5.67.48-9.28h6.78c0,8.33-.56,14.3-1.67,17.91-1.07,3.73-3.43,7.36-7.08,10.89-1.35-1.43-3.39-3.06-6.13-4.88,3.61-2.58,5.83-5.63,6.67-9.17h-7.2v-12.86h0ZM101.46,390.26c2.3-1.94,5-6.13,8.09-12.56l5.42,2.86c-2.54,3.89-4.74,7.1-6.61,9.64h3.75c1.19-1.83,2.5-3.93,3.93-6.31l5.12,3.51c-3.65,5.36-7.34,10.26-11.07,14.7,1.11-.08,2.74-.2,4.88-.36l-1.43-3.57,4.7-1.85c1.15,2.78,2.54,6.21,4.17,10.3l-5.06,2.02c-.2-.67-.42-1.35-.65-2.02-5.36.32-9.17.6-11.43.83l-2.32-6.07c1.71-1.35,3.57-3.33,5.59-5.95-1.75.12-3.13.26-4.17.42l-2.92-5.59h.01ZM119.67,410.62v15.12h-5.71v-2.26h-2.92v13.63h-6.9v-28.39h6.9v9.28h2.92v-7.38h5.71Z"/>
    <path class="st2" d="M125.98,419.84l5.71.77c-.44,4.48-1.09,9.64-1.96,15.47l-6.55-1.13c1.19-5.08,2.12-10.12,2.8-15.12h0ZM131.87,394.79c1.67,0,3.13-.04,4.4-.12,1.35-2.5,2.6-4.96,3.75-7.38l6.96,3.09c-2.98,5.52-7.56,12.4-13.75,20.65,2.62-.2,4.84-.4,6.67-.6-.52-1.86-1.07-3.73-1.67-5.59l4.7-1.67c1.43,3.77,2.96,8.33,4.58,13.69l-5.36,1.67c-.2-.67-.4-1.37-.6-2.08-8.01.6-13.13,1.31-15.35,2.14l-2.38-6.55c1.31-.71,2.62-1.98,3.93-3.81,1.63-2.38,3.17-4.72,4.64-7.02-3.13.12-5.46.46-6.96,1.01l-2.02-6.84c.75-.36,1.67-1.43,2.74-3.21,2.58-4.48,4.74-9.17,6.49-14.05l7.5,2.26c-2.7,5.28-5.46,10.08-8.27,14.4h0ZM140.08,433.89l-6.07.65c-.2-3.93-.54-8.57-1.01-13.93l5.3-.54c.71,4.29,1.31,8.89,1.79,13.81h0ZM149.25,437.04v-5.06l-6.07,1.85c-.91-4.72-2-9.28-3.27-13.69l5.3-1.49c1.43,4.17,2.78,8.45,4.05,12.86v-18.39h29.64v23.92h-7.5v-2.62h-14.64v2.62h-7.51ZM180.13,384.19v6.73c-2.06,4.44-5.06,8.29-8.99,11.55,3.37,1.31,7.24,2.26,11.61,2.86-.6,2.46-1.17,5.06-1.73,7.8-6.55-1.39-12.16-3.39-16.84-6.01-4.72,2.54-10.3,4.54-16.72,6.01-1.03-2.98-1.98-5.34-2.86-7.08,4.92-.95,9.2-2.18,12.86-3.69-1.75-1.51-3.27-3.17-4.58-5-.99,1.19-2.02,2.26-3.09,3.21-2.02-2.46-3.57-4.25-4.64-5.36,4.8-5.04,8.57-10.73,11.31-17.08l7.86.95c-.83,1.79-1.69,3.49-2.56,5.12h18.39-.02ZM171.39,420.56h-14.64v6.43h14.64v-6.43ZM157.34,391.57c1.71,2.82,3.99,5.22,6.84,7.2,3.17-2.18,5.46-4.72,6.84-7.62h-13.39l-.3.42h.01Z"/>
    <path class="st2" d="M185.73,420.26l-1.49-8.45c3.67-.32,7.3-.67,10.89-1.07v-7.62h-10.83v-7.62h10.83v-5.86l-8.39.63c-.16-1.83-.52-4.36-1.07-7.62,8.89-.48,17.42-1.31,25.59-2.5l1.84,7.44c-2.88.44-5.93.83-9.17,1.19v6.73h11.55l-.77-16.9h8.45c.12,5.77.31,11.41.57,16.9h19.55v7.62h-19.19c.28,4.54.7,8.38,1.28,11.52,3.49-3.23,6.63-6.85,9.4-10.86l6.37,5.18c-3.91,5.02-8.36,9.6-13.36,13.75,1.59,3.79,3.37,5.68,5.36,5.68.26,0,.54-.07.85-.21.31-.14.72-1.22,1.23-3.24.52-2.02.98-4.47,1.4-7.35,2.78,1.83,5.2,3.17,7.26,4.05-1.13,5.99-2.41,10.05-3.84,12.17s-3.42,3.18-5.98,3.18c-5.71,0-10.08-3.03-13.09-9.11-3.35,2.3-6.92,4.46-10.71,6.49-1.23-2.22-2.86-4.54-4.88-6.96,4.68-1.96,9-4.32,12.94-7.08-1.11-4.44-1.9-10.18-2.38-17.2h-11.99v6.58c3.41-.44,6.78-.9,10.12-1.4-.12,1.75-.18,3.34-.18,4.79,0,1.15.04,2.21.12,3.18l-10.06,1.25v11.84c0,2.18-.49,3.85-1.46,5.01s-2.75,1.83-5.33,2.02-5.59.28-9.05.28c-.71-3.49-1.47-6.11-2.26-7.86,1.92.16,3.89.24,5.89.24l1.19.03c.71,0,1.26-.25,1.64-.76s.57-1.29.57-2.37v-7.2l-9.4,1.49h0ZM230.13,380.03c4.6,3.73,8.07,6.74,10.42,9.05-2.3,2.1-4.17,3.89-5.59,5.36-2.9-3.25-6.19-6.41-9.88-9.46l5.06-4.94h0Z"/>
  </g>
  <g>
    <path class="st2" d="M110.39,265.22l-2.84,3.27c8.55,10.56,20.34,18.65,35.38,24.27-2.7,4.42-5.02,8.29-6.97,11.62-15.21-7.8-27.03-16.87-35.46-27.2-7.92,10.39-19.91,19.94-35.98,28.66-1.61-2.7-4.02-6.46-7.23-11.28,16.87-7.63,29.41-17.41,37.61-29.35h15.49,0ZM60.21,335.02h12.22v-33.05h12.57v33.05h12.39v-43.29h12.57v16.44h21.86v11.1h-21.86v15.75h30.13v11.1H60.21v-11.1Z"/>
    <path class="st2" d="M146.11,347.59l-.69-7.92c18.99,0,38.1-.26,57.32-.77-.75,3.1-1.21,5.57-1.38,7.4-23.01.34-41.43.77-55.26,1.29h.01ZM147.06,305.15h21.6v-3.01h-19.19v-5.85h19.19v-2.93h-18.76v-5.85h18.76v-3.27h-22.64v-6.02h22.64v-3.27h-18.59v-5.85h18.59v-4.48h10.16v4.48h18.59v9.12h4.73v6.02h-4.73v9.12h-18.59v2.93h18.68v5.85h-18.68v3.01h22.46v6.11h-54.23v-6.11h0ZM148.86,314.28h50.09v22.72h-50.09v-22.72h0ZM158.16,323.14h11.53v-3.01h-11.53v3.01ZM158.16,331.15h11.53v-3.01h-11.53v3.01ZM189.66,320.13h-11.53v3.01h11.53v-3.01ZM189.66,331.15v-3.01h-11.53v3.01h11.53ZM188.97,274.94h-10.16v3.27h10.16v-3.27ZM188.97,287.51v-3.27h-10.16v3.27h10.16ZM203.78,271.41h9.47v57.58h-9.47v-57.58ZM217.46,264.61h10.33v72.04c0,7.98-3.76,12.08-11.28,12.31-3.33.11-6.54.2-9.64.26-.46-3.61-1.26-7.4-2.41-11.36,2.07.12,4.68.23,7.83.34,3.44.06,5.16-1.81,5.16-5.59v-68h0Z"/>
    <path class="st2" d="M257.93,338.16h-4.81l-6.85-11.55c-.16-.26-.39-.79-.69-1.58h-.1c-.03.11-.26.64-.71,1.6l-7.05,11.53h-4.83l10.2-15.41-9.39-15.27h4.85l6.06,10.62c.36.62.71,1.35,1.07,2.18h.08c.32-.71.71-1.47,1.17-2.28l6.34-10.52h4.54l-9.59,15.22,9.73,15.47h-.02Z"/>
    <path class="st2" d="M282.8,286.91l10.07,6.46c-2.52,3.7-5.28,7.33-8.26,10.89v44.63h-11.96v-31.72c-2.64,2.55-5.39,5.06-8.26,7.53-1.15-3.21-2.73-7.2-4.73-11.96,8.84-7.63,16.55-16.24,23.15-25.82h0ZM281.42,264.53c3.67,2.52,7.11,4.99,10.33,7.4-6.03,7-14.03,14.49-24.01,22.46-2.12-3.21-4.68-6.6-7.66-10.16,9.64-7.34,16.76-13.91,21.35-19.71h0ZM294.07,295.25h51.38v11.19h-13.43v27.72c0,4.59-1.07,8.1-3.21,10.52-2.14,2.42-5.16,3.77-9.08,4.02-3.92.26-9.72.43-17.41.52-.8-3.79-1.87-7.8-3.18-12.05,5.97.4,10.67.6,14.12.6,4.19,0,6.28-2.21,6.28-6.63v-24.7h-25.48v-11.19h0ZM296.91,270.64h44.76v11.19h-44.76v-11.19Z"/>
    <path class="st2" d="M381,301.28v8.78h-10.76v25.05c4.02-.4,8.26-.83,12.74-1.29l-1.21,9.12c-6.71.52-17.56,1.81-32.54,3.87l-1.29-9.81c3.79-.29,7.83-.6,12.14-.95v-25.99h-11.19v-8.78h11.19v-6.28h-5.51v-3.61c-1.44,1.72-2.93,3.47-4.48,5.25-.75-4.07-1.55-8.21-2.41-12.39,5.16-5.57,9.87-12.02,14.12-19.37h12.22l-1.98,2.84c4.53,5.57,8.44,10.59,11.71,15.06l-6.71,7.92c-.4-.69-.89-1.49-1.46-2.41v6.71h-5.34v6.28h10.76ZM355.35,314.02c1.49,7.23,2.61,13.08,3.36,17.56l-6.71,1.55c-.86-5.57-1.89-11.48-3.1-17.73l6.46-1.38h0ZM366.11,275.46c-2.35,3.56-4.94,7.26-7.75,11.1h16.18c-2.64-3.79-5.45-7.49-8.44-11.1h.01ZM374.38,314.02l6.71,1.29c-1.15,5.57-2.3,11.1-3.44,16.61l-6.2-1.12c1.32-6.37,2.29-11.96,2.93-16.78h0ZM388.15,266.42c4.48,5.28,8.23,9.96,11.28,14.03l-8.26,6.2c-3.85-5.57-7.4-10.36-10.67-14.37l7.66-5.85h0ZM395.21,349.22h-11.36v-61.37h17.39v-23.07h11.36v23.07h17.04v49.06c0,6.66-2.87,10.36-8.61,11.1-3.39.34-7.6.54-12.65.6-.46-2.64-1.21-6.46-2.24-11.45,3.1.23,5.79.32,8.09.26,2.7,0,4.05-1.43,4.05-4.3v-2.58h-23.07v18.68ZM418.27,298.35h-23.07v6.54h23.07v-6.54ZM395.21,320.99h23.07v-6.54h-23.07v6.54ZM424.73,266.59l8.69,6.28c-4.94,6.14-9.01,10.93-12.22,14.37l-7.49-6.37c3.9-4.25,7.57-9.01,11.02-14.29h0Z"/>
    <path class="st2" d="M460.37,338.16h-4.81l-6.85-11.55c-.16-.26-.39-.79-.69-1.58h-.1c-.03.11-.26.64-.71,1.6l-7.05,11.53h-4.83l10.2-15.41-9.39-15.27h4.85l6.06,10.62c.36.62.71,1.35,1.07,2.18h.08c.32-.71.71-1.47,1.17-2.28l6.34-10.52h4.54l-9.59,15.22,9.73,15.47h-.02Z"/>
    <path class="st2" d="M480.08,349.65h-9.98v-37.18c-1.49,2.81-3.01,5.48-4.56,8-.69-5.62-1.78-10.99-3.27-16.1,5.34-10.39,10.33-23.7,14.98-39.94l10.59,2.32c-2.47,8.32-5.05,16.07-7.75,23.24v59.65h-.01ZM539.72,325.72v6.02c-3.21,2.58-6.89,4.91-11.02,6.97,5.74.86,12.08,1.35,19.02,1.46-.8,1.43-2.5,4.62-5.08,9.55-9.81-.98-18.59-2.93-26.34-5.85-8.67,2.87-18.65,4.96-29.95,6.28-.52-1.32-2.15-4.36-4.91-9.12,9.01-.46,16.87-1.26,23.58-2.41-2.18-1.26-4.25-2.61-6.2-4.05-2.07,1.66-4.25,3.27-6.54,4.82-1.72-2.18-3.73-4.42-6.02-6.71,6.02-2.75,11.22-6.17,15.58-10.24h3.79c-2.47-.86-3.7-2.84-3.7-5.94v-2.75c-2.52,3.56-5.45,7.37-8.78,11.45l-6.97-5.42c2.18-2.3,4.19-4.56,6.02-6.8h-7.14v-11.36h6.71v-23.58h16.01c.29-1.15.54-2.24.77-3.27h-19.8v-7.06h57.58v7.06h-26.42c-.34,1.03-.75,2.12-1.21,3.27h22.46v23.58h5.16v11.36h-5.16c1.55,1.66,3.56,3.79,6.02,6.37l-7.32,5.68c-2.07-2.87-4.59-6.08-7.57-9.64-.23,1.44-.6,2.78-1.12,4.05-.8,2.35-3.39,3.53-7.75,3.53h-12.82c-.75.98-1.55,1.89-2.41,2.75h31.53ZM495.31,309.2l6.63,3.87v-4.13h8.78v4.65c0,1.78,1.06,2.67,3.18,2.67h2.75c-1.32-1.95-3.18-4.33-5.59-7.14l2.75-1.81h-20.74v4.73c.75-.97,1.49-1.92,2.24-2.84h0ZM531.29,283.2h-29.52v2.93h29.52v-2.93ZM501.77,293.88h29.52v-2.93h-29.52v2.93ZM501.77,301.62h29.52v-2.93h-29.52v2.93ZM516.48,335.97c3.73-1.15,6.86-2.5,9.38-4.05h-19.19c2.87,1.61,6.14,2.96,9.81,4.05ZM524.66,308.94c.75.46,3.38,1.52,7.92,3.18l4.73-3.27c.11.11.46.49,1.03,1.12v-2.67h-19.71c1.66,1.78,3.13,3.36,4.39,4.73l-5.94,4.22h3.18c2.29,0,3.59-.77,3.87-2.32.29-2.01.46-3.67.52-4.99h.01Z"/>
    <path class="st2" d="M571.48,265.22l11.96,3.96c-2.7,6.66-5.62,12.94-8.78,18.85v61.11h-12.39v-41.14c-2.78,3.82-5.68,7.43-8.69,10.85-.98-5.39-2.07-10.42-3.27-15.06,8.95-11.3,16.01-24.16,21.17-38.56h0ZM624.25,276.92l10.76,8.26c-8.55,9.53-18.33,18.46-29.35,26.81v17.6c0,4.3,1.86,6.46,5.59,6.46h3.7c2.84,0,4.71-.95,5.62-2.84.9-1.89,1.64-7.57,2.22-17.04,4.71,1.49,9.07,2.75,13.08,3.79-1.03,8.29-1.93,14.19-2.69,17.69s-2.6,6.16-5.51,7.98c-2.91,1.82-6.92,2.73-12.03,2.73h-7.4c-10.33,0-15.49-5.14-15.49-15.41v-11.79c-3.33,2.21-6.74,4.36-10.24,6.46-1.84-3.04-4.36-6.8-7.57-11.28,6.22-3.33,12.16-6.97,17.82-10.93v-39.85h12.91v29.91c6.69-5.68,12.88-11.86,18.59-18.55h-.01Z"/>
  </g>
  <g>
    <path class="st2" d="M85.88,499.64v-14.26c0-1.32.07-2.97.2-4.96h-.12c-.3,1.51-.55,2.51-.73,3.02l-5.8,16.21h-3.99l-5.87-16.06c-.14-.38-.39-1.44-.74-3.17h-.14c.13,1.97.2,3.95.2,5.93v13.29h-4.52v-23.51h7.28l5.07,14.2c.42,1.17.71,2.28.86,3.31h.11c.31-1.28.64-2.4.97-3.34l5.08-14.17h7.09v23.51h-4.95,0Z"/>
    <path class="st2" d="M116.71,499.64h-5.46l-1.76-5.39h-8.54l-1.73,5.39h-5.43l8.6-23.51h5.89l8.44,23.51h0ZM108.3,490.38l-2.67-8.15c-.17-.52-.29-1.2-.36-2.05h-.14c-.06.69-.2,1.35-.41,1.99l-2.69,8.21h6.27Z"/>
    <path class="st2" d="M124.68,476.13v23.51h-5.01v-23.51h5.01Z"/>
    <path class="st2" d="M143.91,499.64h-13.79v-23.51h5.01v19.41h8.79v4.1h0Z"/>
  </g>
  <g>
    <path class="st2" d="M235.25,483.87c.76-.42,1.77-.77,3.04-1.03,1.27-.26,2.35-.39,3.25-.39,4.69,0,7.04,2.35,7.04,7.06v10.14h-4.66v-2.44h-.06c-1.14,1.9-2.82,2.85-5.02,2.85-1.59,0-2.86-.45-3.82-1.36-.96-.9-1.43-2.14-1.43-3.7,0-3.22,1.92-5.09,5.75-5.61l4.61-.62c0-1.95-1.02-2.93-3.05-2.93s-3.89.61-5.66,1.82v-3.78h.01ZM240.79,492.04c-1.77.23-2.66,1.03-2.66,2.4,0,.63.21,1.13.64,1.52s1.01.58,1.74.58c1,0,1.83-.35,2.47-1.06.65-.71.97-1.59.97-2.64v-1.2l-3.17.41h0Z"/>
    <path class="st2" d="M268.48,499.64h-4.87v-2.56h-.08c-1.25,1.98-2.97,2.97-5.14,2.97-3.9,0-5.86-2.36-5.86-7.07v-10.12h4.9v9.67c0,2.51.98,3.76,2.94,3.76.98,0,1.77-.34,2.35-1.03.59-.69.88-1.62.88-2.79v-9.61h4.87v16.78h0Z"/>
    <path class="st2" d="M289.15,497.79c0,3.12-.89,5.52-2.66,7.2-1.78,1.68-4.33,2.53-7.67,2.53-2.27,0-4.07-.32-5.4-.97v-4.19c1.74,1.01,3.5,1.52,5.27,1.52s3.12-.47,4.1-1.4c.99-.94,1.48-2.23,1.48-3.89v-1.4h-.08c-1.18,1.91-2.94,2.87-5.28,2.87-2.11,0-3.81-.75-5.08-2.26s-1.9-3.53-1.9-6.05c0-2.82.7-5.08,2.1-6.76,1.4-1.68,3.24-2.53,5.52-2.53,2.06,0,3.61.8,4.64,2.41h.08v-2h4.89v14.93h-.01ZM284.31,490.17c0-1.11-.34-2.05-1.01-2.81s-1.52-1.15-2.54-1.15c-1.19,0-2.14.47-2.83,1.4-.69.94-1.04,2.25-1.04,3.94,0,1.47.33,2.62,1,3.47s1.55,1.27,2.66,1.27,2.02-.43,2.72-1.29c.7-.86,1.05-1.98,1.05-3.35v-1.47h0Z"/>
    <path class="st2" d="M292.66,493.31c0-1.36.39-2.58,1.18-3.64.79-1.06,1.93-1.84,3.43-2.34-1.19-.6-2.12-1.36-2.77-2.28s-.98-1.94-.98-3.07.32-2.24.96-3.19c.64-.96,1.54-1.7,2.69-2.25,1.15-.54,2.44-.81,3.87-.81s2.74.27,3.9.8,2.07,1.28,2.72,2.23c.65.96.97,2.01.97,3.16,0,1.09-.36,2.11-1.07,3.05-.71.94-1.67,1.68-2.88,2.23,1.47.51,2.61,1.29,3.43,2.34.82,1.06,1.23,2.29,1.23,3.71,0,1.99-.77,3.62-2.32,4.87-1.55,1.25-3.56,1.88-6.02,1.88s-4.48-.63-6.02-1.88c-1.55-1.25-2.32-2.86-2.32-4.83v.02ZM297.56,492.87c0,1.09.31,1.97.94,2.63s1.47.99,2.52.99,1.84-.33,2.49-.99.97-1.53.97-2.63c0-1.02-.33-1.87-.99-2.56s-1.48-1.02-2.47-1.02-1.85.34-2.5,1.02c-.64.68-.96,1.53-.96,2.56ZM298.29,482.49c0,.86.27,1.6.8,2.21s1.2.92,2.01.92,1.44-.3,1.99-.9.82-1.34.82-2.23-.27-1.64-.8-2.26-1.2-.93-2.01-.93-1.5.31-2.03.93c-.52.62-.78,1.37-.78,2.26Z"/>
    <path class="st2" d="M323.7,475.62v24.02h-4.93v-18.5c-.61.53-1.44,1-2.49,1.42s-2.02.68-2.9.78v-4.2c2.77-.81,5.17-1.98,7.19-3.52h3.13,0Z"/>
    <path class="st2" d="M336.97,495.56h9.97v4.08h-15.63v-1.75c0-1.22.22-2.34.68-3.35.45-1.01,1.07-1.96,1.86-2.83s2.01-1.9,3.67-3.07c1.52-1.13,2.58-2.14,3.19-3.01.61-.88.91-1.8.91-2.79,0-2.11-1.15-3.17-3.46-3.17-2.02,0-3.96.81-5.8,2.43v-4.37c2.05-1.33,4.36-1.99,6.92-1.99,2.35,0,4.2.6,5.57,1.8,1.37,1.2,2.05,2.85,2.05,4.95,0,1.17-.2,2.23-.59,3.18s-.97,1.83-1.71,2.66-1.95,1.83-3.6,2.99c-1.59,1.13-2.66,2.01-3.2,2.63-.55.62-.82,1.15-.82,1.61h-.01Z"/>
    <path class="st2" d="M351.49,495.07c1.25.81,2.73,1.21,4.43,1.21,3.79,0,5.73-2.47,5.81-7.41l-.09-.03c-1.03,1.59-2.63,2.38-4.78,2.38-1.95,0-3.56-.68-4.82-2.06-1.26-1.37-1.89-3.1-1.89-5.18,0-2.45.76-4.44,2.28-5.96,1.52-1.53,3.49-2.29,5.93-2.29s4.53.97,5.98,2.9,2.17,4.63,2.17,8.09c0,4.11-.87,7.36-2.62,9.74-1.74,2.39-4.26,3.58-7.53,3.58-1.85,0-3.47-.3-4.87-.9v-4.08h0ZM354.96,483.55c0,1.24.3,2.22.9,2.93s1.42,1.06,2.47,1.06c.93,0,1.7-.34,2.3-1.02.6-.68.9-1.52.9-2.52,0-1.2-.3-2.26-.9-3.16s-1.41-1.35-2.42-1.35-1.77.39-2.36,1.17-.89,1.74-.89,2.88h0Z"/>
    <path class="st2" d="M384.42,480.52c-1.2-.68-2.5-1.02-3.9-1.02-1.81,0-3.26.71-4.35,2.13s-1.63,3.26-1.63,5.52h.09c1.12-1.72,2.79-2.58,4.99-2.58,1.97,0,3.54.67,4.7,2.03s1.74,3.11,1.74,5.27c0,2.37-.75,4.32-2.26,5.87-1.51,1.54-3.44,2.31-5.78,2.31-2.69,0-4.75-.97-6.18-2.91s-2.15-4.6-2.15-7.98c0-3.98.93-7.21,2.78-9.69,1.86-2.48,4.44-3.73,7.75-3.73,1.78,0,3.18.21,4.2.64v4.14ZM374.71,491.92c0,1.21.3,2.25.91,3.1s1.41,1.28,2.4,1.28,1.79-.39,2.37-1.17.86-1.75.86-2.93c0-2.64-1.09-3.96-3.26-3.96-.98,0-1.77.35-2.37,1.05s-.9,1.58-.9,2.64h0Z"/>
    <path class="st2" d="M409.69,482.34c-.5,4.74-.74,7.78-.74,9.12,0,1.61.44,2.41,1.33,2.41s1.67-.59,2.26-1.78c.59-1.18.88-2.7.88-4.55,0-2.61-.83-4.75-2.5-6.41s-3.98-2.5-6.94-2.5c-3.14,0-5.74,1.1-7.82,3.3-2.08,2.2-3.12,4.87-3.12,8.02s.93,5.53,2.81,7.31,4.42,2.66,7.63,2.66c2.48,0,4.73-.47,6.77-1.41v3c-1.85.8-4.25,1.2-7.21,1.2-4.04,0-7.31-1.16-9.82-3.49s-3.76-5.43-3.76-9.32,1.34-7.33,4.01-10.02c2.68-2.7,6.12-4.04,10.34-4.04,3.93,0,7.11,1.06,9.54,3.19,2.42,2.12,3.64,4.9,3.64,8.33,0,2.81-.73,5.07-2.2,6.78-1.47,1.7-3.28,2.56-5.43,2.56-1.05,0-1.93-.29-2.62-.87s-1.06-1.37-1.1-2.36h-.11c-.76,2.16-2.17,3.23-4.22,3.23-1.52,0-2.73-.55-3.65-1.65-.91-1.1-1.37-2.61-1.37-4.55,0-2.5.64-4.53,1.91-6.11,1.27-1.57,2.83-2.36,4.66-2.36,1.66,0,2.69.65,3.1,1.96h.08c.02-.26.05-.53.08-.8s.06-.56.08-.85h3.5-.01ZM399.91,490.49c0,1.06.21,1.9.63,2.51.42.61.99.92,1.72.92,1.06,0,1.9-.57,2.51-1.71.61-1.14.92-2.65.92-4.52,0-.92-.21-1.63-.63-2.14s-.98-.76-1.69-.76c-1,0-1.83.56-2.48,1.68-.65,1.12-.98,2.46-.98,4.03h0Z"/>
    <path class="st2" d="M437.64,497.79c0,3.12-.89,5.52-2.66,7.2-1.78,1.68-4.33,2.53-7.67,2.53-2.27,0-4.07-.32-5.4-.97v-4.19c1.74,1.01,3.49,1.52,5.26,1.52s3.12-.47,4.1-1.4c.99-.94,1.48-2.23,1.48-3.89v-1.4h-.07c-1.18,1.91-2.94,2.87-5.28,2.87-2.11,0-3.81-.75-5.07-2.26-1.27-1.51-1.91-3.53-1.91-6.05,0-2.82.7-5.08,2.1-6.76,1.4-1.68,3.24-2.53,5.52-2.53,2.06,0,3.61.8,4.64,2.41h.07v-2h4.89v14.93h0ZM432.8,490.17c0-1.11-.34-2.05-1.01-2.81s-1.52-1.15-2.54-1.15c-1.19,0-2.14.47-2.83,1.4-.69.94-1.04,2.25-1.04,3.94,0,1.47.33,2.62,1,3.47s1.55,1.27,2.66,1.27,2.02-.43,2.72-1.29c.7-.86,1.05-1.98,1.05-3.35v-1.47h0Z"/>
    <path class="st2" d="M468.4,499.64h-4.89v-9.58c0-2.57-.94-3.85-2.81-3.85-.87,0-1.59.39-2.17,1.17-.58.78-.86,1.73-.86,2.85v9.41h-4.89v-9.7c0-2.49-.93-3.73-2.78-3.73-.92,0-1.66.37-2.21,1.11s-.83,1.73-.83,2.95v9.36h-4.9v-16.78h4.9v2.63h.06c.59-.96,1.36-1.71,2.34-2.24s1.99-.8,3.07-.8c2.36,0,3.97,1.06,4.84,3.17,1.29-2.11,3.18-3.17,5.64-3.17,3.65,0,5.48,2.26,5.48,6.77v10.43h0Z"/>
    <path class="st2" d="M473,483.87c.76-.42,1.77-.77,3.04-1.03s2.36-.39,3.26-.39c4.69,0,7.04,2.35,7.04,7.06v10.14h-4.66v-2.44h-.06c-1.14,1.9-2.82,2.85-5.02,2.85-1.59,0-2.86-.45-3.82-1.36-.96-.9-1.43-2.14-1.43-3.7,0-3.22,1.92-5.09,5.75-5.61l4.61-.62c0-1.95-1.02-2.93-3.05-2.93s-3.89.61-5.66,1.82v-3.78h0ZM478.54,492.04c-1.77.23-2.66,1.03-2.66,2.4,0,.63.21,1.13.64,1.52s1.01.58,1.74.58c1,0,1.83-.35,2.47-1.06.65-.71.97-1.59.97-2.64v-1.2l-3.17.41h.01Z"/>
    <path class="st2" d="M490.1,477.44c0-.75.27-1.36.8-1.83s1.21-.71,2.04-.71,1.54.24,2.06.72.79,1.09.79,1.81-.27,1.35-.8,1.84c-.54.49-1.22.74-2.05.74s-1.5-.25-2.03-.74c-.54-.5-.8-1.11-.8-1.84h-.01ZM490.46,499.64v-16.78h4.89v16.78h-4.89Z"/>
    <path class="st2" d="M499.66,499.64v-24.84h4.89v24.84h-4.89Z"/>
    <path class="st2" d="M508.22,497.44c0-.76.29-1.38.86-1.87.58-.49,1.26-.73,2.06-.73s1.49.25,2.05.74.83,1.11.83,1.85c0,.78-.28,1.41-.83,1.89s-1.26.72-2.11.72c-.79,0-1.46-.25-2.02-.74s-.84-1.12-.84-1.87h0Z"/>
    <path class="st2" d="M530.39,499.02c-1.17.69-2.84,1.03-5.01,1.03-2.56,0-4.63-.78-6.21-2.34s-2.37-3.58-2.37-6.05c0-2.85.85-5.1,2.55-6.74,1.7-1.64,3.97-2.47,6.8-2.47,1.91,0,3.33.26,4.25.79v4.2c-1.12-.82-2.35-1.23-3.67-1.23-1.5,0-2.7.45-3.6,1.36-.91.91-1.36,2.16-1.36,3.75s.43,2.75,1.29,3.63c.86.89,2.03,1.33,3.5,1.33,1.31,0,2.58-.41,3.82-1.25v3.98h.01Z"/>
    <path class="st2" d="M532.86,491.32c0-2.76.83-4.93,2.48-6.51,1.65-1.58,3.88-2.37,6.67-2.37s4.85.78,6.43,2.33,2.38,3.64,2.38,6.26c0,2.75-.82,4.94-2.44,6.57-1.63,1.63-3.83,2.44-6.62,2.44s-4.9-.78-6.5-2.34-2.4-3.69-2.4-6.38h0ZM537.83,491.26c0,3.35,1.37,5.02,4.1,5.02s3.93-1.72,3.93-5.16-1.32-4.92-3.96-4.92c-1.28,0-2.28.44-3,1.32s-1.07,2.12-1.07,3.73h0Z"/>
    <path class="st2" d="M580.62,499.64h-4.89v-9.58c0-2.57-.94-3.85-2.81-3.85-.87,0-1.59.39-2.17,1.17-.58.78-.86,1.73-.86,2.85v9.41h-4.89v-9.7c0-2.49-.93-3.73-2.78-3.73-.92,0-1.66.37-2.21,1.11-.55.74-.83,1.73-.83,2.95v9.36h-4.9v-16.78h4.9v2.63h.06c.59-.96,1.36-1.71,2.34-2.24s1.99-.8,3.07-.8c2.36,0,3.97,1.06,4.84,3.17,1.29-2.11,3.18-3.17,5.64-3.17,3.65,0,5.48,2.26,5.48,6.77v10.43h.01Z"/>
  </g>
  <g>
    <path class="st2" d="M69.36,552.4v8.19h-5.01v-23.51h8.09c5.85,0,8.77,2.48,8.77,7.44,0,2.41-.88,4.34-2.65,5.79-1.77,1.45-3.97,2.15-6.62,2.09h-2.58ZM69.36,540.97v7.59h2.17c2.94,0,4.42-1.28,4.42-3.84s-1.46-3.75-4.37-3.75c0,0-2.22,0-2.22,0Z"/>
    <path class="st2" d="M104.81,560.59h-5.01v-9.7h-10.02v9.7h-5.01v-23.51h5.01v9.48h10.02v-9.48h5.01s0,23.51,0,23.51Z"/>
    <path class="st2" d="M108.84,549.15c0-3.68,1.08-6.68,3.23-8.99s4.99-3.47,8.52-3.47,6.06,1.12,8.11,3.35c2.05,2.24,3.07,5.11,3.07,8.62s-1.06,6.63-3.19,8.92-4.92,3.42-8.37,3.42-6.11-1.1-8.21-3.32c-2.1-2.21-3.16-5.06-3.16-8.54h0ZM114.1,548.87c0,2.29.55,4.16,1.65,5.61s2.62,2.18,4.54,2.18,3.49-.7,4.58-2.09c1.09-1.39,1.64-3.26,1.64-5.61s-.53-4.38-1.59-5.8-2.56-2.13-4.49-2.13-3.51.73-4.64,2.19-1.69,3.34-1.69,5.66h0Z"/>
    <path class="st2" d="M156.64,560.59h-5.13l-9.95-15.21c-.52-.79-.89-1.43-1.12-1.91h-.08c.09.81.14,2.06.14,3.75v13.37h-4.75v-23.51h5.46l9.59,14.78c.64.98,1.03,1.6,1.17,1.87h.08c-.1-.57-.15-1.65-.15-3.25v-13.4h4.75v23.51h-.01Z"/>
    <path class="st2" d="M176.02,560.59h-13.92v-23.51h13.37v4.1h-8.36v5.54h7.77v4.08h-7.77v5.69h8.91v4.1h0Z"/>
  </g>
  <g>
    <path class="st2" d="M233.79,549.22c0-4.07.75-7.17,2.25-9.32,1.5-2.14,3.66-3.22,6.5-3.22,5.4,0,8.1,4,8.1,11.99,0,3.94-.73,6.97-2.2,9.11s-3.59,3.21-6.36,3.21c-5.52,0-8.29-3.92-8.29-11.78h0ZM238.75,549.1c0,5.42,1.16,8.13,3.48,8.13s3.41-2.79,3.41-8.38-1.11-8.41-3.32-8.41c-2.38,0-3.57,2.88-3.57,8.65h0Z"/>
    <path class="st2" d="M254.41,556.02c1.25.81,2.73,1.21,4.43,1.21,3.79,0,5.73-2.47,5.81-7.41l-.09-.03c-1.03,1.59-2.63,2.38-4.78,2.38-1.95,0-3.56-.68-4.82-2.06-1.26-1.37-1.89-3.1-1.89-5.18,0-2.45.76-4.44,2.28-5.96,1.52-1.53,3.5-2.29,5.93-2.29s4.53.97,5.98,2.9c1.45,1.93,2.17,4.63,2.17,8.09,0,4.11-.87,7.36-2.62,9.74-1.75,2.39-4.26,3.58-7.53,3.58-1.85,0-3.48-.3-4.87-.9v-4.08h0ZM257.89,544.5c0,1.24.3,2.22.9,2.93s1.42,1.06,2.47,1.06c.93,0,1.7-.34,2.3-1.02.6-.68.9-1.52.9-2.52,0-1.2-.3-2.26-.9-3.16-.6-.9-1.41-1.35-2.42-1.35s-1.77.39-2.36,1.17c-.59.78-.89,1.74-.89,2.88h0Z"/>
    <path class="st2" d="M288.79,540.07c-1.9,3.41-3.32,6.16-4.26,8.24s-1.7,4.11-2.28,6.09c-.59,1.97-1.04,4.04-1.35,6.19h-5.27c.51-3.07,1.4-6.17,2.68-9.31s3.05-6.53,5.3-10.16h-11.21v-4.04h16.39v2.99h0Z"/>
    <path class="st2" d="M292.73,559.98v-4.23c1.63.99,3.36,1.49,5.21,1.49,1.39,0,2.47-.34,3.26-1.02.78-.68,1.18-1.61,1.18-2.77,0-2.44-1.67-3.66-5.01-3.66-1.23,0-2.66.09-4.26.27l.88-12.97h12.44v4.04h-8.48l-.33,4.95c.84-.07,1.61-.11,2.32-.11,2.3,0,4.11.63,5.44,1.88,1.33,1.25,2,2.95,2,5.1,0,2.37-.8,4.3-2.41,5.8-1.61,1.5-3.79,2.25-6.56,2.25-2.24,0-4.12-.34-5.66-1.02h-.02Z"/>
    <path class="st2" d="M311.67,555.48c1.57,1.17,3.4,1.76,5.49,1.76,1.33,0,2.38-.29,3.16-.88s1.17-1.42,1.17-2.5-.46-1.96-1.39-2.55c-.93-.59-2.22-.88-3.89-.88h-2.09v-3.78h1.93c3.16,0,4.73-1.06,4.73-3.19,0-2-1.21-3-3.63-3-1.58,0-3.11.52-4.6,1.55v-4.05c1.62-.84,3.53-1.26,5.72-1.26s4.03.51,5.42,1.54c1.39,1.03,2.08,2.45,2.08,4.27,0,3.08-1.56,5.01-4.67,5.8v.08c1.64.18,2.95.78,3.93,1.8.98,1.02,1.47,2.25,1.47,3.71,0,2.24-.82,3.98-2.45,5.24-1.63,1.25-3.81,1.88-6.53,1.88-2.42,0-4.37-.4-5.84-1.2v-4.34Z"/>
    <path class="st2" d="M344.84,541.47c-1.19-.68-2.49-1.02-3.9-1.02-1.81,0-3.26.71-4.35,2.13s-1.63,3.26-1.63,5.52h.09c1.12-1.72,2.79-2.58,4.99-2.58,1.97,0,3.54.67,4.7,2.03,1.16,1.35,1.74,3.11,1.74,5.27,0,2.37-.75,4.32-2.26,5.87-1.51,1.54-3.44,2.31-5.78,2.31-2.69,0-4.75-.97-6.18-2.91s-2.15-4.6-2.15-7.98c0-3.98.93-7.21,2.78-9.69,1.86-2.48,4.44-3.73,7.75-3.73,1.78,0,3.18.21,4.2.64v4.14h0ZM335.13,552.87c0,1.21.3,2.25.91,3.1s1.41,1.28,2.4,1.28,1.79-.39,2.37-1.17c.58-.78.86-1.75.86-2.93,0-2.64-1.09-3.96-3.26-3.96-.98,0-1.77.35-2.38,1.05-.6.7-.9,1.58-.9,2.64h0Z"/>
    <path class="st2" d="M350,555.48c1.57,1.17,3.4,1.76,5.49,1.76,1.33,0,2.38-.29,3.16-.88s1.17-1.42,1.17-2.5-.46-1.96-1.39-2.55c-.93-.59-2.22-.88-3.89-.88h-2.09v-3.78h1.93c3.16,0,4.74-1.06,4.74-3.19,0-2-1.21-3-3.63-3-1.58,0-3.11.52-4.6,1.55v-4.05c1.62-.84,3.53-1.26,5.72-1.26s4.03.51,5.42,1.54c1.39,1.03,2.08,2.45,2.08,4.27,0,3.08-1.56,5.01-4.67,5.8v.08c1.64.18,2.95.78,3.93,1.8.98,1.02,1.47,2.25,1.47,3.71,0,2.24-.82,3.98-2.45,5.24-1.63,1.25-3.81,1.88-6.53,1.88-2.42,0-4.37-.4-5.84-1.2v-4.32l-.02-.02Z"/>
    <path class="st2" d="M382.23,537.08v14.93h3.32v3.57h-3.32v5.01h-4.46v-5.01h-10.5v-3.6c2.18-2.43,4.21-5,6.12-7.71s3.34-5.11,4.31-7.19h4.54-.01ZM371.61,552.02h6.16v-8.62c-.48.91-1.18,2.01-2.09,3.31-.91,1.29-2.26,3.07-4.07,5.31Z"/>
    <path class="st2" d="M388.58,556.02c1.25.81,2.73,1.21,4.43,1.21,3.79,0,5.73-2.47,5.81-7.41l-.09-.03c-1.03,1.59-2.63,2.38-4.78,2.38-1.95,0-3.56-.68-4.82-2.06-1.26-1.37-1.89-3.1-1.89-5.18,0-2.45.76-4.44,2.28-5.96,1.52-1.53,3.49-2.29,5.93-2.29s4.53.97,5.98,2.9c1.45,1.93,2.17,4.63,2.17,8.09,0,4.11-.87,7.36-2.62,9.74-1.74,2.39-4.26,3.58-7.53,3.58-1.85,0-3.47-.3-4.87-.9v-4.08h0ZM392.05,544.5c0,1.24.3,2.22.9,2.93s1.42,1.06,2.47,1.06c.93,0,1.7-.34,2.3-1.02.6-.68.9-1.52.9-2.52,0-1.2-.3-2.26-.9-3.16-.6-.9-1.41-1.35-2.42-1.35s-1.77.39-2.36,1.17c-.59.78-.89,1.74-.89,2.88h0Z"/>
    <path class="st2" d="M407.73,559.98v-4.23c1.63.99,3.36,1.49,5.2,1.49,1.39,0,2.47-.34,3.26-1.02s1.18-1.61,1.18-2.77c0-2.44-1.67-3.66-5.01-3.66-1.23,0-2.66.09-4.26.27l.88-12.97h12.44v4.04h-8.48l-.33,4.95c.84-.07,1.61-.11,2.32-.11,2.29,0,4.11.63,5.44,1.88,1.33,1.25,1.99,2.95,1.99,5.1,0,2.37-.8,4.3-2.41,5.8-1.61,1.5-3.79,2.25-6.56,2.25-2.24,0-4.12-.34-5.66-1.02Z"/>
  </g>
  <g>
    <path d="M82.04,157.04v-62.26h-20.98v-12.41h57.04v12.41h-21.18v62.26h-14.88Z"/>
    <path d="M130.21,157.04v-74.67h14.97v29.36h28.17v-29.36h14.88v74.67h-14.88v-32.31h-28.17v32.31h-14.97Z"/>
    <path d="M246.85,157.04l-5.22-19.21h-24.23l-5.22,19.21h-15.17l23.94-74.67h17.54l23.94,74.67h-15.56ZM220.65,126.31h17.73l-2.27-8.18c-.2-.66-2-7.45-5.42-20.39-.39-1.51-.76-2.86-1.08-4.04h-.39c-1.77,7.62-3.91,15.76-6.4,24.43l-2.17,8.18Z"/>
    <path d="M271.18,157.04v-74.67h15.27l21.67,39.8,7.49,16.16h.49c-1.31-13-1.97-21.74-1.97-26.2v-29.75h14.19v74.67h-15.17l-21.57-40-7.59-15.96h-.49c.13,1.31.33,3.42.59,6.31.85,8.87,1.28,15.43,1.28,19.7v29.95h-14.19Z"/>
    <path d="M346.64,157.04v-74.67h14.97v32.41h.3l24.73-32.41h16.45l-22.85,29.36,26.89,45.32h-16.45l-19.31-33.49-9.75,12.51v20.98h-14.97Z"/>
    <path d="M451.26,157.04v-27.39l-22.36-47.29h15.86l7.39,18.23c3.87,9.79,6.04,15.27,6.5,16.45h.39c3.09-7.55,5.32-13.04,6.7-16.45l7.39-18.23h15.56l-22.46,47.29v27.39h-14.97Z"/>
    <path d="M526.82,158.42c-10.84,0-19.31-4.01-25.42-12.02-5.32-6.96-7.98-15.96-7.98-26.99,0-13.92,4.07-24.33,12.22-31.23,5.78-4.79,12.84-7.19,21.18-7.19,11.1,0,19.7,4.04,25.81,12.12,5.06,6.83,7.58,15.6,7.58,26.3,0,13.53-3.88,23.87-11.62,31.03-5.85,5.32-13.1,7.98-21.77,7.98ZM526.82,145.52c6.76,0,11.75-3.35,14.97-10.05,2.17-4.4,3.25-9.75,3.25-16.06,0-10.84-2.86-18.36-8.57-22.56-2.83-2.04-6.04-3.05-9.65-3.05-7.03,0-12.12,3.45-15.27,10.34-1.91,4.2-2.86,9.29-2.86,15.27,0,10.57,2.72,18.13,8.18,22.66,2.82,2.3,6.14,3.45,9.95,3.45Z"/>
    <path d="M603.47,158.42c-19.31-.13-29-11.79-29.06-34.97v-41.08h14.97v42.36c0,11.89,3.35,18.65,10.05,20.29,1.25.33,2.59.49,4.04.49,7.75,0,12.38-4.33,13.89-13,.39-2.3.59-4.89.59-7.78v-42.36h14.38v41.08c0,22.59-9.03,34.25-27.09,34.97h-1.77Z"/>
  </g>
</svg>