<?xml version="1.0" encoding="UTF-8"?>
<svg xmlns="http://www.w3.org/2000/svg" xmlns:xlink="http://www.w3.org/1999/xlink" version="1.1" viewBox="0 0 881.09 245.84">
  <!-- Generator: Adobe Illustrator 30.4.0, SVG Export Plug-In . SVG Version: 2.1.4 Build 226)  -->
  <defs>
    <style>
      .st0 {
        fill: url(#_未命名漸層_17);
      }

      .st1 {
        fill: url(#_未命名漸層_1722);
      }

      .st2 {
        fill: url(#_未命名漸層_1723);
      }

      .st3 {
        fill: url(#_未命名漸層_1720);
      }

      .st4 {
        fill: url(#_未命名漸層_1721);
      }

      .st5 {
        fill: url(#_未命名漸層_1716);
      }

      .st6 {
        fill: url(#_未命名漸層_1717);
      }

      .st7 {
        fill: url(#_未命名漸層_1714);
      }

      .st8 {
        fill: url(#_未命名漸層_1715);
      }

      .st9 {
        fill: url(#_未命名漸層_1718);
      }

      .st10 {
        fill: url(#_未命名漸層_1719);
      }

      .st11 {
        fill: url(#_未命名漸層_1710);
      }

      .st12 {
        fill: url(#_未命名漸層_1713);
      }

      .st13 {
        fill: url(#_未命名漸層_1712);
      }

      .st14 {
        fill: url(#_未命名漸層_1711);
      }

      .st15 {
        fill: url(#_未命名漸層_176);
      }

      .st16 {
        fill: url(#_未命名漸層_177);
      }

      .st17 {
        fill: url(#_未命名漸層_171);
      }

      .st18 {
        fill: url(#_未命名漸層_178);
      }

      .st19 {
        fill: url(#_未命名漸層_175);
      }

      .st20 {
        fill: url(#_未命名漸層_172);
      }

      .st21 {
        fill: url(#_未命名漸層_173);
      }

      .st22 {
        fill: url(#_未命名漸層_174);
      }

      .st23 {
        fill: url(#_未命名漸層_179);
      }

      .st24 {
        fill: #edc9dc;
      }

      .st25 {
        display: none;
      }

      .st26 {
        fill: none;
        stroke: #edc9dc;
        stroke-miterlimit: 10;
        stroke-width: 2px;
      }
    </style>
    <linearGradient id="_未命名漸層_17" data-name="未命名漸層 17" x1="2.1" y1="120.07" x2="884.4" y2="120.07" gradientUnits="userSpaceOnUse">
      <stop offset="0" stop-color="#e6dbbb"/>
      <stop offset="1" stop-color="#c0a273"/>
    </linearGradient>
    <linearGradient id="_未命名漸層_171" data-name="未命名漸層 17" x1="4.75" y1="210.16" x2="46.4" y2="210.16" xlink:href="#_未命名漸層_17"/>
    <linearGradient id="_未命名漸層_172" data-name="未命名漸層 17" x1="52.86" y1="217.79" x2="100.27" y2="217.79" xlink:href="#_未命名漸層_17"/>
    <linearGradient id="_未命名漸層_173" data-name="未命名漸層 17" x1="55.79" y1="202.76" x2="73.62" y2="202.76" xlink:href="#_未命名漸層_17"/>
    <linearGradient id="_未命名漸層_174" data-name="未命名漸層 17" x1="54.19" y1="197.24" x2="98.1" y2="197.24" xlink:href="#_未命名漸層_17"/>
    <linearGradient id="_未命名漸層_175" data-name="未命名漸層 17" x1="102.01" y1="209.12" x2="118.32" y2="209.12" xlink:href="#_未命名漸層_17"/>
    <linearGradient id="_未命名漸層_176" data-name="未命名漸層 17" x1="115.86" y1="210.25" x2="151.45" y2="210.25" xlink:href="#_未命名漸層_17"/>
    <linearGradient id="_未命名漸層_177" data-name="未命名漸層 17" x1="152.48" y1="209.42" x2="173.13" y2="209.42" xlink:href="#_未命名漸層_17"/>
    <linearGradient id="_未命名漸層_178" data-name="未命名漸層 17" x1="169.48" y1="209.16" x2="201.71" y2="209.16" xlink:href="#_未命名漸層_17"/>
    <linearGradient id="_未命名漸層_179" data-name="未命名漸層 17" x1="210.64" y1="209.09" x2="245.93" y2="209.09" xlink:href="#_未命名漸層_17"/>
    <linearGradient id="_未命名漸層_1710" data-name="未命名漸層 17" x1="256.38" y1="209.21" x2="302.06" y2="209.21" xlink:href="#_未命名漸層_17"/>
    <linearGradient id="_未命名漸層_1711" data-name="未命名漸層 17" x1="255.1" y1="222.44" x2="267.52" y2="222.44" xlink:href="#_未命名漸層_17"/>
    <linearGradient id="_未命名漸層_1712" data-name="未命名漸層 17" x1="255.05" y1="204.47" x2="268.06" y2="204.47" xlink:href="#_未命名漸層_17"/>
    <linearGradient id="_未命名漸層_1713" data-name="未命名漸層 17" x1="315.54" y1="194.04" x2="331.56" y2="194.04" xlink:href="#_未命名漸層_17"/>
    <linearGradient id="_未命名漸層_1714" data-name="未命名漸層 17" x1="306.46" y1="209.22" x2="352.94" y2="209.22" xlink:href="#_未命名漸層_17"/>
    <linearGradient id="_未命名漸層_1715" data-name="未命名漸層 17" x1="309.22" y1="206.2" x2="326.42" y2="206.2" xlink:href="#_未命名漸層_17"/>
    <linearGradient id="_未命名漸層_1716" data-name="未命名漸層 17" x1="357.52" y1="218.52" x2="383" y2="218.52" xlink:href="#_未命名漸層_17"/>
    <linearGradient id="_未命名漸層_1717" data-name="未命名漸層 17" x1="357.67" y1="209.04" x2="404.83" y2="209.04" xlink:href="#_未命名漸層_17"/>
    <linearGradient id="_未命名漸層_1718" data-name="未命名漸層 17" x1="407.02" y1="193.55" x2="425.45" y2="193.55" xlink:href="#_未命名漸層_17"/>
    <linearGradient id="_未命名漸層_1719" data-name="未命名漸層 17" x1="426.67" y1="217.47" x2="454.62" y2="217.47" xlink:href="#_未命名漸層_17"/>
    <linearGradient id="_未命名漸層_1720" data-name="未命名漸層 17" x1="428.8" y1="191.45" x2="453.39" y2="191.45" xlink:href="#_未命名漸層_17"/>
    <linearGradient id="_未命名漸層_1721" data-name="未命名漸層 17" x1="406.43" y1="214.72" x2="427.22" y2="214.72" xlink:href="#_未命名漸層_17"/>
    <linearGradient id="_未命名漸層_1722" data-name="未命名漸層 17" x1="477.79" y1="209.17" x2="506.19" y2="209.17" xlink:href="#_未命名漸層_17"/>
    <linearGradient id="_未命名漸層_1723" data-name="未命名漸層 17" x1="457.14" y1="208.73" x2="479.82" y2="208.73" xlink:href="#_未命名漸層_17"/>
  </defs>
  <g id="_圖層_2" class="st25">
    <g id="_圖層_1-2" class="st25">
      <g>
        <g>
          <path class="st24" d="M582.08,158.5l-5.41-35.17,2.25-.45c14.65,24.12,26.6,41.03,47.35,41.03,24.35,0,34.72-23,34.72-50.5,0-31.11-13.53-46.22-36.98-46.22-12.85,0-22.55,4.28-29.99,9.92l-2.03-2.71,61.55-51.86h-71.7l9.69-22.54h93.57v2.25l-74.4,62.68c4.96-2.25,11.72-3.38,19.39-3.38,28.86,0,56.82,16.91,56.82,51.63,0,32.69-25.03,55.24-62,55.24-16.23,0-33.59-4.28-42.84-9.92h.01Z"/>
          <g>
            <path class="st24" d="M737.76,93.71c-.35.97-1.06,1.5-3.27,1.32-5.65,10.86-16.25,23.67-31,31l-.79-1.06c11.92-8.92,20.93-23.49,24.82-35.42l10.25,4.15h-.01ZM762.75,116.41l7.42,6.27c-.62.71-1.68,1.24-3.53,1.41-.97,20.67-3.09,34.36-7.24,38.24-2.65,2.38-6.09,3.44-10.69,3.44,0-2.03-.44-3.97-1.85-5.03-1.5-1.15-5.56-2.21-9.36-2.83l.09-1.5c4.24.44,11.3.97,13.34.97,1.77,0,2.56-.18,3.44-.97,2.65-2.47,4.33-15.28,5.21-33.3h-19.78c-1.59,14.48-6.36,30.82-33.3,43.01l-1.06-1.41c22.61-13.16,25.7-28.79,26.5-41.6h-13.95l-.79-2.65h41.51l4.06-4.06h-.02ZM762.14,90.53c-.97,1.06-3.36,1.68-6.18,1.94,4.15,9.8,14.84,19.61,28.26,24.55l-.18,1.06c-2.83.71-5.21,3.09-6,5.83-12.1-7.33-20.75-18.55-24.55-31.88h-9.89l-.79-2.56h8.57l2.92-4.42,7.86,5.48h-.02Z"/>
            <path class="st24" d="M822.1,88.41c-.35.97-1.15,1.5-3.27,1.68,21.46,7.77,14.04,18.9,8.66,14.84-1.5-3.53-5.03-8.74-9.63-13.16-4.15,8.65-11.3,18.99-19.69,25.44l-1.15-.79c6.71-7.95,13.16-22.08,15.46-31.26l9.63,3.27v-.02h0ZM834.19,150.59c-6.45,3.27-15.72,7.68-28.7,13.34-.35,1.06-1.15,1.85-1.94,2.12l-4.86-8.21c3-.53,8.04-1.77,14.13-3.18v-27.64h-12.45l-.71-2.56h13.16v-11.13h-6.8l-.71-2.56h14.66l3.8-5.03s4.42,3.53,7.15,6.18c-.26.97-1.15,1.41-2.38,1.41h-9.54v11.13h3.8l3.89-5.3s4.42,3.71,6.98,6.45c-.18.97-1.06,1.41-2.21,1.41h-12.45v26.14c4.68-1.24,9.8-2.56,14.93-3.89l.26,1.32h0ZM803.02,131.51c12.19,12.01,5.56,23.4.97,17.84.62-5.56-.71-12.72-2.21-17.49l1.24-.35h0ZM821.21,148.29c1.15-4.5,2.3-11.39,3-17.4l8.74,2.65c-.44.88-1.41,1.68-3.09,1.77-1.94,4.59-4.5,9.89-7.07,13.6l-1.59-.62h.01ZM873.32,155.45s4.86,3.89,7.77,6.71c-.27.97-1.06,1.41-2.21,1.41h-48.66l-.71-2.65h22.79v-9.19h-17.04l-.71-2.65h17.75v-8.39h-9.89v2.65c0,.53-2.12,1.85-5.3,1.85h-1.15v-30.56l7.42,3h25.35l3.27-3.71,6.89,5.21c-.62.71-1.41,1.24-3.27,1.5v21.55c0,.35-2.38,1.77-5.56,1.77h-1.06v-3.27h-10.16v8.39h7.86l4.24-4.86s4.68,3.44,7.68,6.09c-.26.97-1.06,1.41-2.3,1.41h-17.49v9.19h10.25l4.24-5.48v.03h0ZM832.43,109.79h14.84c-.71-.18-1.41-.62-2.03-1.24-.09-3.18-1.5-6.98-2.83-9.36l1.06-.44c10.6,3.8,9.36,9.98,5.92,11.04h9.89c.97-3.44,2.21-7.95,3-11.04l9.71,2.12c-.27,1.06-1.33,1.85-3.27,1.85-1.77,2.12-4.15,4.77-6.45,7.07h6.62l4.15-5.21s4.95,3.62,7.95,6.36c-.26.97-1.15,1.41-2.3,1.41h-45.57l-.71-2.56s.02,0,.02,0ZM834.81,98.57l-.71-2.65h33.47l4.33-5.48s4.95,3.89,7.86,6.71c-.18.97-1.06,1.41-2.3,1.41h-42.66.01ZM842.41,120.21v7.86h9.89v-7.86s-9.89,0-9.89,0ZM852.3,138.14v-7.51h-9.89v7.51h9.89ZM848.68,84.79c16.43,2.03,10.33,14.04,4.24,9.45-.26-3.09-2.65-6.8-4.95-8.74l.71-.71ZM858.84,120.21v7.86h10.16v-7.86s-10.16,0-10.16,0ZM868.99,138.14v-7.51h-10.16v7.51h10.16Z"/>
          </g>
        </g>
        <g>
          <path class="st24" d="M31.5,208.03c2.21,11.84,9.07,24.26,27.47,32.38l-.06.76c-2.71.38-4.47,1.64-5.1,4.54-16.63-9.39-21.61-24.51-23.44-37.11-1.83,14.74-7.75,27.72-29.61,37.05l-.76-1.01c18.21-10.08,23.44-22.43,25.01-36.6H1.13l-.44-1.83h24.51c.5-5.86.44-12.1.44-18.52l7.81.82c-.19.95-.69,1.58-2.14,1.76-.13,5.48-.19,10.77-.69,15.94h17.01l3.72-4.66s4.35,3.28,6.87,5.48c-.13.69-.82,1.01-1.64,1.01h-25.08Z"/>
          <path class="st24" d="M67.66,202.68c13.73,1.89,10.14,11.59,5.29,8.44-.69-2.83-3.47-6.05-5.86-7.94l.57-.5ZM85.18,200.6c-2.39,7.37-6.87,21.11-7.69,24.07-.5,1.89-.88,3.97-.88,5.48.06,2.96,2.14,5.73,1.89,11.03-.13,2.84-1.64,4.6-3.91,4.6-1.2,0-2.21-1.13-2.39-3.15.94-6.49.63-11.78-.82-12.73-.82-.63-1.76-.82-3.02-.95v-1.32h2.71c.82,0,1.01,0,1.7-1.26.71-1.47,4.47-10.17,11.28-26.08l1.13.31h0ZM71.38,188.31c14.55,1.95,11.28,11.91,6.17,9.01-1.07-2.96-4.16-6.49-6.74-8.51l.57-.5ZM106.47,197.89v8.06h10.52l2.39-2.9,5.67,4.28c-.38.5-1.39,1.01-2.65,1.26v30.43c0,3.78-.69,5.99-6.49,6.55-.13-1.51-.38-2.84-1.07-3.59-.69-.82-1.95-1.39-4.1-1.76v-.95s4.66.38,5.73.38c.94,0,1.2-.38,1.2-1.26v-30.68h-26.4v36.1c0,.57-1.89,1.76-3.97,1.76h-.76v-42.02l5.1,2.39h9.83v-8.06h-15.5l-.5-1.83h16v-8.57l7.31.69c-.13.88-.76,1.51-2.33,1.76v6.11h9.89l3.15-4.16s3.78,2.9,5.92,4.98c-.13.69-.76,1.01-1.64,1.01h-17.33s.03.02.03.02ZM106.28,230.09v10.52c-.06.32-1.51,1.26-3.91,1.26h-.76v-11.78h-7.5l-.5-1.89h8v-6.87h-7.18l-.5-1.89h11.53c1.07-3.15,2.21-7.5,2.77-10.77l6.17,1.76c-.25.76-1.01,1.32-2.27,1.26-1.2,2.27-3.15,5.29-5.17,7.75h2.65l2.33-2.9s2.65,2.08,4.28,3.78c-.19.69-.76,1.01-1.57,1.01h-8.38v6.87h3.72l2.27-2.96s2.65,2.14,4.35,3.84c-.19.69-.76,1.01-1.58,1.01h-8.76.01ZM96.08,209.11c9.7,5.1,5.1,12.22,1.7,8.82.06-2.84-1.2-6.24-2.46-8.44l.76-.38h0Z"/>
          <path class="st24" d="M180.12,215.66c-.38.69-1.01,1.01-2.58.76-2.33,5.23-5.8,10.02-10.21,14.24,7.43,4.85,16.63,8.06,26.46,9.83l-.13.76c-2.39.32-4.03,1.89-4.79,4.41-9.7-2.58-18.02-6.49-24.63-12.29-7.25,5.8-16.89,10.14-29.11,12.29l-.38-.95c11.03-3.09,19.85-8,26.46-14.3-4.16-4.41-7.43-9.7-9.64-16.07l1.01-.69c2.46,5.67,6.24,10.4,11.03,14.3,4.22-4.6,7.31-9.83,9.39-15.37l7.12,3.09h0ZM136.08,200.85l-.5-1.89h47.82l3.34-4.79s3.84,3.34,6.11,5.67c-.13.69-.76,1.01-1.7,1.01h-55.07,0ZM137.47,219.69c6.24-4.47,11.84-11.84,14.37-17.58l6.99,3.47c-.31.63-.88.94-2.33.69-3.78,5.1-10.58,10.9-18.46,14.24l-.57-.82ZM156.81,187.43c15.37,2.77,11.59,13.8,6.17,10.33-.82-3.4-4.03-7.5-6.74-9.83l.57-.5ZM170.86,202.87c22.24,5.99,19.85,18.9,13.61,15.62-2.27-5.1-8.88-11.4-14.11-14.99l.5-.63h0Z"/>
          <path class="st24" d="M202.92,202.43c14.43,1.45,11.21,11.53,6.05,8.57-.95-2.9-4.03-6.17-6.55-8l.5-.57ZM221.7,201.36c-2.71,7.12-7.81,20.6-8.76,23.44-.57,1.89-1.01,3.84-.94,5.42,0,2.9,2.08,5.67,1.83,10.9-.13,2.9-1.64,4.6-4.03,4.6-1.2,0-2.21-1.07-2.46-3.15.94-6.55.63-11.72-.82-12.66-.82-.63-1.76-.82-3.09-.95v-1.32h2.77c.82,0,1.07,0,1.76-1.26.84-1.43,5.06-9.85,12.66-25.26l1.07.25h0ZM207.84,188.38c14.87,2.2,11.21,12.6,6.05,9.32-.88-3.15-4.03-6.68-6.62-8.82l.57-.5h0ZM224.09,216.16l6.8.76c-.19.76-.63,1.39-2.14,1.58v5.48c-.06,7.25-1.89,16.63-12.41,21.86l-.76-.76c7.37-5.73,8.51-14.3,8.51-21.23v-7.69ZM219.68,196.95h10.84c1.89-3.46,3.53-6.93,4.41-9.45l7.56,3.09c-.25.63-1.07,1.13-2.33,1.01-1.01,1.7-2.33,3.46-3.72,5.35h14.74l3.15-4.1s3.65,2.84,5.86,4.98c-.19.69-.82,1.01-1.64,1.01h-23.56c-3.09,3.78-6.68,7.75-10.08,10.84,5.54-.25,14.11-.88,23.31-1.64-1.45-1.83-3.15-3.47-4.66-4.73l.63-.5c16.19,4.47,13.04,15.37,7.88,12.03-.44-1.7-1.51-3.59-2.9-5.42-6.05,1.26-14.87,3.02-24.95,4.66-.5.82-1.07,1.26-1.64,1.51l-2.21-5.73s1.2-.31,1.76-.76c2.27-2.21,4.98-6.17,7.37-10.27h-9.32l-.5-1.89h0ZM234.87,216.16l6.74.69c-.13.82-.69,1.39-2.14,1.58v24.26c0,.5-2.08,1.45-3.72,1.45h-.88v-27.97h0ZM259.37,239.85c1.26.5,1.83.94,1.83,1.83,0,1.89-1.83,2.71-7.75,2.71h-3.21c-3.84,0-4.47-1.13-4.47-4.16v-24.13l6.49.69c-.13.76-.69,1.39-1.89,1.58v20.67c0,.82.19,1.07,1.2,1.07h4.79c.32-.06.69-.06.94-.06.38,0,.88-.13,1.2-.25h.63l.25.06h-.01Z"/>
          <path class="st24" d="M291.19,218.68c-.44.57-1.07.69-2.39.76-1.32,4.54-4.1,9.58-8,13.36.32.13.57.32.94.63,5.29,5.1,12.54,5.99,25.33,5.99,7.37-.06,13.55-.06,21.11-.5v.82c-2.14.44-3.4,2.08-3.65,4.16h-19.09c-13.11,0-18.96-1.89-24.51-8.57-.88-1.01-1.51-.88-2.02,0-1.2,1.89-3.53,5.48-4.98,8.19.19.57.13.95-.31,1.32l-4.03-5.04c2.9-2.02,7.31-6.05,9.26-6.99,2.39-3.72,4.22-9.07,5.04-13.67h-6.36l-1.95,1.64-4.03-3.47c.57-.38,1.64-.82,2.58-1.07,2.08-2.96,4.91-7.43,6.8-10.65h-10.08l-.57-1.89h10.84l2.52-2.52,5.04,4.54c-.57.69-1.89,1.01-3.4,1.01-1.76,2.9-4.66,7.37-6.93,10.58h5.17l2.83-2.71,4.85,4.1v-.02h-.01ZM273.42,188.31c14.3,3.15,10.46,13.36,5.48,9.95-.69-3.28-3.59-7.18-6.11-9.51l.63-.44h0ZM289.11,199.84l-.5-1.83h20.6c1.26-3.09,2.65-7.5,3.34-10.58l7.5,1.89c-.25.63-1.01,1.2-2.33,1.2-1.7,2.2-4.28,5.17-6.8,7.5h6.36l3.15-4.1s3.65,2.84,5.92,4.91c-.13.69-.82,1.01-1.7,1.01h-17.01c-.94,2.02-2.08,4.28-3.21,6.11h10.33l2.58-2.84,5.48,4.28c-.44.5-1.39,1.01-2.58,1.26v26.15c-.13.38-2.46,1.51-4.1,1.51h-.76v-3.78h-17.52v2.52c0,.57-1.95,1.7-4.03,1.7h-.76v-33.08l5.1,2.27h3.34c.19-1.95.38-4.22.5-6.11h-12.92.02ZM294.59,187.62c12.92,3.4,8.32,12.6,3.78,9.07-.31-3.02-2.46-6.55-4.41-8.63l.63-.44ZM297.87,207.78v6.3h17.52v-6.3h-17.52ZM297.87,222.34h17.52v-6.43h-17.52v6.43ZM315.38,230.72v-6.55h-17.52v6.55h17.52Z"/>
        </g>
        <line class="st26" x1=".13" y1="168.96" x2="879.47" y2="168.96"/>
      </g>
    </g>
    <g>
      <path class="st24" d="M283.1,171.42c-14.99,0-26.6-5.37-34.84-16.12-7.02-9.27-10.53-21.19-10.53-35.75,0-18.8,5.63-32.71,16.9-41.73,7.71-6.06,17.2-9.1,28.47-9.1,15.34,0,27.12,5.42,35.36,16.25,6.76,9.01,10.14,20.54,10.14,34.58,0,18.29-5.33,32.11-15.99,41.47-7.97,6.93-17.81,10.4-29.51,10.4h0ZM283.1,151.02c8.06,0,13.99-4.25,17.81-12.74,2.25-5.2,3.38-11.44,3.38-18.72,0-13.34-3.51-22.44-10.53-27.3-3.12-2.17-6.67-3.25-10.66-3.25-8.49,0-14.52,4.46-18.07,13.39-1.91,4.77-2.86,10.49-2.86,17.16,0,13.43,3.38,22.75,10.14,27.95,3.12,2.34,6.71,3.51,10.79,3.51h0Z"/>
      <path class="st24" d="M347.46,169.61v-99.05h34.71c22.53,0,35.53,7.84,39,23.53.61,2.77.91,5.68.91,8.71,0,13.61-5.68,23.31-17.03,29.12-6.33,3.21-13.74,4.81-22.23,4.81h-11.57v32.89h-23.79,0ZM371.25,118h10.4c11.35-.17,17.07-5.24,17.16-15.21,0-7.28-3.68-11.57-11.05-12.87-1.99-.35-4.25-.52-6.76-.52h-9.75v28.6Z"/>
      <path class="st24" d="M458.75,169.61v-79.29h-26.78v-19.76h77.47v19.76h-26.91v79.29h-23.79.01Z"/>
      <path class="st24" d="M525.32,169.61v-99.05h23.79v99.05h-23.79Z"/>
      <path class="st24" d="M572.52,169.61v-99.05h25.74l15.73,42.77c.43,1.39,2.25,7.41,5.46,18.07h.65c.69-2.08,1.65-5.2,2.86-9.36,1.12-3.98,1.99-6.89,2.6-8.71l15.08-42.77h25.87v99.05h-21.71v-33.93c0-5.63,1.04-17.07,3.12-34.32h-.52l-8.32,23.66-13.26,36.14h-13.13l-13.39-36.14-8.06-23.66h-.52c2.08,17.33,3.12,28.77,3.12,34.32v33.93h-21.32,0Z"/>
      <path class="st24" d="M689.91,169.61v-99.05h23.79v99.05h-23.79Z"/>
      <path class="st24" d="M730.87,169.61v-14.43l42.77-64.86h-38.61v-19.76h67.85v14.3l-42.77,64.73h43.16v20.02h-72.4,0Z"/>
      <path class="st24" d="M820.06,169.61v-99.05h62.78v19.76h-39v18.33h33.15v20.02h-33.15v20.93h40.56v20.02h-64.34,0Z"/>
    </g>
    <g>
      <path class="st24" d="M46.4,196.45v28.44c0,3.06-.66,5.14-1.97,6.26-.36.29-.76.54-1.18.74-1.61.79-4.47,1.2-8.58,1.23h-1.58c-.26-2.14-1.08-4.6-2.46-7.39,1.68.1,4.01.15,7,.15.79-.07,1.2-.43,1.23-1.08v-8.08c-1.51,1.74-2.68,3.3-3.5,4.68-4.34-2.86-7.62-6.96-9.86-12.32-2.27,5.85-5.82,10.09-10.65,12.72-.66-1.18-1.53-2.42-2.61-3.7v15.08h-7.49v-36.72h17.69c-.2-1.21-.31-2.2-.35-2.96h-8.13v-6.36h14.64c.1,3.55.38,6.65.84,9.31h16.96ZM12.25,203.6v10.94c3.55-2.33,6.16-5.98,7.84-10.94h-7.84ZM38.86,203.6h-7.59c1.74,4.63,4.27,8.08,7.59,10.35v-10.35Z"/>
      <path class="st24" d="M72.33,202.47h7.59c5.03,6.18,11.38,10.48,19.07,12.91.43.13.85.26,1.28.39-1.28,1.41-2.79,3.65-4.53,6.7-1.38-.56-2.99-1.31-4.83-2.27v12.91h-7.49v-1.23h-14.49v1.23h-7.15v-12.52c-2.3,1.15-3.91,1.91-4.83,2.27-1.02-2.17-2.32-4.16-3.89-5.96-.07-.1-.13-.18-.2-.25,5.52-1.97,10.56-5.08,15.13-9.31,1.77-1.68,3.22-3.3,4.34-4.88h0ZM61.34,195.47v5.32h-7.15v-11.93h17.99v-3.7h7.59v3.7h18.33v11.93h-6.55c2.07,1.51,3.6,2.76,4.58,3.75l-5.62,4.78c-2.14-2.4-5.65-5.22-10.55-8.48-.53-.36-1.02-.69-1.48-.99l5.22-4.24c2.27,1.35,4.57,2.84,6.9,4.49v-4.63h-29.27.01ZM66.52,195.71l7.1,2.42c-2.43,3.78-5.85,7.15-10.25,10.1-.85.59-1.71,1.12-2.56,1.58-1.05-1.64-2.58-3.45-4.58-5.42-.17-.2-.31-.34-.44-.44,4.14-1.77,7.43-4.12,9.86-7.05.33-.39.62-.79.89-1.18h-.02ZM68.93,225.48h14.49v-3.65h-14.49v3.65ZM69.87,215.43h13.41c-2.83-2.1-5.11-4.21-6.85-6.31-1.71,2.1-3.89,4.21-6.56,6.31Z"/>
      <path class="st24" d="M111.57,185.17l6.75,2.02c-1.22,3.65-2.48,6.92-3.79,9.81v36.08h-6.95v-23.61c-.66.89-1.36,1.79-2.12,2.71-.69-2.3-1.71-4.76-3.06-7.39-.17-.26-.3-.49-.39-.69,3.52-4.14,6.41-9.54,8.67-16.21.33-.92.62-1.82.89-2.71h0ZM143.26,218.43l4.34,2.37c-1.41,2.14-3.38,4.06-5.91,5.77,2.96.43,6.21.72,9.76.89-1.48,1.58-2.71,3.42-3.7,5.52-.03.1-.07.16-.1.2-5.62-.46-10.38-1.4-14.29-2.81-3.68,1.28-8.28,2.28-13.8,3.01-.69-1.68-1.82-3.4-3.4-5.17,3.75-.36,7.08-.85,10-1.48-.99-.69-1.79-1.33-2.42-1.92-1.54.69-2.86,1.22-3.94,1.58-.89-1.51-2.04-2.84-3.45-3.99-.2-.16-.36-.3-.49-.39,5.16-1.35,9.07-3.14,11.73-5.37-.62-.49-1.04-1.26-1.23-2.32-1.41,1.77-2.83,3.2-4.24,4.29l-4.29-3.4c.89-.49,1.69-1.08,2.42-1.77h-3.6v-7.44h4.39v-12.47h8.13l.3-1.28h-10.89v-5.13h30.95v5.13h-12.57l-.59,1.28h10.4v12.47h4.04v7.44h-3.1c.89,1.02,1.51,1.86,1.87,2.51l-4.63,2.42c-.39-.66-1.23-1.82-2.51-3.5-.46,1.48-1.45,2.35-2.96,2.61-.53.1-1.15.15-1.87.15h-3.2c-.26.3-.64.66-1.13,1.08h8.82l1.18-.25-.02-.03ZM122.95,210.4l3.3,1.77v-1.82h5.17l-.49-.44h-8.13v.74l.15-.25ZM139.96,196.9h-12.42v1.13h12.42v-1.13ZM139.96,201.97v-1.23h-12.42v1.23h12.42ZM127.54,204.73v1.23h12.42v-1.23h-12.42ZM137.69,222.62h-8.03c1.35.82,2.69,1.48,4.04,1.97,1.38-.56,2.71-1.22,3.99-1.97ZM131.92,210.89v1.77c0,.66.16,1.03.49,1.13.2.03.51.05.94.05h1.08c-.49-.79-1.33-1.77-2.51-2.96h0ZM134.88,213.85h1.97c.59,0,.97-.25,1.13-.74.07-.2.11-.43.15-.69.72.39,1.77.77,3.15,1.13-.26-.3-.64-.69-1.13-1.18l4.14-2.07v-.39h-6.7c.76.92,1.2,1.5,1.33,1.73l-4.04,2.22h0Z"/>
      <path class="st24" d="M165.84,185.81l7.29,2.42c-1.41,3.32-3.07,6.64-4.98,9.96v34.84h-7.39v-24.35c-1.45,1.71-2.81,3.15-4.09,4.34-.92-2.37-2.15-4.76-3.7-7.2-.2-.26-.36-.49-.49-.69,4.27-3.71,7.97-8.51,11.09-14.39.85-1.68,1.61-3.32,2.27-4.93ZM186.04,225.43h5.86c1.08,0,1.81-.54,2.17-1.63.36-1.02.64-3.1.84-6.26,1.77,1.31,3.91,2.32,6.41,3.01.13.03.26.07.39.1-.46,4.96-1.53,8.25-3.2,9.86-1.31,1.25-3.25,1.87-5.82,1.87h-7.64c-3.61,0-6.05-.81-7.29-2.42-1.15-1.51-1.73-4.22-1.73-8.13v-6.85c-.85.46-1.71.89-2.56,1.28-1.12-2.2-2.45-4.27-3.99-6.21,2.3-.95,4.48-2.04,6.55-3.25v-20.85h7.59v15.97c3.88-2.79,7-5.6,9.36-8.43l6.95,3.45c-4.57,4.86-10,9.38-16.31,13.55v11.38c0,1.81.2,2.88.59,3.2.36.23.97.34,1.82.34v.02Z"/>
      <path class="st24" d="M245.93,206.06v6.06h-14.64v14.64h-6.01v-14.64h-14.64v-6.06h14.64v-14.64h6.01v14.64h14.64Z"/>
      <path class="st24" d="M268.06,203.85l-4.39,5.96c-.92-.72-3.79-2.51-8.62-5.37l4.19-5.32c5.06,2.63,8,4.21,8.82,4.73ZM261.56,212.27l5.96,3.84c-1.64,5.52-3.55,11.02-5.72,16.51l-6.7-3.7c2.37-5.03,4.52-10.58,6.46-16.66h0ZM256.38,190.69l4.29-5.32c4.9,2.6,7.75,4.17,8.58,4.73l-4.48,5.96c-1.05-.85-3.84-2.64-8.38-5.37h0ZM302.07,208.33h-11.24v1.97h11.09v17.54c0,2.04-.43,3.38-1.28,4.04-.2.16-.39.29-.59.39-1.08.53-3.02.79-5.82.79-.23-1.54-.72-3.12-1.48-4.73.66.03,1.51.05,2.56.05.36-.07.56-.26.59-.59v-2.71l-2.61,3.2c-.56-.53-1.38-1.2-2.46-2.02v6.7h-5.86v-6.11l-2.02,2.32c-.69-.72-1.71-1.59-3.06-2.61v6.46h-5.72v-11.38c-.92,4.44-2.27,8.21-4.04,11.33-1.25-1.18-2.89-2.3-4.93-3.35-.36-.17-.66-.3-.89-.39,3.19-5.52,4.83-14.19,4.93-26.02v-16.31h31.79v13.75h-25.04v2.07h26.07v5.62h0ZM284.97,210.3v-1.97h-9.22l-.1,1.97h9.32ZM294.04,192.71h-18.04v2.12h18.04v-2.12ZM279.89,218.58l2.07-2.42c.66.33,1.66.92,3.01,1.77v-2.32h-5.08v2.96h0ZM279.89,224.54l1.87-2.02c1.68,1.15,2.74,1.91,3.2,2.27v-4.53l-1.73,2.22c-.95-.82-2.07-1.64-3.35-2.46v4.53h.01ZM295.91,215.62h-5.08v2.56l1.68-2.07c1.08.53,2.22,1.18,3.4,1.97v-2.46h0ZM290.83,223.56l1.33-1.53c.92.53,2.17,1.35,3.75,2.46v-4.73l-1.87,2.46c-.82-.75-1.89-1.53-3.2-2.32v3.65h0Z"/>
      <path class="st24" d="M352.94,218.48l-11.04,1.58v13.11h-7.84v-11.98l-26.61,3.75-.99-7.29,27.6-3.84v-28.54h7.84v27.5l10.1-1.43.94,7.15h0ZM326.42,206.75l-4.78,6.21c-2.33-2.17-6.29-4.73-11.88-7.69-.2-.1-.38-.2-.54-.3l4.44-5.52c5.91,2.83,10.17,5.26,12.76,7.29h0ZM331.55,194.28l-4.53,6.26c-2.23-2-6.06-4.49-11.48-7.44l4.24-5.57c5.65,2.76,9.58,5.01,11.78,6.75h0Z"/>
      <path class="st24" d="M373.84,212.32v9.61c2.6-.39,5.49-.87,8.67-1.43l.49,6.5c-2.79.59-10.63,2.18-23.51,4.78l-1.97-7.44c1.84-.23,4.83-.64,8.97-1.23v-10.79h-6.85v-7.05h21.59v7.05h-7.39,0ZM403.36,200.49h-13.21c.69,9.86,1.95,17.07,3.79,21.64.92,2.17,1.84,3.27,2.76,3.3.92,0,1.49-2.94,1.73-8.82v-.1c1.77,1.81,3.75,3.17,5.91,4.09.2.07.36.13.49.2-.59,5.62-1.79,9.22-3.6,10.79-1.22,1.02-2.96,1.53-5.22,1.53-7.56,0-12.07-10.58-13.55-31.74,0-.33-.02-.62-.05-.89h-24.74v-7.2h24.4c-.07-3.48-.1-6.11-.1-7.89h7.89c-.1,2.37-.12,5-.05,7.89h6.46c-1.31-1.38-2.96-2.83-4.93-4.34l4.83-3.99c2.92,2.04,5.03,3.81,6.31,5.32l-3.5,3.01h4.39v7.2h-.01Z"/>
      <path class="st24" d="M420.27,196.31l6.95,2.66c-1.61,2.76-3.35,5.32-5.22,7.69v26.46h-7.39v-18.19c-.3.26-.72.66-1.28,1.18-.85.79-1.5,1.35-1.92,1.68-1.28-2.04-2.83-4.04-4.63-6.01-.13-.16-.25-.3-.35-.39,4.24-2.96,8.02-6.7,11.34-11.24.95-1.31,1.79-2.59,2.51-3.84h0ZM418.4,185.17l7.05,2.96c-3.52,4.53-7.64,8.62-12.37,12.27-.72.56-1.41,1.07-2.07,1.53-1.28-2.4-2.61-4.4-3.99-6.01,3.35-2.1,6.49-4.83,9.41-8.18.79-.92,1.45-1.77,1.97-2.56h0ZM454.62,201.97v7h-6.6v15.92c0,2.92-.56,4.91-1.68,5.96-.43.36-.92.67-1.48.94-1.64.75-4.65,1.15-9.02,1.18h-1.08c-.26-2.33-.99-4.83-2.17-7.49,1.64.1,3.88.15,6.7.15.76-.1,1.15-.41,1.18-.94v-15.72h-13.8v-7h27.95ZM453.39,187.98v6.95h-24.59v-6.95h24.59Z"/>
      <path class="st24" d="M471.68,221.88v2.12c1.54-.2,3.81-.53,6.8-.99l.39,6.16c-5.46.99-11.78,2.04-18.97,3.15l-1.43-6.55c.49-.07,1.28-.16,2.37-.3,1.97-.26,3.48-.46,4.53-.59v-2.46l-4.73,1.38c-.13-2.14-.66-4.96-1.58-8.48l4.63-1.23c.79,2.73,1.35,5.08,1.68,7.05v-8.38h-6.26v-6.16h6.26v-2.81h-4.19v-2.37c-1.45-2.04-2.79-3.48-4.04-4.34,3.71-3.19,6.5-7.16,8.38-11.93h5.72c4.04,3.29,6.9,6.13,8.58,8.53l-3.4,4.68v5.42h-4.73v2.81h6.11v6.16h-6.11v8.67c.72-2.69,1.22-5.27,1.48-7.74l5.37,1.28c-.3.82-.71,2.05-1.23,3.7-.66,2.14-1.13,3.58-1.43,4.34l-4.19-1.13h0ZM465.62,197.73h8.58c-1.41-2-2.97-3.86-4.68-5.57-1.31,2.17-2.61,4.03-3.89,5.57h0ZM500.31,201.18h3.55v24.4c0,2.86-.61,4.8-1.82,5.82-.26.2-.51.36-.74.49-1.41.82-3.79,1.25-7.15,1.28h-.89c-.2-2.1-.89-4.37-2.07-6.8-.03-.1-.07-.18-.1-.25.85.07,2.48.1,4.88.1.56-.07.85-.33.89-.79v-1.72h-9.56v9.36h-7.05v-31.89h2.76c-1.54-1.12-3.29-2.18-5.22-3.2,2-2.53,3.47-5.98,4.39-10.35l6.26,1.38v-3.84h7.15v4.24l4.83-2.27c3.02,4.7,4.94,8.41,5.77,11.14l-5.86,2.91h-.02ZM488.43,201.18v-10.35c-1.25,4.3-2.76,7.75-4.53,10.35h4.53ZM496.86,207.54h-9.56v1.92h9.56v-1.92ZM487.3,217.74h9.56v-2.32h-9.56v2.32ZM495.58,201.18h4.14c-.72-2.43-2.1-5.55-4.14-9.36v9.36Z"/>
    </g>
    <rect class="st24" x="2.1" y="169.23" width="874.77" height="2.19"/>
  </g>
  <g id="_圖層_2_拷貝">
    <g id="_圖層_1-21" data-name="_圖層_1-2" class="st25">
      <g>
        <g>
          <path class="st24" d="M582.08,158.5l-5.41-35.17,2.25-.45c14.65,24.12,26.6,41.03,47.35,41.03,24.35,0,34.72-23,34.72-50.5,0-31.11-13.53-46.22-36.98-46.22-12.85,0-22.55,4.28-29.99,9.92l-2.03-2.71,61.55-51.86h-71.7l9.69-22.54h93.57v2.25l-74.4,62.68c4.96-2.25,11.72-3.38,19.39-3.38,28.86,0,56.82,16.91,56.82,51.63,0,32.69-25.03,55.24-62,55.24-16.23,0-33.59-4.28-42.84-9.92h.01Z"/>
          <g>
            <path class="st24" d="M737.76,93.71c-.35.97-1.06,1.5-3.27,1.32-5.65,10.86-16.25,23.67-31,31l-.79-1.06c11.92-8.92,20.93-23.49,24.82-35.42l10.25,4.15h-.01ZM762.75,116.41l7.42,6.27c-.62.71-1.68,1.24-3.53,1.41-.97,20.67-3.09,34.36-7.24,38.24-2.65,2.38-6.09,3.44-10.69,3.44,0-2.03-.44-3.97-1.85-5.03-1.5-1.15-5.56-2.21-9.36-2.83l.09-1.5c4.24.44,11.3.97,13.34.97,1.77,0,2.56-.18,3.44-.97,2.65-2.47,4.33-15.28,5.21-33.3h-19.78c-1.59,14.48-6.36,30.82-33.3,43.01l-1.06-1.41c22.61-13.16,25.7-28.79,26.5-41.6h-13.95l-.79-2.65h41.51l4.06-4.06h-.02ZM762.14,90.53c-.97,1.06-3.36,1.68-6.18,1.94,4.15,9.8,14.84,19.61,28.26,24.55l-.18,1.06c-2.83.71-5.21,3.09-6,5.83-12.1-7.33-20.75-18.55-24.55-31.88h-9.89l-.79-2.56h8.57l2.92-4.42,7.86,5.48h-.02Z"/>
            <path class="st24" d="M822.1,88.41c-.35.97-1.15,1.5-3.27,1.68,21.46,7.77,14.04,18.9,8.66,14.84-1.5-3.53-5.03-8.74-9.63-13.16-4.15,8.65-11.3,18.99-19.69,25.44l-1.15-.79c6.71-7.95,13.16-22.08,15.46-31.26l9.63,3.27v-.02h0ZM834.19,150.59c-6.45,3.27-15.72,7.68-28.7,13.34-.35,1.06-1.15,1.85-1.94,2.12l-4.86-8.21c3-.53,8.04-1.77,14.13-3.18v-27.64h-12.45l-.71-2.56h13.16v-11.13h-6.8l-.71-2.56h14.66l3.8-5.03s4.42,3.53,7.15,6.18c-.26.97-1.15,1.41-2.38,1.41h-9.54v11.13h3.8l3.89-5.3s4.42,3.71,6.98,6.45c-.18.97-1.06,1.41-2.21,1.41h-12.45v26.14c4.68-1.24,9.8-2.56,14.93-3.89l.26,1.32h0ZM803.02,131.51c12.19,12.01,5.56,23.4.97,17.84.62-5.56-.71-12.72-2.21-17.49l1.24-.35h0ZM821.21,148.29c1.15-4.5,2.3-11.39,3-17.4l8.74,2.65c-.44.88-1.41,1.68-3.09,1.77-1.94,4.59-4.5,9.89-7.07,13.6l-1.59-.62h.01ZM873.32,155.45s4.86,3.89,7.77,6.71c-.27.97-1.06,1.41-2.21,1.41h-48.66l-.71-2.65h22.79v-9.19h-17.04l-.71-2.65h17.75v-8.39h-9.89v2.65c0,.53-2.12,1.85-5.3,1.85h-1.15v-30.56l7.42,3h25.35l3.27-3.71,6.89,5.21c-.62.71-1.41,1.24-3.27,1.5v21.55c0,.35-2.38,1.77-5.56,1.77h-1.06v-3.27h-10.16v8.39h7.86l4.24-4.86s4.68,3.44,7.68,6.09c-.26.97-1.06,1.41-2.3,1.41h-17.49v9.19h10.25l4.24-5.48v.03h0ZM832.43,109.79h14.84c-.71-.18-1.41-.62-2.03-1.24-.09-3.18-1.5-6.98-2.83-9.36l1.06-.44c10.6,3.8,9.36,9.98,5.92,11.04h9.89c.97-3.44,2.21-7.95,3-11.04l9.71,2.12c-.27,1.06-1.33,1.85-3.27,1.85-1.77,2.12-4.15,4.77-6.45,7.07h6.62l4.15-5.21s4.95,3.62,7.95,6.36c-.26.97-1.15,1.41-2.3,1.41h-45.57l-.71-2.56s.02,0,.02,0ZM834.81,98.57l-.71-2.65h33.47l4.33-5.48s4.95,3.89,7.86,6.71c-.18.97-1.06,1.41-2.3,1.41h-42.66.01ZM842.41,120.21v7.86h9.89v-7.86s-9.89,0-9.89,0ZM852.3,138.14v-7.51h-9.89v7.51h9.89ZM848.68,84.79c16.43,2.03,10.33,14.04,4.24,9.45-.26-3.09-2.65-6.8-4.95-8.74l.71-.71ZM858.84,120.21v7.86h10.16v-7.86s-10.16,0-10.16,0ZM868.99,138.14v-7.51h-10.16v7.51h10.16Z"/>
          </g>
        </g>
        <g>
          <path class="st24" d="M31.5,208.03c2.21,11.84,9.07,24.26,27.47,32.38l-.06.76c-2.71.38-4.47,1.64-5.1,4.54-16.63-9.39-21.61-24.51-23.44-37.11-1.83,14.74-7.75,27.72-29.61,37.05l-.76-1.01c18.21-10.08,23.44-22.43,25.01-36.6H1.13l-.44-1.83h24.51c.5-5.86.44-12.1.44-18.52l7.81.82c-.19.95-.69,1.58-2.14,1.76-.13,5.48-.19,10.77-.69,15.94h17.01l3.72-4.66s4.35,3.28,6.87,5.48c-.13.69-.82,1.01-1.64,1.01h-25.08Z"/>
          <path class="st24" d="M67.66,202.68c13.73,1.89,10.14,11.59,5.29,8.44-.69-2.83-3.47-6.05-5.86-7.94l.57-.5ZM85.18,200.6c-2.39,7.37-6.87,21.11-7.69,24.07-.5,1.89-.88,3.97-.88,5.48.06,2.96,2.14,5.73,1.89,11.03-.13,2.84-1.64,4.6-3.91,4.6-1.2,0-2.21-1.13-2.39-3.15.94-6.49.63-11.78-.82-12.73-.82-.63-1.76-.82-3.02-.95v-1.32h2.71c.82,0,1.01,0,1.7-1.26.71-1.47,4.47-10.17,11.28-26.08l1.13.31h0ZM71.38,188.31c14.55,1.95,11.28,11.91,6.17,9.01-1.07-2.96-4.16-6.49-6.74-8.51l.57-.5ZM106.47,197.89v8.06h10.52l2.39-2.9,5.67,4.28c-.38.5-1.39,1.01-2.65,1.26v30.43c0,3.78-.69,5.99-6.49,6.55-.13-1.51-.38-2.84-1.07-3.59-.69-.82-1.95-1.39-4.1-1.76v-.95s4.66.38,5.73.38c.94,0,1.2-.38,1.2-1.26v-30.68h-26.4v36.1c0,.57-1.89,1.76-3.97,1.76h-.76v-42.02l5.1,2.39h9.83v-8.06h-15.5l-.5-1.83h16v-8.57l7.31.69c-.13.88-.76,1.51-2.33,1.76v6.11h9.89l3.15-4.16s3.78,2.9,5.92,4.98c-.13.69-.76,1.01-1.64,1.01h-17.33s.03.02.03.02ZM106.28,230.09v10.52c-.06.32-1.51,1.26-3.91,1.26h-.76v-11.78h-7.5l-.5-1.89h8v-6.87h-7.18l-.5-1.89h11.53c1.07-3.15,2.21-7.5,2.77-10.77l6.17,1.76c-.25.76-1.01,1.32-2.27,1.26-1.2,2.27-3.15,5.29-5.17,7.75h2.65l2.33-2.9s2.65,2.08,4.28,3.78c-.19.69-.76,1.01-1.57,1.01h-8.38v6.87h3.72l2.27-2.96s2.65,2.14,4.35,3.84c-.19.69-.76,1.01-1.58,1.01h-8.76.01ZM96.08,209.11c9.7,5.1,5.1,12.22,1.7,8.82.06-2.84-1.2-6.24-2.46-8.44l.76-.38h0Z"/>
          <path class="st24" d="M180.12,215.66c-.38.69-1.01,1.01-2.58.76-2.33,5.23-5.8,10.02-10.21,14.24,7.43,4.85,16.63,8.06,26.46,9.83l-.13.76c-2.39.32-4.03,1.89-4.79,4.41-9.7-2.58-18.02-6.49-24.63-12.29-7.25,5.8-16.89,10.14-29.11,12.29l-.38-.95c11.03-3.09,19.85-8,26.46-14.3-4.16-4.41-7.43-9.7-9.64-16.07l1.01-.69c2.46,5.67,6.24,10.4,11.03,14.3,4.22-4.6,7.31-9.83,9.39-15.37l7.12,3.09h0ZM136.08,200.85l-.5-1.89h47.82l3.34-4.79s3.84,3.34,6.11,5.67c-.13.69-.76,1.01-1.7,1.01h-55.07,0ZM137.47,219.69c6.24-4.47,11.84-11.84,14.37-17.58l6.99,3.47c-.31.63-.88.94-2.33.69-3.78,5.1-10.58,10.9-18.46,14.24l-.57-.82ZM156.81,187.43c15.37,2.77,11.59,13.8,6.17,10.33-.82-3.4-4.03-7.5-6.74-9.83l.57-.5ZM170.86,202.87c22.24,5.99,19.85,18.9,13.61,15.62-2.27-5.1-8.88-11.4-14.11-14.99l.5-.63h0Z"/>
          <path class="st24" d="M202.92,202.43c14.43,1.45,11.21,11.53,6.05,8.57-.95-2.9-4.03-6.17-6.55-8l.5-.57ZM221.7,201.36c-2.71,7.12-7.81,20.6-8.76,23.44-.57,1.89-1.01,3.84-.94,5.42,0,2.9,2.08,5.67,1.83,10.9-.13,2.9-1.64,4.6-4.03,4.6-1.2,0-2.21-1.07-2.46-3.15.94-6.55.63-11.72-.82-12.66-.82-.63-1.76-.82-3.09-.95v-1.32h2.77c.82,0,1.07,0,1.76-1.26.84-1.43,5.06-9.85,12.66-25.26l1.07.25h0ZM207.84,188.38c14.87,2.2,11.21,12.6,6.05,9.32-.88-3.15-4.03-6.68-6.62-8.82l.57-.5h0ZM224.09,216.16l6.8.76c-.19.76-.63,1.39-2.14,1.58v5.48c-.06,7.25-1.89,16.63-12.41,21.86l-.76-.76c7.37-5.73,8.51-14.3,8.51-21.23v-7.69ZM219.68,196.95h10.84c1.89-3.46,3.53-6.93,4.41-9.45l7.56,3.09c-.25.63-1.07,1.13-2.33,1.01-1.01,1.7-2.33,3.46-3.72,5.35h14.74l3.15-4.1s3.65,2.84,5.86,4.98c-.19.69-.82,1.01-1.64,1.01h-23.56c-3.09,3.78-6.68,7.75-10.08,10.84,5.54-.25,14.11-.88,23.31-1.64-1.45-1.83-3.15-3.47-4.66-4.73l.63-.5c16.19,4.47,13.04,15.37,7.88,12.03-.44-1.7-1.51-3.59-2.9-5.42-6.05,1.26-14.87,3.02-24.95,4.66-.5.82-1.07,1.26-1.64,1.51l-2.21-5.73s1.2-.31,1.76-.76c2.27-2.21,4.98-6.17,7.37-10.27h-9.32l-.5-1.89h0ZM234.87,216.16l6.74.69c-.13.82-.69,1.39-2.14,1.58v24.26c0,.5-2.08,1.45-3.72,1.45h-.88v-27.97h0ZM259.37,239.85c1.26.5,1.83.94,1.83,1.83,0,1.89-1.83,2.71-7.75,2.71h-3.21c-3.84,0-4.47-1.13-4.47-4.16v-24.13l6.49.69c-.13.76-.69,1.39-1.89,1.58v20.67c0,.82.19,1.07,1.2,1.07h4.79c.32-.06.69-.06.94-.06.38,0,.88-.13,1.2-.25h.63l.25.06h-.01Z"/>
          <path class="st24" d="M291.19,218.68c-.44.57-1.07.69-2.39.76-1.32,4.54-4.1,9.58-8,13.36.32.13.57.32.94.63,5.29,5.1,12.54,5.99,25.33,5.99,7.37-.06,13.55-.06,21.11-.5v.82c-2.14.44-3.4,2.08-3.65,4.16h-19.09c-13.11,0-18.96-1.89-24.51-8.57-.88-1.01-1.51-.88-2.02,0-1.2,1.89-3.53,5.48-4.98,8.19.19.57.13.95-.31,1.32l-4.03-5.04c2.9-2.02,7.31-6.05,9.26-6.99,2.39-3.72,4.22-9.07,5.04-13.67h-6.36l-1.95,1.64-4.03-3.47c.57-.38,1.64-.82,2.58-1.07,2.08-2.96,4.91-7.43,6.8-10.65h-10.08l-.57-1.89h10.84l2.52-2.52,5.04,4.54c-.57.69-1.89,1.01-3.4,1.01-1.76,2.9-4.66,7.37-6.93,10.58h5.17l2.83-2.71,4.85,4.1v-.02h-.01ZM273.42,188.31c14.3,3.15,10.46,13.36,5.48,9.95-.69-3.28-3.59-7.18-6.11-9.51l.63-.44h0ZM289.11,199.84l-.5-1.83h20.6c1.26-3.09,2.65-7.5,3.34-10.58l7.5,1.89c-.25.63-1.01,1.2-2.33,1.2-1.7,2.2-4.28,5.17-6.8,7.5h6.36l3.15-4.1s3.65,2.84,5.92,4.91c-.13.69-.82,1.01-1.7,1.01h-17.01c-.94,2.02-2.08,4.28-3.21,6.11h10.33l2.58-2.84,5.48,4.28c-.44.5-1.39,1.01-2.58,1.26v26.15c-.13.38-2.46,1.51-4.1,1.51h-.76v-3.78h-17.52v2.52c0,.57-1.95,1.7-4.03,1.7h-.76v-33.08l5.1,2.27h3.34c.19-1.95.38-4.22.5-6.11h-12.92.02ZM294.59,187.62c12.92,3.4,8.32,12.6,3.78,9.07-.31-3.02-2.46-6.55-4.41-8.63l.63-.44ZM297.87,207.78v6.3h17.52v-6.3h-17.52ZM297.87,222.34h17.52v-6.43h-17.52v6.43ZM315.38,230.72v-6.55h-17.52v6.55h17.52Z"/>
        </g>
        <line class="st26" x1=".13" y1="168.96" x2="879.47" y2="168.96"/>
      </g>
    </g>
    <g>
      <path class="st0" d="M884.4,149.6h-40.56v-20.93h33.15v-20.02h-33.15v-18.33h39v-19.76h-62.78v98.67h-16.79v-19.64h-43.16l42.77-64.73v-14.3h-67.85v19.76h38.61l-42.77,64.86v14.05h-17.17v-98.67h-23.79v98.67h-23.4v-98.67h-25.87l-15.08,42.77c-.61,1.82-1.48,4.73-2.6,8.71-1.21,4.16-2.17,7.28-2.86,9.36h-.65c-3.21-10.66-5.03-16.68-5.46-18.07l-15.73-42.77h-25.74v98.67h-23.41v-98.67h-23.79v98.67h-42.79v-78.91h26.91v-19.76h-77.47v19.76h26.78v78.91h-87.5v-32.5h11.57c8.49,0,15.9-1.6,22.23-4.81,11.35-5.81,17.03-15.51,17.03-29.12,0-3.03-.3-5.94-.91-8.71-3.47-15.69-16.47-23.53-39-23.53h-34.71v98.67h-49.47c5.42-1.72,10.29-4.45,14.62-8.21,10.66-9.36,15.99-23.18,15.99-41.47,0-14.04-3.38-25.57-10.14-34.58-8.24-10.83-20.02-16.25-35.36-16.25-11.27,0-20.76,3.04-28.47,9.1-11.27,9.02-16.9,22.93-16.9,41.73,0,14.56,3.51,26.48,10.53,35.75,5.21,6.79,11.76,11.43,19.66,13.93H2.1v2.19h874.77v-1.8h7.53v-20.02ZM371.25,89.4h9.75c2.51,0,4.77.17,6.76.52,7.37,1.3,11.05,5.59,11.05,12.87-.09,9.97-5.81,15.04-17.16,15.21h-10.4v-28.6ZM265.03,102.4c3.55-8.93,9.58-13.39,18.07-13.39,3.99,0,7.54,1.08,10.66,3.25,7.02,4.86,10.53,13.96,10.53,27.3,0,7.28-1.13,13.52-3.38,18.72-3.82,8.49-9.75,12.74-17.81,12.74-4.08,0-7.67-1.17-10.79-3.51-6.76-5.2-10.14-14.52-10.14-27.95,0-6.67.95-12.39,2.86-17.16ZM590.72,101.36h.52l8.06,23.66,13.39,36.14h13.13l13.26-36.14,8.32-23.66h.52c-2.08,17.25-3.12,28.69-3.12,34.32v33.55h-50.96v-33.55c0-5.55-1.04-16.99-3.12-34.32Z"/>
      <path class="st17" d="M29.44,196.45c-.46-2.66-.74-5.76-.84-9.31h-14.64v6.36h8.13c.04.76.15,1.75.35,2.96H4.75v36.72h7.49v-15.08c1.08,1.28,1.95,2.52,2.61,3.7,4.83-2.63,8.38-6.87,10.65-12.72,2.24,5.36,5.52,9.46,9.86,12.32.82-1.38,1.99-2.94,3.5-4.68v8.08c-.03.65-.44,1.01-1.23,1.08-2.99,0-5.32-.05-7-.15,1.38,2.79,2.2,5.25,2.46,7.39h1.58c4.11-.03,6.97-.44,8.58-1.23.42-.2.82-.45,1.18-.74,1.31-1.12,1.97-3.2,1.97-6.26v-28.44h-16.96ZM12.25,214.54v-10.94h7.84c-1.68,4.96-4.29,8.61-7.84,10.94ZM38.86,213.95c-3.32-2.27-5.85-5.72-7.59-10.35h7.59v10.35Z"/>
      <path class="st20" d="M79.92,202.47h-7.59c-1.12,1.57-2.57,3.19-4.34,4.87-4.57,4.23-9.61,7.34-15.13,9.31.07.07.13.15.2.25,1.57,1.8,2.87,3.79,3.89,5.96.92-.36,2.53-1.12,4.83-2.27v12.52h7.15v-1.23h14.49v1.23h7.49v-12.91c1.84.96,3.45,1.71,4.83,2.27,1.74-3.05,3.25-5.29,4.53-6.7-.43-.13-.85-.26-1.28-.39-7.69-2.43-14.04-6.73-19.07-12.91ZM76.43,209.12c1.74,2.1,4.02,4.21,6.85,6.31h-13.41c2.67-2.1,4.85-4.21,6.56-6.31ZM83.42,225.48h-14.49v-3.65h14.49v3.65Z"/>
      <path class="st21" d="M55.79,203.95c.13.1.27.24.44.44,2,1.97,3.53,3.78,4.58,5.42.85-.46,1.71-.99,2.56-1.58,4.4-2.95,7.82-6.32,10.25-10.1l-7.1-2.42h.02c-.27.4-.56.8-.89,1.19-2.43,2.93-5.72,5.28-9.86,7.05Z"/>
      <path class="st22" d="M72.18,185.16v3.7h-17.99v11.93h7.15v-5.32h29.26v4.63c-2.33-1.65-4.63-3.14-6.9-4.49l-5.22,4.24c.46.3.95.63,1.48.99,4.9,3.26,8.41,6.08,10.55,8.48l5.62-4.78c-.98-.99-2.51-2.24-4.58-3.75h6.55v-11.93h-18.33v-3.7h-7.59Z"/>
      <path class="st19" d="M111.57,185.17h0c-.27.9-.56,1.8-.89,2.72-2.26,6.67-5.15,12.07-8.67,16.21.09.2.22.43.39.69,1.35,2.63,2.37,5.09,3.06,7.39.76-.92,1.46-1.82,2.12-2.71v23.61h6.95v-36.08c1.31-2.89,2.57-6.16,3.79-9.81l-6.75-2.02Z"/>
      <path class="st15" d="M147.6,220.8l-4.34-2.37.02.03-1.18.25h-8.82c.49-.42.87-.78,1.13-1.08h3.2c.72,0,1.34-.05,1.87-.15,1.51-.26,2.5-1.13,2.96-2.61,1.28,1.68,2.12,2.84,2.51,3.5l4.63-2.42c-.36-.65-.98-1.49-1.87-2.51h3.1v-7.44h-4.04v-12.47h-10.4l.59-1.28h12.57v-5.13h-30.95v5.13h10.89l-.3,1.28h-8.13v12.47h-4.39v7.44h3.6c-.73.69-1.53,1.28-2.42,1.77l4.29,3.4c1.41-1.09,2.83-2.52,4.24-4.29.19,1.06.61,1.83,1.23,2.32-2.66,2.23-6.57,4.02-11.73,5.37.13.09.29.23.49.39,1.41,1.15,2.56,2.48,3.45,3.99,1.08-.36,2.4-.89,3.94-1.58.63.59,1.43,1.23,2.42,1.92-2.92.63-6.25,1.12-10,1.48,1.58,1.77,2.71,3.49,3.4,5.17,5.52-.73,10.12-1.73,13.8-3.01,3.91,1.41,8.67,2.35,14.29,2.81.03-.04.07-.1.1-.2.99-2.1,2.22-3.94,3.7-5.52-3.55-.17-6.8-.46-9.76-.89,2.53-1.71,4.5-3.63,5.91-5.77ZM133.35,213.84c-.43,0-.74-.02-.94-.05-.33-.1-.49-.47-.49-1.13v-1.77h0c1.18,1.18,2.02,2.16,2.51,2.95h-1.08ZM144.29,210.3l-4.14,2.07c.49.49.87.88,1.13,1.18-1.38-.36-2.43-.74-3.15-1.13-.04.26-.08.49-.15.69-.16.49-.54.74-1.13.74h-1.95l4.02-2.21c-.13-.23-.57-.81-1.33-1.73h6.7v.39ZM127.54,196.9h12.42v1.13h-12.42v-1.13ZM127.54,200.74h12.42v1.23h-12.42v-1.23ZM127.54,204.73h12.42v1.23h-12.42v-1.23ZM126.25,210.35v1.82l-3.3-1.77-.15.25v-.74h8.13l.49.44h-5.17ZM133.7,224.59c-1.35-.49-2.69-1.15-4.04-1.97h8.03c-1.28.75-2.61,1.41-3.99,1.97Z"/>
      <path class="st16" d="M165.84,185.81c-.66,1.61-1.42,3.25-2.27,4.93-3.12,5.88-6.82,10.68-11.09,14.39.13.2.29.43.49.69,1.55,2.44,2.78,4.83,3.7,7.2,1.28-1.19,2.64-2.63,4.09-4.34v24.35h7.39v-34.84c1.91-3.32,3.57-6.64,4.98-9.96l-7.29-2.42Z"/>
      <path class="st18" d="M194.91,217.54c-.2,3.16-.48,5.24-.84,6.26-.36,1.09-1.09,1.63-2.17,1.63h-5.86v-.02c-.86,0-1.47-.11-1.83-.34-.39-.32-.59-1.39-.59-3.2v-11.38c6.31-4.17,11.74-8.69,16.31-13.55l-6.95-3.45c-2.36,2.83-5.48,5.64-9.36,8.43v-15.97h-7.59v20.85c-2.07,1.21-4.25,2.3-6.55,3.25,1.54,1.94,2.87,4.01,3.99,6.21.85-.39,1.71-.82,2.56-1.28v6.85c0,3.91.58,6.62,1.73,8.13,1.24,1.61,3.68,2.42,7.29,2.42h7.64c2.57,0,4.51-.62,5.82-1.87,1.67-1.61,2.74-4.9,3.2-9.86-.13-.03-.26-.07-.39-.1-2.5-.69-4.64-1.7-6.41-3.01Z"/>
      <polygon class="st23" points="231.29 191.42 225.28 191.42 225.28 206.06 210.64 206.06 210.64 212.12 225.28 212.12 225.28 226.76 231.29 226.76 231.29 212.12 245.93 212.12 245.93 206.06 231.29 206.06 231.29 191.42"/>
      <path class="st11" d="M275.99,202.72v-2.07h25.04v-13.75h-31.79v3.19c-.84-.56-3.69-2.13-8.57-4.72l-4.29,5.32h.01c4.54,2.73,7.33,4.52,8.38,5.37l4.47-5.95v13.1c-.1,11.83-1.74,20.5-4.93,26.02.23.09.53.22.89.39,2.04,1.05,3.68,2.17,4.93,3.35,1.77-3.12,3.12-6.89,4.04-11.33v11.38h5.72v-6.46c1.35,1.02,2.37,1.89,3.06,2.61l2.02-2.32v6.11h5.86v-6.7c1.08.82,1.9,1.49,2.46,2.02l2.61-3.2v2.71c-.03.33-.23.52-.59.59-1.05,0-1.9-.02-2.56-.05.76,1.61,1.25,3.19,1.48,4.73,2.8,0,4.74-.26,5.82-.79.2-.1.39-.23.59-.39.85-.66,1.28-2,1.28-4.04v-17.54h-11.09v-1.97h11.23v-5.61h-26.07ZM276,192.71h18.04v2.12h-18.04v-2.12ZM284.96,224.79c-.46-.36-1.52-1.12-3.2-2.27l-1.87,2.02h-.01s0-4.52,0-4.52c1.28.82,2.4,1.64,3.35,2.46l1.73-2.22v4.53ZM284.97,217.93c-1.35-.85-2.35-1.44-3.01-1.77l-2.07,2.42h0v-2.97h5.08v2.32ZM284.97,210.3h-9.32l.1-1.97h9.22v1.97ZM295.91,224.49c-1.58-1.11-2.83-1.93-3.75-2.46l-1.32,1.52v-3.65c1.31.79,2.38,1.57,3.2,2.32l1.87-2.46v4.73ZM295.91,215.62v2.46c-1.18-.79-2.32-1.44-3.4-1.97l-1.68,2.07v-2.56h5.08Z"/>
      <path class="st14" d="M261.56,212.27h0c-1.94,6.07-4.09,11.62-6.46,16.65l6.7,3.7c2.17-5.49,4.08-10.99,5.72-16.51l-5.96-3.84Z"/>
      <path class="st13" d="M268.06,203.85c-.82-.52-3.76-2.1-8.82-4.73l-4.19,5.32c4.83,2.86,7.7,4.65,8.62,5.37l4.39-5.96Z"/>
      <path class="st12" d="M331.55,194.28h.01c-2.2-1.74-6.13-3.99-11.78-6.75l-4.24,5.57c5.42,2.95,9.25,5.44,11.48,7.44l4.53-6.26Z"/>
      <polygon class="st7" points="341.9 212.77 341.9 185.27 334.06 185.27 334.06 213.81 306.46 217.65 307.45 224.94 334.06 221.19 334.06 233.17 341.9 233.17 341.9 220.06 352.94 218.48 352 211.34 341.9 212.77"/>
      <path class="st8" d="M309.22,204.97c.16.1.34.2.54.3,5.59,2.96,9.55,5.52,11.88,7.69l4.78-6.21h0c-2.59-2.04-6.85-4.47-12.76-7.3l-4.44,5.52Z"/>
      <path class="st5" d="M373.84,221.93v-9.61h7.39v-7.05h-21.59v7.05h6.85v10.79c-4.14.59-7.13,1-8.97,1.23l1.97,7.44c12.88-2.6,20.72-4.19,23.51-4.78l-.49-6.5c-3.18.56-6.07,1.04-8.67,1.43Z"/>
      <path class="st6" d="M398.43,216.51v.1c-.24,5.88-.81,8.82-1.73,8.82-.92-.03-1.84-1.13-2.76-3.3-1.84-4.57-3.1-11.78-3.79-21.64h13.22v-7.2h-4.39l3.5-3.01c-1.28-1.51-3.39-3.28-6.31-5.32l-4.83,3.99c1.97,1.51,3.62,2.96,4.93,4.34h-6.46c-.07-2.89-.05-5.52.05-7.89h-7.89c0,1.78.03,4.41.1,7.89h-24.4v7.2h24.74c.03.27.05.56.05.89,1.48,21.16,5.99,31.74,13.55,31.74,2.26,0,4-.51,5.22-1.53,1.81-1.57,3.01-5.17,3.6-10.79-.13-.07-.29-.13-.49-.2-2.16-.92-4.14-2.28-5.91-4.09Z"/>
      <path class="st9" d="M425.45,188.13l-7.05-2.96h0c-.52.8-1.18,1.65-1.97,2.57-2.92,3.35-6.06,6.08-9.41,8.18,1.38,1.61,2.71,3.61,3.99,6.01.66-.46,1.35-.97,2.07-1.53,4.73-3.65,8.85-7.74,12.37-12.27Z"/>
      <path class="st10" d="M426.67,201.97v7h13.8v15.72c-.03.53-.42.84-1.18.94-2.82,0-5.06-.05-6.7-.15,1.18,2.66,1.91,5.16,2.17,7.49h1.08c4.37-.03,7.38-.43,9.02-1.18.56-.27,1.05-.58,1.48-.94,1.12-1.05,1.68-3.04,1.68-5.96v-15.92h6.6v-7h-27.95Z"/>
      <rect class="st3" x="428.8" y="187.98" width="24.59" height="6.95"/>
      <path class="st4" d="M420.28,196.31c-.72,1.25-1.56,2.53-2.51,3.84-3.32,4.54-7.1,8.28-11.34,11.24.1.09.22.23.35.39,1.8,1.97,3.35,3.97,4.63,6.01.42-.33,1.07-.89,1.92-1.68.56-.52.98-.92,1.28-1.18v18.19h7.39v-26.46c1.87-2.37,3.61-4.93,5.22-7.69l-6.94-2.66Z"/>
      <path class="st1" d="M500.42,187.14l-4.83,2.27v-4.24h-7.15v3.84l-6.26-1.38c-.92,4.37-2.39,7.82-4.39,10.35,1.93,1.02,3.68,2.08,5.22,3.2h-2.76v31.89h7.05v-9.36h9.56v1.72c-.04.46-.33.72-.89.79-2.4,0-4.03-.03-4.88-.1.03.07.07.15.1.25,1.18,2.43,1.87,4.7,2.07,6.8h.89c3.36-.03,5.74-.46,7.15-1.28.23-.13.48-.29.74-.49,1.21-1.02,1.82-2.96,1.82-5.82v-24.4h-3.51l5.84-2.9c-.83-2.73-2.75-6.44-5.77-11.14ZM483.9,201.18c1.77-2.6,3.28-6.05,4.53-10.35v10.35h-4.53ZM496.86,217.74h-9.56v-2.32h9.56v2.32ZM496.86,209.46h-9.56v-1.92h9.56v1.92ZM495.58,201.18v-9.36c2.04,3.81,3.42,6.93,4.14,9.36h-4.14Z"/>
      <path class="st2" d="M471.68,224v-2.12h.01s4.19,1.12,4.19,1.12c.3-.76.77-2.2,1.43-4.34.52-1.65.93-2.88,1.23-3.7l-5.37-1.28c-.26,2.47-.76,5.05-1.48,7.74v-8.67h6.11v-6.16h-6.11v-2.81h4.73v-5.42l3.4-4.68c-1.68-2.4-4.54-5.24-8.58-8.53h-5.72c-1.88,4.77-4.67,8.74-8.38,11.93,1.25.86,2.59,2.3,4.04,4.34v2.37h4.19v2.81h-6.26v6.16h6.26v8.38c-.33-1.97-.89-4.32-1.68-7.05l-4.63,1.23c.92,3.52,1.45,6.34,1.58,8.48l4.73-1.38v2.46c-1.05.13-2.56.33-4.53.59-1.09.14-1.88.23-2.37.3l1.43,6.55c7.19-1.11,13.51-2.16,18.97-3.15l-.39-6.16c-2.99.46-5.26.79-6.8.99ZM469.52,192.16c1.71,1.71,3.27,3.57,4.68,5.57h-8.57c1.28-1.54,2.58-3.4,3.89-5.57Z"/>
    </g>
  </g>
</svg>