<?xml version="1.0" encoding="UTF-8"?>
<svg xmlns="http://www.w3.org/2000/svg" xmlns:xlink="http://www.w3.org/1999/xlink" version="1.1" viewBox="0 0 879.55 249.03">
  <!-- Generator: Adobe Illustrator 30.4.0, SVG Export Plug-In . SVG Version: 2.1.4 Build 226)  -->
  <defs>
    <style>
      .st0, .st1 {
        fill: none;
      }

      .st2 {
        fill: url(#_未命名漸層_17);
      }

      .st3 {
        fill: url(#_未命名漸層_1724);
      }

      .st4 {
        fill: url(#_未命名漸層_1722);
      }

      .st5 {
        fill: url(#_未命名漸層_1723);
      }

      .st6 {
        fill: url(#_未命名漸層_1720);
      }

      .st7 {
        fill: url(#_未命名漸層_1721);
      }

      .st8 {
        fill: url(#_未命名漸層_1716);
      }

      .st9 {
        fill: url(#_未命名漸層_1717);
      }

      .st10 {
        fill: url(#_未命名漸層_1714);
      }

      .st11 {
        fill: url(#_未命名漸層_1715);
      }

      .st12 {
        fill: url(#_未命名漸層_1718);
      }

      .st13 {
        fill: url(#_未命名漸層_1719);
      }

      .st14 {
        fill: url(#_未命名漸層_1710);
      }

      .st15 {
        fill: url(#_未命名漸層_1713);
      }

      .st16 {
        fill: url(#_未命名漸層_1712);
      }

      .st17 {
        fill: url(#_未命名漸層_1711);
      }

      .st18 {
        fill: url(#_未命名漸層_176);
      }

      .st19 {
        fill: url(#_未命名漸層_177);
      }

      .st20 {
        fill: url(#_未命名漸層_171);
      }

      .st21 {
        fill: url(#_未命名漸層_178);
      }

      .st22 {
        fill: url(#_未命名漸層_175);
      }

      .st23 {
        fill: url(#_未命名漸層_172);
      }

      .st24 {
        fill: url(#_未命名漸層_173);
      }

      .st25 {
        fill: url(#_未命名漸層_174);
      }

      .st26 {
        fill: url(#_未命名漸層_179);
      }

      .st27 {
        fill: #edc9dc;
      }

      .st28 {
        display: none;
      }

      .st1 {
        stroke: #edc9dc;
        stroke-miterlimit: 10;
        stroke-width: 2px;
      }
    </style>
    <linearGradient id="_未命名漸層_17" data-name="未命名漸層 17" x1="424.17" y1="213.26" x2="472.42" y2="213.26" gradientUnits="userSpaceOnUse">
      <stop offset="0" stop-color="#e6dbbb"/>
      <stop offset="1" stop-color="#c0a273"/>
    </linearGradient>
    <linearGradient id="_未命名漸層_171" data-name="未命名漸層 17" x1="494.54" y1="216.82" x2="504.45" y2="216.82" xlink:href="#_未命名漸層_17"/>
    <linearGradient id="_未命名漸層_172" data-name="未命名漸層 17" x1="490.51" y1="220.68" x2="522.99" y2="220.68" xlink:href="#_未命名漸層_17"/>
    <linearGradient id="_未命名漸層_173" data-name="未命名漸層 17" x1="491.39" y1="197.35" x2="522.09" y2="197.35" xlink:href="#_未命名漸層_17"/>
    <linearGradient id="_未命名漸層_174" data-name="未命名漸層 17" x1="474" y1="213.14" x2="492.67" y2="213.14" xlink:href="#_未命名漸層_17"/>
    <linearGradient id="_未命名漸層_175" data-name="未命名漸層 17" x1="528.06" y1="214.48" x2="543.98" y2="214.48" xlink:href="#_未命名漸層_17"/>
    <linearGradient id="_未命名漸層_176" data-name="未命名漸層 17" x1="527.86" y1="213.8" x2="573.95" y2="213.8" xlink:href="#_未命名漸層_17"/>
    <linearGradient id="_未命名漸層_177" data-name="未命名漸層 17" x1="528.21" y1="193.38" x2="543.88" y2="193.38" xlink:href="#_未命名漸層_17"/>
    <linearGradient id="_未命名漸層_178" data-name="未命名漸層 17" x1="525.6" y1="200.4" x2="545.81" y2="200.4" xlink:href="#_未命名漸層_17"/>
    <linearGradient id="_未命名漸層_179" data-name="未命名漸層 17" x1="597.17" y1="213.29" x2="624.67" y2="213.29" xlink:href="#_未命名漸層_17"/>
    <linearGradient id="_未命名漸層_1710" data-name="未命名漸層 17" x1="578.83" y1="207.5" x2="595.44" y2="207.5" xlink:href="#_未命名漸層_17"/>
    <linearGradient id="_未命名漸層_1711" data-name="未命名漸層 17" x1="576.32" y1="200.4" x2="597.46" y2="200.4" xlink:href="#_未命名漸層_17"/>
    <linearGradient id="_未命名漸層_1712" data-name="未命名漸層 17" x1="579.13" y1="193.38" x2="595.54" y2="193.38" xlink:href="#_未命名漸層_17"/>
    <linearGradient id="_未命名漸層_1713" data-name="未命名漸層 17" x1="578.63" y1="227.63" x2="595.29" y2="227.63" xlink:href="#_未命名漸層_17"/>
    <linearGradient id="_未命名漸層_1714" data-name="未命名漸層 17" x1="578.83" y1="214.48" x2="595.44" y2="214.48" xlink:href="#_未命名漸層_17"/>
    <linearGradient id="_未命名漸層_1715" data-name="未命名漸層 17" x1="633.34" y1="213.09" x2="668.63" y2="213.09" xlink:href="#_未命名漸層_17"/>
    <linearGradient id="_未命名漸層_1716" data-name="未命名漸層 17" x1="677.91" y1="213.15" x2="726.55" y2="213.15" xlink:href="#_未命名漸層_17"/>
    <linearGradient id="_未命名漸層_1717" data-name="未命名漸層 17" x1="729.22" y1="213.9" x2="775.9" y2="213.9" xlink:href="#_未命名漸層_17"/>
    <linearGradient id="_未命名漸層_1718" data-name="未命名漸層 17" x1="752.78" y1="199.35" x2="775.25" y2="199.35" xlink:href="#_未命名漸層_17"/>
    <linearGradient id="_未命名漸層_1719" data-name="未命名漸層 17" x1="750.8" y1="226.73" x2="776.48" y2="226.73" xlink:href="#_未命名漸層_17"/>
    <linearGradient id="_未命名漸層_1720" data-name="未命名漸層 17" x1="787.03" y1="230.44" x2="797.68" y2="230.44" xlink:href="#_未命名漸層_17"/>
    <linearGradient id="_未命名漸層_1721" data-name="未命名漸層 17" x1="778.6" y1="213.21" x2="827.26" y2="213.21" xlink:href="#_未命名漸層_17"/>
    <linearGradient id="_未命名漸層_1722" data-name="未命名漸層 17" x1="827.26" y1="233.79" x2="827.3" y2="233.79" xlink:href="#_未命名漸層_17"/>
    <linearGradient id="_未命名漸層_1723" data-name="未命名漸層 17" x1="829.51" y1="214.95" x2="874.57" y2="214.95" xlink:href="#_未命名漸層_17"/>
    <linearGradient id="_未命名漸層_1724" data-name="未命名漸層 17" x1="3.1" y1="124.07" x2="879.46" y2="124.07" xlink:href="#_未命名漸層_17"/>
  </defs>
  <g id="_圖層_2">
    <g id="_圖層_1-2" class="st28">
      <g>
        <g>
          <g>
            <path class="st27" d="M96.22,105.74c0-36.75,23.22-84.1,89.51-105.74l.68,2.25c-34.72,15.78-53.21,46.9-60.42,77.79,5.19-11.05,16.46-21.19,35.62-21.19,29.08,0,52.08,19.84,52.08,53.43,0,35.62-25.93,59.52-57.94,59.52-36.07,0-59.52-29.54-59.52-66.06h0ZM187.53,115.89c0-34.72-13.3-47.8-32.69-47.8-12.63,0-24.35,5.19-29.99,17.59-1.8,8.57-2.48,17.14-2.48,25.25,0,29.31,9.24,56.37,33.37,56.37,19.62,0,31.79-18.04,31.79-51.41h0Z"/>
            <path class="st27" d="M228.34,161.88l-5.64-35.17,2.25-.45c12.85,23.67,25.03,41.03,43.74,41.03,20.52,0,35.17-18.26,35.17-50.5s-14.43-48.47-39.91-48.47c-11.27,0-21.19,2.93-30.66,9.47l-1.8-.9L243.67,3.38h82.52l-4.28,22.55h-76.88l-7.67,45.77c9.7-5.86,19.84-8.79,32.69-8.79,30.89,0,58.39,16.46,58.39,52.53s-26.38,56.37-60.2,56.37c-17.59,0-31.34-4.28-39.91-9.92h.01Z"/>
            <path class="st27" d="M342.65,85.9c0-48.93,29.54-85.9,67.41-85.9s67.86,36.98,67.86,85.9-29.99,85.9-67.86,85.9-67.41-36.98-67.41-85.9ZM449.3,85.9c0-46.67-9.69-81.39-39.23-81.39s-38.78,34.72-38.78,81.39,9.69,81.39,38.78,81.39,39.23-34.72,39.23-81.39Z"/>
          </g>
          <path class="st27" d="M491.23,161.74c8.39-8.04,16.52-22.43,19.61-31.79l9.89,3.97c-.35,1.06-1.15,1.68-3.53,1.68-5.03,9.19-14.31,20.4-24.91,27.03l-1.06-.88h0ZM554.91,115.82s5.65,4.24,9.1,7.33c-.27.97-1.15,1.41-2.38,1.41h-29.85v42.66c0,.88-3.18,2.65-6.01,2.65h-1.5v-45.31h-31.62l-.71-2.56h32.32v-33.65l10.77,1.24c-.27,1.24-.97,2.03-3.27,2.38v30.03h18.28l4.86-6.18s.01,0,.01,0ZM498.92,93.92c24.82,12.1,19.43,28.53,11.83,22.87-1.77-7.24-8.04-16.34-12.89-22.26l1.06-.62h0ZM537.78,131.54c29.76,16.07,24.91,34.62,16.6,28.53-2.47-8.83-11.13-20.31-17.66-27.82l1.06-.71ZM559.94,97.27c-.44,1.06-1.59,1.77-3.53,1.5-4.86,7.6-11.22,14.48-17.4,18.99l-1.15-.79c3.97-5.83,8.48-15.19,11.66-24.02l10.42,4.33h0Z"/>
          <path class="st27" d="M8.74,146.11c2.65,9.27,1.06,15.99-1.5,19.08-1.77,2.12-5.39,2.65-6.8.53-1.06-2.03-.09-4.24,1.85-5.74,2.47-2.38,5.3-8.39,4.95-13.87h1.5ZM.7,134.89s1.94-.44,2.74-.97c4.77-3.62,10.51-10.16,15.28-16.6-3.62,1.06-8.12,2.3-12.81,3.36-.71,1.06-1.41,1.68-2.21,2.03l-3.44-8.74s1.68-.35,2.3-.88c5.56-4.95,12.54-17.75,15.1-24.64l9.36,5.03c-.44.79-1.5,1.5-3.27,1.15-3.97,6.01-11.04,14.13-17.49,19.61,3.97,0,9.27,0,14.75-.09,2.56-3.8,4.68-7.24,6.09-10.07l8.83,5.74c-.44.71-1.59,1.41-3.44.97-5.21,7.15-15.63,17.31-24.91,24.11,5.48-.35,13.42-.97,21.73-1.68-1.59-3.36-3.44-6.62-5.21-9.1l1.06-.53c18.02,9.8,12.28,22.34,6.54,17.22-.26-1.77-.88-3.8-1.68-5.83-5.56,1.77-14.31,4.42-23.85,6.89-.62.97-1.41,1.59-2.21,1.86l-3.27-8.83h0ZM17.83,144.35c12.01,11.75,4.42,23.14-.44,17.05.97-5.39.27-12.1-.79-16.69l1.24-.35h0ZM27.81,142.31c15.63,8.65,9.18,21.02,3.71,15.63.09-4.95-2.38-11.22-4.68-15.19l.97-.44ZM81.16,107.25c-.79.71-1.85,1.24-3.89,1.5-1.06,33.56-3.44,51.4-8.21,56.61-2.74,3-6.45,4.24-10.69,4.24,0-2.21-.44-3.97-1.59-5.03-1.32-1.15-4.68-2.21-7.95-2.83v-1.5c3.62.35,9.36.88,11.3.88,1.77,0,2.56-.27,3.62-1.24,3.71-3.36,5.83-21.73,6.8-52.11h-22.08c-3.71,7.95-7.95,15.01-12.81,20.4l-1.33-.79c5.03-9.8,9.8-24.99,12.28-39.3l10.77,2.74c-.35,1.15-1.41,1.85-3.36,1.94-1.33,4.24-2.83,8.39-4.42,12.36h19.96l3.97-4.33,7.59,6.45h.04ZM48.3,120.76c20.84,11.57,14.04,27.2,7.15,21.02-.44-6.71-4.5-15.01-8.21-20.49,0,0,1.06-.53,1.06-.53Z"/>
        </g>
        <g>
          <path class="st27" d="M584.71,200.2c22.18,8.38,19.53,22.11,13.61,18.4-.63-2.08-1.89-4.28-3.47-6.55-9.77,1.64-23.69,3.47-40.32,5.23-.38.57-.88.88-1.32,1.07l-2.39-6.11s1.39-.25,2.02-.63c7.06-4.28,16.63-14.87,20.22-20.79l7.18,3.28c-.25.63-1.07,1.13-2.46.95-4.79,5.23-13.73,12.41-21.74,17.26,8.51-.13,22.87-.82,37.8-1.64-2.9-3.72-6.62-7.37-9.83-9.83l.69-.63h.01ZM592.27,220.05l5.92,4.6c-.44.5-1.45,1.07-2.77,1.39v20.79c-.13.38-2.71,1.45-4.47,1.45h-.82v-4.85h-27.6v3.65c0,.57-2.27,1.76-4.41,1.76h-.82v-28.16l5.61,2.39h26.59l2.77-3.02h0ZM590.13,241.6v-16.63h-27.6v16.63h27.6Z"/>
          <path class="st27" d="M637.95,236.81c-4.28,2.14-10.4,5.17-18.46,8.82-.19.76-.82,1.39-1.45,1.58l-2.2-5.86c1.76-.31,4.73-.95,8.32-1.89v-20.29h-7.56l-.5-1.83h8.06v-9.26h-4.66l-.06-.25c-1.13,1.2-2.27,2.33-3.47,3.28l-.82-.63c3.91-5.1,7.5-14.24,8.76-20.04l7.06,1.76c-.19.69-.82,1.2-2.39,1.26l-.06.13c13.1,5.73,7.12,11.97,3.97,8.95-.76-2.08-2.33-5.17-4.41-7.88-1.76,3.65-4.28,7.94-7.31,11.59h7.06l2.65-3.28s2.96,2.33,4.79,4.1c-.13.69-.76,1.01-1.64,1.01h-5.1v9.26h1.07l2.65-3.65s3.02,2.58,4.85,4.47c-.19.69-.82,1.01-1.64,1.01h-6.93v19.22c2.96-.76,6.05-1.64,9.2-2.46l.25.88h-.03ZM617.6,222c8.51,8.44,4.35,16.13,1.26,12.47.25-3.84-.95-8.95-2.14-12.22l.88-.25ZM629.69,234.54c.76-3.46,1.45-8.69,1.83-13.1l5.92,1.7c-.25.69-.95,1.32-2.27,1.39-1.13,3.47-2.65,7.56-4.41,10.46l-1.07-.44h0ZM674.55,214.82c-.25.76-.82,1.2-2.46,1.2-1.26,5.61-3.28,11.47-6.43,16.89.88,3.09,2.14,5.8,3.78,7.88.69,1.07.94,1.01,1.51-.25.63-1.51,1.57-4.47,2.27-6.99l.82.13-1.07,9.83c1.51,2.71,1.76,4.03,1.01,4.66-1.76,1.83-5.29-.38-7.12-2.9-1.7-2.21-3.15-4.91-4.22-7.88-3.53,4.6-8.19,8.57-14.18,11.53l-.63-.82c5.92-3.72,10.4-8.88,13.55-14.55-1.95-7.37-2.71-16.38-2.96-26.59h-22.74l-.5-1.83h9.01v-5.29h-5.92l-.5-1.83h6.43v-6.55l6.43.63c-.06.82-.57,1.39-2.02,1.64v4.28h1.64l2.52-3.21s2.9,2.33,4.66,4.03c-.19.69-.76,1.01-1.64,1.01h-7.18v5.29h9.83c-.13-4.47-.13-9.2-.13-14.11l6.99.88c-.13.82-.69,1.58-2.27,1.76-.06,3.84-.13,7.75-.13,11.47h3.46l2.46-3.15c-.5-.06-1.01-.31-1.51-.76-.25-2.33-1.64-5.23-2.96-6.99l.69-.38c7.81,2.58,7.25,7.18,4.91,8,1.07.88,3.28,2.65,4.66,4.1-.06.69-.69,1.01-1.57,1.01h-10.14c.06,7.37.44,14.36,1.45,20.22,1.7-4.54,2.84-9.32,3.53-13.99l6.68,1.64h-.01ZM657.04,238.13c-3.91,1.58-9.51,3.72-17.26,6.3-.32.82-.88,1.26-1.45,1.45l-2.96-5.42c1.95-.19,5.04-.63,8.82-1.2v-5.61h-7.18l-.5-1.83h7.69v-4.73c-2.39.19-4.73.38-6.99.38l-.32-1.07c5.36-1.01,12.22-3.09,15.75-4.66l4.28,4.35c-.63.5-1.76.44-3.15-.19-1.45.25-3.28.5-5.23.76v5.17h2.08l2.39-2.71s2.71,1.95,4.47,3.53c-.19.69-.76,1.01-1.58,1.01h-7.37v4.91c2.71-.44,5.48-.88,8.38-1.39l.13.94h0ZM650.99,221.62v-1.83h-8.95v1.58c0,.31-1.83,1.2-3.47,1.2h-.57v-14.11l4.35,1.89h8.06l2.14-2.21,4.66,3.47c-.31.38-1.2.88-2.21,1.07v7.69c-.06.44-2.08,1.26-3.4,1.26h-.63.02ZM650.99,217.97v-5.8h-8.95v5.8h8.95Z"/>
          <path class="st27" d="M742.15,243.11c1.2,2.9,1.39,4.66.38,5.35-2.14,1.32-4.66-.69-6.3-3.4-1.89-2.65-3.15-6.87-3.97-11.97-.44.19-.88.25-1.51.38-.44,8-1.51,12.03-3.65,13.61-1.45,1.01-3.34,1.57-5.54,1.51,0-1.26-.13-2.33-.88-3.02-.69-.63-2.27-1.13-3.97-1.39v-1.01c1.76.13,4.73.31,5.8.31.82,0,1.26-.13,1.76-.5.94-.76,1.64-4.03,2.02-10.08h-20.79v1.26c0,.44-1.89,1.51-3.91,1.51h-.76v-29.8l4.98,2.2h4.03c.25-1.39.57-3.21.76-4.66h-12.47l-.44-1.83h23.88l2.83-3.53s3.21,2.52,5.23,4.41c-.19.63-.76.95-1.64.95h-11.84c-1.01,1.58-2.27,3.34-3.4,4.66h7.37l2.33-2.46,4.91,3.72c-.32.38-1.13.82-2.14,1.01v11.4c-.06.38-2.27,1.51-3.84,1.51h-.76v-1.7h-15.12v3.84h18.02l2.71-3.28s3.09,2.33,4.98,4.1c-.19.69-.76,1.01-1.64,1.01h-24.07v3.84h20.29l2.46-2.52,3.78,3.02c-1.45-9.83-1.45-22.68-1.26-34.46h-34.65v12.47c0,11.66-.69,28.04-10.96,39.44l-.95-.57c6.36-11.78,6.93-26.08,6.93-38.81v-16.88l5.8,2.58h33.14l2.9-3.21,5.73,4.91c-.44.44-1.39.94-2.84,1.2-.76,13.61-.38,35.6,3.59,41.27.44.76.76.69,1.07-.19.76-2.39,1.32-4.79,1.89-7.06l.76.13-1.01,10.71-.02.02h0ZM699.62,235.36c1.7,5.42.25,9.26-1.7,10.84-1.32.95-3.65,1.01-4.35-.44-.57-1.39.19-2.71,1.57-3.53,1.83-1.07,3.59-3.97,3.4-6.87h1.08,0ZM704.73,235.8c7.37,6.05,2.27,12.1-.5,8.51.5-2.71.19-6.05-.31-8.25l.82-.25h-.01ZM705.48,209.84v4.03h15.12v-4.03h-15.12ZM720.6,219.73v-4.1h-15.12v4.1h15.12ZM710.33,234.92c9.32,3.84,5.48,10.65,2.14,7.62,0-2.39-1.45-5.42-2.9-7.25l.76-.38h0ZM716.63,234.16c9.64,1.7,6.68,8.38,3.28,6.11-.44-1.95-2.33-4.35-3.91-5.67l.63-.44h0Z"/>
          <path class="st27" d="M771.88,232.02c-.06.38-2.33,1.51-3.97,1.51h-.69v-5.29h-7.18v7.18c0,.57-1.83,1.76-3.91,1.76h-.76v-40.57l4.91,2.21h6.36l2.46-2.77,5.42,4.22c-.44.5-1.45,1.01-2.65,1.26v30.49h.01ZM767.22,226.47v-25.83h-7.18v25.83h7.18ZM776.55,232.52c1.76,6.3-.44,10.46-2.9,12.03-1.57,1.07-3.91,1.01-4.6-.63-.63-1.51.32-2.84,1.76-3.59,2.27-1.2,4.66-4.41,4.66-7.81h1.08ZM811.7,227.23c-.44.5-1.2.82-2.46.88-.57,10.58-1.95,16.82-4.54,18.9-1.58,1.26-3.84,1.89-6.49,1.89,0-1.32-.19-2.52-1.01-3.21s-3.15-1.32-5.42-1.7l.06-1.01c2.33.19,6.36.5,7.62.5,1.13,0,1.64-.13,2.21-.57,1.39-1.26,2.33-6.74,2.84-15.37h-23.19v2.33c0,.38-1.51,1.58-3.84,1.58h-.82v-35.41l5.48,2.27h3.4c.76-2.14,1.45-5.17,1.76-7.43l7.88,1.39c-.25.76-.94,1.39-2.33,1.45-1.32,1.51-3.53,3.21-5.61,4.6h12.1l2.58-2.77,5.54,4.22c-.38.5-1.32,1.01-2.58,1.26v13.92c-.06.38-2.52,1.39-4.16,1.39h-.76v-1.89h-18.65v4.73h21.74l2.96-3.72s3.47,2.58,5.48,4.54c-.13.69-.76,1.01-1.58,1.01h-28.6v4.73h22.68l2.65-2.71,5.04,4.22.02-.02h0ZM781.21,232.33c8.82,6.11,3.59,13.61.32,9.7.69-3.09-.06-6.93-1.13-9.39l.82-.31h-.01ZM781.33,200.14v5.29h18.65v-5.29h-18.65ZM799.98,212.61v-5.36h-18.65v5.36h18.65ZM787.51,231.52c10.33,3.91,6.17,11.72,2.58,8.51.13-2.77-1.51-6.05-3.28-8.06l.69-.44h.01ZM794.31,230.32c10.65,2.21,7.62,10.08,3.84,7.37-.32-2.46-2.46-5.36-4.47-6.87l.63-.5h0Z"/>
          <path class="st27" d="M846.54,211.98c-.25.76-.94,1.32-2.39,1.26-1.64,6.11-4.47,15.18-7.25,22.68,3.21-.76,6.55-1.64,9.95-2.52l.25.88c-4.91,2.33-11.72,5.73-21.3,9.77-.19.76-.76,1.39-1.45,1.58l-2.9-6.05c2.65-.44,7.75-1.7,13.8-3.21,1.39-8.19,3.02-18.9,4.03-26.46l7.25,2.08h.01ZM844.08,201.34s3.53,3.02,5.61,5.17c-.19.69-.82,1.01-1.7,1.01h-25.89l-.5-1.83h19.41l3.09-4.35h-.02,0ZM825.31,210.66c12.41,14.81,5.92,26.46,2.71,21.42,0-5.04-.57-14.43-3.53-21.04l.82-.38ZM829.59,191.07c12.92,6.68,8,16.32,3.47,12.16-.38-3.78-2.52-8.57-4.22-11.78l.76-.38h-.01ZM874.07,201.9s3.47,2.77,5.48,4.79c-.13.69-.76,1.01-1.58,1.01h-14.18v13.36h5.73l2.52-2.96,5.23,4.03c-.44.57-1.07.88-2.46,1.13v23.75c0,.31-1.83,1.39-4.22,1.39h-.82v-4.16h-16.95v3.28c0,.38-1.51,1.39-4.03,1.39h-.76v-30.18l5.54,2.33h5.29v-30.18l7.25.76c-.13.88-.69,1.51-2.33,1.76v12.41h7.31l2.96-3.91h.02ZM852.84,222.88v19.53h16.95v-19.53h-16.95Z"/>
        </g>
        <line class="st1" x1=".21" y1="172.8" x2="879.55" y2="172.8"/>
      </g>
    </g>
    <g>
      <g>
        <path class="st27" d="M3.27,173.61v-99.05h28.47c24,0,39.43,8.71,46.28,26.13,2.6,6.59,3.9,14.21,3.9,22.88,0,21.84-7.63,36.66-22.88,44.46-7.37,3.73-16.03,5.59-26,5.59H3.27ZM27.06,154.5h3.25c15.86,0,24.78-7.75,26.78-23.27.35-2.42.52-4.98.52-7.67,0-16.29-5.72-25.91-17.16-28.86-2.95-.78-6.33-1.17-10.14-1.17h-3.25v60.96h0Z"/>
        <path class="st27" d="M100.91,173.61v-99.05h62.78v19.76h-39v18.33h33.15v20.02h-33.15v20.93h40.56v20.02h-64.34Z"/>
        <path class="st27" d="M216.22,175.42c-12.48,0-23.57-3.64-33.28-10.92-1.3-1.12-2.56-2.21-3.77-3.25l13.39-16.38c6.84,5.81,13.99,9.14,21.45,10.01.95.09,1.86.13,2.73.13,8.49-.08,12.78-2.99,12.87-8.71,0-3.03-1.91-5.54-5.72-7.54-1.21-.61-3.94-1.82-8.19-3.64l-12.74-5.33c-9.97-3.98-16.25-10.27-18.85-18.85-.78-2.69-1.17-5.46-1.17-8.32,0-8.92,3.73-16.29,11.18-22.1,6.76-5.2,14.99-7.8,24.7-7.8,11.35,0,21.23,3.55,29.64,10.66.95.78,1.82,1.56,2.6,2.34l-11.83,14.95c-6.76-5.11-13.56-7.67-20.41-7.67s-10.53,2.12-11.57,6.37c-.17.69-.26,1.34-.26,1.95,0,2.95,2.21,5.46,6.63,7.54,1.3.61,4.12,1.78,8.45,3.51l12.35,4.94c12.91,5.37,19.41,14.43,19.5,27.17,0,9.27-3.68,16.86-11.05,22.75-7.02,5.46-15.9,8.19-26.65,8.19h0Z"/>
        <path class="st27" d="M271.1,173.61v-99.05h23.79v99.05h-23.79Z"/>
        <path class="st27" d="M362.88,175.42c-15.6,0-27.91-4.98-36.92-14.95-8.15-9.1-12.22-21.06-12.22-35.88,0-17.07,5.42-30.42,16.25-40.04,8.92-7.88,19.76-11.83,32.5-11.83,12.56.09,23.14,4.38,31.72,12.87l-12.74,15.21c-6.07-5.02-12.13-7.62-18.2-7.8-9.1,0-15.9,3.86-20.41,11.57-3.12,5.29-4.68,11.7-4.68,19.24,0,17.59,6.58,27.73,19.76,30.42,2.34.52,4.81.78,7.41.78,3.9,0,7.02-.87,9.36-2.6v-15.99h-15.73v-19.37h36.92v46.28c-6.24,5.98-14.43,9.79-24.57,11.44-2.86.43-5.68.65-8.45.65h0Z"/>
        <path class="st27" d="M416.45,173.61v-99.05h24.18l24.7,47.45,9.75,21.97h.65c-2.17-17.59-3.25-29.81-3.25-36.66v-32.76h22.62v99.05h-24.18l-24.57-47.84-9.62-21.71h-.65c.17,1.91.48,4.94.91,9.1,1.38,12.48,2.08,21.67,2.08,27.56v32.89h-22.62Z"/>
      </g>
      <g>
        <path class="st27" d="M472.07,205.09h-2.56c-.85,7.72-2.38,13.96-4.58,18.73,2.04,3.35,4.53,5.9,7.49,7.64-1.61,1.35-3.06,3.04-4.34,5.08-.16.26-.31.51-.44.74-2.66-1.81-4.93-4.08-6.8-6.8-2.37,2.83-5.08,5.13-8.13,6.9-.49-1.25-1.41-2.78-2.76-4.58l-3.94,3.94c-1.38-.92-3.14-1.97-5.27-3.15-2.79,1.61-7.05,2.86-12.76,3.75-.36-1.87-1.18-3.71-2.46-5.52,3.48-.26,6.36-.72,8.62-1.38l-1.18-.49-.15.25-5.86-1.38c1.25-1.87,2.12-3.22,2.61-4.04l-4.98.05-.2-5.22c3.45,0,6.18-.02,8.18-.05l.74-1.43h-6.95v-9.91h8.62v-1.18h-7.74v-5.32h-3.06v-5.08h3.06v-5.22h7.74v-2.22h6.21v2.22h8.23v5.22h3.15v5.08h-3.15v5.32h-8.23v1.18h9.12v1.04c2.43-4.93,4.09-11.63,4.98-20.11l7,1.03c-.3,2.43-.76,5.16-1.38,8.18h11.19v6.75l-.02-.02ZM432.24,212.48v1.38h2.71v-1.38h-2.71ZM434.95,195.82h-1.77v1.18h1.77v-1.18ZM433.18,202.52h1.77v-1.23h-1.77v1.23ZM436.24,224.6l-.49.89c1.77.66,3.12,1.17,4.04,1.53.62-.76,1.17-1.58,1.63-2.46l-5.18.05h0ZM452.25,224.31l-4.34.1c-.62,2.14-1.46,3.86-2.51,5.17.52.23,1.67.84,3.45,1.82,3.48-1.84,6.29-4.37,8.43-7.59-.95-2.4-1.79-5.06-2.51-7.98-.49.89-1,1.66-1.53,2.32-.72-1.02-1.71-2.15-2.96-3.4v3.35h-10.99l.64.15-.64,1.23c1.41,0,3.58-.03,6.51-.1,2.99-.03,5.21-.07,6.65-.1l-.2,5.03h0ZM443.09,195.82h-1.92v1.18h1.92v-1.18ZM441.16,202.52h1.92v-1.23h-1.92v1.23ZM443.97,212.48h-2.81v1.38h2.81v-1.38ZM462.75,205.09h-3.55l-.05.2c.53,3.55,1.18,6.72,1.97,9.51.82-3.22,1.36-6.46,1.63-9.71h0Z"/>
        <path class="st27" d="M485.82,189.31l6.85,2.27c-1.48,3.55-2.99,6.69-4.53,9.41v35.98h-6.95v-25.63c-1.28,1.54-2.42,2.79-3.4,3.75-.69-2.04-1.79-4.35-3.3-6.95-.2-.33-.36-.59-.49-.79,3.98-3.68,7.34-8.38,10.1-14.09.66-1.35,1.23-2.66,1.73-3.94h-.01ZM513.82,228.2h9.17v6.9h-32.48v-6.9h16.26c1.94-6.87,3.27-14,3.99-21.39.03-.2.05-.38.05-.54l7.93,1.23c-1.38,7.49-3.02,14.39-4.93,20.7h.01ZM491.39,197.89h11.24v-7.98h7.39v7.98h12.07v6.9h-30.7v-6.9ZM504.45,225.59l-7.25,1.53c-.1-5.19-.87-11.16-2.32-17.89-.13-.56-.25-1.08-.34-1.58l6.6-1.13c1.84,7,2.92,13.18,3.25,18.53.03.2.05.38.05.54h.01Z"/>
        <path class="st27" d="M545.81,197.54v5.72h-20.21v-5.72h20.21ZM566.7,210.66l4.78,1.67c-1.51,5.95-3.94,10.83-7.29,14.64,3.06,1.71,6.31,2.97,9.76,3.79-1.54,1.41-3.02,3.3-4.44,5.67-.13.23-.25.44-.34.64-4.07-1.25-7.61-2.96-10.6-5.13-3.22,2.14-6.9,3.84-11.04,5.13-.79-2.07-1.96-4.07-3.5-6.01-.07-.07-.12-.12-.15-.15v3.65h-9.86v1.82h-6.16v-17.5h16.02v11.68c3.51-.89,6.55-2.12,9.12-3.7-1.94-2.2-3.63-4.67-5.08-7.39l6.31-2.02h-7.74v-6.55h2.07c-1.54-1.61-3.07-2.88-4.58-3.79v3.1h-15.92v-5.42h15.92v1.77c2.73-1.97,4.19-4.83,4.39-8.58.03-.43.05-.9.05-1.43v-6.01h17.69v10.74c.1,1.08.25,1.64.44,1.68h.54c.39,0,.64-.82.74-2.46.03-.62.07-1.4.1-2.32,1.28,1.05,3.25,1.91,5.91,2.56-.36,4.14-1.35,6.7-2.96,7.69-.79.46-1.79.69-3.01.69h-2.71c-2.56,0-4.24-.75-5.03-2.27-.59-1.15-.89-2.97-.89-5.47v-4.44h-3.89c-.1,6.34-1.92,10.99-5.47,13.95h15.57l1.23-.25.02.02ZM543.98,211.74v5.47h-15.92v-5.47h15.92ZM543.88,190.65v5.47h-15.67v-5.47h15.67ZM537.62,228.84v-4.29h-3.6v4.29h3.6ZM562.02,217.46h-7.59c.95,1.77,2.27,3.48,3.94,5.13,1.54-1.61,2.76-3.32,3.65-5.13Z"/>
        <path class="st27" d="M597.46,197.54v5.72h-21.14v-5.72h21.14ZM595.29,218.89v15.67h-10.35v1.82h-6.31v-17.5h16.66ZM578.83,210.21v-5.42h16.61v5.42h-16.61ZM578.83,217.21v-5.47h16.61v5.47h-16.61ZM595.54,190.65v5.47h-16.41v-5.47h16.41ZM588.89,224.55h-3.94v4.29h3.94v-4.29ZM624.67,205.97v7.29h-10.1v23.85h-7.49v-23.85h-9.91v-7.29h9.91v-16.51h7.49v16.51h10.1Z"/>
        <path class="st27" d="M668.63,210.06v6.06h-14.64v14.64h-6.01v-14.64h-14.64v-6.06h14.64v-14.64h6.01v14.64h14.64Z"/>
        <path class="st27" d="M715.95,204.74v6.8c0,4.34,1.2,8.43,3.6,12.27,1.84,2.83,4.17,5.13,7,6.9-1.35,1.64-2.81,3.79-4.39,6.46-3.38-2.07-6.13-5.47-8.23-10.2-.76-1.68-1.28-3.22-1.58-4.63-.62,3.06-2.14,6.14-4.53,9.27-1.84,2.37-3.88,4.22-6.11,5.57-.79-1.74-2.02-3.66-3.7-5.77-.17-.16-.3-.31-.39-.44,1.21-.76,1.99-1.26,2.32-1.53h-6.95v7.64h-6.8v-7.64h-8.28v-6.36h8.28v-2.07h-7v-18.97h7v-2.17h-7.69v-6.26h7.69v-4.48h6.85v4.48h7.79v6.26h-7.79v2.17h7.2v3.84c2.14-4.17,3.6-9.76,4.39-16.76l7.1,1.03c-.36,2.43-.87,5.13-1.53,8.08h9.22l1.08-.2,4.93,1.08c-.82,5.03-1.86,10.04-3.11,15.03l-5.91-1.33c.43-2.04.89-4.73,1.38-8.08h-1.84ZM684.71,207.01v2.17h2.27v-2.17h-2.27ZM684.71,213.76v2.22h2.27v-2.22h-2.27ZM692.15,209.18h2.37v-2.17h-2.37v2.17ZM692.15,215.98h2.37v-2.22h-2.37v2.22ZM701.32,223.07v5.17c3.84-3.48,6.23-7.9,7.15-13.26.2-1.22.3-2.37.3-3.45v-6.8h-.44c-1.25,3.58-2.69,6.54-4.34,8.87-.76-.72-2-1.68-3.75-2.86v10.25h-7.24v2.07h8.33-.01Z"/>
        <path class="st27" d="M752.03,213.56h-3.25v17.64c0,2.3-.44,3.83-1.33,4.58-.17.13-.33.25-.49.34-1.18.66-2.99.99-5.42.99-.23-1.71-.77-3.53-1.63-5.47.59.03,1.33.05,2.22.05.33-.07.49-.26.49-.59v-2.46h-4.24v8.53h-6.06v-23.61h-3.1v-8.28h2.91v-14.64h16.91v14.64h3.15v5.52h23.71v4.78h-23.85v-2.02h-.02ZM746.76,211.44v-1.38h-12.42v1.38h12.42ZM737.3,195.77v9.51h1.18v-8.18h5.17v-1.33h-6.36.01ZM742.62,217.7v-1.48h-4.24v1.48h4.24ZM738.38,223.86h4.24v-1.53h-4.24v1.53ZM742.23,205.28h1.43v-4.24h-1.43v4.24ZM770.71,231.7h5.77v5.03h-25.68v-5.03h5.77c-.46-1.35-1.05-2.58-1.77-3.7l3.2-1.18h-4.68v-10.1h21.39v10.1h-4.09l2.71.64s-.9,1.45-2.61,4.24h-.01ZM775.25,193.16v16.36h-22.47v-16.36h5.42v-3.99h4.98v3.99h1.38v-3.99h5.03v3.99h5.67-.01ZM758.05,197.69v1.53h1.33v-1.53h-1.33ZM758.05,203.41v1.63h1.33v-1.63h-1.33ZM759.13,220.86v1.82h9.46v-1.82h-9.46ZM767.16,226.82h-7.1c1.12,1.74,1.86,3.37,2.22,4.88h2.96c.82-1.81,1.46-3.43,1.92-4.88ZM763.17,199.22h1.38v-1.53h-1.38v1.53ZM764.55,203.41h-1.38v1.63h1.38v-1.63ZM769.73,199.22v-1.53h-1.38v1.53h1.38ZM769.73,205.04v-1.63h-1.38v1.63h1.38Z"/>
        <path class="st27" d="M827.3,233.77l-6.11,2.96c-.56-1.74-1.58-3.76-3.06-6.06-.43,2.99-1.41,4.86-2.96,5.62-.92.43-2.14.64-3.65.64h-5.52c-3.29,0-5.39-.67-6.31-2.02-.66-1.02-.99-2.68-.99-4.98v-4.68h5.91c-1.64-.95-2.71-1.56-3.2-1.82l2.42-2.22h-1.28v-9.36c-1.05-1.08-2.32-2.18-3.79-3.3v13.45h-6.06v-10.69l-1.48,1.33c-.72-.89-1.4-1.66-2.02-2.32-.23,12.06-1.91,21.03-5.03,26.91-1.22-1.31-2.79-2.58-4.73-3.79-.33-.2-.61-.36-.84-.49,2.6-5.03,3.93-13.04,3.99-24.05v-16.36h18.38v-3.35h7.69v3.35h17.74v5.91h-9.81l4.34.94c-.26.36-.64.92-1.13,1.68-.3.43-.51.74-.64.94h6.16v4.14h-7.49v1.18h6.11v3.4h-6.11v1.33h6.11v3.4h-6.11v1.48h7.93v4.29h-17.05c2.43,1.45,4.17,2.66,5.22,3.65l-4.44,4.14c-.95-.99-2.35-2.09-4.19-3.3v4.14c0,.76.18,1.18.54,1.28.23.07.62.1,1.18.1h3.79c.69,0,1.12-.26,1.28-.79.13-.43.25-1.26.34-2.51,1.25.85,3.01,1.58,5.27,2.17-.72-1.12-1.64-2.38-2.76-3.79l5.67-2.66c3.19,3.65,5.37,6.93,6.56,9.86.03.1.07.2.1.3l.03-.05ZM792.6,236.48l-5.57-3.55c2.27-2,3.84-4.8,4.73-8.38.03-.07.05-.11.05-.15l5.87,2.07c-1.18,4.63-2.88,7.97-5.08,10h0ZM789.25,198.43v7.49c2.46-2.27,4.42-4.76,5.87-7.49h-5.87ZM798.76,204.05v3.1c2.46-2.4,4.49-5.31,6.06-8.72h-6.46l3.06.94c-.66,1.38-1.54,2.94-2.66,4.68ZM811.82,207.3v-1.18h-3.25v1.18h3.25ZM811.82,212.04v-1.33h-3.25v1.33h3.25ZM808.57,215.44v1.48h3.25v-1.48h-3.25ZM809.8,201.98h2.96c.69-1.51,1.17-2.69,1.43-3.55h-5.17l2.17.59c-.49,1.12-.95,2.1-1.38,2.96h-.01Z"/>
        <path class="st27" d="M874.57,192.47v36.42c0,2.99-.69,5.03-2.07,6.11-.29.23-.61.43-.94.59-1.64.85-4.53,1.26-8.67,1.23h-1.23c-.3-2.1-1.07-4.44-2.32-7,.46.03.96.07,1.5.1s1.1.05,1.68.05h3.47c.79-.07,1.2-.46,1.23-1.18v-6.06h-8.97v13.7h-7.39v-13.7h-9.12c-1.12,6.38-3.25,11.27-6.41,14.69-1.15-1.35-2.76-2.73-4.83-4.14-.39-.23-.72-.43-.99-.59,3.58-3.91,5.54-9.97,5.86-18.19.03-1.15.05-2.48.05-3.99v-18.04h39.15ZM842.58,215.83h8.28v-4.98h-8.13c0,1.58-.05,3.24-.15,4.98ZM850.86,199.42h-8.13v4.63h8.13v-4.63ZM867.22,204.05v-4.63h-8.97v4.63h8.97ZM858.25,215.83h8.97v-4.98h-8.97v4.98Z"/>
      </g>
      <rect class="st27" x="3.1" y="173.23" width="876.36" height="2.2"/>
    </g>
  </g>
  <g id="_圖層_2_拷貝">
    <g id="_圖層_1-21" data-name="_圖層_1-2" class="st28">
      <g>
        <g>
          <g>
            <path class="st27" d="M96.22,105.74c0-36.75,23.22-84.1,89.51-105.74l.68,2.25c-34.72,15.78-53.21,46.9-60.42,77.79,5.19-11.05,16.46-21.19,35.62-21.19,29.08,0,52.08,19.84,52.08,53.43,0,35.62-25.93,59.52-57.94,59.52-36.07,0-59.52-29.54-59.52-66.06h0ZM187.53,115.89c0-34.72-13.3-47.8-32.69-47.8-12.63,0-24.35,5.19-29.99,17.59-1.8,8.57-2.48,17.14-2.48,25.25,0,29.31,9.24,56.37,33.37,56.37,19.62,0,31.79-18.04,31.79-51.41h0Z"/>
            <path class="st27" d="M228.34,161.88l-5.64-35.17,2.25-.45c12.85,23.67,25.03,41.03,43.74,41.03,20.52,0,35.17-18.26,35.17-50.5s-14.43-48.47-39.91-48.47c-11.27,0-21.19,2.93-30.66,9.47l-1.8-.9L243.67,3.38h82.52l-4.28,22.55h-76.88l-7.67,45.77c9.7-5.86,19.84-8.79,32.69-8.79,30.89,0,58.39,16.46,58.39,52.53s-26.38,56.37-60.2,56.37c-17.59,0-31.34-4.28-39.91-9.92h.01Z"/>
            <path class="st27" d="M342.65,85.9c0-48.93,29.54-85.9,67.41-85.9s67.86,36.98,67.86,85.9-29.99,85.9-67.86,85.9-67.41-36.98-67.41-85.9ZM449.3,85.9c0-46.67-9.69-81.39-39.23-81.39s-38.78,34.72-38.78,81.39,9.69,81.39,38.78,81.39,39.23-34.72,39.23-81.39Z"/>
          </g>
          <path class="st27" d="M491.23,161.74c8.39-8.04,16.52-22.43,19.61-31.79l9.89,3.97c-.35,1.06-1.15,1.68-3.53,1.68-5.03,9.19-14.31,20.4-24.91,27.03l-1.06-.88h0ZM554.91,115.82s5.65,4.24,9.1,7.33c-.27.97-1.15,1.41-2.38,1.41h-29.85v42.66c0,.88-3.18,2.65-6.01,2.65h-1.5v-45.31h-31.62l-.71-2.56h32.32v-33.65l10.77,1.24c-.27,1.24-.97,2.03-3.27,2.38v30.03h18.28l4.86-6.18s.01,0,.01,0ZM498.92,93.92c24.82,12.1,19.43,28.53,11.83,22.87-1.77-7.24-8.04-16.34-12.89-22.26l1.06-.62h0ZM537.78,131.54c29.76,16.07,24.91,34.62,16.6,28.53-2.47-8.83-11.13-20.31-17.66-27.82l1.06-.71ZM559.94,97.27c-.44,1.06-1.59,1.77-3.53,1.5-4.86,7.6-11.22,14.48-17.4,18.99l-1.15-.79c3.97-5.83,8.48-15.19,11.66-24.02l10.42,4.33h0Z"/>
          <path class="st27" d="M8.74,146.11c2.65,9.27,1.06,15.99-1.5,19.08-1.77,2.12-5.39,2.65-6.8.53-1.06-2.03-.09-4.24,1.85-5.74,2.47-2.38,5.3-8.39,4.95-13.87h1.5ZM.7,134.89s1.94-.44,2.74-.97c4.77-3.62,10.51-10.16,15.28-16.6-3.62,1.06-8.12,2.3-12.81,3.36-.71,1.06-1.41,1.68-2.21,2.03l-3.44-8.74s1.68-.35,2.3-.88c5.56-4.95,12.54-17.75,15.1-24.64l9.36,5.03c-.44.79-1.5,1.5-3.27,1.15-3.97,6.01-11.04,14.13-17.49,19.61,3.97,0,9.27,0,14.75-.09,2.56-3.8,4.68-7.24,6.09-10.07l8.83,5.74c-.44.71-1.59,1.41-3.44.97-5.21,7.15-15.63,17.31-24.91,24.11,5.48-.35,13.42-.97,21.73-1.68-1.59-3.36-3.44-6.62-5.21-9.1l1.06-.53c18.02,9.8,12.28,22.34,6.54,17.22-.26-1.77-.88-3.8-1.68-5.83-5.56,1.77-14.31,4.42-23.85,6.89-.62.97-1.41,1.59-2.21,1.86l-3.27-8.83h0ZM17.83,144.35c12.01,11.75,4.42,23.14-.44,17.05.97-5.39.27-12.1-.79-16.69l1.24-.35h0ZM27.81,142.31c15.63,8.65,9.18,21.02,3.71,15.63.09-4.95-2.38-11.22-4.68-15.19l.97-.44ZM81.16,107.25c-.79.71-1.85,1.24-3.89,1.5-1.06,33.56-3.44,51.4-8.21,56.61-2.74,3-6.45,4.24-10.69,4.24,0-2.21-.44-3.97-1.59-5.03-1.32-1.15-4.68-2.21-7.95-2.83v-1.5c3.62.35,9.36.88,11.3.88,1.77,0,2.56-.27,3.62-1.24,3.71-3.36,5.83-21.73,6.8-52.11h-22.08c-3.71,7.95-7.95,15.01-12.81,20.4l-1.33-.79c5.03-9.8,9.8-24.99,12.28-39.3l10.77,2.74c-.35,1.15-1.41,1.85-3.36,1.94-1.33,4.24-2.83,8.39-4.42,12.36h19.96l3.97-4.33,7.59,6.45h.04ZM48.3,120.76c20.84,11.57,14.04,27.2,7.15,21.02-.44-6.71-4.5-15.01-8.21-20.49,0,0,1.06-.53,1.06-.53Z"/>
        </g>
        <g>
          <path class="st27" d="M584.71,200.2c22.18,8.38,19.53,22.11,13.61,18.4-.63-2.08-1.89-4.28-3.47-6.55-9.77,1.64-23.69,3.47-40.32,5.23-.38.57-.88.88-1.32,1.07l-2.39-6.11s1.39-.25,2.02-.63c7.06-4.28,16.63-14.87,20.22-20.79l7.18,3.28c-.25.63-1.07,1.13-2.46.95-4.79,5.23-13.73,12.41-21.74,17.26,8.51-.13,22.87-.82,37.8-1.64-2.9-3.72-6.62-7.37-9.83-9.83l.69-.63h.01ZM592.27,220.05l5.92,4.6c-.44.5-1.45,1.07-2.77,1.39v20.79c-.13.38-2.71,1.45-4.47,1.45h-.82v-4.85h-27.6v3.65c0,.57-2.27,1.76-4.41,1.76h-.82v-28.16l5.61,2.39h26.59l2.77-3.02h0ZM590.13,241.6v-16.63h-27.6v16.63h27.6Z"/>
          <path class="st27" d="M637.95,236.81c-4.28,2.14-10.4,5.17-18.46,8.82-.19.76-.82,1.39-1.45,1.58l-2.2-5.86c1.76-.31,4.73-.95,8.32-1.89v-20.29h-7.56l-.5-1.83h8.06v-9.26h-4.66l-.06-.25c-1.13,1.2-2.27,2.33-3.47,3.28l-.82-.63c3.91-5.1,7.5-14.24,8.76-20.04l7.06,1.76c-.19.69-.82,1.2-2.39,1.26l-.06.13c13.1,5.73,7.12,11.97,3.97,8.95-.76-2.08-2.33-5.17-4.41-7.88-1.76,3.65-4.28,7.94-7.31,11.59h7.06l2.65-3.28s2.96,2.33,4.79,4.1c-.13.69-.76,1.01-1.64,1.01h-5.1v9.26h1.07l2.65-3.65s3.02,2.58,4.85,4.47c-.19.69-.82,1.01-1.64,1.01h-6.93v19.22c2.96-.76,6.05-1.64,9.2-2.46l.25.88h-.03ZM617.6,222c8.51,8.44,4.35,16.13,1.26,12.47.25-3.84-.95-8.95-2.14-12.22l.88-.25ZM629.69,234.54c.76-3.46,1.45-8.69,1.83-13.1l5.92,1.7c-.25.69-.95,1.32-2.27,1.39-1.13,3.47-2.65,7.56-4.41,10.46l-1.07-.44h0ZM674.55,214.82c-.25.76-.82,1.2-2.46,1.2-1.26,5.61-3.28,11.47-6.43,16.89.88,3.09,2.14,5.8,3.78,7.88.69,1.07.94,1.01,1.51-.25.63-1.51,1.57-4.47,2.27-6.99l.82.13-1.07,9.83c1.51,2.71,1.76,4.03,1.01,4.66-1.76,1.83-5.29-.38-7.12-2.9-1.7-2.21-3.15-4.91-4.22-7.88-3.53,4.6-8.19,8.57-14.18,11.53l-.63-.82c5.92-3.72,10.4-8.88,13.55-14.55-1.95-7.37-2.71-16.38-2.96-26.59h-22.74l-.5-1.83h9.01v-5.29h-5.92l-.5-1.83h6.43v-6.55l6.43.63c-.06.82-.57,1.39-2.02,1.64v4.28h1.64l2.52-3.21s2.9,2.33,4.66,4.03c-.19.69-.76,1.01-1.64,1.01h-7.18v5.29h9.83c-.13-4.47-.13-9.2-.13-14.11l6.99.88c-.13.82-.69,1.58-2.27,1.76-.06,3.84-.13,7.75-.13,11.47h3.46l2.46-3.15c-.5-.06-1.01-.31-1.51-.76-.25-2.33-1.64-5.23-2.96-6.99l.69-.38c7.81,2.58,7.25,7.18,4.91,8,1.07.88,3.28,2.65,4.66,4.1-.06.69-.69,1.01-1.57,1.01h-10.14c.06,7.37.44,14.36,1.45,20.22,1.7-4.54,2.84-9.32,3.53-13.99l6.68,1.64h-.01ZM657.04,238.13c-3.91,1.58-9.51,3.72-17.26,6.3-.32.82-.88,1.26-1.45,1.45l-2.96-5.42c1.95-.19,5.04-.63,8.82-1.2v-5.61h-7.18l-.5-1.83h7.69v-4.73c-2.39.19-4.73.38-6.99.38l-.32-1.07c5.36-1.01,12.22-3.09,15.75-4.66l4.28,4.35c-.63.5-1.76.44-3.15-.19-1.45.25-3.28.5-5.23.76v5.17h2.08l2.39-2.71s2.71,1.95,4.47,3.53c-.19.69-.76,1.01-1.58,1.01h-7.37v4.91c2.71-.44,5.48-.88,8.38-1.39l.13.94h0ZM650.99,221.62v-1.83h-8.95v1.58c0,.31-1.83,1.2-3.47,1.2h-.57v-14.11l4.35,1.89h8.06l2.14-2.21,4.66,3.47c-.31.38-1.2.88-2.21,1.07v7.69c-.06.44-2.08,1.26-3.4,1.26h-.63.02ZM650.99,217.97v-5.8h-8.95v5.8h8.95Z"/>
          <path class="st27" d="M742.15,243.11c1.2,2.9,1.39,4.66.38,5.35-2.14,1.32-4.66-.69-6.3-3.4-1.89-2.65-3.15-6.87-3.97-11.97-.44.19-.88.25-1.51.38-.44,8-1.51,12.03-3.65,13.61-1.45,1.01-3.34,1.57-5.54,1.51,0-1.26-.13-2.33-.88-3.02-.69-.63-2.27-1.13-3.97-1.39v-1.01c1.76.13,4.73.31,5.8.31.82,0,1.26-.13,1.76-.5.94-.76,1.64-4.03,2.02-10.08h-20.79v1.26c0,.44-1.89,1.51-3.91,1.51h-.76v-29.8l4.98,2.2h4.03c.25-1.39.57-3.21.76-4.66h-12.47l-.44-1.83h23.88l2.83-3.53s3.21,2.52,5.23,4.41c-.19.63-.76.95-1.64.95h-11.84c-1.01,1.58-2.27,3.34-3.4,4.66h7.37l2.33-2.46,4.91,3.72c-.32.38-1.13.82-2.14,1.01v11.4c-.06.38-2.27,1.51-3.84,1.51h-.76v-1.7h-15.12v3.84h18.02l2.71-3.28s3.09,2.33,4.98,4.1c-.19.69-.76,1.01-1.64,1.01h-24.07v3.84h20.29l2.46-2.52,3.78,3.02c-1.45-9.83-1.45-22.68-1.26-34.46h-34.65v12.47c0,11.66-.69,28.04-10.96,39.44l-.95-.57c6.36-11.78,6.93-26.08,6.93-38.81v-16.88l5.8,2.58h33.14l2.9-3.21,5.73,4.91c-.44.44-1.39.94-2.84,1.2-.76,13.61-.38,35.6,3.59,41.27.44.76.76.69,1.07-.19.76-2.39,1.32-4.79,1.89-7.06l.76.13-1.01,10.71-.02.02h0ZM699.62,235.36c1.7,5.42.25,9.26-1.7,10.84-1.32.95-3.65,1.01-4.35-.44-.57-1.39.19-2.71,1.57-3.53,1.83-1.07,3.59-3.97,3.4-6.87h1.08,0ZM704.73,235.8c7.37,6.05,2.27,12.1-.5,8.51.5-2.71.19-6.05-.31-8.25l.82-.25h-.01ZM705.48,209.84v4.03h15.12v-4.03h-15.12ZM720.6,219.73v-4.1h-15.12v4.1h15.12ZM710.33,234.92c9.32,3.84,5.48,10.65,2.14,7.62,0-2.39-1.45-5.42-2.9-7.25l.76-.38h0ZM716.63,234.16c9.64,1.7,6.68,8.38,3.28,6.11-.44-1.95-2.33-4.35-3.91-5.67l.63-.44h0Z"/>
          <path class="st27" d="M771.88,232.02c-.06.38-2.33,1.51-3.97,1.51h-.69v-5.29h-7.18v7.18c0,.57-1.83,1.76-3.91,1.76h-.76v-40.57l4.91,2.21h6.36l2.46-2.77,5.42,4.22c-.44.5-1.45,1.01-2.65,1.26v30.49h.01ZM767.22,226.47v-25.83h-7.18v25.83h7.18ZM776.55,232.52c1.76,6.3-.44,10.46-2.9,12.03-1.57,1.07-3.91,1.01-4.6-.63-.63-1.51.32-2.84,1.76-3.59,2.27-1.2,4.66-4.41,4.66-7.81h1.08ZM811.7,227.23c-.44.5-1.2.82-2.46.88-.57,10.58-1.95,16.82-4.54,18.9-1.58,1.26-3.84,1.89-6.49,1.89,0-1.32-.19-2.52-1.01-3.21s-3.15-1.32-5.42-1.7l.06-1.01c2.33.19,6.36.5,7.62.5,1.13,0,1.64-.13,2.21-.57,1.39-1.26,2.33-6.74,2.84-15.37h-23.19v2.33c0,.38-1.51,1.58-3.84,1.58h-.82v-35.41l5.48,2.27h3.4c.76-2.14,1.45-5.17,1.76-7.43l7.88,1.39c-.25.76-.94,1.39-2.33,1.45-1.32,1.51-3.53,3.21-5.61,4.6h12.1l2.58-2.77,5.54,4.22c-.38.5-1.32,1.01-2.58,1.26v13.92c-.06.38-2.52,1.39-4.16,1.39h-.76v-1.89h-18.65v4.73h21.74l2.96-3.72s3.47,2.58,5.48,4.54c-.13.69-.76,1.01-1.58,1.01h-28.6v4.73h22.68l2.65-2.71,5.04,4.22.02-.02h0ZM781.21,232.33c8.82,6.11,3.59,13.61.32,9.7.69-3.09-.06-6.93-1.13-9.39l.82-.31h-.01ZM781.33,200.14v5.29h18.65v-5.29h-18.65ZM799.98,212.61v-5.36h-18.65v5.36h18.65ZM787.51,231.52c10.33,3.91,6.17,11.72,2.58,8.51.13-2.77-1.51-6.05-3.28-8.06l.69-.44h.01ZM794.31,230.32c10.65,2.21,7.62,10.08,3.84,7.37-.32-2.46-2.46-5.36-4.47-6.87l.63-.5h0Z"/>
          <path class="st27" d="M846.54,211.98c-.25.76-.94,1.32-2.39,1.26-1.64,6.11-4.47,15.18-7.25,22.68,3.21-.76,6.55-1.64,9.95-2.52l.25.88c-4.91,2.33-11.72,5.73-21.3,9.77-.19.76-.76,1.39-1.45,1.58l-2.9-6.05c2.65-.44,7.75-1.7,13.8-3.21,1.39-8.19,3.02-18.9,4.03-26.46l7.25,2.08h.01ZM844.08,201.34s3.53,3.02,5.61,5.17c-.19.69-.82,1.01-1.7,1.01h-25.89l-.5-1.83h19.41l3.09-4.35h-.02,0ZM825.31,210.66c12.41,14.81,5.92,26.46,2.71,21.42,0-5.04-.57-14.43-3.53-21.04l.82-.38ZM829.59,191.07c12.92,6.68,8,16.32,3.47,12.16-.38-3.78-2.52-8.57-4.22-11.78l.76-.38h-.01ZM874.07,201.9s3.47,2.77,5.48,4.79c-.13.69-.76,1.01-1.58,1.01h-14.18v13.36h5.73l2.52-2.96,5.23,4.03c-.44.57-1.07.88-2.46,1.13v23.75c0,.31-1.83,1.39-4.22,1.39h-.82v-4.16h-16.95v3.28c0,.38-1.51,1.39-4.03,1.39h-.76v-30.18l5.54,2.33h5.29v-30.18l7.25.76c-.13.88-.69,1.51-2.33,1.76v12.41h7.31l2.96-3.91h.02ZM852.84,222.88v19.53h16.95v-19.53h-16.95Z"/>
        </g>
        <line class="st1" x1=".21" y1="172.8" x2="879.55" y2="172.8"/>
      </g>
    </g>
    <g>
      <rect class="st0" x="692.15" y="207.01" width="2.37" height="2.17"/>
      <rect class="st0" x="684.71" y="213.76" width="2.27" height="2.22"/>
      <path class="st0" d="M703.99,213.6c-.76-.72-2-1.68-3.75-2.86v10.25h-7.24v2.07h8.33-.01v5.18c3.84-3.48,6.23-7.9,7.15-13.26.2-1.22.3-2.37.3-3.45v-6.8h-.44c-1.25,3.58-2.69,6.54-4.34,8.87Z"/>
      <rect class="st0" x="684.71" y="207.01" width="2.27" height="2.17"/>
      <polygon class="st0" points="738.48 197.1 743.65 197.1 743.65 195.77 737.3 195.77 737.3 205.28 738.48 205.28 738.48 197.1"/>
      <rect class="st0" x="692.15" y="213.76" width="2.37" height="2.22"/>
      <rect class="st0" x="734.34" y="210.06" width="12.42" height="1.38"/>
      <rect class="st0" x="768.35" y="197.69" width="1.38" height="1.53"/>
      <rect class="st0" x="768.35" y="203.41" width="1.38" height="1.63"/>
      <rect class="st0" x="738.38" y="216.22" width="4.24" height="1.48"/>
      <rect class="st0" x="742.23" y="201.04" width="1.43" height="4.24"/>
      <rect class="st0" x="738.38" y="222.33" width="4.24" height="1.53"/>
      <rect class="st0" x="432.24" y="212.48" width="2.71" height="1.38"/>
      <path class="st0" d="M558.37,222.59c1.54-1.61,2.76-3.32,3.65-5.13h-7.59c.95,1.77,2.27,3.48,3.94,5.13Z"/>
      <rect class="st0" x="441.16" y="212.48" width="2.81" height="1.38"/>
      <path class="st0" d="M453.24,218.15c-.72-1.02-1.71-2.15-2.96-3.4v3.35h-10.99l.64.15-.64,1.23c1.41,0,3.58-.03,6.51-.1,2.99-.03,5.21-.07,6.65-.1l-.2,5.03h0s-4.34.1-4.34.1c-.62,2.14-1.46,3.86-2.51,5.17.52.23,1.67.84,3.45,1.82,3.48-1.84,6.29-4.37,8.43-7.59-.95-2.4-1.79-5.06-2.51-7.98-.49.89-1,1.66-1.53,2.32Z"/>
      <path class="st0" d="M436.24,224.6l-.49.89c1.77.66,3.12,1.17,4.04,1.53.62-.76,1.17-1.58,1.63-2.46l-5.18.05h0Z"/>
      <rect class="st0" x="441.16" y="201.29" width="1.92" height="1.23"/>
      <rect class="st0" x="534.02" y="224.55" width="3.6" height="4.29"/>
      <path class="st0" d="M459.2,205.09l-.05.2c.53,3.55,1.18,6.72,1.97,9.51.82-3.22,1.36-6.46,1.63-9.71h-3.55Z"/>
      <rect class="st0" x="433.18" y="201.29" width="1.77" height="1.23"/>
      <rect class="st0" x="441.17" y="195.82" width="1.92" height="1.18"/>
      <rect class="st0" x="758.05" y="203.41" width="1.33" height="1.63"/>
      <rect class="st0" x="584.95" y="224.55" width="3.94" height="4.29"/>
      <rect class="st0" x="433.18" y="195.82" width="1.77" height="1.18"/>
      <rect class="st0" x="808.57" y="206.12" width="3.25" height="1.18"/>
      <rect class="st0" x="842.73" y="199.42" width="8.13" height="4.63"/>
      <path class="st0" d="M842.58,215.83h8.28v-4.98h-8.13c0,1.58-.05,3.24-.15,4.98Z"/>
      <path class="st0" d="M789.25,205.92c2.46-2.27,4.42-4.76,5.87-7.49h-5.87v7.49Z"/>
      <rect class="st0" x="808.57" y="210.71" width="3.25" height="1.33"/>
      <rect class="st0" x="808.57" y="215.44" width="3.25" height="1.48"/>
      <rect class="st0" x="758.05" y="197.69" width="1.33" height="1.53"/>
      <path class="st0" d="M436.73,104.06h-.65c.17,1.91.48,4.94.91,9.1,1.38,12.48,2.08,21.67,2.08,27.56v32.51h31.65l-24.37-47.46-9.62-21.71Z"/>
      <path class="st0" d="M57.09,131.23c.35-2.42.52-4.98.52-7.67,0-16.29-5.72-25.91-17.16-28.86-2.95-.78-6.33-1.17-10.14-1.17h-3.25v60.96h0s3.25.01,3.25.01c15.86,0,24.78-7.75,26.78-23.27Z"/>
      <rect class="st0" x="858.25" y="199.42" width="8.97" height="4.63"/>
      <rect class="st0" x="858.25" y="210.85" width="8.97" height="4.98"/>
      <path class="st0" d="M801.42,199.37c-.66,1.38-1.54,2.94-2.66,4.68v3.1c2.46-2.4,4.49-5.31,6.06-8.72h-6.46l3.06.94Z"/>
      <rect class="st0" x="763.17" y="197.69" width="1.38" height="1.53"/>
      <path class="st0" d="M762.28,231.7h2.96c.82-1.81,1.46-3.43,1.92-4.88h-7.1c1.12,1.74,1.86,3.37,2.22,4.88Z"/>
      <rect class="st0" x="759.13" y="220.86" width="9.46" height="1.82"/>
      <rect class="st0" x="763.17" y="203.41" width="1.38" height="1.63"/>
      <path class="st0" d="M809.81,201.98h2.95c.69-1.51,1.17-2.69,1.43-3.55h-5.17l2.17.59c-.49,1.12-.95,2.1-1.38,2.96Z"/>
      <path class="st2" d="M464.93,223.82c2.2-4.77,3.73-11.01,4.58-18.73h2.56l.02.02v-6.75h-11.19c.62-3.02,1.08-5.75,1.38-8.18l-7-1.03c-.89,8.48-2.55,15.18-4.98,20.11v-1.04h-9.12v-1.18h8.23v-5.32h3.15v-5.08h-3.15v-5.22h-8.23v-2.22h-6.21v2.22h-7.74v5.22h-3.06v5.08h3.06v5.32h7.74v1.18h-8.62v9.91h6.95l-.74,1.43c-2,.03-4.73.05-8.18.05l.2,5.22,4.98-.05c-.49.82-1.36,2.17-2.61,4.04l5.86,1.38.15-.25,1.18.49c-2.26.66-5.14,1.12-8.62,1.38,1.28,1.81,2.1,3.65,2.46,5.52,5.71-.89,9.97-2.14,12.76-3.75,2.13,1.18,3.89,2.23,5.27,3.15l3.94-3.94c1.35,1.8,2.27,3.33,2.76,4.58,3.05-1.77,5.76-4.07,8.13-6.9,1.87,2.72,4.14,4.99,6.8,6.8.13-.23.28-.48.44-.74,1.28-2.04,2.73-3.73,4.34-5.08-2.96-1.74-5.45-4.29-7.49-7.64ZM434.95,202.52h-1.77v-1.23h1.77v1.23ZM434.95,197h-1.77v-1.18h1.77v1.18ZM434.95,213.86h-2.71v-1.38h2.71v1.38ZM441.17,195.82h1.92v1.18h-1.92v-1.18ZM441.16,201.29h1.92v1.23h-1.92v-1.23ZM441.16,212.48h2.81v1.38h-2.81v-1.38ZM439.79,227.02c-.92-.36-2.27-.87-4.04-1.53l.49-.89h0s5.18-.04,5.18-.04c-.46.88-1.01,1.7-1.63,2.46ZM448.85,231.4c-1.78-.98-2.93-1.59-3.45-1.82,1.05-1.31,1.89-3.03,2.51-5.17l4.34-.1h0s.2-5.03.2-5.03c-1.44.03-3.66.07-6.65.1-2.93.07-5.1.1-6.51.1l.64-1.23-.64-.15h10.99v-3.35c1.25,1.25,2.24,2.38,2.96,3.4.53-.66,1.04-1.43,1.53-2.32.72,2.92,1.56,5.58,2.51,7.98-2.14,3.22-4.95,5.75-8.43,7.59ZM461.12,214.8c-.79-2.79-1.44-5.96-1.97-9.51l.05-.2h3.55c-.27,3.25-.81,6.49-1.63,9.71Z"/>
      <path class="st20" d="M501.14,206.52l-6.6,1.13c.09.5.21,1.02.34,1.58,1.45,6.73,2.22,12.7,2.32,17.89l7.25-1.53h-.01c0-.16-.02-.34-.05-.54-.33-5.35-1.41-11.53-3.25-18.53Z"/>
      <path class="st23" d="M513.81,228.2c1.91-6.31,3.55-13.21,4.93-20.7l-7.93-1.23c0,.16-.02.34-.05.54-.72,7.39-2.05,14.52-3.99,21.39h-16.26v6.9h32.48v-6.9h-9.18Z"/>
      <polygon class="st24" points="502.63 189.91 502.63 197.89 491.39 197.89 491.39 204.79 522.09 204.79 522.09 197.89 510.02 197.89 510.02 189.91 502.63 189.91"/>
      <path class="st25" d="M485.82,189.31h.01c-.5,1.29-1.07,2.6-1.73,3.95-2.76,5.71-6.12,10.41-10.1,14.09.13.2.29.46.49.79,1.51,2.6,2.61,4.91,3.3,6.95.98-.96,2.12-2.21,3.4-3.75v25.63h6.95v-35.98c1.54-2.72,3.05-5.86,4.53-9.41l-6.85-2.27Z"/>
      <rect class="st22" x="528.06" y="211.74" width="15.92" height="5.47"/>
      <path class="st18" d="M571.48,212.33l-4.78-1.67-.02-.02-1.23.25h-15.57c3.55-2.96,5.37-7.61,5.47-13.95h3.89v4.44c0,2.5.3,4.32.89,5.47.79,1.52,2.47,2.27,5.03,2.27h2.71c1.22,0,2.22-.23,3.01-.69,1.61-.99,2.6-3.55,2.96-7.69-2.66-.65-4.63-1.51-5.91-2.56-.03.92-.07,1.7-.1,2.32-.1,1.64-.35,2.46-.74,2.46h-.54c-.19-.04-.34-.6-.44-1.68v-10.74h-17.69v6.01c0,.53-.02,1-.05,1.43-.2,3.75-1.66,6.61-4.39,8.58v-1.77h-15.92v5.42h15.92v-3.1c1.51.91,3.04,2.18,4.58,3.79h-2.07v6.55h7.74l-6.31,2.02c1.45,2.72,3.14,5.19,5.08,7.39-2.57,1.58-5.61,2.81-9.12,3.7v-11.68h-16.02v17.5h6.16v-1.82h9.86v-3.65s.08.08.15.15c1.54,1.94,2.71,3.94,3.5,6.01,4.14-1.29,7.82-2.99,11.04-5.13,2.99,2.17,6.53,3.88,10.6,5.13.09-.2.21-.41.34-.64,1.42-2.37,2.9-4.26,4.44-5.67-3.45-.82-6.7-2.08-9.76-3.79,3.35-3.81,5.78-8.69,7.29-14.64ZM537.62,228.84h-3.6v-4.29h3.6v4.29ZM558.37,222.59c-1.67-1.65-2.99-3.36-3.94-5.13h7.59c-.89,1.81-2.11,3.52-3.65,5.13Z"/>
      <rect class="st19" x="528.21" y="190.65" width="15.67" height="5.47"/>
      <rect class="st21" x="525.6" y="197.54" width="20.21" height="5.72"/>
      <polygon class="st26" points="614.57 189.46 607.08 189.46 607.08 205.97 597.17 205.97 597.17 213.26 607.08 213.26 607.08 237.11 614.57 237.11 614.57 213.26 624.67 213.26 624.67 205.97 614.57 205.97 614.57 189.46"/>
      <rect class="st14" x="578.83" y="204.79" width="16.61" height="5.42"/>
      <rect class="st17" x="576.32" y="197.54" width="21.14" height="5.72"/>
      <rect class="st16" x="579.13" y="190.65" width="16.41" height="5.47"/>
      <path class="st15" d="M578.63,236.38h6.31v-1.82h10.35v-15.67h0s-16.66-.01-16.66-.01v17.5ZM584.95,224.55h3.94v4.29h-3.94v-4.29Z"/>
      <rect class="st10" x="578.83" y="211.74" width="16.61" height="5.47"/>
      <polygon class="st11" points="653.99 195.42 647.98 195.42 647.98 210.06 633.34 210.06 633.34 216.12 647.98 216.12 647.98 230.76 653.99 230.76 653.99 216.12 668.63 216.12 668.63 210.06 653.99 210.06 653.99 195.42"/>
      <path class="st8" d="M719.55,223.81c-2.4-3.84-3.6-7.93-3.6-12.27v-6.8h.02s1.82-.01,1.82-.01c-.49,3.35-.95,6.04-1.38,8.08l5.91,1.33c1.25-4.99,2.29-10,3.11-15.03l-4.93-1.08-1.08.2h-9.22c.66-2.95,1.17-5.65,1.53-8.08l-7.1-1.03c-.79,7-2.25,12.59-4.39,16.76v-3.84h-7.2v-2.17h7.79v-6.26h-7.79v-4.48h-6.85v4.48h-7.69v6.26h7.69v2.17h-7v18.97h7v2.07h-8.28v6.36h8.28v7.64h6.8v-7.64h6.95c-.33.27-1.11.77-2.32,1.53.09.13.22.28.39.44,1.68,2.11,2.91,4.03,3.7,5.77,2.23-1.35,4.27-3.2,6.11-5.57,2.39-3.13,3.91-6.21,4.53-9.27.3,1.41.82,2.95,1.58,4.63,2.1,4.73,4.85,8.13,8.23,10.2,1.58-2.67,3.04-4.82,4.39-6.46-2.83-1.77-5.16-4.07-7-6.9ZM692.15,207.01h2.37v2.17h-2.37v-2.17ZM686.98,215.98h-2.27v-2.22h2.27v2.22ZM686.98,209.18h-2.27v-2.17h2.27v2.17ZM692.15,215.98v-2.22h2.37v2.22h-2.37ZM708.77,211.53c0,1.08-.1,2.23-.3,3.45-.92,5.36-3.31,9.78-7.15,13.26v-5.17h.01s-8.33,0-8.33,0v-2.07h7.24v-10.25c1.75,1.18,2.99,2.14,3.75,2.86,1.65-2.33,3.09-5.29,4.34-8.87h.44v6.8Z"/>
      <path class="st9" d="M752.05,213.56v2.02h23.85v-4.78h-23.71v-5.52h-3.15v-14.64h-16.91v14.64h-2.91v8.28h3.1v23.61h6.06v-8.53h4.24v2.46c0,.33-.16.52-.49.59-.89,0-1.63-.02-2.22-.05.86,1.94,1.4,3.76,1.63,5.47,2.43,0,4.24-.33,5.42-.99.16-.09.32-.21.49-.34.89-.75,1.33-2.28,1.33-4.58v-17.64h3.27ZM737.3,195.77h6.35v1.33h-5.17v8.18h-1.18v-9.51ZM743.66,201.04v4.24h-1.43v-4.24h1.43ZM742.62,223.86h-4.24v-1.53h4.24v1.53ZM742.62,217.7h-4.24v-1.48h4.24v1.48ZM746.76,211.44h-12.42v-1.38h12.42v1.38Z"/>
      <path class="st12" d="M758.2,189.17v3.99h-5.42v16.36h22.47v-16.36h-5.66v-3.99h-5.03v3.99h-1.38v-3.99h-4.98ZM768.35,197.69h1.38v1.53h-1.38v-1.53ZM768.35,203.41h1.38v1.63h-1.38v-1.63ZM759.38,205.04h-1.33v-1.63h1.33v1.63ZM759.38,199.22h-1.33v-1.53h1.33v1.53ZM764.55,205.04h-1.38v-1.63h1.38v1.63ZM764.55,197.69v1.53h-1.38v-1.53h1.38Z"/>
      <path class="st13" d="M773.33,227.46l-2.71-.64h4.09v-10.1h-21.39v10.1h4.68l-3.2,1.18c.72,1.12,1.31,2.35,1.77,3.7h-5.77v5.03h25.68v-5.03h-5.76c1.71-2.79,2.61-4.24,2.61-4.24ZM765.24,231.7h-2.96c-.36-1.51-1.1-3.14-2.22-4.88h7.1c-.46,1.45-1.1,3.07-1.92,4.88ZM768.59,222.68h-9.46v-1.82h9.46v1.82Z"/>
      <path class="st6" d="M791.81,224.4s-.02.08-.05.15c-.89,3.58-2.46,6.38-4.73,8.38l5.57,3.55h0c2.2-2.04,3.9-5.38,5.08-10.01l-5.87-2.07Z"/>
      <path class="st7" d="M820.61,223.66l-5.67,2.66c1.12,1.41,2.04,2.67,2.76,3.79-2.26-.59-4.02-1.32-5.27-2.17-.09,1.25-.21,2.08-.34,2.51-.16.53-.59.79-1.28.79h-3.79c-.56,0-.95-.03-1.18-.1-.36-.1-.54-.52-.54-1.28v-4.14c1.84,1.21,3.24,2.31,4.19,3.3l4.44-4.14c-1.05-.99-2.79-2.2-5.22-3.65h17.05v-4.29h-7.93v-1.48h6.11v-3.4h-6.11v-1.33h6.11v-3.4h-6.11v-1.18h7.49v-4.14h-6.16c.13-.2.34-.51.64-.94.49-.76.87-1.32,1.13-1.68l-4.34-.94h9.81v-5.91h-17.74v-3.35h-7.69v3.35h-18.38v16.36c-.06,11.01-1.39,19.02-3.99,24.05.23.13.51.29.84.49,1.94,1.21,3.51,2.48,4.73,3.79,3.12-5.88,4.8-14.85,5.03-26.91.62.66,1.3,1.43,2.02,2.32l1.48-1.33v10.69h6.06v-13.45c1.47,1.12,2.74,2.22,3.79,3.3v9.36h1.28l-2.42,2.22c.49.26,1.56.87,3.2,1.82h-5.91v4.68c0,2.3.33,3.96.99,4.98.92,1.35,3.02,2.02,6.31,2.02h5.52c1.51,0,2.73-.21,3.65-.64,1.55-.76,2.53-2.63,2.96-5.62,1.48,2.3,2.5,4.32,3.06,6.06l6.07-2.94c-.03-.09-.06-.18-.09-.27-1.19-2.93-3.37-6.21-6.56-9.86ZM814.19,198.43c-.26.86-.74,2.04-1.43,3.55h-2.95c.43-.86.89-1.84,1.38-2.96l-2.17-.59h5.17ZM808.57,206.12h3.25v1.18h-3.25v-1.18ZM808.57,210.71h3.25v1.33h-3.25v-1.33ZM808.57,215.44h3.25v1.48h-3.25v-1.48ZM789.25,205.92v-7.49h5.87c-1.45,2.73-3.41,5.22-5.87,7.49ZM798.76,207.15v-3.1c1.12-1.74,2-3.3,2.66-4.68l-3.06-.94h6.46c-1.57,3.41-3.6,6.32-6.06,8.72Z"/>
      <path class="st4" d="M827.27,233.82l.03-.05-.04.02s0,.02.01.03Z"/>
      <path class="st5" d="M835.42,192.47v18.04c0,1.51-.02,2.84-.05,3.99-.32,8.22-2.28,14.28-5.86,18.19.27.16.6.36.99.59,2.07,1.41,3.68,2.79,4.83,4.14,3.16-3.42,5.29-8.31,6.41-14.69h9.12v13.7h7.39v-13.7h8.97v6.06c-.03.72-.44,1.11-1.23,1.18h-3.47c-.58,0-1.14-.02-1.68-.05-.54-.03-1.04-.07-1.5-.1,1.25,2.56,2.02,4.9,2.32,7h1.23c4.14.03,7.03-.38,8.67-1.23.33-.16.65-.36.94-.59,1.38-1.08,2.07-3.12,2.07-6.11v-36.42h-39.15ZM842.73,199.42h8.13v4.63h-8.13v-4.63ZM850.86,215.83h-8.28c.1-1.74.15-3.4.15-4.98h8.13v4.98ZM867.22,215.83h-8.97v-4.98h8.97v4.98ZM867.22,204.05h-8.97v-4.63h8.97v4.63Z"/>
      <path class="st3" d="M495.1,173.23v-98.67h-22.62v32.76c0,6.85,1.08,19.07,3.25,36.66h-.65l-9.75-21.97-24.7-47.45h-24.18v98.67h-38.27c7.04-2.04,12.96-5.33,17.72-9.9v-46.28h-36.92v19.37h15.73v15.99c-2.34,1.73-5.46,2.6-9.36,2.6-2.6,0-5.07-.26-7.41-.78-13.18-2.69-19.76-12.83-19.76-30.42,0-7.54,1.56-13.95,4.68-19.24,4.51-7.71,11.31-11.57,20.41-11.57,6.07.18,12.13,2.78,18.2,7.8l12.74-15.21c-8.58-8.49-19.16-12.78-31.72-12.87-12.74,0-23.58,3.95-32.5,11.83-10.83,9.62-16.25,22.97-16.25,40.04,0,14.82,4.07,26.78,12.22,35.88,5.57,6.16,12.39,10.41,20.48,12.76h-51.55v-98.67h-23.79v98.67h-39.73c4.27-1.36,8.1-3.36,11.5-6,7.37-5.89,11.05-13.48,11.05-22.75-.09-12.74-6.59-21.8-19.5-27.17l-12.35-4.94c-4.33-1.73-7.15-2.9-8.45-3.51-4.42-2.08-6.63-4.59-6.63-7.54,0-.61.09-1.26.26-1.95,1.04-4.25,4.72-6.37,11.57-6.37s13.65,2.56,20.41,7.67l11.83-14.95c-.78-.78-1.65-1.56-2.6-2.34-8.41-7.11-18.29-10.66-29.64-10.66-9.71,0-17.94,2.6-24.7,7.8-7.45,5.81-11.18,13.18-11.18,22.1,0,2.86.39,5.63,1.17,8.32,2.6,8.58,8.88,14.87,18.85,18.85l12.74,5.33c4.25,1.82,6.98,3.03,8.19,3.64,3.81,2,5.72,4.51,5.72,7.54-.09,5.72-4.38,8.63-12.87,8.71-.87,0-1.78-.04-2.73-.13-7.46-.87-14.61-4.2-21.45-10.01l-13.39,16.38c1.21,1.04,2.47,2.13,3.77,3.25,5.37,4.02,11.16,6.93,17.37,8.73h-35.06v-19.63h-40.56v-20.93h33.15v-20.02h-33.15v-18.33h39v-19.76h-62.78v98.67h-60.31c6.85-.72,13-2.45,18.44-5.2,15.25-7.8,22.88-22.62,22.88-44.46,0-8.67-1.3-16.29-3.9-22.88-6.85-17.42-22.28-26.13-46.28-26.13H3.27v98.67h-.17v2.2h876.36v-2.2h-384.36ZM27.06,154.5h0v-60.97h3.25c3.81,0,7.19.39,10.14,1.17,11.44,2.95,17.16,12.57,17.16,28.86,0,2.69-.17,5.25-.52,7.67-2,15.52-10.92,23.27-26.78,23.27h-3.25ZM439.07,173.23v-32.51c0-5.89-.7-15.08-2.08-27.56-.43-4.16-.74-7.19-.91-9.1h.65l9.62,21.71,24.37,47.46h-31.65Z"/>
    </g>
  </g>
</svg>