<?xml version="1.0" encoding="UTF-8"?>
<svg id="_圖層_2" xmlns="http://www.w3.org/2000/svg" xmlns:xlink="http://www.w3.org/1999/xlink" version="1.1" viewBox="0 0 642.12 209.3">
  <!-- Generator: Adobe Illustrator 30.4.0, SVG Export Plug-In . SVG Version: 2.1.4 Build 226)  -->
  <defs>
    <style>
      .st0 {
        fill: url(#_未命名漸層_17);
      }

      .st1 {
        fill: url(#_未命名漸層_1734);
      }

      .st2 {
        fill: url(#_未命名漸層_1726);
      }

      .st3 {
        fill: url(#_未命名漸層_1727);
      }

      .st4 {
        fill: url(#_未命名漸層_1724);
      }

      .st5 {
        fill: url(#_未命名漸層_1725);
      }

      .st6 {
        fill: url(#_未命名漸層_1728);
      }

      .st7 {
        fill: url(#_未命名漸層_1729);
      }

      .st8 {
        fill: url(#_未命名漸層_1722);
      }

      .st9 {
        fill: url(#_未命名漸層_1723);
      }

      .st10 {
        fill: url(#_未命名漸層_1720);
      }

      .st11 {
        fill: url(#_未命名漸層_1721);
      }

      .st12 {
        fill: url(#_未命名漸層_1735);
      }

      .st13 {
        fill: url(#_未命名漸層_1716);
      }

      .st14 {
        fill: url(#_未命名漸層_1717);
      }

      .st15 {
        fill: url(#_未命名漸層_1714);
      }

      .st16 {
        fill: url(#_未命名漸層_1715);
      }

      .st17 {
        fill: url(#_未命名漸層_1718);
      }

      .st18 {
        fill: url(#_未命名漸層_1719);
      }

      .st19 {
        fill: url(#_未命名漸層_1710);
      }

      .st20 {
        fill: url(#_未命名漸層_1713);
      }

      .st21 {
        fill: url(#_未命名漸層_1712);
      }

      .st22 {
        fill: url(#_未命名漸層_1711);
      }

      .st23 {
        fill: url(#_未命名漸層_1731);
      }

      .st24 {
        fill: url(#_未命名漸層_1732);
      }

      .st25 {
        fill: url(#_未命名漸層_1733);
      }

      .st26 {
        fill: url(#_未命名漸層_1730);
      }

      .st27 {
        fill: #fff;
      }

      .st28 {
        fill: url(#_未命名漸層_176);
      }

      .st29 {
        fill: url(#_未命名漸層_177);
      }

      .st30 {
        fill: url(#_未命名漸層_171);
      }

      .st31 {
        fill: url(#_未命名漸層_178);
      }

      .st32 {
        fill: url(#_未命名漸層_175);
      }

      .st33 {
        fill: url(#_未命名漸層_172);
      }

      .st34 {
        fill: url(#_未命名漸層_173);
      }

      .st35 {
        fill: url(#_未命名漸層_174);
      }

      .st36 {
        fill: url(#_未命名漸層_179);
      }

      .st37 {
        display: none;
      }
    </style>
    <linearGradient id="_未命名漸層_17" data-name="未命名漸層 17" x1="229.61" y1="39.86" x2="292.22" y2="39.86" gradientUnits="userSpaceOnUse">
      <stop offset="0" stop-color="#e6dbbb"/>
      <stop offset="1" stop-color="#c0a273"/>
    </linearGradient>
    <linearGradient id="_未命名漸層_171" data-name="未命名漸層 17" x1="297.25" y1="40.26" x2="359" y2="40.26" xlink:href="#_未命名漸層_17"/>
    <linearGradient id="_未命名漸層_172" data-name="未命名漸層 17" x1="364.5" y1="40.23" x2="425.99" y2="40.23" xlink:href="#_未命名漸層_17"/>
    <linearGradient id="_未命名漸層_173" data-name="未命名漸層 17" x1="433" y1="39.5" x2="496.47" y2="39.5" xlink:href="#_未命名漸層_17"/>
    <linearGradient id="_未命名漸層_174" data-name="未命名漸層 17" x1="500.58" x2="564.78" xlink:href="#_未命名漸層_17"/>
    <linearGradient id="_未命名漸層_175" data-name="未命名漸層 17" x1="568.68" y1="39.23" x2="632.62" y2="39.23" xlink:href="#_未命名漸層_17"/>
    <linearGradient id="_未命名漸層_176" data-name="未命名漸層 17" x1="228.68" y1="121.45" x2="291.63" y2="121.45" xlink:href="#_未命名漸層_17"/>
    <linearGradient id="_未命名漸層_177" data-name="未命名漸層 17" x1="299.89" y1="122.35" x2="357.95" y2="122.35" xlink:href="#_未命名漸層_17"/>
    <linearGradient id="_未命名漸層_178" data-name="未命名漸層 17" x1="364.3" y1="119.97" x2="429.49" y2="119.97" xlink:href="#_未命名漸層_17"/>
    <linearGradient id="_未命名漸層_179" data-name="未命名漸層 17" x1="433.46" y1="120.96" x2="494.09" y2="120.96" xlink:href="#_未命名漸層_17"/>
    <linearGradient id="_未命名漸層_1710" data-name="未命名漸層 17" x1="501.3" y1="121.09" x2="564.38" y2="121.09" xlink:href="#_未命名漸層_17"/>
    <linearGradient id="_未命名漸層_1711" data-name="未命名漸層 17" x1="568.55" y1="121.16" x2="632.42" y2="121.16" xlink:href="#_未命名漸層_17"/>
    <linearGradient id="_未命名漸層_1712" data-name="未命名漸層 17" x1="129.92" y1="186.68" x2="132.81" y2="186.68" xlink:href="#_未命名漸層_17"/>
    <linearGradient id="_未命名漸層_1713" data-name="未命名漸層 17" x1="140.05" y1="186.68" x2="158.21" y2="186.68" xlink:href="#_未命名漸層_17"/>
    <linearGradient id="_未命名漸層_1714" data-name="未命名漸層 17" x1="163.96" y1="186.68" x2="178.86" y2="186.68" xlink:href="#_未命名漸層_17"/>
    <linearGradient id="_未命名漸層_1715" data-name="未命名漸層 17" x1="181.07" y1="186.68" x2="201.65" y2="186.68" xlink:href="#_未命名漸層_17"/>
    <linearGradient id="_未命名漸層_1716" data-name="未命名漸層 17" x1="203.08" y1="186.68" x2="221.56" y2="186.68" xlink:href="#_未命名漸層_17"/>
    <linearGradient id="_未命名漸層_1717" data-name="未命名漸層 17" x1="226.31" y1="186.68" x2="229.2" y2="186.68" xlink:href="#_未命名漸層_17"/>
    <linearGradient id="_未命名漸層_1718" data-name="未命名漸層 17" x1="234.94" y1="186.68" x2="256.47" y2="186.68" xlink:href="#_未命名漸層_17"/>
    <linearGradient id="_未命名漸層_1719" data-name="未命名漸層 17" x1="262.22" y1="186.68" x2="280.11" y2="186.68" xlink:href="#_未命名漸層_17"/>
    <linearGradient id="_未命名漸層_1720" data-name="未命名漸層 17" x1="292.24" y1="190.03" x2="308.1" y2="190.03" xlink:href="#_未命名漸層_17"/>
    <linearGradient id="_未命名漸層_1721" data-name="未命名漸層 17" x1="320.23" y1="186.68" x2="338.4" y2="186.68" xlink:href="#_未命名漸層_17"/>
    <linearGradient id="_未命名漸層_1722" data-name="未命名漸層 17" x1="344.14" y1="186.68" x2="359.05" y2="186.68" xlink:href="#_未命名漸層_17"/>
    <linearGradient id="_未命名漸層_1723" data-name="未命名漸層 17" x1="362.76" y1="186.68" x2="380.14" y2="186.68" xlink:href="#_未命名漸層_17"/>
    <linearGradient id="_未命名漸層_1724" data-name="未命名漸層 17" x1="385.38" y1="186.68" x2="388.26" y2="186.68" xlink:href="#_未命名漸層_17"/>
    <linearGradient id="_未命名漸層_1725" data-name="未命名漸層 17" x1="394" y1="186.68" x2="413.16" y2="186.68" xlink:href="#_未命名漸層_17"/>
    <linearGradient id="_未命名漸層_1726" data-name="未命名漸層 17" x1="419.44" y1="186.68" x2="437.34" y2="186.68" xlink:href="#_未命名漸層_17"/>
    <linearGradient id="_未命名漸層_1727" data-name="未命名漸層 17" x1="449.47" y1="190.03" x2="465.33" y2="190.03" xlink:href="#_未命名漸層_17"/>
    <linearGradient id="_未命名漸層_1728" data-name="未命名漸層 17" x1="475.96" y1="186.68" x2="497.49" y2="186.68" xlink:href="#_未命名漸層_17"/>
    <linearGradient id="_未命名漸層_1729" data-name="未命名漸層 17" x1="503.24" y1="186.68" x2="519.78" y2="186.68" xlink:href="#_未命名漸層_17"/>
    <linearGradient id="_未命名漸層_1730" data-name="未命名漸層 17" x1="522.77" y1="186.68" x2="541.24" y2="186.68" xlink:href="#_未命名漸層_17"/>
    <linearGradient id="_未命名漸層_1731" data-name="未命名漸層 17" x1="546" y1="186.68" x2="548.89" y2="186.68" xlink:href="#_未命名漸層_17"/>
    <linearGradient id="_未命名漸層_1732" data-name="未命名漸層 17" x1="556.12" y1="186.68" x2="577.01" y2="186.68" xlink:href="#_未命名漸層_17"/>
    <linearGradient id="_未命名漸層_1733" data-name="未命名漸層 17" x1="584.24" y1="186.68" x2="587.13" y2="186.68" xlink:href="#_未命名漸層_17"/>
    <linearGradient id="_未命名漸層_1734" data-name="未命名漸層 17" x1="592.6" y1="186.68" x2="610.02" y2="186.68" xlink:href="#_未命名漸層_17"/>
    <linearGradient id="_未命名漸層_1735" data-name="未命名漸層 17" x1="615.42" y1="186.68" x2="630.33" y2="186.68" xlink:href="#_未命名漸層_17"/>
  </defs>
  <g id="_圖層_1-2" class="st37">
    <g>
      <path class="st27" d="M262.02,6.07c.43,4.37-1.21,7.35-3.16,8.56-1.76,1.15-4.07,1.03-4.8-.67-.55-1.52.43-2.92,1.88-3.71,2.31-1.46,4.37-5.1,3.83-9.17l.97-.06c.43,1.09.79,2.19.97,3.22h40.94l2.98-2.98,5.22,5.1c-.43.43-1.15.61-2.31.67-1.64,2.06-4.5,4.98-6.8,6.68l-.67-.36c.61-1.94,1.4-4.98,1.88-7.29h-11.91v8.93c0,.73.18.91,2.13.91h5.53c2.06,0,4.13,0,4.92-.06.49,0,1.09-.06,1.4-.06.36-.06.97-.18,1.34-.3h.55l.3.06c1.46.42,2,.85,2,1.76,0,1.88-1.82,2.43-10.93,2.43h-6.01c-4.86,0-5.65-.91-5.65-3.95V6.07h-11.91l5.53,2.98c-.3.67-.97,1.09-2.67,1.03-3.89,5.83-10.08,11.12-19.86,13.67l-.55-.79c8.56-4.13,14.15-10.51,16.58-16.89h-11.72,0ZM304.12,33.05s3.4,2.61,5.47,4.62c-.12.67-.73.97-1.64.97h-23.27v16.58c0,.3-1.58,1.34-4.13,1.34h-.85v-17.92h-23.08l-.49-1.76h23.57v-11.06h-17.01l-.49-1.82h33.47l2.92-3.58s3.22,2.49,5.22,4.43c-.18.67-.73.97-1.64.97h-17.49v11.06h16.4l3.04-3.83h0Z"/>
      <path class="st27" d="M374.83,49.75c1.46.55,1.82,1.09,1.82,2.07,0,2.13-2,2.98-11.85,2.98h-6.62c-5.16,0-6.26-.97-6.26-4.5v-14.94h-6.26c-1.7,12.27-8.63,17.98-24.48,20.65l-.24-.91c13.06-3.89,18.1-9.36,19.32-19.74h-4.31v2c0,.55-1.94,1.7-4.01,1.7h-.79V1.46l5.22,2.31h24.84l2.55-2.85,5.53,4.31c-.43.49-1.4.91-2.61,1.15v30.49c-.06.43-2.43,1.58-4.07,1.58h-.79v-3.1h-5.1v13.91c0,.91.24,1.09,2.37,1.09h5.95c2.55,0,4.62,0,5.41-.06s1.03-.24,1.28-.85c.61-1.09,1.34-4.43,2.19-8.2h.79l.12,8.5h0ZM335.95,5.59v7.9h25.88v-7.9s-25.88,0-25.88,0ZM361.83,15.31h-25.88v8.2h25.88v-8.2ZM335.95,33.53h25.88v-8.32h-25.88v8.32Z"/>
      <path class="st27" d="M433.09,49.02l3.64-4.62s4.19,3.16,6.74,5.47c-.18.67-.79.97-1.7.97h-54.37l-.55-1.82h46.24ZM430.17,7.35l3.64-4.43s4.01,3.04,6.5,5.22c-.12.67-.79.97-1.64.97h-47.93l-.55-1.76h39.98ZM424.83,27.21l3.46-4.31s4.01,2.98,6.38,5.1c-.12.67-.73.97-1.58.97h-38.03l-.49-1.76h30.26Z"/>
      <path class="st27" d="M509.14,14.82c-.36.43-1.15.85-2.25,1.03v37.72c-.06.55-2.19,1.88-3.95,1.88h-.67v-4.13h-17.31v2.92c0,.55-1.58,1.64-3.58,1.64h-.73v-13c-.24.43-.79.61-1.46.61h-10.99v11.24c0,.36-1.52,1.4-3.77,1.4h-.73v-12.64h-10.63l-.49-1.7h11.12v-7.35h-4.25v1.94c0,.43-1.76,1.4-3.58,1.4h-.67V13.49l4.62,2h3.89v-5.47h-10.33l-.49-1.82h10.81V.12l6.5.61c-.06.85-.61,1.4-2,1.58v5.89h3.64l2.92-3.77s3.4,2.67,5.47,4.62c-.18.67-.79.97-1.64.97h-10.39v5.47h3.95l2.13-2.31,4.5,3.52c-.3.43-1.03.85-2,1.03v17.68c-.06.43-2.07,1.4-3.52,1.4h-.61v-2.37h-4.43v7.35h4.19l2.98-3.77s3.22,2.49,5.28,4.37V11.3l4.62,2.13h6.14V.24l6.5.73c-.18.85-.73,1.46-2.13,1.7v10.75h5.95l2.43-2.61,4.98,4.01h-.02ZM459.45,17.25v6.92h4.43v-6.92h-4.43ZM459.45,32.62h4.43v-6.68h-4.43v6.68ZM468.02,17.25v6.92h4.62v-6.92h-4.62ZM472.64,32.62v-6.68h-4.62v6.68h4.62ZM484.97,15.25v15.19h6.44v-15.19s-6.44,0-6.44,0ZM484.97,49.57h6.44v-17.37h-6.44v17.37ZM495.78,15.25v15.19h6.5v-15.19s-6.5,0-6.5,0ZM502.28,49.57v-17.37h-6.5v17.37h6.5Z"/>
      <path class="st27" d="M562.91,27.21c-.36.67-.97.97-2.49.73-2.25,5.04-5.59,9.66-9.84,13.73,7.17,4.68,16.04,7.78,25.51,9.48l-.12.73c-2.31.3-3.89,1.82-4.62,4.25-9.35-2.49-17.37-6.26-23.75-11.85-6.99,5.59-16.28,9.78-28.06,11.85l-.36-.91c10.63-2.98,19.13-7.71,25.51-13.79-4.01-4.25-7.17-9.36-9.29-15.49l.97-.67c2.37,5.47,6.01,10.02,10.63,13.79,4.07-4.43,7.05-9.48,9.05-14.82l6.86,2.98h0ZM520.45,12.94l-.49-1.82h46.11l3.22-4.62s3.71,3.22,5.89,5.47c-.12.67-.73.97-1.64.97h-53.09,0ZM521.78,31.1c6.01-4.31,11.42-11.42,13.85-16.95l6.74,3.34c-.3.61-.85.91-2.25.67-3.65,4.92-10.21,10.51-17.8,13.73l-.55-.79h.01ZM540.43,0c14.82,2.67,11.18,13.3,5.95,9.96-.79-3.28-3.89-7.23-6.5-9.48l.55-.49h0ZM553.98,14.88c21.44,5.77,19.13,18.22,13.12,15.06-2.19-4.92-8.56-11-13.61-14.46l.49-.61h0Z"/>
      <path class="st27" d="M635.38,46.96s3.95,2.92,6.32,5.1c-.18.67-.73.97-1.64.97h-45.74l-2,2.67-5.83-3.46c.55-.49,1.58-1.15,2.49-1.58V1.58l5.65,2.98h35.78l3.28-4.07s3.64,2.79,5.95,4.86c-.12.67-.79.97-1.64.97h-44.1v44.89h38.09l3.4-4.25h-.01ZM608.1,16.89c-1.58,4.62-5.16,13.97-5.77,15.85-.49,1.52-.85,3.1-.85,4.37.06,2.07,1.64,4.37,1.46,8.14-.12,2.19-1.21,3.52-3.22,3.52-.97,0-1.7-.85-1.88-2.49.73-5.1.36-8.5-.79-9.17-.73-.49-1.52-.67-2.61-.79v-1.34h2.55c.67,0,.91,0,1.52-1.09.61-1.13,3.44-6.9,8.5-17.31l1.09.3h0ZM594.98,17.8c11.06,1.82,7.53,9.78,3.64,6.99-.36-2.37-2.31-5.04-4.19-6.5l.55-.49ZM597.66,7.96c11.72,2.49,8.38,10.57,4.37,7.84-.61-2.49-2.98-5.59-4.98-7.35,0,0,.61-.49.61-.49ZM609.56,49.51v-25.94c-1.21,1.64-2.55,3.16-3.77,4.5l-.97-.55c3.04-5.16,6.26-13,8.2-20.47l6.32,2c-.24.67-.97,1.21-2.25,1.15-.85,2-1.82,4.01-2.85,5.89l.61.24h15.92l2.85-3.4s3.1,2.37,5.1,4.19c-.18.67-.73.97-1.58.97h-10.81v6.99h3.89l2.43-3.16s2.79,2.25,4.62,3.95c-.18.67-.73.97-1.58.97h-9.35v7.47h3.89l2.43-3.04s2.79,2.13,4.62,3.89c-.18.67-.73.97-1.58.97h-9.35v8.08h4.68l2.92-3.52s3.16,2.43,5.16,4.31c-.12.67-.73.97-1.58.97h-23.45v1.76c0,.43-1.46,1.76-3.71,1.76h-.79l-.02.02ZM614.06,18.1v6.99h7.96v-6.99h-7.96ZM622.02,26.85h-7.96v7.47h7.96v-7.47ZM622.02,36.14h-7.96v8.08h7.96v-8.08ZM620.31,7.23c10.51,3.46,6.5,10.87,2.79,7.9-.24-2.55-1.94-5.65-3.4-7.53l.61-.36h0Z"/>
      <path class="st27" d="M239.36,126.95s3.28,2.55,5.28,4.5c-.12.67-.73.97-1.58.97h-25.7v1.88c0,.24-1.46,1.4-3.58,1.4h-.73v-21.08c-1.88,2.19-3.95,4.25-6.14,5.95l-.67-.67c1.58-2,3.1-4.31,4.43-6.8-.18.06-.43.12-.73.12h-7.35v12.27c2.49-.61,5.16-1.34,7.84-2l.18.85c-4.43,2.31-10.39,5.22-18.65,8.63-.24.73-.79,1.28-1.4,1.46l-2.61-5.77c.79-.12,1.82-.24,2.98-.49v-20.9l5.41.61c-.12.61-.49,1.03-1.58,1.28v18.16l3.71-.85v-26.18h-2.73v1.64c0,.3-1.4,1.34-3.52,1.34h-.67v-21.44l4.92,2.25h7.35l2.25-2.43,4.98,3.77c-.43.49-1.28.97-2.43,1.15v14.4c-.06.36-2.19,1.28-3.52,1.28h-.67v-1.94h-1.82v11.18h1.88l2.43-3.58s2.67,2.31,4.37,4.13c2.13-4.07,3.83-8.32,4.8-11.78l4.13,1.21v-6.38c-2,1.46-4.5,3.28-7.47,5.22-.18.73-.55,1.34-1.03,1.58l-2.73-4.01c2.13-.73,6.56-2.55,11.24-4.62v-8.5h-9.96l-.55-1.76h9.96l2.25-2.37,4.56,3.46-.36-1.09h9.42l2.31-2.43,4.98,3.77c-.36.43-1.21.91-2.25,1.09v15.98c-.12.3-2.37,1.09-3.71,1.09h-.73v-7.53c-1.88,1.34-4.13,2.92-6.74,4.62-.12.73-.49,1.28-1.03,1.52l-2.61-4.01c1.94-.67,6.01-2.25,10.39-3.95v-8.38h-9.48l-.06-.24c-.43.36-1.21.73-2.13.91v15.79c-.06.18-1.09.61-2.13.85l.36.12c-.3.67-.73,1.03-2.19,1.03-.67,1.4-1.46,2.86-2.49,4.5h17.07l2.92-3.65s3.22,2.55,5.22,4.5c-.12.67-.73.97-1.58.97h-11.18v5.71h3.64l2.73-3.46s3.1,2.43,5.04,4.31c-.18.67-.73.97-1.58.97h-9.84v5.83h3.58l2.73-3.46s3.1,2.49,5.04,4.31c-.12.67-.73.97-1.58.97h-9.78v5.95h5.95l2.92-3.71.02-.02ZM195.75,98.52h8.69v-12.63h-8.69v12.63ZM211.72,86.07c8.75,2.67,5.65,9.11,2.98,6.68-.55-1.64-1.58-4.31-3.58-6.01l.61-.67h0ZM217.37,109.52v5.71h8.75v-5.71h-8.75ZM226.12,117.05h-8.75v5.83h8.75v-5.83ZM217.37,130.66h8.75v-5.95h-8.75v5.95ZM225.51,100.4c9.35,2.31,5.1,9.29,2.25,6.26-.36-1.58-1.21-4.07-2.86-5.71l.61-.55ZM227.58,86.07c8.63,2.67,5.65,9.11,2.92,6.68-.55-1.64-1.52-4.31-3.52-6.01l.61-.67h0Z"/>
      <path class="st27" d="M304.79,100.95s3.71,2.92,6.01,5.04c-.18.67-.85.97-1.64.97h-13.36v26.97c0,.61-2.13,1.88-4.01,1.88h-.91v-28.85h-15.73c-.43,10.75-3.34,21.81-17.92,28.79l-.61-.67c10.81-7.9,13.3-17.68,13.67-28.12h-15.31l-.49-1.76h15.85v-16.22c-4.37.97-9.05,1.76-13.49,2.31l-.3-1.03c9.11-2.25,20.11-6.5,25.63-9.78l5.41,4.56c-.49.49-1.64.49-3.16.06-2.61.91-5.77,1.82-9.23,2.73v17.37h15.67v-24.91l7.05.79c-.18.85-.55,1.46-2.13,1.7v22.42h5.71l3.28-4.25h.01Z"/>
      <path class="st27" d="M325.02,93.54c-1.28,1.46-2.61,2.79-3.89,3.89l-.91-.61c3.04-4.13,6.07-10.51,7.84-17.07l5.83,2.07c-.24.67-.97,1.21-2.19,1.09-.73,1.58-1.52,2.98-2.31,4.43l.55.24h11.72l2.37-2.79s2.61,2,4.25,3.58c-.12.67-.67.97-1.52.97h-7.65v5.28h2.31l2.07-2.55s2.13,1.76,3.58,3.22c2.55-4.01,4.8-9.72,6.07-15.55l5.95,1.88c-.18.67-.91,1.28-2.13,1.21-.67,1.58-1.34,2.98-2.13,4.43l.73.3h13.24l2.31-2.73s2.67,1.94,4.31,3.52c-.18.67-.79.97-1.52.97h-8.57v5.28h2.73l2.13-2.61s2.37,1.88,3.83,3.4c-.12.67-.61.97-1.46.97h-7.23v5.41h2.73l2.13-2.61s2.43,1.88,3.89,3.4c-.12.67-.67.97-1.52.97h-7.23v5.35h4.13l2.43-2.98s2.67,2.13,4.37,3.77c-.12.67-.73.97-1.58.97h-19.86v.79c0,.36-1.4,1.4-3.52,1.4h-.73v-19.2c-1.09,1.28-2.25,2.43-3.4,3.4l-.91-.61.12-.18c-.18.06-.49.12-.73.12h-6.56v5.41h2.31l2.07-2.55s2.31,1.88,3.71,3.34c-.12.67-.67.97-1.46.97h-6.62v5.35h3.52l2.25-2.85s2.67,2,4.31,3.64c-.18.67-.73.97-1.58.97h-18.41v1.09c0,.3-1.4,1.34-3.46,1.34h-.73v-19.56l.02.03ZM369.42,116.38c-.55.55-1.28.73-2.85.79-3.4,3.77-7.65,6.93-12.51,9.54,7.11,2.07,15.06,3.22,23.2,3.71l-.06.79c-2.19.55-3.58,2.19-4.07,4.56-9.05-1.22-17.31-3.22-24.3-6.56-7.96,3.4-17.31,5.53-27.64,6.56l-.43-1.03c8.75-1.58,17.13-4.13,24.3-7.53-4.8-2.79-8.75-6.44-11.72-10.93h-10.14l-.55-1.76h38.51l3.4-2.85,4.86,4.74v-.03ZM329.21,89.35v5.28h5.89v-5.28h-5.89ZM335.1,96.4h-5.89v5.41h5.89s0-5.41,0-5.41ZM335.1,103.56h-5.89v5.35h5.89v-5.35ZM333.34,79.57c10.81,2.13,7.11,9.9,3.28,6.99-.24-2.25-2.13-4.98-3.89-6.56l.61-.43h0ZM334.98,116.26c3.46,3.77,8.44,6.68,14.21,8.87,4.56-2.55,8.44-5.53,11.3-8.87h-25.51,0ZM354.84,89.35v5.28h6.44v-5.28h-6.44ZM361.28,96.4h-6.44v5.41h6.44s0-5.41,0-5.41ZM361.28,103.56h-6.44v5.35h6.44v-5.35ZM359.34,79.57c10.75,2.19,7.17,9.96,3.28,7.05-.24-2.25-2.13-5.04-3.83-6.56,0,0,.55-.49.55-.49Z"/>
      <path class="st27" d="M415.23,124.16l.12.85c-5.35,2.19-12.88,5.28-23.39,8.99-.3.73-.97,1.28-1.58,1.46l-2.55-6.62c3.22-.36,9.6-1.46,17.13-2.85v-25.27h-15.13l-.55-1.76h15.67v-17.86l6.99.73c-.12.85-.61,1.52-2.19,1.76v41.61l5.47-1.03h0ZM441.11,128.53c1.58.61,2.07,1.21,2.07,2.13,0,2.25-2.43,2.98-11.78,2.98h-5.83c-5.1,0-6.62-1.28-6.62-5.35v-47.14l6.99.79c-.12.79-.67,1.46-2.19,1.7v15.31h10.02l2.67-4.07s3.04,2.85,4.8,4.86c-.18.67-.73.97-1.58.97h-15.91v26.36c0,1.52.49,2.07,2.79,2.07h5.16c2.31,0,4.07,0,4.86-.12.61-.06.97-.24,1.34-.79.55-.97,1.46-4.92,2.25-8.75h.73l.24,9.05h-.01Z"/>
      <path class="st27" d="M469.84,112.61v21.81c0,.3-1.52,1.34-3.89,1.34h-.79v-17.92c-.3.36-.85.55-2,.42-1.82,4.13-5.16,9.6-9.48,13.36l-.73-.73c3.1-4.56,5.22-11.48,6.07-16.16l6.14,2.55v-4.68h-10.81l-.49-1.76h11.3v-7.29h-11.66l-.49-1.76h16.22c1.34-3.4,2.67-8.08,3.4-11.54h-18.28l-.49-1.76h19.86l2.79-3.58s3.22,2.49,5.16,4.37c-.18.67-.73.97-1.58.97h-7.29l6.38,2.13c-.24.67-.97,1.09-2.25,1.03-1.46,2.49-3.83,5.65-6.14,8.38h4.68l2.79-3.77s3.34,2.61,5.35,4.56c-.18.67-.79.97-1.64.97h-12.15v7.29h4.86l2.73-3.58s3.1,2.55,5.04,4.37c-.18.67-.79.97-1.64.97h-10.99.02ZM458.91,90.32c10.87,5.83,6.38,13.79,2.61,10.14-.12-3.1-1.88-7.17-3.34-9.78l.73-.36ZM463.16,79.51c12.03,3.1,7.59,11.54,3.34,8.08-.43-2.55-2.37-5.77-3.95-7.71l.61-.36h0ZM471.66,115.53c11.85,6.07,7.41,14.94,3.4,11.24-.06-3.64-2.13-8.08-4.13-10.93l.73-.3h0ZM503.98,96.88s3.58,2.85,5.77,4.92c-.12.67-.79.97-1.64.97h-6.44v31.53c-.06.36-1.58,1.52-4.01,1.52h-.79v-33.05h-8.14v2c0,10.51-.97,22.84-12.15,30.92l-.85-.73c7.35-8.44,8.26-19.32,8.26-30.25v-20.05l5.41,1.82c4.98-1.94,10.21-4.68,13.18-6.62l5.53,4.5c-.55.55-1.58.61-3.22.12-4.01,1.34-10.27,2.85-16.16,3.71v12.82h12.09l3.16-4.13h0Z"/>
      <path class="st27" d="M535.09,90.69s2.98,2.61,4.74,4.43c-.12.67-.73.97-1.58.97h-6.68v5.29c10.75,5.22,7.29,12.51,3.71,9.6-.43-2.55-2.13-5.77-3.71-8.2v31.28c0,.61-1.94,1.76-3.52,1.76h-.91v-26.79c-1.94,4.56-4.37,8.81-7.47,12.57l-.91-.79c3.95-6.93,6.2-15.85,7.47-24.72h-6.32l-.49-1.76h7.71v-14.76l6.56.73c-.18.91-.61,1.46-2.13,1.7v12.33h.91l2.61-3.64h.01ZM573.23,129.5c1.88.49,2.43,1.03,2.49,1.94,0,2.13-2.86,2.73-16.89,2.67h-9.9c-6.62,0-8.75-1.15-8.75-5.65v-41.43h-2.92l-.49-1.76h30.25l3.04-3.83s3.34,2.67,5.41,4.62c-.12.67-.73.97-1.58.97h-29.46v40.58c0,1.94.73,2.67,4.8,2.67h9.96c4.25,0,7.84-.06,9.17-.18.79-.06,1.46-.12,1.94-.18.61-.06,1.34-.24,1.88-.49h.73l.3.06h.02ZM555.07,126.22v-2.73h-4.92v2.43c0,.3-1.46,1.09-2.92,1.09h-.49v-19.13l3.71,1.76h4.13l1.88-1.94,4.01,3.1c-.3.36-1.09.79-2,.97v13.3c0,.36-1.76,1.15-2.92,1.15h-.49,0ZM555.07,121.73v-10.33h-4.92v10.33h4.92ZM565.22,103.44h-10.63v1.76c0,.3-1.88,1.21-3.52,1.21h-.61v-17.07l4.37,1.88h9.84l2.19-2.25,4.8,3.58c-.36.43-1.28.91-2.37,1.09v10.81c-.06.43-2.07,1.34-3.46,1.34h-.61v-2.37.02ZM565.22,101.68v-8.63h-10.63v8.63h10.63ZM569.22,126.28v-2.79h-4.86v2.25c0,.3-1.52,1.09-2.98,1.09h-.55v-18.95l3.77,1.76h4.13l1.88-2.07,4.25,3.28c-.3.36-1.15.79-2.13.97v13.3c-.06.36-1.82,1.15-2.98,1.15h-.55.02ZM569.22,121.73v-10.33h-4.86v10.33h4.86Z"/>
      <path class="st27" d="M591.16,119.36c1.88,6.26.97,10.87-.67,13.06-1.09,1.46-3.52,1.76-4.5.36-.73-1.34-.12-2.86,1.09-3.89,1.64-1.64,3.34-5.89,2.98-9.54h1.1ZM586.12,111.7s1.34-.24,1.88-.61c3.34-2.49,7.29-7.11,10.57-11.54-2.43.73-5.53,1.64-8.75,2.43-.43.67-.91,1.15-1.46,1.34l-2.43-5.89s1.21-.24,1.7-.55c3.64-3.52,8.44-12.27,10.14-16.95l6.38,3.28c-.3.55-.97,1.03-2.13.85-2.79,4.13-7.53,9.72-11.97,13.49,2.79.06,6.32.06,9.96,0,1.7-2.49,3.1-4.8,4.01-6.68l5.89,3.95c-.3.55-1.15.97-2.37.61-3.58,4.86-10.45,11.66-16.71,16.28,3.52-.18,8.32-.55,13.3-.97-.73-2.31-1.82-4.62-2.79-6.26l.73-.36c10.81,6.5,6.68,14.64,3.04,11.18-.06-.91-.24-2-.55-3.16-3.64,1.15-8.99,2.86-14.7,4.31-.43.67-.97,1.09-1.52,1.28l-2.25-6.01.03-.02ZM596.81,118.2c8.08,8.08,2.92,15.73-.24,11.66.61-3.64.12-8.32-.61-11.42,0,0,.85-.24.85-.24ZM603.06,116.93c10.39,5.89,6.07,14.15,2.49,10.51,0-3.28-1.64-7.47-3.22-10.14l.73-.36h0ZM637.57,127.38s2.73,2.55,4.31,4.43c-.12.67-.73.97-1.52.97h-34.38l-.49-1.82h9.48c.73-6.26,1.46-14.7,2.13-23.14h-8.32l-.49-1.82h8.93c.49-6.8.91-13.36,1.21-18.59h-8.2l-.55-1.76h20.65l2.37-3.04,5.04,4.5c-.49.43-1.03.73-2.31.91l-.42,17.98h.12l2.49-3.58s2.79,2.55,4.5,4.43c-.18.67-.73.97-1.58.97h-5.59l-.55,23.14h.67l2.49-3.58h.01ZM621.65,107.82c-.67,8.44-1.46,16.89-2.19,23.14h10.33l.61-23.14s-8.75,0-8.75,0ZM622.99,87.41c-.3,5.28-.73,11.85-1.21,18.59h8.69l.43-18.59h-7.91Z"/>
    </g>
    <g>
      <path class="st27" d="M10.18,194.96c-1.29.45-2.58.91-3.88,1.36v10.69c0,1.03-.32,1.49-1,1.74-.65.26-1.81.29-3.78.26-.1-.35-.32-1-.55-1.42,1.52.03,2.84.03,3.26,0,.42,0,.55-.13.55-.55v-10.21c-1.55.55-3,1.07-4.26,1.49l-.52-1.52c1.29-.39,2.97-.94,4.78-1.55v-7.2H.39v-1.49h4.39v-6.72h1.52v6.72h3.81v1.49h-3.81v6.65l3.62-1.23.26,1.49ZM20.42,207.23c1,.16,2.1.23,3.26.23.61,0,5.36,0,6.33-.03-.26.39-.48,1.07-.58,1.45h-5.81c-5.3,0-8.66-1.13-10.76-5.56-.94,2.42-2.2,4.42-3.84,5.98-.23-.26-.84-.74-1.16-.97,2.65-2.33,4.17-5.91,4.85-10.37l1.49.19c-.19,1.13-.42,2.2-.68,3.2,1.1,3.2,2.94,4.78,5.43,5.52v-9.5h-6.91v-1.32h6.91v-3.39h-8.72v-1.36h8.72v-3h-6.91v-1.32h6.91v-2.68h-8.33v-1.39h8.33v-3.07h1.49v3.07h8.72v1.39h-8.72v2.68h7.07v4.33h2.42v1.36h-2.42v4.72h-7.07v3.29h7.56v1.36h-7.56v5.2h-.02ZM20.42,191.31h5.59v-3h-5.59v3ZM20.42,196.05h5.59v-3.39h-5.59v3.39Z"/>
      <path class="st27" d="M43.26,195.54c-.52,2.94-1.32,6.11-2.46,8.37.65.36,1.42,1.03,2.78,1.84,2.29,1.39,5.17,1.65,9.04,1.65,4.43,0,9.4-.29,13.02-.58-.23.42-.45,1.16-.48,1.65-2.29.13-8.69.32-12.57.32-4.23,0-7.11-.36-9.53-1.81-1.29-.78-2.52-1.91-3.29-1.91-.68,0-1.78,1.91-2.78,4.07l-1.13-1.26c1.29-2.07,2.42-3.81,3.52-4.17,1.03-1.91,1.78-4.75,2.26-7.17h-4.36c1.03-1.94,2.26-4.81,3.26-7.37h-4.26v-1.45h6.4c-.97,2.39-2.2,5.23-3.23,7.43h2.65l.23-.06.94.45h0ZM39.54,185.56c-.36-1.36-1.03-3.52-1.55-5.14l1.36-.36c.55,1.62,1.26,3.71,1.65,5.07l-1.45.42h-.01ZM45.97,186.46h-1.45v-5.46h19.77v5.46h-1.49v-4.13h-16.83v4.13ZM53.66,205.26v-2.97h-9.11v-1.32h9.11v-2.42h-7.3v-9.01h7.3v-2.42h-6.72v-1.29h6.72v-1.94h1.52v1.94h6.69v1.29h-6.69v2.42h7.36v9.01h-7.36v2.42h9.43v1.32h-9.43v2.97h-1.52ZM47.78,193.41h5.88v-2.65h-5.88v2.65ZM53.66,197.31v-2.71h-5.88v2.71h5.88ZM55.18,190.76v2.65h5.91v-2.65h-5.91ZM61.09,194.6h-5.91v2.71h5.91v-2.71Z"/>
      <path class="st27" d="M100.15,204.84v1.55h-27.78v-1.55h27.78ZM98.5,182.91v1.55h-24.23v-1.55h24.23ZM95.91,193.5v1.55h-19.7v-1.55h19.7Z"/>
      <path class="st27" d="M107.84,208.01c1.65-.94,3.07-2.65,3.94-3.97l1.23.55c-.97,1.42-2.26,3.07-3.88,4.17l-1.29-.74h0ZM114.69,200.58v1.71h19.8s-.03.45-.1.68c-.36,3.23-.71,4.55-1.32,5.1-.39.36-.84.48-1.52.52-.58,0-1.71,0-2.88-.1-.03-.32-.16-.81-.39-1.2,1.23.13,2.36.13,2.78.13.39,0,.68-.03.87-.19.36-.39.65-1.39.94-3.78h-19.67v-12.6h6.62c.39-.68.77-1.39,1.07-2.04h-10.63v4h-1.49v-5.17h26.49v5.17h-1.52v-4h-11.18c-.39.74-.84,1.42-1.26,2.04h9.69v6.91h-16.31v1.65h21.64v1.16h-21.64.01ZM119.47,186.82c-1-.87-2.78-1.97-4.43-2.71-.97,1.58-2.55,2.58-5.2,3.26-.16-.29-.55-.78-.77-1,4.23-1.03,5.46-2.91,5.78-6.69h1.39c-.13,1.29-.32,2.42-.71,3.36,1.74.78,3.75,1.91,4.81,2.78l-.87,1h0ZM111.52,183.78c-.52-.84-1.55-2.07-2.42-2.94l.94-.68c.94.9,2,2.07,2.52,2.81l-1.03.81h-.01ZM114.69,192.02v1.71h14.79v-1.71s-14.79,0-14.79,0ZM129.48,196.64v-1.84h-14.79v1.84h14.79ZM117.27,204.45c.55,1.13.97,2.68,1.03,3.68l-1.39.32c-.03-1.03-.42-2.58-.94-3.78l1.29-.23h.01ZM121.18,180.68c-.87.97-1.74,1.91-2.55,2.62l-.9-.58c.71-.74,1.74-1.91,2.26-2.71l1.2.68h0ZM122.34,204.23c.78,1,1.52,2.36,1.81,3.26l-1.29.45c-.29-.9-1-2.29-1.71-3.33l1.2-.39h0ZM133.39,187.24c-1.1-.97-3.13-2.2-5.07-3.07-.97,1.45-2.58,2.36-5.23,3-.13-.32-.48-.84-.77-1.07,4.36-.94,5.56-2.62,5.85-6.43h1.42c-.13,1.39-.32,2.55-.71,3.49,1.97.87,4.23,2.1,5.46,3.1l-.94.97h0ZM124.73,183.33c-.45-.78-1.42-1.94-2.2-2.78l.97-.58c.84.78,1.78,1.91,2.29,2.58l-1.07.78h0ZM128.29,207.17c-.42-.81-1.29-1.87-2.16-2.62l1.07-.55c.94.71,1.81,1.75,2.26,2.46l-1.16.71h0ZM135.04,180.65c-.94,1.07-1.97,2.1-2.84,2.84l-.9-.58c.81-.81,1.97-2.13,2.58-2.94l1.16.68h0Z"/>
      <path class="st27" d="M145.9,200.38c-.42,2.78-1.1,5.85-1.78,7.88-.26-.13-.97-.39-1.32-.52.81-2.07,1.36-4.94,1.71-7.62l1.39.26ZM152.29,199.12c-.1-.61-.23-1.33-.42-2.13-6.82,1.07-7.69,1.23-8.24,1.52-.1-.36-.35-1.13-.55-1.58.61-.1,1.32-.94,2.29-2.13.52-.61,1.74-2.23,3.07-4.26-3.94.48-4.59.65-5.04.84-.06-.36-.32-1.13-.52-1.55.52-.1,1.1-.81,1.71-1.81.74-.94,3.04-4.75,4.43-8.3l1.52.65c-1.55,3.3-3.39,6.65-5.27,9.17l4.07-.42c.87-1.39,1.71-2.88,2.46-4.33l1.42.78c-2.23,3.97-4.81,7.91-7.46,10.98l5.78-.81c-.36-1.23-.74-2.49-1.13-3.62l1.29-.26c.84,2.26,1.68,5.17,1.94,6.88l-1.36.39h.01ZM148.77,200.09c.39,2.2.78,5.04.87,6.95l-1.36.23c-.06-1.87-.42-4.78-.81-6.98l1.29-.19h.01ZM151.55,199.38c.71,1.81,1.45,4.1,1.78,5.65l-1.26.39c-.29-1.55-1.03-3.94-1.71-5.75l1.2-.29h0ZM161.79,197.67c-1.26,4.81-4.33,8.14-7.56,9.82-.23-.32-.65-.81-.97-1.1,2.75-1.32,5.46-4.04,6.75-7.66h-5.04v-1.39h5.62l.26-.06.94.39h0ZM171.41,196.7c-1.39,1.42-3.2,3.04-4.68,4.17,1.49,2.36,3.42,4.33,5.62,5.43-.32.29-.81.81-1.03,1.2-2.94-1.65-5.36-4.81-7.01-8.53v8.11c0,.97-.23,1.42-.94,1.68-.74.29-2,.29-4.1.29-.1-.45-.32-1.03-.55-1.45,1.71.03,3.13.03,3.55,0,.45-.03.55-.13.55-.52v-12.79h-6.65v-11.11h5.2c.42-1.07.87-2.46,1.13-3.46l1.68.45c-.45,1-.87,2.1-1.29,3h7.53v11.11h-6.11v1.23c.48,1.52,1.07,2.97,1.84,4.33,1.39-1.16,3.07-2.81,4.07-4l1.2.87h-.01ZM157.65,188.04h11.24v-3.55h-11.24v3.55ZM157.65,192.92h11.24v-3.59h-11.24v3.59Z"/>
      <path class="st27" d="M212.9,204.84l-9.14-9.14-9.14,9.14-1.13-1.1,9.17-9.17-9.17-9.11,1.16-1.13,9.11,9.14,9.14-9.14,1.13,1.1-9.14,9.14,9.14,9.17-1.13,1.1Z"/>
      <path class="st27" d="M254.64,183.81c3.26,2.75,7.01,6.69,8.66,9.37l-1.32.97c-.55-.87-1.29-1.94-2.2-3-19.35,1.13-20.96,1.23-22.03,1.62-.06-.36-.29-1.13-.48-1.55.61-.13,1.52-.9,2.62-1.97,1.16-1.07,5.1-5.3,7.82-9.37l1.52.71c-2.88,3.84-6.01,7.46-9.08,10.24l18.54-.97c-1.62-1.84-3.49-3.71-5.27-5.23l1.23-.81h0ZM239.91,195.8h19.96v13.12h-1.58v-1.74h-16.83v1.84h-1.55v-13.21h0ZM241.46,197.31v8.33h16.83v-8.33h-16.83Z"/>
      <path class="st27" d="M281.19,187.4c-1.2-1.36-3-3.17-4.72-4.65-1.45,2.58-3.36,4.94-5.17,6.62-.1-.32-.52-1.13-.74-1.52,2.29-1.97,4.65-5.01,6.01-8.27l1.23.55c-.19.45-.42.94-.68,1.42,1.81,1.45,3.65,3.2,4.81,4.55l-.74,1.29h0ZM281.19,205.2c-3.52.97-7.27,1.94-9.88,2.65l-.39-1.45c1.32-.29,3-.71,4.91-1.2v-10.14h-4.62v-1.39h4.62v-4.26h-3.07v-1.39h7.4v1.39h-3.04v4.26h3.91v1.39h-3.91v9.82c1.29-.32,2.65-.68,3.97-1l.1,1.32h0ZM273.05,197.09c.58,1.94,1.1,4.49,1.26,6.17l-1.2.35c-.13-1.68-.61-4.26-1.16-6.23l1.1-.29h0ZM278.06,202.87c.52-1.65,1.2-4.36,1.52-6.2l1.23.52c-.58,2.04-1.19,4.55-1.74,6.17l-1-.48h-.01ZM299.28,192.47c-.87,3.88-2.1,7.3-3.68,10.24.71,3.17,1.55,4.65,2.52,4.65.58,0,.94-.97,1.1-4.68.36.32.84.61,1.2.74-.26,4.55-.87,5.39-2.42,5.43-1.45,0-2.55-1.49-3.36-4.46-1.16,1.81-2.55,3.42-4.07,4.78-.23-.29-.77-.81-1.13-1.07,1.87-1.52,3.42-3.46,4.72-5.72-.61-3.23-1.03-7.72-1.32-13.47h-11.92v-1.36h5.27v-3.33h-4.01v-1.36h4.01v-3.13h1.45v3.13h3.88v1.36h-3.88v3.33h5.2c-.1-2.42-.19-5.01-.23-7.82h1.49c0,2.84.03,5.43.13,7.82h5.94v1.36h-5.94c.19,4.81.55,8.62.97,11.53,1.16-2.49,2.04-5.2,2.68-8.21l1.42.23h-.02ZM291.89,205.42c-3.81.71-7.69,1.39-10.56,1.91l-.23-1.32c1.39-.23,3.17-.52,5.07-.84v-2.42h-4.13v-1.26h4.13v-2.29c-1.45.16-3,.26-4.39.32-.06-.32-.23-.74-.42-1.07,3.29-.19,7.24-.58,9.3-1.13l1.16.97c-1.16.32-2.65.58-4.26.74v2.46h3.81v1.26h-3.81v2.23l4.26-.74.06,1.2v-.02ZM291.43,196.51h-9.17v-5.81h9.17v5.81ZM290.11,191.89h-6.52v3.39h6.52v-3.39ZM298.83,186.17c-.52-1.45-1.87-3.68-3.2-5.3l1.16-.55c1.36,1.58,2.75,3.71,3.29,5.14l-1.26.71h.01Z"/>
      <path class="st27" d="M332.04,181.81c.03,11.4.06,25.62,2.16,25.62.42,0,.61-2.23.65-5.17.32.32.81.71,1.13.87-.16,4.33-.52,5.85-1.94,5.85-3.42,0-3.33-11.5-3.49-25.78h-18.9v6.01c0,5.65-.52,13.95-4.07,19.8-.26-.26-.9-.74-1.29-.9,3.49-5.65,3.84-13.44,3.84-18.9v-7.4h.78v-.03h20.41v.03h.72ZM310.43,207.13c1.55-.97,2.58-2.75,3.13-4.43l1.1.39c-.58,1.81-1.52,3.68-3.2,4.78l-1.03-.74ZM315.86,197.35h13.76v1.16h-13.76v1.74h12.02v-.03h1.42s-.03.48-.06.71c-.36,4.68-.71,6.36-1.36,7.04-.42.42-.9.58-1.65.61-.61,0-1.84,0-3.04-.1-.03-.36-.19-.9-.42-1.26,1.32.13,2.58.13,3.04.13s.74-.03.9-.23c.45-.45.78-1.94,1.1-5.72h-13.41v-13.05h4.94c.26-.65.55-1.39.74-2.04h-7.17v-1.23h16.41v1.23h-7.72l-.87,2.04h6.43v7.33h-11.31v1.67ZM315.86,189.56v1.84h9.85v-1.84h-9.85ZM325.71,194.54v-1.97h-9.85v1.97h9.85ZM317.25,202.9c.42,1.36.65,3.2.61,4.33l-1.16.19c.03-1.16-.16-2.94-.55-4.36l1.1-.16ZM320.09,202.68c.74,1.16,1.45,2.71,1.71,3.71l-1.13.42c-.23-1.07-.87-2.62-1.62-3.78l1.03-.36h.01ZM324.58,205.75c-.42-.87-1.36-2.1-2.29-2.97l.94-.52c.94.84,1.91,2,2.36,2.88l-1,.61h0Z"/>
      <path class="st27" d="M344.64,199.83v3.17h-1.45v-19.8h8.3v16.64h-6.85,0ZM344.64,184.68v13.66h5.39v-13.66h-5.39ZM350.04,207.52c1.68-1.36,2.58-3.78,2.94-6.17l1.29.32c-.45,2.52-1.23,5.1-3.04,6.59l-1.2-.74h.01ZM355.79,195.47v2.42h14.96s-.03.55-.07.81c-.42,6.49-.77,8.88-1.61,9.72-.45.45-.97.65-1.87.68-.74.03-2.26,0-3.78-.1-.03-.39-.23-.97-.48-1.39,1.68.16,3.26.16,3.84.16.52.03.84-.03,1.1-.29.61-.58.97-2.71,1.32-8.21h-14.89v-16.73h1.49v.03h3.71c.42-.91.87-2,1.13-2.78l1.52.48c-.36.81-.74,1.58-1.1,2.29h7.49v9.3h-12.76v2.23h15.57v1.36h-15.57v.02ZM355.79,183.88v2.71h11.24v-2.71h-11.24ZM367.03,190.6v-2.78h-11.24v2.78h11.24ZM357.44,201.38c.65,1.71,1.1,3.97,1.13,5.39l-1.32.32c0-1.49-.45-3.68-1.07-5.43l1.26-.29h0ZM360.93,200.96c.94,1.39,1.81,3.2,2.16,4.43l-1.23.48c-.32-1.23-1.2-3.1-2.07-4.49l1.13-.42h.01ZM364.48,200.32c1.13,1.16,2.33,2.71,2.84,3.78l-1.13.68c-.55-1.1-1.68-2.71-2.75-3.91l1.03-.55h.01Z"/>
      <path class="st27" d="M388.97,189.04c-.65,3.94-1.58,9.34-2.42,12.89,1.29-.32,2.62-.65,3.97-1l.16,1.42c-4.36,1.16-8.98,2.39-12.28,3.26l-.42-1.55c1.91-.45,4.43-1.07,7.17-1.78.84-3.49,1.81-9.5,2.26-13.57l1.55.32h.01ZM378.4,186.07h12.28v1.45h-12.28v-1.45ZM381.12,189.21c.84,3.81,1.58,8.69,1.78,12.05l-1.36.19c-.19-3.29-.9-8.21-1.74-12.02l1.32-.23h0ZM384.57,185.36c-.42-1.36-1.39-3.42-2.33-4.94l1.36-.48c.97,1.52,1.94,3.55,2.39,4.88l-1.42.55h0ZM398.5,188.37v6.91h7.07v13.57h-1.55v-1.39h-10.95v1.52h-1.52v-13.7h5.36v-15.54h1.58v7.14h8.59v1.49h-8.59.01ZM404.02,196.77h-10.95v9.21h10.95v-9.21Z"/>
      <path class="st27" d="M447.7,204.84l-9.14-9.14-9.14,9.14-1.13-1.1,9.17-9.17-9.17-9.11,1.16-1.13,9.11,9.14,9.14-9.14,1.13,1.1-9.14,9.14,9.14,9.17-1.13,1.1h0Z"/>
      <path class="st27" d="M486.14,190.89c2.33,7.62,6.78,13.89,13.12,16.64-.42.36-.87,1-1.16,1.45-6.49-3.1-10.95-9.53-13.44-17.64-1.36,6.72-4.78,13.83-13.37,17.67-.26-.42-.74-.97-1.16-1.26,8.4-3.58,11.69-10.43,13.05-16.86h-12.47v-1.55h12.73c.58-3.68.58-7.11.61-9.56h1.62c-.03,2.52-.06,5.91-.61,9.56h13.76v1.55h-12.68Z"/>
      <path class="st27" d="M510.76,193.34c-1.13-1.03-3.33-2.42-5.14-3.3l.74-1.16c1.78.78,4.01,2.07,5.14,3.13l-.74,1.33ZM506.47,207.26c1.52-2.49,3.71-6.78,5.3-10.37l1,1.03c-1.49,3.36-3.49,7.49-5.14,10.4l-1.16-1.07h0ZM508.08,180.16c1.84.84,4.13,2.26,5.23,3.33l-.74,1.29c-1.16-1.1-3.39-2.55-5.27-3.49l.78-1.13h0ZM524.81,184.78c-.16,1.45-.36,2.88-.52,4.07h9.34v18.15c0,.94-.23,1.42-.9,1.68-.68.26-1.84.29-3.71.29-.1-.42-.36-1.03-.58-1.45,1.55.03,2.78.03,3.2,0,.39-.03.52-.13.52-.52v-16.73h-15.6v18.67h-1.45v-20.09h7.82c.16-1.13.32-2.58.45-4.07h-9.08v-1.42h9.21c.13-1.32.19-2.62.26-3.71l1.55.23c-.1,1.1-.23,2.29-.36,3.49h9.5v1.42h-9.65ZM524.94,201.8v5.39h-1.45v-5.39h-5.56v-1.29h5.56v-3.46h-5.14v-1.29h6.85c.87-1.45,1.91-3.52,2.46-4.94l1.36.42c-.74,1.49-1.58,3.2-2.42,4.52h3.52v1.29h-5.17v3.46h5.62v1.29h-5.63ZM520.81,190.95c.65,1.23,1.45,2.75,1.81,3.78l-1.26.48c-.39-1-1.13-2.65-1.78-3.84l1.23-.42h0Z"/>
      <path class="st27" d="M562.77,193.24c-1.29,3.46-3.17,6.23-5.52,8.5,3.46,2.78,7.95,4.68,13.41,5.59-.36.36-.78.97-1,1.45-5.49-1.07-10.01-3.07-13.57-6.01-3.62,2.97-8.21,4.94-13.73,6.33-.16-.36-.61-1.07-.97-1.45,5.52-1.2,10.08-3.04,13.57-5.91-2.39-2.29-4.23-5.04-5.56-8.3l1.42-.48c1.2,3.04,2.97,5.62,5.27,7.78,2.23-2.13,3.97-4.72,5.14-7.95l1.55.45h-.01ZM569.69,185.94h-27.52v-1.52h27.52v1.52ZM551.99,187.98c-2.16,2.75-5.52,5.59-8.3,7.46-.29-.29-.87-.91-1.23-1.2,2.84-1.71,6.07-4.33,8.08-6.85l1.45.58h0ZM555.99,184.17c-.42-1.1-1.42-2.84-2.36-4.17l1.45-.52c.9,1.26,1.94,3,2.39,4.1l-1.49.58h0ZM561.39,187.46c3.04,2,6.65,4.97,8.4,7.07l-1.29,1c-1.68-2.1-5.23-5.14-8.33-7.24l1.23-.84h-.01Z"/>
      <path class="st27" d="M582.74,193.73c-1.26-1.16-3.68-2.71-5.78-3.65l.87-1.13c2.03.9,4.55,2.36,5.78,3.46l-.87,1.32h0ZM585.16,198.02c-1.71,3.39-4.07,7.62-5.98,10.53l-1.29-1.03c1.74-2.52,4.3-6.91,6.14-10.5l1.13,1h0ZM583.74,185.59c-1.03-1.29-3.33-3.13-5.27-4.33l.97-1.07c1.97,1.16,4.2,2.97,5.27,4.23l-.97,1.16h0ZM588.52,194.79h1.45v3.55c0,3.49-.52,7.49-4.52,10.53-.26-.32-.77-.84-1.13-1.03,3.78-2.81,4.2-6.46,4.2-9.53v-3.52ZM604.39,194.57c-.45-.68-1.13-1.58-1.87-2.52-13.76.91-15.05,1-15.89,1.33-.1-.36-.36-1.13-.52-1.58.58-.1,1.36-.9,2.29-2.07.58-.58,1.81-2.13,3.2-4.1h-6.2v-1.45h7.2c.94-1.32,1.81-2.78,2.55-4.2l1.58.65c-.74,1.2-1.52,2.39-2.26,3.55h11.21v1.45h-12.21c-1.55,2.16-3.13,4.17-4.72,5.85l12.66-.74c-.9-1.2-1.94-2.39-2.81-3.39l1.23-.68c2,2.26,4.55,5.3,5.88,7.07l-1.32.84h0ZM594.37,194.96h1.42v12.7h-1.42v-12.7ZM604.64,207.07c.39,0,1-.03,1.32-.1.03.35.1.9.13,1.23-.29.1-.84.1-1.42.1h-2.39c-1.62,0-1.94-.58-1.94-2.36v-11.14h1.49v11.21c0,.87.06,1.07.55,1.07h2.26Z"/>
      <path class="st27" d="M619.89,195.44c-.65,2.78-1.65,6.04-2.81,8.37.74.32,1.49,1.07,2.97,1.94,2.33,1.39,5.2,1.65,9.08,1.65,4.43,0,9.4-.29,12.99-.58-.19.42-.42,1.16-.45,1.65-2.29.13-8.69.32-12.57.32-4.26,0-7.14-.36-9.53-1.81-1.29-.78-2.55-1.91-3.3-1.91s-1.78,1.91-2.78,4.07l-1.16-1.26c1.2-1.87,2.23-3.46,3.23-4.01,1.07-1.97,1.97-4.88,2.55-7.33h-4.36c.97-1.94,2.13-4.81,3.04-7.37h-4.01v-1.45h6.07c-.87,2.36-2.04,5.23-2.97,7.43h2.84l.29-.06.87.36h.01ZM616.05,185.56c-.36-1.36-1.03-3.55-1.55-5.17l1.36-.36c.55,1.65,1.26,3.71,1.65,5.07l-1.45.45h-.01ZM629.2,188.75c.35-.97.68-2.13.94-3.13h-9.01v-1.36h12.21c.97-1.26,2.1-3.2,2.71-4.49l1.55.48c-.84,1.36-1.78,2.84-2.65,4.01h6.56v1.36h-9.66c-.39,1.07-.77,2.2-1.16,3.13h7.95v14.89h-14.73v-14.89h5.3-.01ZM627.13,184.23c-.39-1.1-1.36-2.68-2.39-3.84l1.23-.55c1.03,1.1,2.07,2.68,2.42,3.71l-1.26.68h0ZM637.11,190.05h-11.73v3.23h11.73v-3.23ZM637.11,194.54h-11.73v3.26h11.73v-3.26ZM637.11,199.06h-11.73v3.29h11.73v-3.29Z"/>
    </g>
  </g>
  <g>
    <path class="st0" d="M246.65,34.18l-4.49,6.67c-1.54-1.1-5.72-3.52-12.55-7.27l4.29-5.94c7.18,3.57,11.07,5.53,11.69,5.88.4.26.75.48,1.06.66ZM237.33,70.71l-6.8-5.48c4.8-6.87,9.09-13.98,12.88-21.33l5.88,5.42c-3.83,7.66-7.82,14.8-11.96,21.4ZM249.88,15.89l-4.82,6.54c-1.37-1.01-5.46-3.5-12.29-7.46l4.56-5.81c6.78,3.48,10.96,5.72,12.55,6.74ZM292.22,35.57h-17.17v8.52h13.8v27.01h-7.66v-2.44h-20.34v2.77h-7.27v-27.34h13.8v-8.52h-17.97v-7.66h17.97v-7.93c-3.74.53-8.12,1.04-13.14,1.52-.26-1.89-1.01-4.18-2.25-6.87,13.56-1.32,23.98-3.39,31.24-6.21.13-.04.24-.09.33-.13l6.21,6.34c-4.1,1.58-9.01,2.91-14.73,3.96v9.31h17.17v7.66ZM281.19,61.39v-9.97h-20.34v9.97h20.34Z"/>
    <path class="st30" d="M345.27,23.48h13.74s-.02,1.23-.06,3.57c-.44,19.9-1.06,32.03-1.85,36.39-.4,1.98-.88,3.39-1.45,4.23-1.19,1.67-2.78,2.75-4.76,3.24-.22.04-.42.09-.59.13-1.37.26-4.14.35-8.32.26h-.07c-.18-2.73-.97-5.31-2.38-7.73,2.47.22,4.73.33,6.8.33,1.01-.04,1.78-.42,2.31-1.12,1.14-1.45,1.92-8.83,2.31-22.13.04-2.86.11-6.12.2-9.78h-6.08c-.62,13.03-2.71,22.99-6.28,29.85-2.29,4.45-5.33,8.17-9.11,11.16-1.15-1.85-2.71-3.63-4.69-5.35-14.88,1.5-23.82,2.38-26.82,2.64l-.92-6.74c5.37-.4,9.95-.7,13.74-.92v-4.1h-11.96v-5.68h11.96v-2.64h-11.62v-20.87h11.62v-2.64h-13.34v-5.81h13.34v-2.71c-4.32.31-8.12.48-11.43.53-.31-1.85-.9-3.74-1.78-5.68,12.42-.66,22.13-1.76,29.13-3.3l3.57,6.01c-3.88.79-7.95,1.41-12.22,1.85v3.3h13.01v3.7h6.34c.04-3.04.06-7.75.06-14.13h7.73c0,6.43-.04,11.14-.13,14.13ZM305.7,33.32v2.97h5.28v-2.97h-5.28ZM305.7,44.09h5.28v-3.04h-5.28v3.04ZM318.25,57.43v3.43c3.08-.22,7-.53,11.76-.92,3.92-5.46,6.3-13.39,7.13-23.78.09-1.67.18-3.43.26-5.28h-6.14v-5.28h-13.01v2.64h12.02v20.87h-12.02v2.64h12.29v5.68h-12.29ZM318.25,36.3h5.28v-2.97h-5.28v2.97ZM323.54,41.05h-5.28v3.04h5.28v-3.04Z"/>
    <path class="st33" d="M394.02,26.78h-15.65v-2.58c-1.89,1.72-3.9,3.37-6.01,4.95h27.08v21.07h-21.86c-.22,1.41-.37,2.31-.46,2.71h23.32v18.16h-6.94v-1.92h-11.43v2.11h-6.8v-11.16c-1.37,4.05-3.08,7.35-5.15,9.91-1.06-1.41-2.51-2.82-4.36-4.23-.35-.26-.66-.46-.92-.59,4.45-5.86,6.67-14.6,6.67-26.22v-9.25c-.26.18-.64.44-1.12.79-.53.35-.9.59-1.12.73-.97-1.85-2.36-3.59-4.16-5.22-.22-.18-.42-.33-.59-.46,6.96-4.05,12.35-9.11,16.18-15.19.31-.48.57-.92.79-1.32h7.13c6.56,5.02,11.27,9.07,14.13,12.15l-5.15,5.94c-1.19-1.32-2.38-2.62-3.57-3.9v3.5ZM378.1,44.62h14.07v-2.58h-13.94c0,.62-.04,1.48-.13,2.58ZM392.17,34.78h-13.87v2.44h13.87v-2.44ZM381.4,21.37h10.7c-2.47-2.38-4.47-4.18-6.01-5.42-1.94,2.38-3.5,4.18-4.69,5.42ZM393.49,58.69h-11.43v4.76h11.43v-4.76ZM411,16.48v38.04h-7.6V16.48h7.6ZM418.19,9.61h7.79v52.25c0,3.57-.75,5.92-2.25,7.07-.4.31-.84.57-1.32.79-2.2,1.1-6.39,1.65-12.55,1.65-.4-2.64-1.28-5.37-2.64-8.19,2.68.09,5.77.13,9.25.13,1.1-.09,1.67-.59,1.72-1.52V9.61Z"/>
    <path class="st34" d="M439.27,70.11l-6.27-4.29c4.01-2.55,6.91-6.23,8.72-11.03.04-.18.09-.31.13-.4l6.74,2.38c-2.29,6.25-5.39,10.7-9.31,13.34ZM494.09,22.69v6.21h-58.45v-6.21h14.46c-.22-.79-.79-2.31-1.72-4.56l.33-.07h-9.78v-6.21h21.8v-3.57h7.93v3.57h21.86v6.21h-9.51l.99.2c-.4.75-1.34,2.22-2.84,4.43h14.93ZM461.8,64.3h9.31c1.36,0,2.22-.4,2.58-1.19.31-.75.53-2.2.66-4.36,1.72,1.15,4.01,1.98,6.87,2.51-.48,4.27-1.63,7-3.43,8.19-1.32.84-3.28,1.25-5.88,1.25h-10.9c-4.76,0-7.82-.82-9.18-2.44-.97-1.23-1.45-3.21-1.45-5.94v-7.13h7.27l-.79-.33,2.77-2.71h-16.91v-20.48h44.85v20.48h-21.99c2.51,1.19,4.87,2.58,7.07,4.16l-4.89,4.95c-2.16-1.94-5.33-3.87-9.51-5.81v6.8c0,1.06.33,1.67.99,1.85.48.13,1.34.2,2.58.2ZM450.37,36.63v2.91h29.19v-2.91h-29.19ZM450.37,44.16v3.04h29.19v-3.04h-29.19ZM473.22,18.07h-16.78c.79,1.89,1.34,3.37,1.65,4.43l-.92.2h15.06l-.99-.2c1.06-2.29,1.72-3.77,1.98-4.43ZM479.23,57.04l6.21-3.43c4.98,4.18,8.52,8.01,10.63,11.49.13.26.26.51.4.73l-6.6,3.83c-1.76-3.26-4.8-7-9.12-11.23-.53-.48-1.04-.95-1.52-1.39Z"/>
    <path class="st35" d="M557.31,15.36l5.81,4.16c-2.11,1.85-4.69,3.88-7.73,6.08,2.69,1.41,5.81,2.58,9.38,3.5-1.58,1.5-3.17,3.61-4.75,6.34-2.42-.79-4.98-1.85-7.66-3.17v6.21c0,.97.04,1.52.13,1.65.22.18.46.26.73.26h1.19c.48,0,.77-.02.86-.07.31-.22.53-.48.66-.79.09-.44.18-1.47.26-3.1,1.23,1.19,3.06,2.16,5.48,2.91.04.04.09.07.13.07-.35,2.29-.68,3.72-.99,4.29-.57.92-1.41,1.56-2.51,1.92-.84.31-1.92.46-3.24.46h-3.43c-2.03-.04-3.52-.53-4.49-1.45-.92-.92-1.43-2.64-1.52-5.15v-5.02h-6.14c-.31,5.94-2.77,10.41-7.4,13.41-1.15-1.63-2.55-3.13-4.23-4.49v2.97h-7.07v-.79h-6.93c-.26,1.5-.55,2.93-.86,4.29h14.99s-.04.99-.13,2.84c-.62,8.19-1.52,13.25-2.71,15.19-.22.35-.44.64-.66.86-1.19,1.32-2.91,2.09-5.15,2.31h-.26c-1.98.18-4.98.2-8.98.07-.26-2.6-1.04-4.84-2.31-6.74,2.82.22,5.55.33,8.19.33,1.14-.04,1.98-.26,2.51-.66.84-.84,1.47-3.63,1.92-8.39h-8.72l-.46,1.65-6.41-.99c1.58-5.94,2.75-11.51,3.5-16.71h12.48v-4.76h-11.16v-.46c-1.85.84-3.43,1.5-4.76,1.98-1.37-2.33-2.8-4.29-4.29-5.88,3.96-1.14,7.73-2.86,11.29-5.15-2.64-1.89-4.73-3.26-6.27-4.09l4.56-4.23c2.95,1.45,5.33,2.86,7.13,4.23,1.5-1.32,2.82-2.75,3.96-4.29h-13.34v-6.27h17.64l1.39-.4,4.95,2.44c-2.69,6.3-6.91,11.62-12.68,15.98h8.65v13.61c3.21-2.33,4.87-5.37,4.95-9.11v-4.82h13.41c-6.08-4.71-10.79-10.81-14.13-18.3l6.41-1.78c1.14,2.47,2.44,4.65,3.9,6.54,2.86-2.42,4.98-4.47,6.34-6.14l5.75,4.1c-3.52,2.91-6.23,5.06-8.12,6.47,1.19,1.1,2.4,2.11,3.63,3.04,2.99-2.38,5.44-4.69,7.33-6.94ZM553.75,47.85l4.43,1.39c-1.67,5.11-4.27,9.36-7.79,12.75,3.39,1.45,7.33,2.44,11.82,2.97-1.76,1.72-3.33,3.87-4.69,6.47-5.02-.97-9.47-2.62-13.34-4.95-3.88,2.2-8.52,3.85-13.94,4.95-.71-1.89-1.83-3.83-3.37-5.81,4.62-.79,8.5-1.94,11.62-3.43-2.16-2.11-4.03-4.65-5.61-7.6l4.43-1.19h-6.54v-5.35h21.8l1.19-.2ZM548.99,53.4h-9.78c1.23,1.89,2.91,3.63,5.02,5.22,2.02-1.63,3.61-3.37,4.75-5.22Z"/>
    <path class="st32" d="M581.43,48.85v-13.34c-2.51,4.23-5.06,7.51-7.66,9.84-1.23-1.94-2.82-3.7-4.76-5.28-.13-.13-.24-.22-.33-.26,3.96-2.91,7.4-7.13,10.3-12.68.44-.79.84-1.59,1.19-2.38h-9.84v-6.87h11.1v-9.51h7.66v9.51h9.51v6.87h-9.51v2.44c2.77,1.63,6.23,4.03,10.37,7.2.13.13.24.22.33.26l-4.23,6.41c-1.63-1.76-3.79-3.87-6.47-6.34v14.13h-7.66ZM576.47,67.74l-7.33-3.7c2.6-3.79,4.53-8.32,5.81-13.61.04-.09.07-.18.07-.26l7.13,2.84c-1.81,6.56-3.7,11.47-5.68,14.73ZM596.95,62.98h10.77c1.63,0,2.66-.46,3.1-1.39.48-.97.81-3.1.99-6.41,1.67,1.28,3.98,2.2,6.94,2.77.13.04.24.07.33.07-.53,5.24-1.67,8.63-3.43,10.17-1.5,1.28-3.92,1.92-7.27,1.92h-12.22c-5.11,0-8.41-.92-9.91-2.77-1.06-1.37-1.58-3.54-1.58-6.54v-9.25h7.93v9.11c0,1.15.4,1.83,1.19,2.05.62.18,1.67.26,3.17.26ZM594.37,50.69l5.55-4.49,1.32,1.25V11.66h27.48v36.39h-26.82c3.43,3.21,5.83,5.59,7.2,7.13l-5.81,4.89c-2.07-2.6-5.04-5.72-8.92-9.38ZM608.58,18v3.96h12.42v-3.96h-12.42ZM608.58,27.91v3.9h12.42v-3.9h-12.42ZM608.58,37.68v4.1h12.42v-4.1h-12.42ZM617.16,52.48l7-3.24c4.71,7.27,7.53,11.76,8.45,13.47l-7.46,3.83c-.66-1.41-3.13-5.75-7.4-13.01-.22-.4-.42-.75-.59-1.06Z"/>
    <path class="st28" d="M291.63,111.25v6.54h-49.21v4.82c-.04,13.74-2.53,24-7.46,30.78-1.19-1.45-2.99-2.95-5.42-4.49-.35-.22-.64-.4-.86-.53,3.92-5.81,5.9-14.42,5.94-25.83v-11.29h8.45c-.66-1.19-1.39-2.31-2.18-3.37,4.01-.57,8.32-1.39,12.95-2.44-4.76-1.23-8.23-2.09-10.44-2.58l3.5-2.51h-12.75v-6.34h22.52v-4.49h7.99v4.49h23.71v6.34h-10.96l1.45.79c-2.25,1.45-4.82,2.77-7.73,3.96,2.69.79,6.03,1.89,10.04,3.3l-3.37,2.84h13.8ZM263.56,129.28h-11.1c-1.23,1.94-2.6,3.66-4.1,5.15-1.76-1.58-3.74-3.02-5.94-4.29,3.57-3.13,6.23-7.24,7.99-12.35l7.07,1.65c-.44,1.28-.92,2.47-1.45,3.57h7.53v-4.49h7.86v4.49h16.38v6.27h-16.38v4.29h14.33v6.14h-14.33v5.09h19.68v6.54h-47.49v-6.54h19.95v-5.09h-14.2v-6.14h14.2v-4.29ZM251.14,111.25h21.73c-4.1-1.41-7.35-2.47-9.78-3.17-4.14,1.28-8.12,2.33-11.96,3.17ZM269.7,100.35h-16.31c2.77.66,6.03,1.48,9.78,2.44,2.07-.62,4.25-1.43,6.54-2.44Z"/>
    <path class="st29" d="M299.89,152.6v-30.45h25.76v30.12h-8.06v-3.04h-10.11v3.37h-7.6ZM317.59,129.88h-10.11v11.62h10.11v-11.62ZM348.83,92.09v24.44h-39.63v-24.44h39.63ZM340.64,108.94v-9.18h-23.65v9.18h23.65ZM331.4,122.15h26.55v30.18h-8.12v-3.1h-10.7v3.37h-7.73v-30.45ZM339.12,141.5h10.7v-11.62h-10.7v11.62Z"/>
    <path class="st31" d="M391.97,89.19h8.26c5.42,7.88,12.26,14.49,20.54,19.82,2.95,1.89,5.86,3.46,8.72,4.69-1.59,1.67-3.39,4.09-5.42,7.26-7.62-4.23-14.66-9.64-21.14-16.25-2.6-2.69-4.75-5.24-6.47-7.66-4.09,6.17-9.97,12.11-17.64,17.83-3.13,2.33-6.27,4.38-9.44,6.14-1.19-2.16-2.88-4.31-5.09-6.47,7.62-3.92,14.62-9.42,21-16.51,2.77-3.08,5-6.03,6.67-8.85ZM401.42,129.94v13.54h24.17v7.27h-57.53v-7.27h7.33v-23.45h7.93v23.45h9.64v-35.14h8.46v14.53h18.1v7.07h-18.1Z"/>
    <path class="st36" d="M468.27,93.08v6.47h3.63v4.89h-3.63v6.74h-12.42v2.05h13.21v4.43h-13.21v1.98h15.65v5.08h-37.65v-5.08h14.79v-1.98h-11.89v-4.43h11.89v-2.05h-11.76v-4.29h11.76v-2.44h-15.19v-4.89h15.19v-2.11h-11.56v-4.36h11.56v-3.63h7.2v3.63h12.42ZM433.99,151.08l-.53-6.27c13.91-.4,26.66-.84,38.24-1.32l-.2,6.01c-20.65.92-33.16,1.45-37.52,1.58ZM436.96,126.71h31.64v15.46h-31.64v-15.46ZM443.17,130.4v2.25h6.27v-2.25h-6.27ZM443.17,136.22v2.18h6.27v-2.18h-6.27ZM455.85,97.44v2.11h5.68v-2.11h-5.68ZM461.53,106.89v-2.44h-5.68v2.44h5.68ZM462.06,132.65v-2.25h-5.94v2.25h5.94ZM462.06,138.4v-2.18h-5.94v2.18h5.94ZM481.08,97.64v38.04h-7.33v-38.04h7.33ZM486.5,90.77h7.6v52.51c0,3.52-.79,5.88-2.38,7.07-.31.18-.62.35-.92.53-2.25,1.1-6.05,1.63-11.43,1.58-.31-2.33-1.12-4.98-2.44-7.93,2.38.09,5.06.13,8.06.13.97-.09,1.47-.55,1.52-1.39v-52.51Z"/>
    <path class="st19" d="M556.32,132.19l4.56,3.37c-2.95,1.98-6.67,4.05-11.16,6.21,4.01,2.16,8.89,3.68,14.66,4.56-1.72,1.72-3.17,3.85-4.36,6.41-10.96-2.11-19.05-6.78-24.24-14-1.23-1.76-2.36-3.7-3.37-5.81-2.25,1.67-4.91,3.28-7.99,4.82v5.88c1.85-.22,4.69-.59,8.52-1.12,2.25-.31,3.92-.53,5.02-.66l.26,6.34c-17.17,2.38-26.2,3.63-27.08,3.76l-1.12-6.54c.7-.09,1.8-.22,3.3-.4,1.5-.17,2.62-.31,3.37-.4v-3.77c-3.74,1.23-7.46,2.18-11.16,2.84-1.15-2.11-2.55-4.05-4.23-5.81,8.1-1.1,15.06-2.99,20.87-5.68h-19.75v-6.34h26.35v-3.5h-2.71c-.04-.18-.1-.37-.17-.59-.07-.22-.13-.42-.2-.59-.07-.17-.15-.4-.26-.66-.11-.26-.19-.45-.23-.56-.04-.11-.14-.32-.3-.63-.15-.31-.24-.5-.26-.56-.02-.07-.12-.25-.3-.56l-.26-.46c1.06.04,2.27.07,3.63.07.53-.09.81-.35.86-.79v-2.77h-5.55v9.91h-6.87v-9.91h-5.09v8.39h-6.08v-13.21h11.16v-2.38h-13.87v-5.42h4.16c-1.76-1.06-3.17-1.85-4.23-2.38,2.29-2.64,4.05-5.88,5.28-9.71l5.88,1.45c-.44,1.23-.79,2.16-1.06,2.77h3.83v-4.29h6.87v4.29h11.23v5.15h-11.23v2.71h13.01v5.42h-13.01v2.38h11.96v7.6c0,2.16-.53,3.57-1.58,4.23-.22.18-.44.31-.66.4-.84.35-1.89.57-3.17.66h7.13v3.57h26.42v6.34h-6.8ZM508.04,101.61h8.12v-2.71h-6.41c-.66,1.19-1.23,2.09-1.72,2.71ZM546.02,92.16v22.52h-7.2v-22.52h7.2ZM553.94,132.19h-14.46c1.23,2.07,2.84,4.01,4.82,5.81,3.92-2.07,7.13-4.01,9.64-5.81ZM560.68,89.91v27.02c0,2.82-.66,4.69-1.98,5.61-.35.22-.73.42-1.12.59-1.76.71-5.22,1.06-10.37,1.06-.31-1.76-1.1-3.87-2.38-6.34,3.35.13,5.77.15,7.27.07.79-.17,1.21-.57,1.25-1.19v-26.82h7.33Z"/>
    <path class="st22" d="M583.94,89.72l7.86,2.44c-1.85,4.84-4.01,9.53-6.47,14.07v46.3h-8.12v-33.82c-.62.75-2.03,2.38-4.23,4.89-.97-2.64-2.31-5.31-4.03-7.99-.13-.22-.26-.42-.4-.59,5.28-5.2,9.73-11.93,13.34-20.21.79-1.72,1.47-3.41,2.05-5.09ZM632.42,108.08h-19.22v7.13h17.57v7.27h-17.57v7.66h18.43v7.46h-18.43v14.99h-8.19v-44.52h-2.58c-2.73,5.06-5.7,9.44-8.92,13.14-1.37-1.67-3.3-3.46-5.81-5.35-.13-.09-.24-.18-.33-.26,5.06-5.15,9.29-12.09,12.68-20.81.62-1.58,1.17-3.15,1.65-4.69l7.79,1.98c-.84,2.6-1.94,5.39-3.3,8.39h26.22v7.6Z"/>
  </g>
  <g>
    <path class="st21" d="M129.92,199.42v-25.47h2.89v25.47h-2.89Z"/>
    <path class="st20" d="M140.05,199.42v-25.47h6.28c5.37,0,8.93,2.05,10.7,6.15.79,1.83,1.19,4,1.19,6.49,0,5.37-1.7,9.09-5.09,11.17-1.83,1.11-4.06,1.66-6.69,1.66h-6.38ZM142.93,197.04h3.16c4.41,0,7.24-1.91,8.49-5.74.45-1.38.68-2.95.68-4.72,0-5.39-1.96-8.66-5.87-9.81-1-.29-2.09-.44-3.29-.44h-3.16v20.71Z"/>
    <path class="st15" d="M163.96,199.42v-25.47h14.5v2.45h-11.61v8.39h9.78v2.45h-9.78v9.75h12.02v2.45h-14.91Z"/>
    <path class="st16" d="M198.6,199.42l-2.55-8.05h-9.47l-2.61,8.05h-2.89l8.69-25.47h3.16l8.73,25.47h-3.06ZM187.29,189.13h8.05l-1.32-4.14c-.5-1.49-1.38-4.37-2.65-8.63h-.14c-.88,3.12-1.75,6-2.61,8.63l-1.32,4.14Z"/>
    <path class="st13" d="M210.83,199.42v-23.02h-7.74v-2.45h18.47v2.45h-7.81v23.02h-2.92Z"/>
    <path class="st14" d="M226.31,199.42v-25.47h2.89v25.47h-2.89Z"/>
    <path class="st17" d="M245.71,199.86c-3.35,0-6.02-1.31-8.01-3.94-1.83-2.42-2.75-5.54-2.75-9.34,0-4.53,1.27-7.99,3.8-10.39,1.9-1.79,4.22-2.68,6.96-2.68,3.44,0,6.16,1.32,8.15,3.97,1.74,2.38,2.61,5.41,2.61,9.1,0,4.55-1.25,8.05-3.74,10.49-1.9,1.86-4.25,2.78-7.03,2.78ZM245.71,197.34c2.69,0,4.75-1.25,6.18-3.74,1.09-1.88,1.63-4.22,1.63-7.03,0-4.05-1.08-7.01-3.23-8.86-1.29-1.11-2.82-1.66-4.58-1.66-2.72,0-4.79,1.22-6.21,3.67-1.06,1.83-1.6,4.12-1.6,6.86,0,4.01,1.03,6.98,3.09,8.93,1.31,1.22,2.89,1.83,4.72,1.83Z"/>
    <path class="st18" d="M262.22,199.42v-25.47h2.95l9.64,16.5,2.75,5.2h.17c-.25-3.74-.37-6.37-.37-7.91v-13.79h2.75v25.47h-2.99l-9.58-16.47-2.78-5.23h-.17c.23,4.26.34,6.84.34,7.74v13.96h-2.72Z"/>
    <path class="st10" d="M292.24,199.42l6.25-9.81-5.74-8.96h3.06l2.65,4.28c.11.18.75,1.22,1.9,3.12h.14c.2-.34.5-.86.88-1.56.38-.7.67-1.22.85-1.56l2.48-4.28h2.92l-5.7,9.24,6.18,9.54h-3.09l-2.89-4.55c-.18-.34-.86-1.47-2.04-3.4h-.17c-.91,1.49-1.57,2.63-2,3.4l-2.68,4.55h-2.99Z"/>
    <path class="st11" d="M320.23,199.42v-25.47h6.28c5.37,0,8.93,2.05,10.7,6.15.79,1.83,1.19,4,1.19,6.49,0,5.37-1.7,9.09-5.09,11.17-1.83,1.11-4.06,1.66-6.69,1.66h-6.38ZM323.12,197.04h3.16c4.41,0,7.24-1.91,8.49-5.74.45-1.38.68-2.95.68-4.72,0-5.39-1.96-8.66-5.88-9.81-1-.29-2.1-.44-3.29-.44h-3.16v20.71Z"/>
    <path class="st8" d="M344.14,199.42v-25.47h14.5v2.45h-11.61v8.39h9.78v2.45h-9.78v9.75h12.02v2.45h-14.91Z"/>
    <path class="st9" d="M371.58,199.86c-3.53-.02-6.47-1.28-8.83-3.77l1.73-2c1.83,1.97,4.01,3.04,6.52,3.23.2.02.41.03.61.03,2.42,0,4.1-.75,5.03-2.24.38-.63.58-1.35.58-2.14,0-1.52-.69-2.71-2.07-3.57-.48-.32-1.23-.7-2.28-1.15l-3.67-1.63c-2.79-1.2-4.45-2.8-4.99-4.79-.14-.54-.2-1.1-.2-1.66,0-2.2.93-3.93,2.79-5.2,1.43-.97,3.11-1.46,5.06-1.46,2.78,0,5.15.93,7.1,2.79.14.11.25.23.34.34l-1.56,1.87c-1.72-1.63-3.68-2.45-5.88-2.45s-3.66.69-4.45,2.07c-.32.54-.48,1.16-.48,1.83,0,1.52.87,2.74,2.61,3.67.34.18.88.43,1.63.75l3.7,1.56c2.38,1.04,3.93,2.31,4.65,3.8.41.88.61,1.88.61,2.99,0,2.31-.95,4.14-2.85,5.5-1.56,1.09-3.46,1.63-5.71,1.63Z"/>
    <path class="st4" d="M385.38,199.42v-25.47h2.89v25.47h-2.89Z"/>
    <path class="st5" d="M405.35,199.86c-3.69,0-6.58-1.36-8.66-4.08-1.79-2.35-2.68-5.39-2.68-9.1,0-4.5,1.33-7.97,3.97-10.39,2.06-1.86,4.58-2.79,7.57-2.79,2.83.02,5.25,1.05,7.27,3.09l-1.6,1.9c-1.56-1.63-3.43-2.45-5.6-2.45-3.17,0-5.52,1.3-7.06,3.91-1.06,1.81-1.6,4.03-1.6,6.66,0,4.37,1.23,7.45,3.7,9.24,1.38,1,3.03,1.49,4.96,1.49s3.53-.49,4.69-1.46c.07-.07.12-.12.17-.17v-6.93h-5.54v-2.41h8.22v10.56c-1.63,1.7-3.87,2.66-6.72,2.89-.36.02-.72.03-1.09.03Z"/>
    <path class="st2" d="M419.44,199.42v-25.47h2.96l9.64,16.5,2.75,5.2h.17c-.25-3.74-.37-6.37-.37-7.91v-13.79h2.75v25.47h-2.99l-9.58-16.47-2.79-5.23h-.17c.23,4.26.34,6.84.34,7.74v13.96h-2.72Z"/>
    <path class="st3" d="M449.47,199.42l6.25-9.81-5.74-8.96h3.06l2.65,4.28c.11.18.75,1.22,1.9,3.12h.14c.2-.34.5-.86.88-1.56.38-.7.67-1.22.85-1.56l2.48-4.28h2.92l-5.71,9.24,6.18,9.54h-3.09l-2.89-4.55c-.18-.34-.86-1.47-2.04-3.4h-.17c-.91,1.49-1.57,2.63-2,3.4l-2.68,4.55h-2.99Z"/>
    <path class="st6" d="M486.73,199.86c-3.35,0-6.02-1.31-8.01-3.94-1.83-2.42-2.75-5.54-2.75-9.34,0-4.53,1.27-7.99,3.8-10.39,1.9-1.79,4.22-2.68,6.96-2.68,3.44,0,6.16,1.32,8.15,3.97,1.74,2.38,2.61,5.41,2.61,9.1,0,4.55-1.25,8.05-3.74,10.49-1.9,1.86-4.24,2.78-7.03,2.78ZM486.73,197.34c2.69,0,4.75-1.25,6.18-3.74,1.09-1.88,1.63-4.22,1.63-7.03,0-4.05-1.08-7.01-3.23-8.86-1.29-1.11-2.82-1.66-4.58-1.66-2.72,0-4.79,1.22-6.21,3.67-1.06,1.83-1.6,4.12-1.6,6.86,0,4.01,1.03,6.98,3.09,8.93,1.31,1.22,2.89,1.83,4.72,1.83Z"/>
    <path class="st7" d="M503.24,199.42v-25.47h7.06c5.98,0,9.12,2.21,9.44,6.62.02.25.03.51.03.78,0,3.62-1.64,6-4.92,7.13-1.29.43-2.76.65-4.42.65h-4.31v10.29h-2.89ZM506.12,186.75h3.91c3.69,0,5.89-1.11,6.59-3.33.2-.61.31-1.3.31-2.07,0-2.38-1.02-3.91-3.06-4.58-1.02-.32-2.34-.47-3.97-.47h-3.77v10.46Z"/>
    <path class="st26" d="M530.51,199.42v-23.02h-7.74v-2.45h18.47v2.45h-7.81v23.02h-2.92Z"/>
    <path class="st23" d="M546,199.42v-25.47h2.89v25.47h-2.89Z"/>
    <path class="st24" d="M556.12,199.42v-25.47h3.57l4.99,13.92c.2.59.52,1.49.95,2.72.41,1.22.71,2.13.92,2.72h.17c.29-.84.88-2.65,1.77-5.43l4.96-13.92h3.57v25.47h-2.68v-14.7c0-1.2.11-3.66.34-7.37h-.14l-2,5.77-4.99,13.68h-1.97l-5.03-13.68-2-5.77h-.14c.23,3.74.34,6.19.34,7.37v14.7h-2.62Z"/>
    <path class="st25" d="M584.24,199.42v-25.47h2.89v25.47h-2.89Z"/>
    <path class="st1" d="M592.6,199.42v-1.7l13.75-21.33h-12.5v-2.45h16.03v1.73l-13.69,21.29h13.82v2.45h-17.42Z"/>
    <path class="st12" d="M615.42,199.42v-25.47h14.5v2.45h-11.61v8.39h9.78v2.45h-9.78v9.75h12.02v2.45h-14.91Z"/>
  </g>
</svg>