<?xml version="1.0" encoding="UTF-8"?>
<svg xmlns="http://www.w3.org/2000/svg" xmlns:xlink="http://www.w3.org/1999/xlink" version="1.1" viewBox="0 0 879.34 249.16">
  <!-- Generator: Adobe Illustrator 30.4.0, SVG Export Plug-In . SVG Version: 2.1.4 Build 226)  -->
  <defs>
    <style>
      .st0 {
        fill: url(#_未命名漸層_17);
      }

      .st1 {
        fill: url(#_未命名漸層_1720);
      }

      .st2 {
        fill: url(#_未命名漸層_1716);
      }

      .st3 {
        fill: url(#_未命名漸層_1717);
      }

      .st4 {
        fill: url(#_未命名漸層_1714);
      }

      .st5 {
        fill: url(#_未命名漸層_1715);
      }

      .st6 {
        fill: url(#_未命名漸層_1718);
      }

      .st7 {
        fill: url(#_未命名漸層_1719);
      }

      .st8 {
        fill: url(#_未命名漸層_1710);
      }

      .st9 {
        fill: url(#_未命名漸層_1713);
      }

      .st10 {
        fill: url(#_未命名漸層_1712);
      }

      .st11 {
        fill: url(#_未命名漸層_1711);
      }

      .st12 {
        fill: url(#_未命名漸層_176);
      }

      .st13 {
        fill: url(#_未命名漸層_177);
      }

      .st14 {
        fill: url(#_未命名漸層_171);
      }

      .st15 {
        fill: url(#_未命名漸層_178);
      }

      .st16 {
        fill: url(#_未命名漸層_175);
      }

      .st17 {
        fill: url(#_未命名漸層_172);
      }

      .st18 {
        fill: url(#_未命名漸層_173);
      }

      .st19 {
        fill: url(#_未命名漸層_174);
      }

      .st20 {
        fill: url(#_未命名漸層_179);
      }

      .st21 {
        fill: #edc9dc;
      }

      .st22 {
        display: none;
      }

      .st23 {
        fill: none;
        stroke: #edc9dc;
        stroke-miterlimit: 10;
        stroke-width: 2px;
      }
    </style>
    <linearGradient id="_未命名漸層_17" data-name="未命名漸層 17" x1="2.1" y1="124.07" x2="876.87" y2="124.07" gradientUnits="userSpaceOnUse">
      <stop offset="0" stop-color="#e6dbbb"/>
      <stop offset="1" stop-color="#c0a273"/>
    </linearGradient>
    <linearGradient id="_未命名漸層_171" data-name="未命名漸層 17" y1="213.05" x2="48.92" y2="213.05" xlink:href="#_未命名漸層_17"/>
    <linearGradient id="_未命名漸層_172" data-name="未命名漸層 17" x1="72.24" y1="199.12" x2="96.73" y2="199.12" xlink:href="#_未命名漸層_17"/>
    <linearGradient id="_未命名漸層_173" data-name="未命名漸層 17" x1="51.7" y1="213.62" x2="100.13" y2="213.62" xlink:href="#_未命名漸層_17"/>
    <linearGradient id="_未命名漸層_174" data-name="未命名漸層 17" x1="102.19" y1="213.65" x2="151.38" y2="213.65" xlink:href="#_未命名漸層_17"/>
    <linearGradient id="_未命名漸層_175" data-name="未命名漸層 17" x1="169.94" y1="213.41" x2="201.67" y2="213.41" xlink:href="#_未命名漸層_17"/>
    <linearGradient id="_未命名漸層_176" data-name="未命名漸層 17" x1="201.67" y1="206.12" x2="201.68" y2="206.12" xlink:href="#_未命名漸層_17"/>
    <linearGradient id="_未命名漸層_177" data-name="未命名漸層 17" x1="152.97" y1="213.15" x2="174.31" y2="213.15" xlink:href="#_未命名漸層_17"/>
    <linearGradient id="_未命名漸層_178" data-name="未命名漸層 17" x1="210.64" y1="213.09" x2="245.93" y2="213.09" xlink:href="#_未命名漸層_17"/>
    <linearGradient id="_未命名漸層_179" data-name="未命名漸層 17" x1="290.23" y1="224.26" x2="290.24" y2="224.26" xlink:href="#_未命名漸層_17"/>
    <linearGradient id="_未命名漸層_1710" data-name="未命名漸層 17" x1="286.3" y1="213.66" x2="301.38" y2="213.66" xlink:href="#_未命名漸層_17"/>
    <linearGradient id="_未命名漸層_1711" data-name="未命名漸層 17" x1="254.25" y1="213.52" x2="290.23" y2="213.52" xlink:href="#_未命名漸層_17"/>
    <linearGradient id="_未命名漸層_1712" data-name="未命名漸層 17" x1="312.82" y1="221.7" x2="347.27" y2="221.7" xlink:href="#_未命名漸層_17"/>
    <linearGradient id="_未命名漸層_1713" data-name="未命名漸層 17" x1="307.74" y1="197.12" x2="351.85" y2="197.12" xlink:href="#_未命名漸層_17"/>
    <linearGradient id="_未命名漸層_1714" data-name="未命名漸層 17" x1="305.42" y1="230.02" x2="317.94" y2="230.02" xlink:href="#_未命名漸層_17"/>
    <linearGradient id="_未命名漸層_1715" data-name="未命名漸層 17" x1="340.32" y1="229.53" x2="353.88" y2="229.53" xlink:href="#_未命名漸層_17"/>
    <linearGradient id="_未命名漸層_1716" data-name="未命名漸層 17" x1="356.07" y1="213.14" x2="404.83" y2="213.14" xlink:href="#_未命名漸層_17"/>
    <linearGradient id="_未命名漸層_1717" data-name="未命名漸層 17" x1="418.49" y1="228.02" x2="455.75" y2="228.02" xlink:href="#_未命名漸層_17"/>
    <linearGradient id="_未命名漸層_1718" data-name="未命名漸層 17" x1="406.81" y1="204.7" x2="430.77" y2="204.7" xlink:href="#_未命名漸層_17"/>
    <linearGradient id="_未命名漸層_1719" data-name="未命名漸層 17" x1="426.18" y1="210.11" x2="452.55" y2="210.11" xlink:href="#_未命名漸層_17"/>
    <linearGradient id="_未命名漸層_1720" data-name="未命名漸層 17" x1="407.01" y1="227.36" x2="417.8" y2="227.36" xlink:href="#_未命名漸層_17"/>
  </defs>
  <g id="_圖層_2" class="st22">
    <g id="_圖層_1-2" class="st22">
      <g>
        <g>
          <g>
            <path class="st21" d="M416.29,161.88l-5.41-35.17,2.25-.45c14.65,24.12,26.6,41.03,47.35,41.03,24.35,0,34.72-23,34.72-50.5,0-31.11-13.53-46.22-36.98-46.22-12.85,0-22.55,4.28-29.99,9.92l-2.03-2.71,61.55-51.86h-71.7l9.7-22.55h93.57v2.25l-74.4,62.68c4.96-2.25,11.72-3.38,19.39-3.38,28.86,0,56.82,16.91,56.82,51.63,0,32.69-25.03,55.24-62,55.24-16.23,0-33.59-4.28-42.84-9.92h0Z"/>
            <path class="st21" d="M535.79,161.88l-5.64-35.17,2.25-.45c12.85,23.67,25.03,41.03,43.74,41.03,20.52,0,35.17-18.26,35.17-50.5s-14.43-48.47-39.91-48.47c-11.27,0-21.19,2.93-30.66,9.47l-1.8-.9,12.17-73.5h82.52l-4.28,22.55h-76.88l-7.67,45.77c9.69-5.86,19.84-8.79,32.69-8.79,30.89,0,58.39,16.46,58.39,52.53s-26.38,56.37-60.2,56.37c-17.59,0-31.34-4.28-39.91-9.92l.02-.02h0Z"/>
            <path class="st21" d="M650.1,85.9c0-48.93,29.54-85.9,67.41-85.9s67.86,36.98,67.86,85.9-29.99,85.9-67.86,85.9-67.41-36.98-67.41-85.9ZM756.74,85.9c0-46.67-9.69-81.39-39.23-81.39s-38.78,34.72-38.78,81.39,9.69,81.39,38.78,81.39,39.23-34.72,39.23-81.39Z"/>
          </g>
          <path class="st21" d="M806.57,161.74c8.39-8.04,16.52-22.43,19.61-31.79l9.89,3.97c-.35,1.06-1.15,1.68-3.53,1.68-5.03,9.19-14.31,20.4-24.91,27.03l-1.06-.88h0ZM870.25,115.82s5.65,4.24,9.1,7.33c-.27.97-1.15,1.41-2.38,1.41h-29.85v42.66c0,.88-3.18,2.65-6.01,2.65h-1.5v-45.31h-31.62l-.71-2.56h32.32v-33.65l10.77,1.24c-.27,1.24-.97,2.03-3.27,2.38v30.03h18.28l4.86-6.18s.01,0,.01,0ZM814.25,93.92c24.82,12.1,19.43,28.53,11.83,22.87-1.77-7.24-8.04-16.34-12.89-22.26l1.06-.62h0ZM853.11,131.54c29.76,16.07,24.91,34.62,16.6,28.53-2.47-8.83-11.13-20.31-17.66-27.82l1.06-.71ZM875.28,97.27c-.44,1.06-1.59,1.77-3.53,1.5-4.86,7.6-11.22,14.48-17.4,18.99l-1.15-.8c3.97-5.83,8.48-15.19,11.66-24.02l10.42,4.33h0Z"/>
        </g>
        <g>
          <path class="st21" d="M52.04,232.4l4.91,3.91c-.44.5-1.2.82-2.39.95-.69,5.67-1.95,9.07-4.16,10.52-1.45.88-3.47,1.39-5.61,1.39,0-1.26-.25-2.46-.94-3.09-.82-.69-2.46-1.2-4.35-1.51v-.19c-.25-.06-.5-.19-.76-.38-.44-1.89-2.14-4.1-3.78-5.23l.57-.57c6.74.63,7.75,4.03,6.49,5.54,1.58.13,3.15.19,3.84.19.82,0,1.39-.06,1.76-.44.88-.63,1.7-2.96,2.2-6.8H16.44v1.26c0,.5-2.08,1.64-4.16,1.64h-.76v-26.59l5.29,2.27h6.05c.38-1.32.82-3.02,1.2-4.28H7.81c0,3.4-1.45,5.8-3.09,6.8-1.58.95-3.72.88-4.41-.69-.5-1.51.44-2.77,1.89-3.53,1.95-1.2,3.84-4.35,3.72-7.62h1.07c.38,1.07.63,2.21.76,3.21h42.72l2.9-2.84,5.04,4.91c-.5.44-1.2.57-2.46.63-1.45,1.76-4.35,4.47-6.43,5.99l-.82-.38c.63-1.7,1.45-4.35,2.02-6.49h-25.39l5.67,1.39c-.19.82-1.07,1.26-2.46,1.2-.76.5-1.7,1.13-2.65,1.7h13.48l2.46-2.58,5.29,3.97c-.38.44-1.2.88-2.27,1.07v9.51c-.06.5-2.46,1.51-4.1,1.51h-.82v-1.76h-23.5v3.02h28.54l3.15-3.78s3.53,2.65,5.73,4.6c-.13.69-.76,1.01-1.64,1.01H16.44v2.96h33.01l2.58-2.39h.01ZM10.65,238.44c1.2,5.23-1.39,8.69-3.97,9.83-1.64.69-3.97.38-4.54-1.32-.44-1.58.69-2.84,2.21-3.47,2.14-.69,4.91-2.58,5.29-5.1l1.01.06h0ZM6.05,193.59c10.84,3.02,7.12,10.4,3.47,7.56-.38-2.46-2.39-5.48-4.1-7.12,0,0,.63-.44.63-.44ZM7.62,207.76c7.5-4.16,7.5-9.77,7.56-16.76l6.05.57c-.13.76-.63,1.39-1.89,1.58-.13,1.83-.25,3.53-.57,5.23,2.08-1.45,4.41-3.28,5.92-4.54l4.41,3.28c-.31.5-.88.69-2.08.38-2.08.76-5.67,1.89-8.57,2.65,11.97,2.02,9.89,9.89,5.67,7.75-1.07-2.14-3.78-4.79-6.3-6.55-1.32,2.9-4.03,5.42-9.39,7.43l-.82-1.01h.01ZM17.07,238.51c8.57,5.54,2.71,11.84-.38,7.88.5-2.52.13-5.61-.44-7.69l.82-.19ZM16.44,217.09v3.28h23.5v-3.28h-23.5ZM39.94,225.09v-2.84h-23.5v2.84h23.5ZM26.08,238.26c10.46,3.53,5.86,11.09,2.14,7.75,0-2.52-1.39-5.54-2.84-7.31l.69-.44h.01ZM29.36,193.46c10.84,2.71,7.31,10.02,3.65,7.31-.44-2.39-2.46-5.23-4.35-6.8l.69-.5h0ZM28.79,207.95c10.14-3.91,10.08-9.45,10.21-17.14l6.11.57c-.06.69-.57,1.39-1.83,1.51-.13,2.14-.25,4.22-.82,6.11,2.46-1.76,5.36-4.22,7.18-5.73l4.66,3.65c-.32.5-.88.63-2.08.25-2.14.88-5.73,2.02-8.76,2.9,10.58,2.14,8.76,9.39,4.6,7.5-1.07-2.14-3.91-4.66-6.36-6.49-1.64,3.21-4.98,5.86-12.22,7.81l-.69-.95h0Z"/>
          <path class="st21" d="M80.77,212.93c12.1,5.42,7.94,13.61,3.91,10.21-.44-2.65-2.2-5.92-3.91-8.51v32.76c0,.63-2.02,1.76-3.65,1.76h-1.01v-28.04c-2.14,4.85-4.85,9.39-8.25,13.29l-.94-.76c4.35-7.25,6.87-16.63,8.25-25.96h-7.5l-.5-1.83h8.95v-15.18l6.99.76c-.19.94-.69,1.51-2.33,1.76v12.66h.57l2.71-3.72s3.15,2.65,5.04,4.54c-.19.69-.82,1.01-1.64,1.01h-6.68v5.25h0ZM97.34,191.19l6.68.69c-.13.88-.63,1.51-2.27,1.76v27.78c-.06,12.92-4.16,21.86-17.33,27.66l-.69-.82c10.02-6.05,13.48-14.24,13.61-26.21-1.89,2.39-4.28,5.29-7.18,8.63,0,.76-.31,1.51-.88,1.89l-3.72-5.04c2.08-1.2,6.93-4.16,11.78-7.5v-28.86.02ZM88.77,201.52c12.16,7.12,7.94,16.19,3.84,12.35-.25-3.84-2.58-8.82-4.6-11.97l.76-.38ZM123.86,242.29c1.39.57,1.83,1.07,1.83,2.02,0,1.89-2.02,2.71-9.01,2.71h-4.03c-4.28,0-5.29-1.39-5.29-4.66v-51.1l6.74.76c-.06.88-.63,1.51-2.21,1.76v17.01c2.33-3.59,4.79-7.75,5.92-10.21l6.05,3.91c-.31.57-1.2,1.07-2.46.63-2.08,2.08-5.86,5.54-9.51,8.19v5.29c14.49,5.92,10.96,15.5,6.17,12.1-.82-3.28-3.53-7.18-6.17-10.14v20.41c0,1.26.25,1.7,1.89,1.7h3.09c1.39,0,2.52,0,3.15-.06.44,0,.69-.13,1.01-.57.44-.69,1.2-4.1,1.76-6.87h.82l.25,7.12Z"/>
          <path class="st21" d="M148.81,218.66c12.22,4.91,8.76,12.73,4.73,9.77-.57-2.65-2.71-5.73-4.73-8.19v26.97c0,.44-1.7,1.7-4.03,1.7h-.82v-25.52c-2.9,2.84-6.11,5.42-9.32,7.43l-.69-.57c6.93-6.24,13.61-16.13,16.63-24.19h-14.87l-.57-1.83h15.31l3.09-2.96,5.17,5.04c-.57.5-1.39.57-2.83.76-1.7,3.53-4.1,7.31-7.06,10.96v.63h0ZM142.19,191.07c13.67,3.97,9.07,13.23,4.41,9.58-.5-3.09-2.96-6.87-5.04-9.14l.63-.44h0ZM186.99,191.82s3.59,2.77,5.86,4.85c-.19.69-.82,1.01-1.7,1.01h-33.33l-.5-1.83h26.52l3.15-4.03ZM187.05,219.29l5.54,4.35c-.38.5-1.39,1.01-2.71,1.26v22.24c-.06.38-2.39,1.45-3.97,1.45h-.82v-3.46h-22.05v2.27c0,.5-2.02,1.57-3.97,1.57h-.76v-29.04l5.04,2.21h21.11l2.58-2.84h.01ZM182.14,217.65v-2.2h-15.81v1.45c0,.38-2.14,1.45-3.97,1.45h-.69v-17.01l4.98,2.21h14.87l2.58-2.77,5.61,4.22c-.44.5-1.45,1.01-2.71,1.26v10.02c-.06.38-2.46,1.39-4.03,1.39h-.82v-.02h0ZM163.05,224.02v8.32h8.95v-8.32h-8.95ZM163.05,243.3h8.95v-9.07h-8.95v9.07h0ZM182.14,213.62v-8.25h-15.81v8.25h15.81ZM176.34,224.02v8.32h8.76v-8.32h-8.76ZM185.1,243.3v-9.07h-8.76v9.07h8.76Z"/>
          <path class="st21" d="M221.45,207.07c-.38.69-.88,1.01-2.39.88-1.2,2.08-2.65,4.47-4.41,6.99l2.46.94c-.19.5-.82.88-1.89,1.07v30.3c-.06.44-2.02,1.76-3.97,1.76h-.95v-28.48c-2.46,2.77-5.1,5.48-8,7.75l-.69-.69c5.61-6.74,10.52-16.95,12.73-23.82l7.12,3.28v.02h0ZM221.01,194.53c-.38.69-.88,1.01-2.39.69-3.53,4.41-9.64,10.33-16.07,14.24l-.63-.76c5.04-5.04,10.21-12.66,12.6-17.77l6.49,3.59h0ZM224.15,231.01c1.58,6.05.25,10.4-1.51,12.41-1.26,1.39-3.84,1.64-4.79.06-.76-1.45,0-2.9,1.39-3.91,1.76-1.45,3.91-5.17,3.84-8.63l1.07.06h0ZM255.97,220.93c0,.19-.44.5-1.13.76.88.63,3.78,2.71,5.67,4.35-.19.69-.82,1.01-1.76,1.01h-39.06l-.5-1.83h32.26l2.84-3.34c-.5.13-1.2.25-2.02.25h-.76v-1.95h-24.45v1.51c0,.38-1.39,1.26-3.59,1.26h-.69v-19.03l5.04,2.14h7.43c.32-1.7.63-3.78.94-6.05h-16.51l-.5-1.83h17.26c.38-2.46.76-5.1,1.01-7.37l7.18,1.83c-.25.88-1.01,1.39-2.33,1.39l-.69,4.16h9.89l3.21-4.1s3.72,2.84,5.92,4.91c-.19.69-.82,1.01-1.7,1.01h-17.58c-.38,2.14-.69,4.22-1.01,6.05h11.03l2.14-2.58,4.73,3.65c-.38.5-1.01.82-2.27,1.01v12.79h0ZM227.05,218.35h5.73v-10.46h-5.73v10.46ZM250.55,242.48c1.45.5,1.83,1.01,1.83,1.89,0,1.95-2.08,2.84-11.59,2.84h-6.62c-5.04,0-5.92-.95-5.92-4.22v-13.23l6.3.63c-.06.76-.69,1.39-1.83,1.58v10.08c0,.82.25,1.01,2.33,1.01h5.99c2.52,0,4.66,0,5.48-.06.63-.06.88-.19,1.26-.69.44-.82,1.13-3.34,1.76-6.24h.82l.19,6.43v-.02h0ZM236.44,227.73c12.66,4.91,8.06,14.24,3.84,10.52,0-3.4-2.33-7.62-4.54-10.08l.69-.44h0ZM236.69,207.89v10.46h5.48v-10.46h-5.48ZM251.5,218.35v-10.46h-5.36v10.46h5.36ZM250.24,230.38c14.62,5.8,10.52,16.38,5.8,12.66-.44-4.1-3.59-9.14-6.55-12.16l.76-.5h0Z"/>
          <path class="st21" d="M294.34,211.98c-.25.76-.94,1.32-2.39,1.26-1.64,6.11-4.47,15.18-7.25,22.68,3.21-.76,6.55-1.64,9.95-2.52l.25.88c-4.91,2.33-11.72,5.73-21.3,9.77-.19.76-.76,1.39-1.45,1.58l-2.9-6.05c2.65-.44,7.75-1.7,13.8-3.21,1.39-8.19,3.02-18.9,4.03-26.46l7.25,2.08h.01ZM291.88,201.34s3.53,3.02,5.61,5.17c-.19.69-.82,1.01-1.7,1.01h-25.89l-.5-1.83h19.41l3.09-4.35h-.02,0ZM273.11,210.66c12.41,14.81,5.92,26.46,2.71,21.42,0-5.04-.57-14.43-3.53-21.04l.82-.38ZM277.39,191.07c12.92,6.68,8,16.32,3.47,12.16-.38-3.78-2.52-8.57-4.22-11.78l.76-.38h-.01ZM321.87,201.9s3.47,2.77,5.48,4.79c-.13.69-.76,1.01-1.58,1.01h-14.18v13.36h5.73l2.52-2.96,5.23,4.03c-.44.57-1.07.88-2.46,1.13v23.75c0,.32-1.83,1.39-4.22,1.39h-.82v-4.16h-16.95v3.28c0,.38-1.51,1.39-4.03,1.39h-.76v-30.18l5.54,2.33h5.29v-30.18l7.25.76c-.13.88-.69,1.51-2.33,1.76v12.41h7.31l2.96-3.91h.02,0ZM300.64,222.88v19.53h16.95v-19.53h-16.95Z"/>
        </g>
        <line class="st23" y1="172.34" x2="879.34" y2="172.34"/>
      </g>
    </g>
    <g>
      <path class="st21" d="M242.28,173.61v-99.05h23.79v99.05h-23.79Z"/>
      <path class="st21" d="M289.48,173.61v-99.05h28.47c24,0,39.43,8.71,46.28,26.13,2.6,6.59,3.9,14.21,3.9,22.88,0,21.84-7.63,36.66-22.88,44.46-7.37,3.73-16.03,5.59-26,5.59h-29.77ZM313.27,154.5h3.25c15.86,0,24.78-7.75,26.78-23.27.35-2.42.52-4.98.52-7.67,0-16.29-5.72-25.91-17.16-28.86-2.95-.78-6.33-1.17-10.14-1.17h-3.25v60.96h0Z"/>
      <path class="st21" d="M387.12,173.61v-99.05h62.78v19.76h-39v18.33h33.15v20.02h-33.15v20.93h40.56v20.02h-64.34Z"/>
      <path class="st21" d="M524.15,173.61l-5.85-22.75h-29.25l-5.72,22.75h-24.18l30.68-99.05h28.47l30.81,99.05h-24.96ZM493.6,132.53h20.28l-2.21-8.45c-.95-3.55-2.34-9.23-4.16-17.03-1.65-6.76-2.86-11.7-3.64-14.82h-.52c-1.73,7.89-4.29,18.5-7.67,31.85l-2.08,8.45Z"/>
      <path class="st21" d="M579.28,173.61v-79.29h-26.78v-19.76h77.47v19.76h-26.91v79.29h-23.79.01Z"/>
      <path class="st21" d="M645.85,173.61v-99.05h23.79v99.05h-23.79Z"/>
      <path class="st21" d="M733.87,175.42c-14.99,0-26.61-5.37-34.84-16.12-7.02-9.27-10.53-21.19-10.53-35.75,0-18.8,5.63-32.71,16.9-41.73,7.71-6.06,17.2-9.1,28.47-9.1,15.34,0,27.12,5.42,35.36,16.25,6.76,9.01,10.14,20.54,10.14,34.58,0,18.29-5.33,32.11-15.99,41.47-7.97,6.93-17.81,10.4-29.51,10.4h0ZM733.87,155.02c8.06,0,13.99-4.25,17.81-12.74,2.25-5.2,3.38-11.44,3.38-18.72,0-13.34-3.51-22.44-10.53-27.3-3.12-2.17-6.67-3.25-10.66-3.25-8.49,0-14.52,4.46-18.07,13.39-1.91,4.77-2.86,10.49-2.86,17.16,0,13.43,3.38,22.75,10.14,27.95,3.12,2.34,6.71,3.51,10.79,3.51h0Z"/>
      <path class="st21" d="M798.22,173.61v-99.05h24.18l24.7,47.45,9.75,21.97h.65c-2.17-17.59-3.25-29.81-3.25-36.66v-32.76h22.62v99.05h-24.18l-24.57-47.84-9.62-21.71h-.65c.17,1.91.48,4.94.91,9.1,1.38,12.48,2.08,21.67,2.08,27.56v32.89h-22.62Z"/>
    </g>
    <g>
      <path class="st21" d="M48.92,202.42h-19.81v4.39h15.82v16.76c0,2.86-.66,4.81-1.97,5.86-.33.23-.67.44-1.03.64-1.61.76-4.29,1.15-8.03,1.18h-.99c-.3-2.1-1.12-4.5-2.46-7.2,1.35.1,3.25.15,5.72.15.72-.07,1.1-.33,1.13-.79v-9.46h-8.18v23.21h-7.69v-23.21h-7.29v17.2h-7.44v-24.35h14.74v-4.39H2.1v-7.2h19.22v-6.26h7.93v6.26h19.66v7.2h0Z"/>
      <path class="st21" d="M100.13,215.44h-19.86c-.23.49-.58,1.08-1.03,1.77h20.01s-.05.84-.15,2.42c-.56,8.18-1.4,13.12-2.51,14.83-.1.16-.2.3-.3.39-.92,1.05-2.14,1.69-3.65,1.92-1.18.2-2.92.26-5.22.2-.13-1.84-.53-3.47-1.18-4.88-1.64,2.2-3.29,3.94-4.93,5.22-1.54-1.68-3.27-3.02-5.17-4.04,3.45-2.1,6.39-5.42,8.82-9.96.07-.13.13-.26.2-.39h-1.77c-2.23,3.78-5.17,7.15-8.82,10.1-.95.79-1.87,1.46-2.76,2.02-1.38-1.71-2.97-3.14-4.78-4.29,3.48-1.71,6.67-4.32,9.56-7.84h-1.77c-1.68,1.74-3.45,3.22-5.32,4.44-.89-.99-2.14-2.17-3.75-3.55-4.04,2.07-7.82,3.96-11.34,5.67l-2.71-7.44c.76-.26,2.71-.99,5.86-2.17v-13.31h-4.63v-6.95h4.63v-9.66h6.8v9.66h4.24v6.95h-4.24v10.55l3.4-1.43,1.13,4.39c1.71-1.51,3.1-3.06,4.19-4.63h-4.98v-6.11h32.03v6.11h0ZM96.73,190.35v17.54h-24.49v-17.54h24.49ZM89.98,196.81v-1.53h-11.29v1.53h11.29ZM89.98,202.97v-1.53h-11.29v1.53h11.29ZM92.14,222.93h-.84c-1.25,3.09-2.78,5.91-4.58,8.48.69.03,1.46.05,2.32.05.66-.03,1.15-.25,1.48-.64.69-.79,1.23-3.42,1.63-7.89h-.01Z"/>
      <path class="st21" d="M118.91,189.96h17.94c1.68,6.41,4.8,11.57,9.36,15.47,1.61,1.35,3.33,2.46,5.17,3.35-1.61,1.51-3.17,3.5-4.68,5.96-.23.36-.41.67-.54.94-1.51-.92-2.92-1.97-4.24-3.15-.49,10.74-1.27,17.43-2.32,20.06-.26.66-.56,1.18-.89,1.58-1.15,1.41-2.69,2.28-4.63,2.61-.2.03-.39.07-.59.1-1.41.2-3.93.26-7.54.2-.16-2.27-.87-4.47-2.12-6.6-.13-.2-.25-.38-.34-.54,2.23.17,4.44.25,6.6.25.92-.03,1.63-.26,2.12-.69,1.02-1.08,1.74-5.8,2.17-14.14h-8.18c-2.27,9.99-7.02,17.1-14.24,21.34-.39.23-.79.44-1.18.64-1.12-1.45-2.81-3.12-5.08-5.03-.26-.2-.49-.38-.69-.54,6.9-2.92,11.32-8.39,13.26-16.41h-6.41v-2.76c-1.05,1.28-2.23,2.5-3.55,3.65-1.48-1.64-3.4-3.38-5.77-5.22-.13-.1-.25-.18-.35-.25,3.81-2.83,6.82-6.9,9.02-12.22.43-1.05.8-2.1,1.13-3.15l7.79,1.87c-1.35,4.01-3.14,7.77-5.37,11.29h23.26c-2.86-3.55-5.13-7.49-6.8-11.83h-12.32v-6.78Z"/>
      <path class="st21" d="M174.31,217.16l-3.94,5.77c-.43-.99-1.28-2.71-2.56-5.17v19.37h-7v-17.1c-1.38,3.71-2.86,6.64-4.44,8.77-.56-1.77-1.69-4.07-3.4-6.9,2.69-3.45,4.88-8.02,6.55-13.7.16-.66.33-1.28.49-1.87h-5.62v-6.95h6.41v-10.2h7v10.2h5.72v6.95h-5.72v2.27c2.04,2.37,4.07,5.04,6.11,8.03.16.23.3.41.39.54h0ZM201.67,206.12v6.9h-5.96v24.05h-7.29v-24.05h-5.22c-.69,10.58-3.22,18.61-7.59,24.1-.79-1.25-2.15-2.55-4.09-3.89-.59-.39-1.12-.69-1.58-.89,3.88-4.96,5.93-12.32,6.16-22.08.03-.89.05-1.86.05-2.91v-14.98l5.62,1.58c5.45-1.38,9.64-2.79,12.57-4.24l6.16,5.72c-4.63,1.94-10.35,3.55-17.15,4.83v5.87h18.33-.01Z"/>
      <path class="st21" d="M245.93,210.06v6.06h-14.64v14.64h-6.01v-14.64h-14.64v-6.06h14.64v-14.64h6.01v14.64h14.64Z"/>
      <path class="st21" d="M290.24,224.26h-6.9v-25.38l-4.48,5.27c-1.35-1.54-2.1-2.42-2.27-2.61v2.32h-11.43v-1.63c-2.23,1.84-3.42,2.81-3.55,2.91h19.37v16.76h-16.02c-.03.39-.12.85-.25,1.38h17.1v13.7h-6.36v-1.18h-6.75v1.28h-6.11v-6.36c-.89,2.17-1.91,3.99-3.06,5.47-.89-1.18-2.2-2.43-3.94-3.75-.39-.3-.71-.51-.94-.64,3.25-4.37,4.88-10.99,4.88-19.86v-5.32l-.89.54c-.79-1.54-2.02-3.1-3.7-4.68-.26-.23-.49-.43-.69-.59,5.26-2.96,9.33-6.79,12.22-11.48.1-.16.18-.31.25-.44h6.51c4.5,3.42,7.87,6.29,10.1,8.62v-3.2h6.9v28.88h0ZM265.55,216.96h8.92v-1.38h-8.82l-.1,1.38ZM274.47,210.11h-8.72v1.28h8.72v-1.28ZM268.36,199.07h5.82c-1.18-1.15-2.27-2.12-3.25-2.91-.69.86-1.54,1.82-2.56,2.91h-.01ZM275.46,228.4h-6.75v2.22h6.75v-2.22ZM294.23,190.25h7.15v38.34c0,3.05-.59,5.14-1.77,6.26-.33.3-.71.56-1.13.79-1.94.95-5.21,1.43-9.81,1.43-.26-2.17-1.04-4.62-2.32-7.34-.03-.07-.05-.11-.05-.15,1.84.1,4.09.15,6.75.15.76-.07,1.15-.46,1.18-1.18v-38.29h0Z"/>
      <path class="st21" d="M311.14,236.23l-5.72-3.89c2.92-1.97,5.01-4.73,6.26-8.28.03-.1.07-.18.1-.25l6.16,2.22c-1.71,4.8-3.98,8.2-6.8,10.2h0ZM351.85,199.47v5.62h-44.11v-5.62h10.15l-.74-2.37h-6.9v-5.57h15.72v-2.37h7.39v2.37h15.72v5.57h-5.96c-.85,1.25-1.4,2.04-1.63,2.37h10.36ZM328.24,230.76h5.82c.95,0,1.56-.3,1.82-.89.2-.49.34-1.4.44-2.71,1.48.99,3.43,1.72,5.86,2.22.13.03.23.05.3.05-.43,3.22-1.4,5.29-2.91,6.21-1.08.62-2.69.94-4.83.94h-7.39c-3.84,0-6.33-.66-7.44-1.97-.89-1.05-1.33-2.81-1.33-5.27v-4.68h5.03l2.07-2.02h-12.86v-15.82h34.45v15.82h-15.08c1.54.76,2.79,1.5,3.75,2.22l-4.44,4.53c-1.35-1.12-3.29-2.32-5.82-3.6v3.45c0,.79.23,1.25.69,1.38.36.1.99.15,1.87.15h0ZM319.72,211.15v1.53h20.31v-1.53h-20.31ZM319.72,216.77v1.53h20.31v-1.53h-20.31ZM335.09,197.1h-10.69c.46,1.35.72,2.14.79,2.37h9.22l-.25-.05c.1-.3.3-.79.59-1.48.16-.39.28-.67.35-.84h-.01ZM340.32,226.23l5.72-3.1c3.42,3.15,5.93,6.09,7.54,8.82.13.17.23.33.3.49l-6.06,3.5c-1.25-2.53-3.38-5.4-6.41-8.62-.39-.39-.76-.75-1.08-1.08h-.01Z"/>
      <path class="st21" d="M398.48,194.54l5.22,3.65c-1.38,1.22-3.06,2.56-5.03,4.04,2.1.99,4.16,1.72,6.16,2.22-1.54,1.45-2.94,3.25-4.19,5.42-.07.13-.12.23-.15.3-1.84-.59-3.48-1.23-4.93-1.92v3.45c0,.66.02,1.04.05,1.13.13.13.26.2.39.2h.54c.2,0,.33-.02.39-.05.16-.1.3-.28.39-.54.07-.29.13-.99.2-2.07,1.18,1.02,2.78,1.86,4.78,2.51.13.03.23.07.3.1-.23,1.58-.53,2.66-.89,3.25-.49.72-1.17,1.23-2.02,1.53-.76.26-1.63.39-2.61.39h-2.61c-1.64-.03-2.88-.46-3.7-1.28-.85-1.18-1.3-2.91-1.33-5.17v-2.02h-3.3c-.39,4.14-2.09,7.26-5.08,9.36h13.85l1.08-.15,3.99,1.28c-1.28,3.91-3.06,7.03-5.32,9.36,2.4.82,5.03,1.4,7.89,1.73-1.51,1.45-2.86,3.3-4.04,5.57-.07.13-.12.23-.15.3-3.65-.72-6.79-1.86-9.41-3.4-2.6,1.41-5.95,2.55-10.05,3.4-.82-2.1-1.79-3.81-2.91-5.12-.33,1.25-.77,2.18-1.33,2.81-.99,1.08-2.42,1.74-4.29,1.97h-.15c-1.61.16-3.86.21-6.75.15-.2-2.33-.89-4.39-2.07-6.16,1.97.17,3.94.25,5.91.25.89-.03,1.51-.18,1.87-.44.49-.53.89-2.18,1.18-4.98h-5.08l-.3,1.08-5.86-.89c1.21-4.63,2.14-9.02,2.76-13.16h8.82v-2.61h-8.03v-.25c-.89.36-1.79.72-2.71,1.08-1.05-1.97-2.35-3.76-3.89-5.37,2.63-.76,5.16-1.86,7.59-3.3-1.68-1.05-3.01-1.82-3.99-2.32l3.65-3.45h-1.77v-5.67h13.01l1.18-.25,4.53,2.17c-1.94,4.76-4.93,8.74-8.97,11.93h5.82v9.46c1.97-1.71,2.99-3.86,3.06-6.46v-3.35h9.31c-4.01-3.35-7.23-7.82-9.66-13.41l5.82-1.68c.49,1.12,1.3,2.51,2.42,4.19,1.58-1.48,2.78-2.76,3.6-3.84l5.27,3.65c-1.77,1.51-3.58,2.91-5.42,4.19.79.72,1.53,1.35,2.22,1.87,1.94-1.68,3.52-3.24,4.73-4.68h0ZM370.54,196.41h-5.82c.99.46,2.27,1.15,3.84,2.07.66-.62,1.31-1.31,1.97-2.07h.01ZM384.09,223.81h-5.17v-4.78h1.53c-.89-1.12-1.99-2.25-3.3-3.4v2.76h-6.41v-.49h-3.79l-.54,2.46h10.84s-.05.84-.15,2.41c-.26,4.27-.61,7.29-1.04,9.07,2.83-.46,5.44-1.17,7.84-2.12-1.48-1.61-2.68-3.25-3.6-4.93l3.79-.99h0ZM391.63,223.81h-5.52c.79,1.05,1.76,1.99,2.91,2.81,1.12-.95,1.99-1.89,2.61-2.81Z"/>
      <path class="st21" d="M415.98,220.12v-7.93c-1.51,2.33-2.99,4.19-4.44,5.57-1.18-1.74-2.68-3.37-4.48-4.88-.1-.07-.18-.13-.25-.2,2.92-2.17,5.49-5.34,7.69-9.51l.39-.79h-6.75v-6.16h7.84v-6.95h6.95v6.95h6.6v6.16h-6.6v1.28c2.04,1.22,4.65,2.97,7.84,5.27l-3.84,5.87c-.82-.95-2.15-2.3-3.99-4.04v9.36h-6.96ZM413.76,234.26l-6.75-3.3c1.9-2.99,3.32-6.49,4.24-10.5l6.55,2.56c-1.22,4.9-2.56,8.64-4.04,11.24h0ZM455.75,229.97l-6.9,3.55c-.72-1.64-1.89-3.76-3.5-6.36-.49,3.84-1.48,6.36-2.96,7.54-1.25.95-3.22,1.43-5.91,1.43h-8.38c-4.17,0-6.9-.76-8.18-2.27-.95-1.18-1.43-3.12-1.43-5.82v-6.31h7.24v6.21c0,.86.28,1.36.84,1.53.39.13,1.17.2,2.32.2h7c1.15,0,1.91-.36,2.27-1.08.33-.72.56-2.28.69-4.68,1.35.95,3.35,1.77,6.01,2.46l-2.07-3.4,6.41-3.06c3.58,5.29,5.77,8.64,6.55,10.05h0ZM426.18,221.69l4.98-4.09.25.2v-26.12h21.14v27.8h-19.22c2.27,2.04,3.83,3.55,4.68,4.53l-5.27,4.53c-1.12-1.45-3.3-3.73-6.55-6.85h-.01ZM438.06,197.35v1.92h7.49v-1.92h-7.49ZM438.06,204.59v1.97h7.49v-1.97h-7.49ZM438.06,211.79v2.02h7.49v-2.02h-7.49Z"/>
    </g>
    <rect class="st21" x="2.1" y="173.23" width="874.77" height="2.19"/>
  </g>
  <g id="_圖層_2_拷貝">
    <g id="_圖層_1-21" data-name="_圖層_1-2" class="st22">
      <g>
        <g>
          <g>
            <path class="st21" d="M416.29,161.88l-5.41-35.17,2.25-.45c14.65,24.12,26.6,41.03,47.35,41.03,24.35,0,34.72-23,34.72-50.5,0-31.11-13.53-46.22-36.98-46.22-12.85,0-22.55,4.28-29.99,9.92l-2.03-2.71,61.55-51.86h-71.7l9.7-22.55h93.57v2.25l-74.4,62.68c4.96-2.25,11.72-3.38,19.39-3.38,28.86,0,56.82,16.91,56.82,51.63,0,32.69-25.03,55.24-62,55.24-16.23,0-33.59-4.28-42.84-9.92h0Z"/>
            <path class="st21" d="M535.79,161.88l-5.64-35.17,2.25-.45c12.85,23.67,25.03,41.03,43.74,41.03,20.52,0,35.17-18.26,35.17-50.5s-14.43-48.47-39.91-48.47c-11.27,0-21.19,2.93-30.66,9.47l-1.8-.9,12.17-73.5h82.52l-4.28,22.55h-76.88l-7.67,45.77c9.69-5.86,19.84-8.79,32.69-8.79,30.89,0,58.39,16.46,58.39,52.53s-26.38,56.37-60.2,56.37c-17.59,0-31.34-4.28-39.91-9.92l.02-.02h0Z"/>
            <path class="st21" d="M650.1,85.9c0-48.93,29.54-85.9,67.41-85.9s67.86,36.98,67.86,85.9-29.99,85.9-67.86,85.9-67.41-36.98-67.41-85.9ZM756.74,85.9c0-46.67-9.69-81.39-39.23-81.39s-38.78,34.72-38.78,81.39,9.69,81.39,38.78,81.39,39.23-34.72,39.23-81.39Z"/>
          </g>
          <path class="st21" d="M806.57,161.74c8.39-8.04,16.52-22.43,19.61-31.79l9.89,3.97c-.35,1.06-1.15,1.68-3.53,1.68-5.03,9.19-14.31,20.4-24.91,27.03l-1.06-.88h0ZM870.25,115.82s5.65,4.24,9.1,7.33c-.27.97-1.15,1.41-2.38,1.41h-29.85v42.66c0,.88-3.18,2.65-6.01,2.65h-1.5v-45.31h-31.62l-.71-2.56h32.32v-33.65l10.77,1.24c-.27,1.24-.97,2.03-3.27,2.38v30.03h18.28l4.86-6.18s.01,0,.01,0ZM814.25,93.92c24.82,12.1,19.43,28.53,11.83,22.87-1.77-7.24-8.04-16.34-12.89-22.26l1.06-.62h0ZM853.11,131.54c29.76,16.07,24.91,34.62,16.6,28.53-2.47-8.83-11.13-20.31-17.66-27.82l1.06-.71ZM875.28,97.27c-.44,1.06-1.59,1.77-3.53,1.5-4.86,7.6-11.22,14.48-17.4,18.99l-1.15-.8c3.97-5.83,8.48-15.19,11.66-24.02l10.42,4.33h0Z"/>
        </g>
        <g>
          <path class="st21" d="M52.04,232.4l4.91,3.91c-.44.5-1.2.82-2.39.95-.69,5.67-1.95,9.07-4.16,10.52-1.45.88-3.47,1.39-5.61,1.39,0-1.26-.25-2.46-.94-3.09-.82-.69-2.46-1.2-4.35-1.51v-.19c-.25-.06-.5-.19-.76-.38-.44-1.89-2.14-4.1-3.78-5.23l.57-.57c6.74.63,7.75,4.03,6.49,5.54,1.58.13,3.15.19,3.84.19.82,0,1.39-.06,1.76-.44.88-.63,1.7-2.96,2.2-6.8H16.44v1.26c0,.5-2.08,1.64-4.16,1.64h-.76v-26.59l5.29,2.27h6.05c.38-1.32.82-3.02,1.2-4.28H7.81c0,3.4-1.45,5.8-3.09,6.8-1.58.95-3.72.88-4.41-.69-.5-1.51.44-2.77,1.89-3.53,1.95-1.2,3.84-4.35,3.72-7.62h1.07c.38,1.07.63,2.21.76,3.21h42.72l2.9-2.84,5.04,4.91c-.5.44-1.2.57-2.46.63-1.45,1.76-4.35,4.47-6.43,5.99l-.82-.38c.63-1.7,1.45-4.35,2.02-6.49h-25.39l5.67,1.39c-.19.82-1.07,1.26-2.46,1.2-.76.5-1.7,1.13-2.65,1.7h13.48l2.46-2.58,5.29,3.97c-.38.44-1.2.88-2.27,1.07v9.51c-.06.5-2.46,1.51-4.1,1.51h-.82v-1.76h-23.5v3.02h28.54l3.15-3.78s3.53,2.65,5.73,4.6c-.13.69-.76,1.01-1.64,1.01H16.44v2.96h33.01l2.58-2.39h.01ZM10.65,238.44c1.2,5.23-1.39,8.69-3.97,9.83-1.64.69-3.97.38-4.54-1.32-.44-1.58.69-2.84,2.21-3.47,2.14-.69,4.91-2.58,5.29-5.1l1.01.06h0ZM6.05,193.59c10.84,3.02,7.12,10.4,3.47,7.56-.38-2.46-2.39-5.48-4.1-7.12,0,0,.63-.44.63-.44ZM7.62,207.76c7.5-4.16,7.5-9.77,7.56-16.76l6.05.57c-.13.76-.63,1.39-1.89,1.58-.13,1.83-.25,3.53-.57,5.23,2.08-1.45,4.41-3.28,5.92-4.54l4.41,3.28c-.31.5-.88.69-2.08.38-2.08.76-5.67,1.89-8.57,2.65,11.97,2.02,9.89,9.89,5.67,7.75-1.07-2.14-3.78-4.79-6.3-6.55-1.32,2.9-4.03,5.42-9.39,7.43l-.82-1.01h.01ZM17.07,238.51c8.57,5.54,2.71,11.84-.38,7.88.5-2.52.13-5.61-.44-7.69l.82-.19ZM16.44,217.09v3.28h23.5v-3.28h-23.5ZM39.94,225.09v-2.84h-23.5v2.84h23.5ZM26.08,238.26c10.46,3.53,5.86,11.09,2.14,7.75,0-2.52-1.39-5.54-2.84-7.31l.69-.44h.01ZM29.36,193.46c10.84,2.71,7.31,10.02,3.65,7.31-.44-2.39-2.46-5.23-4.35-6.8l.69-.5h0ZM28.79,207.95c10.14-3.91,10.08-9.45,10.21-17.14l6.11.57c-.06.69-.57,1.39-1.83,1.51-.13,2.14-.25,4.22-.82,6.11,2.46-1.76,5.36-4.22,7.18-5.73l4.66,3.65c-.32.5-.88.63-2.08.25-2.14.88-5.73,2.02-8.76,2.9,10.58,2.14,8.76,9.39,4.6,7.5-1.07-2.14-3.91-4.66-6.36-6.49-1.64,3.21-4.98,5.86-12.22,7.81l-.69-.95h0Z"/>
          <path class="st21" d="M80.77,212.93c12.1,5.42,7.94,13.61,3.91,10.21-.44-2.65-2.2-5.92-3.91-8.51v32.76c0,.63-2.02,1.76-3.65,1.76h-1.01v-28.04c-2.14,4.85-4.85,9.39-8.25,13.29l-.94-.76c4.35-7.25,6.87-16.63,8.25-25.96h-7.5l-.5-1.83h8.95v-15.18l6.99.76c-.19.94-.69,1.51-2.33,1.76v12.66h.57l2.71-3.72s3.15,2.65,5.04,4.54c-.19.69-.82,1.01-1.64,1.01h-6.68v5.25h0ZM97.34,191.19l6.68.69c-.13.88-.63,1.51-2.27,1.76v27.78c-.06,12.92-4.16,21.86-17.33,27.66l-.69-.82c10.02-6.05,13.48-14.24,13.61-26.21-1.89,2.39-4.28,5.29-7.18,8.63,0,.76-.31,1.51-.88,1.89l-3.72-5.04c2.08-1.2,6.93-4.16,11.78-7.5v-28.86.02ZM88.77,201.52c12.16,7.12,7.94,16.19,3.84,12.35-.25-3.84-2.58-8.82-4.6-11.97l.76-.38ZM123.86,242.29c1.39.57,1.83,1.07,1.83,2.02,0,1.89-2.02,2.71-9.01,2.71h-4.03c-4.28,0-5.29-1.39-5.29-4.66v-51.1l6.74.76c-.06.88-.63,1.51-2.21,1.76v17.01c2.33-3.59,4.79-7.75,5.92-10.21l6.05,3.91c-.31.57-1.2,1.07-2.46.63-2.08,2.08-5.86,5.54-9.51,8.19v5.29c14.49,5.92,10.96,15.5,6.17,12.1-.82-3.28-3.53-7.18-6.17-10.14v20.41c0,1.26.25,1.7,1.89,1.7h3.09c1.39,0,2.52,0,3.15-.06.44,0,.69-.13,1.01-.57.44-.69,1.2-4.1,1.76-6.87h.82l.25,7.12Z"/>
          <path class="st21" d="M148.81,218.66c12.22,4.91,8.76,12.73,4.73,9.77-.57-2.65-2.71-5.73-4.73-8.19v26.97c0,.44-1.7,1.7-4.03,1.7h-.82v-25.52c-2.9,2.84-6.11,5.42-9.32,7.43l-.69-.57c6.93-6.24,13.61-16.13,16.63-24.19h-14.87l-.57-1.83h15.31l3.09-2.96,5.17,5.04c-.57.5-1.39.57-2.83.76-1.7,3.53-4.1,7.31-7.06,10.96v.63h0ZM142.19,191.07c13.67,3.97,9.07,13.23,4.41,9.58-.5-3.09-2.96-6.87-5.04-9.14l.63-.44h0ZM186.99,191.82s3.59,2.77,5.86,4.85c-.19.69-.82,1.01-1.7,1.01h-33.33l-.5-1.83h26.52l3.15-4.03ZM187.05,219.29l5.54,4.35c-.38.5-1.39,1.01-2.71,1.26v22.24c-.06.38-2.39,1.45-3.97,1.45h-.82v-3.46h-22.05v2.27c0,.5-2.02,1.57-3.97,1.57h-.76v-29.04l5.04,2.21h21.11l2.58-2.84h.01ZM182.14,217.65v-2.2h-15.81v1.45c0,.38-2.14,1.45-3.97,1.45h-.69v-17.01l4.98,2.21h14.87l2.58-2.77,5.61,4.22c-.44.5-1.45,1.01-2.71,1.26v10.02c-.06.38-2.46,1.39-4.03,1.39h-.82v-.02h0ZM163.05,224.02v8.32h8.95v-8.32h-8.95ZM163.05,243.3h8.95v-9.07h-8.95v9.07h0ZM182.14,213.62v-8.25h-15.81v8.25h15.81ZM176.34,224.02v8.32h8.76v-8.32h-8.76ZM185.1,243.3v-9.07h-8.76v9.07h8.76Z"/>
          <path class="st21" d="M221.45,207.07c-.38.69-.88,1.01-2.39.88-1.2,2.08-2.65,4.47-4.41,6.99l2.46.94c-.19.5-.82.88-1.89,1.07v30.3c-.06.44-2.02,1.76-3.97,1.76h-.95v-28.48c-2.46,2.77-5.1,5.48-8,7.75l-.69-.69c5.61-6.74,10.52-16.95,12.73-23.82l7.12,3.28v.02h0ZM221.01,194.53c-.38.69-.88,1.01-2.39.69-3.53,4.41-9.64,10.33-16.07,14.24l-.63-.76c5.04-5.04,10.21-12.66,12.6-17.77l6.49,3.59h0ZM224.15,231.01c1.58,6.05.25,10.4-1.51,12.41-1.26,1.39-3.84,1.64-4.79.06-.76-1.45,0-2.9,1.39-3.91,1.76-1.45,3.91-5.17,3.84-8.63l1.07.06h0ZM255.97,220.93c0,.19-.44.5-1.13.76.88.63,3.78,2.71,5.67,4.35-.19.69-.82,1.01-1.76,1.01h-39.06l-.5-1.83h32.26l2.84-3.34c-.5.13-1.2.25-2.02.25h-.76v-1.95h-24.45v1.51c0,.38-1.39,1.26-3.59,1.26h-.69v-19.03l5.04,2.14h7.43c.32-1.7.63-3.78.94-6.05h-16.51l-.5-1.83h17.26c.38-2.46.76-5.1,1.01-7.37l7.18,1.83c-.25.88-1.01,1.39-2.33,1.39l-.69,4.16h9.89l3.21-4.1s3.72,2.84,5.92,4.91c-.19.69-.82,1.01-1.7,1.01h-17.58c-.38,2.14-.69,4.22-1.01,6.05h11.03l2.14-2.58,4.73,3.65c-.38.5-1.01.82-2.27,1.01v12.79h0ZM227.05,218.35h5.73v-10.46h-5.73v10.46ZM250.55,242.48c1.45.5,1.83,1.01,1.83,1.89,0,1.95-2.08,2.84-11.59,2.84h-6.62c-5.04,0-5.92-.95-5.92-4.22v-13.23l6.3.63c-.06.76-.69,1.39-1.83,1.58v10.08c0,.82.25,1.01,2.33,1.01h5.99c2.52,0,4.66,0,5.48-.06.63-.06.88-.19,1.26-.69.44-.82,1.13-3.34,1.76-6.24h.82l.19,6.43v-.02h0ZM236.44,227.73c12.66,4.91,8.06,14.24,3.84,10.52,0-3.4-2.33-7.62-4.54-10.08l.69-.44h0ZM236.69,207.89v10.46h5.48v-10.46h-5.48ZM251.5,218.35v-10.46h-5.36v10.46h5.36ZM250.24,230.38c14.62,5.8,10.52,16.38,5.8,12.66-.44-4.1-3.59-9.14-6.55-12.16l.76-.5h0Z"/>
          <path class="st21" d="M294.34,211.98c-.25.76-.94,1.32-2.39,1.26-1.64,6.11-4.47,15.18-7.25,22.68,3.21-.76,6.55-1.64,9.95-2.52l.25.88c-4.91,2.33-11.72,5.73-21.3,9.77-.19.76-.76,1.39-1.45,1.58l-2.9-6.05c2.65-.44,7.75-1.7,13.8-3.21,1.39-8.19,3.02-18.9,4.03-26.46l7.25,2.08h.01ZM291.88,201.34s3.53,3.02,5.61,5.17c-.19.69-.82,1.01-1.7,1.01h-25.89l-.5-1.83h19.41l3.09-4.35h-.02,0ZM273.11,210.66c12.41,14.81,5.92,26.46,2.71,21.42,0-5.04-.57-14.43-3.53-21.04l.82-.38ZM277.39,191.07c12.92,6.68,8,16.32,3.47,12.16-.38-3.78-2.52-8.57-4.22-11.78l.76-.38h-.01ZM321.87,201.9s3.47,2.77,5.48,4.79c-.13.69-.76,1.01-1.58,1.01h-14.18v13.36h5.73l2.52-2.96,5.23,4.03c-.44.57-1.07.88-2.46,1.13v23.75c0,.32-1.83,1.39-4.22,1.39h-.82v-4.16h-16.95v3.28c0,.38-1.51,1.39-4.03,1.39h-.76v-30.18l5.54,2.33h5.29v-30.18l7.25.76c-.13.88-.69,1.51-2.33,1.76v12.41h7.31l2.96-3.91h.02,0ZM300.64,222.88v19.53h16.95v-19.53h-16.95Z"/>
        </g>
        <line class="st23" y1="172.34" x2="879.34" y2="172.34"/>
      </g>
    </g>
    <g>
      <path class="st0" d="M854.25,74.56v32.76c0,6.85,1.08,19.07,3.25,36.66h-.65l-9.75-21.97-24.7-47.45h-24.18v98.67h-49.46c5.42-1.72,10.29-4.45,14.62-8.21,10.66-9.36,15.99-23.18,15.99-41.47,0-14.04-3.38-25.57-10.14-34.58-8.24-10.83-20.02-16.25-35.36-16.25-11.27,0-20.76,3.04-28.47,9.1-11.27,9.02-16.9,22.93-16.9,41.73,0,14.56,3.51,26.48,10.53,35.75,5.2,6.79,11.76,11.43,19.66,13.93h-49.05v-98.67h-23.79v98.67h-42.79v-78.91h26.91v-19.76h-77.47v19.76h26.78v78.91h-30.29l-30.69-98.67h-28.47l-30.56,98.67h-7.81v-19.63h-40.56v-20.93h33.15v-20.02h-33.15v-18.33h39v-19.76h-62.78v98.67h-60.31c6.85-.72,13-2.45,18.44-5.2,15.25-7.8,22.88-22.62,22.88-44.46,0-8.67-1.3-16.29-3.9-22.88-6.85-17.42-22.28-26.13-46.28-26.13h-28.47v98.67h-23.41v-98.67h-23.79v98.67H2.1v2.19h874.77v-100.86h-22.62ZM715.8,106.4c3.55-8.93,9.58-13.39,18.07-13.39,3.99,0,7.54,1.08,10.66,3.25,7.02,4.86,10.53,13.96,10.53,27.3,0,7.28-1.13,13.52-3.38,18.72-3.82,8.49-9.75,12.74-17.81,12.74-4.08,0-7.67-1.17-10.79-3.51-6.76-5.2-10.14-14.52-10.14-27.95,0-6.67.95-12.39,2.86-17.16ZM313.27,93.53h3.25c3.81,0,7.19.39,10.14,1.17,11.44,2.95,17.16,12.57,17.16,28.86,0,2.69-.17,5.25-.52,7.67-2,15.52-10.92,23.27-26.78,23.27h-3.25v-60.97ZM495.68,124.08c3.38-13.35,5.94-23.96,7.67-31.85h.52c.78,3.12,1.99,8.06,3.64,14.82,1.82,7.8,3.21,13.48,4.16,17.03l2.21,8.45h-20.28l2.08-8.45ZM489.05,150.86h29.25l5.75,22.37h-40.63l5.62-22.37ZM820.84,173.23v-32.51c0-5.89-.7-15.08-2.08-27.56-.43-4.16-.74-7.19-.91-9.1h.65l9.62,21.71,24.37,47.46h-31.65Z"/>
      <path class="st14" d="M48.92,202.42h-.01v-7.21h-19.66v-6.26h-7.93v6.26H2.1v7.2h19.34v4.39H6.7v24.35h7.44v-17.2h7.29v23.21h7.69v-23.21h8.18v9.46c-.03.46-.41.72-1.13.79-2.47,0-4.37-.05-5.72-.15,1.34,2.7,2.16,5.1,2.46,7.2h.99c3.74-.03,6.42-.42,8.03-1.18.36-.2.7-.41,1.03-.64,1.31-1.05,1.97-3,1.97-5.86v-16.76h-15.82v-4.39h19.81Z"/>
      <path class="st17" d="M72.24,190.35v17.54h24.49v-17.54h-24.49ZM89.98,202.97h-11.29v-1.53h11.29v1.53ZM89.98,196.81h-11.29v-1.53h11.29v1.53Z"/>
      <path class="st18" d="M68.1,215.43h4.98c-1.09,1.57-2.48,3.12-4.19,4.63l-1.13-4.39-3.4,1.43v-10.55h4.24v-6.95h-4.24v-9.66h-6.8v9.66h-4.63v6.95h4.63v13.31c-3.15,1.18-5.1,1.91-5.86,2.17l2.71,7.44c3.52-1.71,7.3-3.6,11.34-5.67,1.61,1.38,2.86,2.56,3.75,3.55,1.87-1.22,3.64-2.7,5.32-4.44h1.77c-2.89,3.52-6.08,6.13-9.56,7.84,1.81,1.15,3.4,2.58,4.78,4.29.89-.56,1.81-1.23,2.76-2.02,3.65-2.95,6.59-6.32,8.82-10.1h1.77c-.07.13-.13.26-.2.39-2.43,4.54-5.37,7.86-8.82,9.96,1.9,1.02,3.63,2.36,5.17,4.04,1.64-1.28,3.29-3.02,4.93-5.22.65,1.41,1.05,3.04,1.18,4.88,2.3.06,4.04,0,5.22-.2,1.51-.23,2.73-.87,3.65-1.92.1-.09.2-.23.3-.39,1.11-1.71,1.95-6.65,2.51-14.83.1-1.58.15-2.42.15-2.42h-20.01c.45-.69.8-1.28,1.03-1.77h19.86v-6.12h-32.03v6.11ZM91.3,222.93h.85c-.4,4.47-.94,7.1-1.63,7.89-.33.39-.82.61-1.48.64-.86,0-1.63-.02-2.32-.05,1.8-2.57,3.33-5.39,4.58-8.48Z"/>
      <path class="st19" d="M136.85,189.96h-17.94v.03s-.01,6.75-.01,6.75h12.32c1.67,4.34,3.94,8.28,6.8,11.83h-23.26c2.23-3.52,4.02-7.28,5.37-11.29l-7.79-1.87c-.33,1.05-.7,2.1-1.13,3.15-2.2,5.32-5.21,9.39-9.02,12.22.1.07.22.15.35.25,2.37,1.84,4.29,3.58,5.77,5.22,1.32-1.15,2.5-2.37,3.55-3.65v2.76h6.41c-1.94,8.02-6.36,13.49-13.26,16.41.2.16.43.34.69.54,2.27,1.91,3.96,3.58,5.08,5.03.39-.2.79-.41,1.18-.64,7.22-4.24,11.97-11.35,14.24-21.34h8.18c-.43,8.34-1.15,13.06-2.17,14.14-.49.43-1.2.66-2.12.69-2.16,0-4.37-.08-6.6-.25.09.16.21.34.34.54,1.25,2.13,1.96,4.33,2.12,6.6,3.61.06,6.13,0,7.54-.2.2-.03.39-.07.59-.1,1.94-.33,3.48-1.2,4.63-2.61.33-.4.63-.92.89-1.58,1.05-2.63,1.83-9.32,2.32-20.06,1.32,1.18,2.73,2.23,4.24,3.15.13-.27.31-.58.54-.94,1.51-2.46,3.07-4.45,4.68-5.96-1.84-.89-3.56-2-5.17-3.35-4.56-3.9-7.68-9.06-9.36-15.47Z"/>
      <path class="st16" d="M183.35,200.26c6.8-1.28,12.52-2.89,17.15-4.83l-6.16-5.72c-2.93,1.45-7.12,2.86-12.57,4.24l-5.62-1.58v14.98c0,1.05-.02,2.02-.05,2.91-.23,9.76-2.28,17.12-6.16,22.08.46.2.99.5,1.58.89,1.94,1.34,3.3,2.64,4.09,3.89,4.37-5.49,6.9-13.52,7.59-24.1h5.22v24.05h7.29v-24.05h5.96v-6.89h-18.32v-5.87Z"/>
      <polygon class="st12" points="201.67 206.12 201.67 206.13 201.68 206.13 201.67 206.12"/>
      <path class="st13" d="M174.31,217.16h0c-.09-.12-.23-.3-.39-.53-2.04-2.99-4.07-5.66-6.11-8.03v-2.27h5.72v-6.95h-5.72v-10.2h-7v10.2h-6.41v6.95h5.62c-.16.59-.33,1.21-.49,1.87-1.67,5.68-3.86,10.25-6.55,13.7,1.71,2.83,2.84,5.13,3.4,6.9,1.58-2.13,3.06-5.06,4.44-8.77v17.1h7v-19.37c1.28,2.46,2.13,4.18,2.56,5.17l3.94-5.77Z"/>
      <polygon class="st15" points="231.29 195.42 225.28 195.42 225.28 210.06 210.64 210.06 210.64 216.12 225.28 216.12 225.28 230.76 231.29 230.76 231.29 216.12 245.93 216.12 245.93 210.06 231.29 210.06 231.29 195.42"/>
      <polygon class="st20" points="290.24 224.26 290.23 224.26 290.23 224.27 290.24 224.26"/>
      <path class="st8" d="M294.23,190.26v38.29c-.03.72-.42,1.11-1.18,1.18-2.66,0-4.91-.05-6.75-.15,0,.04.02.08.05.15,1.28,2.72,2.06,5.17,2.32,7.34,4.6,0,7.87-.48,9.81-1.43.42-.23.8-.49,1.13-.79,1.18-1.12,1.77-3.21,1.77-6.26v-38.34h-7.15Z"/>
      <path class="st11" d="M290.23,224.26v-28.87h-6.9v3.2c-2.23-2.33-5.6-5.2-10.1-8.62h-6.51c-.07.13-.15.28-.25.44-2.89,4.69-6.96,8.52-12.22,11.48.2.16.43.36.69.59,1.68,1.58,2.91,3.14,3.7,4.68l.89-.54v5.32c0,8.87-1.63,15.49-4.88,19.86.23.13.55.34.94.64,1.74,1.32,3.05,2.57,3.94,3.75,1.15-1.48,2.17-3.3,3.06-5.47v6.36h6.11v-1.28h6.75v1.18h6.36v-13.7h-17.1c.13-.53.22-.99.25-1.38h16.02v-16.76h-19.37c.13-.1,1.32-1.07,3.55-2.91v1.63h11.43v-2.32c.17.19.92,1.07,2.27,2.61l4.48-5.27v25.38h6.89ZM268.71,228.4h6.75v2.22h-6.75v-2.22ZM265.75,210.11h8.72v1.28h-8.72v-1.28ZM265.65,215.58h8.82v1.38h-8.92l.1-1.38ZM268.37,199.07c1.02-1.09,1.87-2.05,2.56-2.91.98.79,2.07,1.76,3.25,2.91h-5.81Z"/>
      <path class="st10" d="M336.32,227.16c-.1,1.31-.24,2.22-.44,2.71-.26.59-.87.89-1.82.89h-5.82,0c-.88.01-1.51-.04-1.87-.14-.46-.13-.69-.59-.69-1.38v-3.45c2.53,1.28,4.47,2.48,5.82,3.6l4.44-4.53c-.96-.72-2.21-1.46-3.75-2.22h15.08v-15.82h-34.45v15.82h12.86l-2.07,2.02h-5.03v4.68c0,2.46.44,4.22,1.33,5.27,1.11,1.31,3.6,1.97,7.44,1.97h7.39c2.14,0,3.75-.32,4.83-.94,1.51-.92,2.48-2.99,2.91-6.21-.07,0-.17-.02-.3-.05-2.43-.5-4.38-1.23-5.86-2.22ZM319.72,211.15h20.31v1.53h-20.31v-1.53ZM319.72,218.3v-1.53h20.31v1.53h-20.31Z"/>
      <path class="st9" d="M307.74,205.09h44.11v-5.62h-10.36c.23-.33.78-1.12,1.63-2.37h5.96v-5.57h-15.72v-2.37h-7.39v2.37h-15.72v5.57h6.9l.74,2.37h-10.15v5.62ZM335.09,197.1h.01c-.07.17-.19.45-.35.84-.29.69-.49,1.18-.59,1.48l.25.05h-9.22c-.07-.23-.33-1.02-.79-2.37h10.69Z"/>
      <path class="st4" d="M311.68,224.06c-1.25,3.55-3.34,6.31-6.26,8.28l5.72,3.89h0c2.82-2,5.09-5.4,6.8-10.2l-6.16-2.22c-.03.07-.07.15-.1.25Z"/>
      <path class="st5" d="M346.04,223.13l-5.72,3.1h.01c.32.34.69.7,1.08,1.09,3.03,3.22,5.16,6.09,6.41,8.62l6.06-3.5c-.07-.16-.17-.32-.3-.49-1.61-2.73-4.12-5.67-7.54-8.82Z"/>
      <path class="st2" d="M400.49,210.17c.03-.07.08-.17.15-.3,1.25-2.17,2.65-3.97,4.19-5.42-2-.5-4.06-1.23-6.16-2.22,1.97-1.48,3.65-2.82,5.03-4.04l-5.22-3.65h0c-1.21,1.44-2.79,3-4.73,4.68-.69-.52-1.43-1.15-2.22-1.87,1.84-1.28,3.65-2.68,5.42-4.19l-5.27-3.65c-.82,1.08-2.02,2.36-3.6,3.84-1.12-1.68-1.93-3.07-2.42-4.19l-5.82,1.68c2.43,5.59,5.65,10.06,9.66,13.41h-9.31v3.35c-.07,2.6-1.09,4.75-3.06,6.46v-9.46h-5.82c4.04-3.19,7.03-7.17,8.97-11.93l-4.53-2.17-1.18.25h-13.01v5.67h1.77l-3.65,3.45c.98.5,2.31,1.27,3.99,2.32-2.43,1.44-4.96,2.54-7.59,3.3,1.54,1.61,2.84,3.4,3.89,5.37.92-.36,1.82-.72,2.71-1.08v.25h8.03v2.61h-8.82c-.62,4.14-1.55,8.53-2.76,13.16l5.86.89.3-1.08h5.08c-.29,2.8-.69,4.45-1.18,4.98-.36.26-.98.41-1.87.44-1.97,0-3.94-.08-5.91-.25,1.18,1.77,1.87,3.83,2.07,6.16,2.89.06,5.14.01,6.75-.15h.15c1.87-.23,3.3-.89,4.29-1.97.56-.63,1-1.56,1.33-2.81,1.12,1.31,2.09,3.02,2.91,5.12,4.1-.85,7.45-1.99,10.05-3.4,2.62,1.54,5.76,2.68,9.41,3.4.03-.07.08-.17.15-.3,1.18-2.27,2.53-4.12,4.04-5.57-2.86-.33-5.49-.91-7.89-1.73,2.26-2.33,4.04-5.45,5.32-9.36l-3.99-1.28-1.08.15h-13.85c2.99-2.1,4.69-5.22,5.08-9.36h3.3v2.02c.03,2.26.48,3.99,1.33,5.17.82.82,2.06,1.25,3.7,1.28h2.61c.98,0,1.85-.13,2.61-.39.85-.3,1.53-.81,2.02-1.53.36-.59.66-1.67.89-3.25-.07-.03-.17-.07-.3-.1-2-.65-3.6-1.49-4.78-2.51-.07,1.08-.13,1.78-.2,2.07-.09.26-.23.44-.39.54-.06.03-.19.05-.39.05h-.54c-.13,0-.26-.07-.39-.2-.03-.09-.05-.47-.05-1.13v-3.45c1.45.69,3.09,1.33,4.93,1.92ZM368.56,198.48c-1.57-.92-2.85-1.61-3.84-2.07h5.81c-.66.76-1.31,1.45-1.97,2.07ZM391.63,223.81c-.62.92-1.49,1.86-2.61,2.81-1.15-.82-2.12-1.76-2.91-2.81h5.52ZM384.05,223.81l-3.75.98c.92,1.68,2.12,3.32,3.6,4.93-2.4.95-5.01,1.66-7.84,2.12.43-1.78.78-4.8,1.04-9.07.1-1.57.15-2.41.15-2.41h-10.84l.54-2.46h3.79v.49h6.41v-2.76c1.31,1.15,2.41,2.28,3.3,3.4h-1.53v4.78h5.13Z"/>
      <path class="st3" d="M442.79,222.97l2.07,3.4c-2.66-.69-4.66-1.51-6.01-2.46-.13,2.4-.36,3.96-.69,4.68-.36.72-1.12,1.08-2.27,1.08h-7c-1.15,0-1.93-.07-2.32-.2-.56-.17-.84-.67-.84-1.53v-6.21h-7.24v6.31c0,2.7.48,4.64,1.43,5.82,1.28,1.51,4.01,2.27,8.18,2.27h8.38c2.69,0,4.66-.48,5.91-1.43,1.48-1.18,2.47-3.7,2.96-7.54,1.61,2.6,2.78,4.72,3.5,6.36l6.9-3.55h0c-.78-1.42-2.97-4.77-6.55-10.06l-6.41,3.06Z"/>
      <path class="st6" d="M406.81,212.68c.07.07.15.13.25.2,1.8,1.51,3.3,3.14,4.48,4.88,1.45-1.38,2.93-3.24,4.44-5.57v7.93h.01s6.95,0,6.95,0v-9.36c1.84,1.74,3.17,3.09,3.99,4.04l3.84-5.87c-3.19-2.3-5.8-4.05-7.84-5.27v-1.28h6.6v-6.16h-6.6v-6.95h-6.95v6.95h-7.84v6.16h6.75l-.39.79c-2.2,4.17-4.77,7.34-7.69,9.51Z"/>
      <path class="st7" d="M452.55,191.68h-21.14v26.12l-.25-.2-4.98,4.09h.01c3.25,3.12,5.43,5.4,6.55,6.85l5.27-4.53c-.85-.98-2.41-2.49-4.68-4.53h19.22v-27.8ZM445.55,213.81h-7.49v-2.02h7.49v2.02ZM445.55,206.56h-7.49v-1.97h7.49v1.97ZM445.55,199.27h-7.49v-1.92h7.49v1.92Z"/>
      <path class="st1" d="M407.01,230.96l6.75,3.3c1.48-2.6,2.82-6.34,4.04-11.24l-6.55-2.56c-.92,4.01-2.34,7.51-4.24,10.5Z"/>
    </g>
  </g>
</svg>