<?xml version="1.0" encoding="UTF-8"?>
<svg id="_圖層_2" xmlns="http://www.w3.org/2000/svg" xmlns:xlink="http://www.w3.org/1999/xlink" version="1.1" viewBox="0 0 410.42 121.94">
  <!-- Generator: Adobe Illustrator 30.4.0, SVG Export Plug-In . SVG Version: 2.1.4 Build 226)  -->
  <defs>
    <style>
      .st0 {
        fill: url(#_未命名漸層_17);
      }

      .st1 {
        fill: #fff;
      }

      .st2 {
        fill: url(#_未命名漸層_176);
      }

      .st3 {
        fill: url(#_未命名漸層_177);
      }

      .st4 {
        fill: url(#_未命名漸層_171);
      }

      .st5 {
        fill: url(#_未命名漸層_178);
      }

      .st6 {
        fill: url(#_未命名漸層_175);
      }

      .st7 {
        fill: url(#_未命名漸層_172);
      }

      .st8 {
        fill: url(#_未命名漸層_173);
      }

      .st9 {
        fill: url(#_未命名漸層_174);
      }

      .st10 {
        display: none;
      }
    </style>
    <linearGradient id="_未命名漸層_17" data-name="未命名漸層 17" x1="22.08" y1="73.36" x2="75.81" y2="73.36" gradientUnits="userSpaceOnUse">
      <stop offset="0" stop-color="#e6dbbb"/>
      <stop offset="1" stop-color="#c0a273"/>
    </linearGradient>
    <linearGradient id="_未命名漸層_171" data-name="未命名漸層 17" x1="80.3" y1="73.36" x2="120.87" y2="73.36" xlink:href="#_未命名漸層_17"/>
    <linearGradient id="_未命名漸層_172" data-name="未命名漸層 17" x1="129.73" x2="164.55" xlink:href="#_未命名漸層_17"/>
    <linearGradient id="_未命名漸層_173" data-name="未命名漸層 17" x1="171.5" x2="208.24" xlink:href="#_未命名漸層_17"/>
    <linearGradient id="_未命名漸層_174" data-name="未命名漸層 17" x1="224.39" y1="73.36" x2="257.61" y2="73.36" xlink:href="#_未命名漸層_17"/>
    <linearGradient id="_未命名漸層_175" data-name="未命名漸層 17" x1="265.56" x2="302.3" xlink:href="#_未命名漸層_17"/>
    <linearGradient id="_未命名漸層_176" data-name="未命名漸層 17" x1="307.57" x2="316.67" xlink:href="#_未命名漸層_17"/>
    <linearGradient id="_未命名漸層_177" data-name="未命名漸層 17" x1="327.74" x2="355.2" xlink:href="#_未命名漸層_17"/>
    <linearGradient id="_未命名漸層_178" data-name="未命名漸層 17" x1="363.04" x2="390.51" xlink:href="#_未命名漸層_17"/>
  </defs>
  <g id="_圖層_1-2" class="st10">
    <g>
      <path class="st1" d="M133.61,47.69h7.39V2.13h-7.39v-.93h11.66c.67,0,1.34,0,2.03-.03s1.39-.05,2.1-.1c.71,0,1.4,0,2.06-.03.67-.02,1.31-.03,1.93-.03,3.24,0,5.91.39,7.99,1.17,2.09.78,3.73,1.73,4.93,2.86,1.2,1.13,2.02,2.35,2.46,3.66.44,1.31.67,2.5.67,3.56,0,1.47-.32,2.82-.97,4.06-.64,1.24-1.51,2.33-2.6,3.26s-2.34,1.69-3.76,2.26c-1.42.58-2.91.96-4.46,1.13v.13c1.6.13,3.23.48,4.9,1.03,1.66.56,3.17,1.33,4.53,2.33s2.45,2.23,3.3,3.7c.84,1.47,1.27,3.15,1.27,5.06s-.38,3.83-1.13,5.5c-.76,1.66-1.89,3.1-3.4,4.3s-3.42,2.14-5.73,2.83-5,1.03-8.06,1.03c-.62,0-1.23,0-1.83-.03s-1.23-.06-1.9-.1c-.67-.04-1.35-.08-2.06-.1-.71-.02-1.47-.03-2.26-.03h-11.66v-.93h-.01ZM147.66,22.71h6.13c1.24,0,2.38-.16,3.4-.47,1.02-.31,1.9-.85,2.63-1.63.73-.78,1.3-1.83,1.7-3.16s.6-3.02.6-5.06c0-2.31-.3-4.16-.9-5.56-.6-1.4-1.38-2.45-2.33-3.16-.96-.71-2.02-1.18-3.2-1.4-1.18-.22-2.34-.33-3.5-.33-.8,0-1.61,0-2.43.03-.82.02-1.52.08-2.1.17v20.58h0ZM147.66,47.69c.53.04,1.12.1,1.77.17.64.07,1.57.1,2.76.1,2.09,0,3.87-.2,5.36-.6,1.49-.4,2.71-1.1,3.66-2.1s1.65-2.32,2.1-3.96c.44-1.64.67-3.71.67-6.19,0-3.55-.76-6.35-2.26-8.39-1.51-2.04-3.75-3.06-6.73-3.06h-7.33v24.05-.02Z"/>
      <path class="st1" d="M174.71,47.69h7.39V2.13h-7.39v-.93h38.1v11.52h-.73c-.58-1.73-1.2-3.25-1.87-4.56s-1.46-2.42-2.4-3.33c-.93-.91-2.04-1.59-3.33-2.03-1.29-.44-2.84-.67-4.66-.67h-11.06v20.58h4.33c1.46,0,2.71-.13,3.73-.4s1.9-.77,2.63-1.5c.73-.73,1.35-1.73,1.87-3,.51-1.27,1.01-2.9,1.5-4.9h.73v20.71h-.73c-.31-1.29-.63-2.53-.97-3.73-.33-1.2-.8-2.26-1.4-3.2-.6-.93-1.4-1.68-2.4-2.23s-2.3-.83-3.9-.83h-5.4v24.05h12.59c2.44,0,4.47-.52,6.09-1.57,1.62-1.04,2.94-2.29,3.96-3.73s1.78-2.94,2.26-4.5c.49-1.55.8-2.84.93-3.86h.73v14.59h-40.63v-.93h.03Z"/>
      <path class="st1" d="M229.79,47.69h7.39v-19.12l-14.99-26.44h-6.06v-.93h20.38v.93h-6.66l13.32,23.45,12.59-23.45h-6.73v-.93h14.25v.93h-6.46l-12.99,24.31v21.25h7.39v.93h-21.45v-.93h.02Z"/>
      <path class="st1" d="M263.16,24.84c0-3.55.7-6.84,2.1-9.86s3.2-5.64,5.4-7.86c2.2-2.22,4.67-3.96,7.43-5.23,2.75-1.27,5.5-1.9,8.26-1.9,2.93,0,5.78.63,8.56,1.9,2.77,1.27,5.25,3.01,7.43,5.23s3.92,4.84,5.23,7.86,1.96,6.31,1.96,9.86c0,3.11-.6,6.15-1.8,9.12-1.2,2.98-2.84,5.62-4.93,7.93s-4.54,4.17-7.36,5.6c-2.82,1.42-5.85,2.13-9.09,2.13s-6.42-.69-9.26-2.06c-2.84-1.38-5.3-3.21-7.36-5.5s-3.67-4.93-4.83-7.93c-1.16-3-1.73-6.09-1.73-9.29h-.01ZM270.82,24.84c0,4,.27,7.48.8,10.46s1.42,5.46,2.66,7.46,2.84,3.49,4.8,4.46c1.95.98,4.37,1.46,7.26,1.46s5.25-.49,7.23-1.46c1.98-.98,3.59-2.46,4.83-4.46s2.13-4.48,2.67-7.46c.53-2.97.8-6.46.8-10.46,0-3.06-.2-6.03-.6-8.89s-1.17-5.42-2.3-7.66c-1.13-2.24-2.71-4.03-4.73-5.36-2.02-1.33-4.65-2-7.89-2s-5.87.67-7.89,2c-2.02,1.33-3.6,3.12-4.73,5.36-1.13,2.24-1.9,4.8-2.3,7.66s-.6,5.83-.6,8.89h0Z"/>
      <path class="st1" d="M312.11,47.69h7.39V2.13h-7.39v-.93h14.25l22.51,36.3h.13V2.13h-7.39v-.93h15.79v.93h-7.39v47.42h-1.33l-28.04-44.69h-.13v42.83h7.39v.93h-15.79v-.93Z"/>
      <path class="st1" d="M357.47,47.69h7.39V2.13h-7.39v-.93h12.39c.62,0,1.24,0,1.87-.03.62-.02,1.24-.05,1.87-.1.62,0,1.24,0,1.86-.03s1.24-.03,1.87-.03c1.33,0,2.52.02,3.56.07,1.04.05,2.02.12,2.93.23s1.78.27,2.6.47,1.7.46,2.63.77c2.71.89,5.05,2.08,7.03,3.56,1.98,1.49,3.6,3.21,4.86,5.16,1.27,1.95,2.2,4.09,2.8,6.39.6,2.31.9,4.73.9,7.26,0,2.93-.36,5.56-1.07,7.89-.71,2.33-1.69,4.4-2.93,6.19-1.24,1.8-2.7,3.35-4.36,4.66-1.67,1.31-3.45,2.36-5.36,3.16-1.07.49-2.08.87-3.03,1.13-.96.27-1.93.47-2.93.6-1,.13-2.1.22-3.3.27-1.2.04-2.58.07-4.13.07-.67,0-1.38,0-2.13-.03s-1.51-.06-2.26-.1c-.75-.04-1.5-.08-2.23-.1-.73-.02-1.43-.03-2.1-.03h-11.32v-.93h-.02ZM371.53,47.69c.75.09,1.63.16,2.63.2,1,.05,2.1.07,3.3.07,1.51,0,3.01-.08,4.5-.23,1.49-.16,2.91-.49,4.26-1s2.62-1.24,3.8-2.2c1.18-.95,2.23-2.21,3.16-3.76,1.42-2.4,2.41-4.85,2.96-7.36.55-2.51.83-5.25.83-8.23,0-3.51-.33-6.69-1-9.56-.67-2.86-1.77-5.3-3.3-7.33-1.53-2.02-3.56-3.59-6.09-4.7-2.53-1.11-5.66-1.66-9.39-1.66-1.11,0-2.12.02-3.03.07-.91.04-1.79.09-2.63.13v45.56h0Z"/>
      <path class="st1" d="M9.52,120.01h7.39v-45.56h-3.86c-.89,0-1.89.08-3,.23-1.11.16-2.23.59-3.36,1.3-1.13.71-2.22,1.83-3.26,3.36-1.04,1.53-1.94,3.65-2.7,6.36H0v-12.19h40.5v12.19h-.73c-.76-2.71-1.65-4.83-2.7-6.36-1.04-1.53-2.13-2.65-3.26-3.36-1.13-.71-2.25-1.14-3.36-1.3s-2.11-.23-3-.23h-3.86v45.56h7.39v.93H9.52s0-.93,0-.93Z"/>
      <path class="st1" d="M43.56,97.17c0-3.55.7-6.84,2.1-9.86,1.4-3.02,3.2-5.64,5.4-7.86s4.67-3.96,7.43-5.23c2.75-1.27,5.5-1.9,8.26-1.9,2.93,0,5.78.63,8.56,1.9,2.77,1.27,5.25,3.01,7.43,5.23s3.92,4.84,5.23,7.86c1.31,3.02,1.96,6.31,1.96,9.86,0,3.11-.6,6.15-1.8,9.12-1.2,2.98-2.84,5.62-4.93,7.93-2.09,2.31-4.54,4.17-7.36,5.6-2.82,1.42-5.85,2.13-9.09,2.13s-6.42-.69-9.26-2.06c-2.84-1.38-5.3-3.21-7.36-5.5s-3.67-4.93-4.83-7.93c-1.16-3-1.73-6.09-1.73-9.29h0ZM51.22,97.17c0,4,.27,7.48.8,10.46.53,2.98,1.42,5.46,2.66,7.46s2.84,3.49,4.8,4.46c1.95.98,4.37,1.46,7.26,1.46s5.25-.49,7.23-1.46,3.59-2.46,4.83-4.46c1.24-2,2.13-4.48,2.66-7.46.53-2.97.8-6.46.8-10.46,0-3.06-.2-6.03-.6-8.89s-1.17-5.42-2.3-7.66c-1.13-2.24-2.71-4.03-4.73-5.36-2.02-1.33-4.65-2-7.89-2s-5.87.67-7.89,2-3.6,3.12-4.73,5.36-1.9,4.8-2.3,7.66c-.4,2.86-.6,5.83-.6,8.89Z"/>
      <path class="st1" d="M92.85,120.01h7.39v-45.56h-7.39v-.93h14.99l12.32,35.83h.13l12.32-35.83h14.72v.93h-7.39v45.56h7.39v.93h-21.45v-.93h7.39v-45.16h-.13l-15.92,46.16-15.85-45.69h-.13v44.69h7.39v.93h-15.79v-.93h.01Z"/>
      <path class="st1" d="M150.26,97.17c0-3.55.7-6.84,2.1-9.86,1.4-3.02,3.2-5.64,5.4-7.86s4.67-3.96,7.43-5.23c2.75-1.27,5.5-1.9,8.26-1.9,2.93,0,5.78.63,8.56,1.9,2.77,1.27,5.25,3.01,7.43,5.23s3.92,4.84,5.23,7.86c1.31,3.02,1.96,6.31,1.96,9.86,0,3.11-.6,6.15-1.8,9.12-1.2,2.98-2.84,5.62-4.93,7.93s-4.54,4.17-7.36,5.6c-2.82,1.42-5.85,2.13-9.09,2.13s-6.42-.69-9.26-2.06c-2.84-1.38-5.3-3.21-7.36-5.5s-3.67-4.93-4.83-7.93-1.73-6.09-1.73-9.29h0ZM157.92,97.17c0,4,.27,7.48.8,10.46.53,2.98,1.42,5.46,2.66,7.46s2.84,3.49,4.8,4.46c1.95.98,4.37,1.46,7.26,1.46s5.25-.49,7.23-1.46c1.98-.98,3.59-2.46,4.83-4.46s2.13-4.48,2.67-7.46c.53-2.97.8-6.46.8-10.46,0-3.06-.2-6.03-.6-8.89-.4-2.86-1.16-5.42-2.3-7.66-1.13-2.24-2.71-4.03-4.73-5.36-2.02-1.33-4.65-2-7.89-2s-5.87.67-7.89,2-3.6,3.12-4.73,5.36c-1.13,2.24-1.9,4.8-2.3,7.66-.4,2.86-.6,5.83-.6,8.89h0Z"/>
      <path class="st1" d="M199.82,120.01h7.39v-45.56h-7.39v-.93h12.66c.53,0,1.07-.01,1.6-.03s1.07-.05,1.6-.1c.53,0,1.07-.01,1.6-.03s1.07-.03,1.6-.03c2.62,0,4.93.15,6.93.43,2,.29,3.86,1.12,5.59,2.5,1.55,1.2,2.65,2.55,3.3,4.06.64,1.51.97,2.93.97,4.26,0,.67-.12,1.52-.37,2.56-.24,1.04-.78,2.11-1.6,3.2s-2.01,2.09-3.56,3-3.62,1.52-6.19,1.83v.13c.71.09,1.68.26,2.9.5s2.46.66,3.73,1.23c1.27.58,2.43,1.34,3.5,2.3,1.07.95,1.82,2.19,2.26,3.7.27.89.46,1.9.57,3.03s.2,2.3.27,3.5.13,2.35.2,3.46c.07,1.11.19,2.04.37,2.8.27,1.16.69,2.2,1.27,3.13s1.51,1.4,2.8,1.4c.58,0,1.18-.11,1.8-.33.62-.22,1.18-.58,1.67-1.07l.6.73c-.22.18-.48.37-.77.57-.29.2-.66.39-1.1.57s-.99.32-1.63.43-1.43.17-2.36.17c-1.78,0-3.25-.22-4.43-.67-1.18-.44-2.12-1.1-2.83-1.96-.71-.87-1.23-1.93-1.56-3.2s-.57-2.74-.7-4.43l-.47-6.06c-.18-2.22-.62-3.95-1.33-5.2-.71-1.24-1.54-2.15-2.5-2.73s-1.94-.92-2.96-1.03-1.91-.17-2.66-.17h-6.66v24.04h7.39v.93h-21.45v-.93h-.05ZM213.87,95.04h6.13c1.24,0,2.38-.16,3.4-.47,1.02-.31,1.9-.85,2.63-1.63.73-.78,1.3-1.83,1.7-3.16s.6-3.02.6-5.06c0-2.31-.3-4.16-.9-5.56-.6-1.4-1.38-2.45-2.33-3.16-.95-.71-2.02-1.18-3.2-1.4s-2.34-.33-3.5-.33c-.8,0-1.61.01-2.43.03-.82.02-1.52.08-2.1.17v20.58h0Z"/>
      <path class="st1" d="M244.57,120.01h7.39v-45.56h-7.39v-.93h12.66c.53,0,1.07-.01,1.6-.03s1.07-.05,1.6-.1c.53,0,1.07-.01,1.6-.03s1.07-.03,1.6-.03c2.62,0,4.93.15,6.93.43,2,.29,3.86,1.12,5.59,2.5,1.55,1.2,2.65,2.55,3.3,4.06.64,1.51.97,2.93.97,4.26,0,.67-.12,1.52-.37,2.56-.24,1.04-.78,2.11-1.6,3.2s-2.01,2.09-3.56,3-3.62,1.52-6.19,1.83v.13c.71.09,1.68.26,2.9.5s2.46.66,3.73,1.23c1.27.58,2.43,1.34,3.5,2.3,1.07.95,1.82,2.19,2.26,3.7.27.89.46,1.9.57,3.03.11,1.13.2,2.3.27,3.5s.13,2.35.2,3.46.19,2.04.37,2.8c.27,1.16.69,2.2,1.27,3.13s1.51,1.4,2.8,1.4c.58,0,1.18-.11,1.8-.33s1.18-.58,1.67-1.07l.6.73c-.22.18-.48.37-.77.57-.29.2-.66.39-1.1.57s-.99.32-1.63.43-1.43.17-2.36.17c-1.78,0-3.25-.22-4.43-.67-1.18-.44-2.12-1.1-2.83-1.96-.71-.87-1.23-1.93-1.56-3.2s-.57-2.74-.7-4.43l-.47-6.06c-.18-2.22-.62-3.95-1.33-5.2-.71-1.24-1.54-2.15-2.5-2.73s-1.94-.92-2.96-1.03-1.91-.17-2.66-.17h-6.66v24.04h7.39v.93h-21.45v-.93h-.05ZM258.63,95.04h6.13c1.24,0,2.38-.16,3.4-.47s1.9-.85,2.63-1.63,1.3-1.83,1.7-3.16c.4-1.33.6-3.02.6-5.06,0-2.31-.3-4.16-.9-5.56-.6-1.4-1.38-2.45-2.33-3.16-.95-.71-2.02-1.18-3.2-1.4-1.18-.22-2.34-.33-3.5-.33-.8,0-1.61.01-2.43.03s-1.52.08-2.1.17v20.58h0Z"/>
      <path class="st1" d="M291.86,97.17c0-3.55.7-6.84,2.1-9.86,1.4-3.02,3.2-5.64,5.4-7.86,2.2-2.22,4.67-3.96,7.43-5.23,2.75-1.27,5.5-1.9,8.26-1.9,2.93,0,5.78.63,8.56,1.9,2.77,1.27,5.25,3.01,7.43,5.23s3.92,4.84,5.23,7.86c1.31,3.02,1.96,6.31,1.96,9.86,0,3.11-.6,6.15-1.8,9.12-1.2,2.98-2.84,5.62-4.93,7.93s-4.54,4.17-7.36,5.6c-2.82,1.42-5.85,2.13-9.09,2.13s-6.42-.69-9.26-2.06c-2.84-1.38-5.3-3.21-7.36-5.5s-3.67-4.93-4.83-7.93c-1.16-3-1.73-6.09-1.73-9.29h-.01ZM299.52,97.17c0,4,.27,7.48.8,10.46.53,2.98,1.42,5.46,2.66,7.46s2.84,3.49,4.8,4.46c1.95.98,4.37,1.46,7.26,1.46s5.25-.49,7.23-1.46,3.59-2.46,4.83-4.46,2.13-4.48,2.67-7.46c.53-2.97.8-6.46.8-10.46,0-3.06-.2-6.03-.6-8.89s-1.17-5.42-2.3-7.66c-1.13-2.24-2.71-4.03-4.73-5.36-2.02-1.33-4.65-2-7.89-2s-5.87.67-7.89,2c-2.02,1.33-3.6,3.12-4.73,5.36s-1.9,4.8-2.3,7.66-.6,5.83-.6,8.89h0Z"/>
      <path class="st1" d="M337.56,73.52h20.05v.93h-6.93l13.72,38.63h.13l8.86-24.58-5.06-14.05h-5.6v-.93h19.98v.93h-7.26l13.72,38.63h.13l13.99-38.63h-7.13v-.93h14.25v.93h-5.99l-17.25,47.49h-1.67l-11.46-31.97h-.13l-11.59,31.97h-1.8l-16.99-47.49h-5.99v-.93h.02Z"/>
    </g>
  </g>
  <g>
    <path class="st0" d="M30.87,96.04l-8.8-45.36h9.27l3.59,22.14c.2,1.52.54,3.83,1.02,6.94.48,3.35.84,5.86,1.08,7.54h.24c.04-.16,1.02-4.99,2.93-14.48l5.27-22.14h7.72l5.27,22.14c.64,3.15,1.6,7.98,2.87,14.48h.3c.28-1.99.7-4.99,1.26-8.98.36-2.47.62-4.31.78-5.5l3.53-22.14h8.62l-8.38,45.36h-11.25l-5.09-22.44c-.96-4.71-1.62-8.2-1.97-10.47h-.24c-.64,3.71-1.3,7.2-1.97,10.47l-4.97,22.44h-11.07Z"/>
    <path class="st4" d="M100.59,96.88c-6.58,0-11.73-2.43-15.44-7.3-3.23-4.23-4.85-9.69-4.85-16.4,0-8.46,2.47-14.78,7.42-18.97,3.51-2.91,7.8-4.37,12.87-4.37,6.74,0,11.97,2.45,15.68,7.36,3.07,4.15,4.61,9.48,4.61,15.98,0,8.22-2.35,14.5-7.06,18.85-3.55,3.23-7.96,4.85-13.22,4.85ZM100.59,89.04c4.11,0,7.14-2.04,9.1-6.1,1.32-2.67,1.97-5.92,1.97-9.75,0-6.58-1.74-11.15-5.21-13.7-1.72-1.24-3.67-1.86-5.86-1.86-4.27,0-7.36,2.09-9.27,6.28-1.16,2.55-1.74,5.65-1.74,9.28,0,6.42,1.65,11.01,4.97,13.76,1.71,1.4,3.73,2.09,6.04,2.09Z"/>
    <path class="st7" d="M164.55,96.04h-10.11l-9.33-17.17h-6.28v17.17h-9.1v-45.36h15.8c11.09,0,16.77,4.37,17.05,13.11v.66c-.04,6.42-2.91,10.77-8.62,13.04l10.59,18.55ZM138.82,57.86v13.82h5.86c5.86-.24,8.88-2.65,9.04-7.24,0-3.55-1.84-5.65-5.5-6.28-1.04-.2-2.21-.3-3.53-.3h-5.86Z"/>
    <path class="st8" d="M171.5,96.04v-45.36h9.1v19.69h.18l15.02-19.69h9.99l-13.88,17.83,16.34,27.53h-9.99l-11.73-20.35-5.92,7.6v12.75h-9.1Z"/>
    <path class="st9" d="M240.91,96.88c-5.79,0-10.87-1.82-15.26-5.45-.44-.4-.86-.78-1.26-1.14l5.21-6.28c3.27,3.03,6.8,4.69,10.59,4.97.36.04.68.06.96.06,3.95,0,6.28-1.26,7-3.77.12-.44.18-.92.18-1.44,0-1.79-.96-3.23-2.87-4.31-.68-.36-1.97-.96-3.89-1.79l-6.1-2.57c-6.06-2.59-9.12-6.66-9.16-12.21,0-4.07,1.69-7.38,5.09-9.93,2.91-2.11,6.44-3.17,10.59-3.17,4.99,0,9.33,1.58,13.04,4.73.4.36.78.72,1.14,1.08l-4.55,5.68c-2.99-2.47-6.2-3.71-9.63-3.71s-5.41,1.02-6.28,3.05c-.2.56-.3,1.14-.3,1.74,0,1.76,1.14,3.21,3.41,4.37.68.32,1.92.84,3.71,1.56l5.92,2.51c4.99,2.08,7.94,5.13,8.86,9.16.2,1,.3,2.06.3,3.17,0,4.19-1.7,7.58-5.09,10.17-3.07,2.35-6.94,3.53-11.61,3.53Z"/>
    <path class="st6" d="M265.56,96.04v-45.36h9.09v19.69h.18l15.02-19.69h9.99l-13.88,17.83,16.34,27.53h-9.99l-11.73-20.35-5.92,7.6v12.75h-9.09Z"/>
    <path class="st2" d="M307.57,96.04v-45.36h9.09v45.36h-9.09Z"/>
    <path class="st3" d="M327.74,96.04v-45.36h9.09v37.76h18.37v7.6h-27.47Z"/>
    <path class="st5" d="M363.04,96.04v-45.36h9.09v37.76h18.37v7.6h-27.47Z"/>
  </g>
</svg>