<?xml version="1.0" encoding="UTF-8"?>
<svg id="_圖層_1" xmlns="http://www.w3.org/2000/svg" version="1.1" viewBox="0 0 676.52 190.09">
  <!-- Generator: Adobe Illustrator 30.4.0, SVG Export Plug-In . SVG Version: 2.1.4 Build 226)  -->
  <defs>
    <style>
      .st0, .st1 {
        isolation: isolate;
      }

      .st2, .st1 {
        fill: #fff;
      }

      .st3 {
        fill: #fafafa;
      }

      .st4 {
        fill: #f8f8f8;
      }

      .st1 {
        font-family: HanWangYenHeavy, HanWangYenHeavy;
        font-size: 12px;
      }

      .st5 {
        fill: #fdfdfd;
      }
    </style>
  </defs>
  <g>
    <g>
      <path class="st4" d="M258.25,179.24v-11.52s-5.5,6.65-5.5,6.65c-.06.07-.23.17-.31.15s-.21-.11-.27-.19l-5.45-6.61v11.52s-3.06.03-3.06.03c-.09-.02-.28-.19-.28-.31v-16.95s2.55-.07,2.55-.07l.5.19,6.04,7.33,6.15-7.46,2.6-.05c.23.04.35.17.35.43v16.85s-3.32.02-3.32.02Z"/>
      <path class="st4" d="M282.81,168.96v3.31s-10.06,0-10.06,0v3.65s11.43,0,11.43,0l.03,2.95c0,.15-.16.37-.34.37h-14.44s0-17.29,0-17.29h14.35c.27,0,.41.16.43.39l-.04,2.95h-11.42s0,3.66,0,3.66h10.06Z"/>
      <path class="st4" d="M222.16,179.26l-3.33-.02,2.25-4.66c-.96-.53-1.82-1.12-2.64-2l2.12-2.59c2.5,2.86,6.66,3.3,9.69,1.11l-1.9-3.9-1.64,3.38c-1.2.04-2.3-.3-3.25-.95l3.69-7.64,2.38-.02,8.35,17.25-3.29.05c-.22-.03-.47-.15-.57-.35l-2.31-4.78c-2.22,1.43-4.82,1.96-7.46,1.52l-1.58,3.27c-.06.13-.33.34-.51.34Z"/>
    </g>
    <g>
      <path class="st4" d="M211.18,168.96v3.31s-10.07,0-10.07,0v3.65s11.41,0,11.41,0l.04,2.94c-.02.19-.15.38-.38.38h-14.4s0-16.97,0-16.97c0-.15.16-.33.3-.33h14.46s.03,3.02.03,3.02c0,.1-.17.29-.3.32h-11.15s0,3.65,0,3.65h10.07Z"/>
      <path class="st4" d="M185.38,179l-4.16-6.73h-5.29s0,6.6,0,6.6c0,.18-.15.39-.33.39h-2.8c-.13-.01-.22-.33-.22-.49v-16.81s11.01-.01,11.01-.01c2.66,0,4.84,1.88,5.21,4.43s-1.23,5.03-3.76,5.71l4.23,6.86.08.15s-.13.14-.17.16h-3.35c-.1-.01-.37-.12-.45-.25ZM183.7,168.95c1.05,0,1.79-.88,1.81-1.8s-.72-1.85-1.73-1.85h-7.85s0,3.65,0,3.65h7.77Z"/>
    </g>
  </g>
  <path class="st4" d="M156.38,179.21l-9.13.03v-17.28s8.72,0,8.72,0c4.73,0,8.51,3.81,8.61,8.45s-3.44,8.61-8.2,8.79ZM156.12,175.91c2.94-.01,5.14-2.54,5.12-5.34s-2.23-5.24-5.09-5.25l-5.58-.02v10.63s5.54-.02,5.54-.02Z"/>
  <g>
    <path class="st2" d="M149.7,79.34v10.63h-53.6l7.84,1.8c-.84,2.34-1.35,3.69-1.53,4.05h7.84v-5.31h13.15v5.31h21.35v10.27h-21.35v3.96h18.29v10.09h-18.29v4.68h25.58v10.72h-64.86v-10.72h26.12v-4.68h-18.47v-8.11l-.27.27c-2.82-2.4-5.68-4.5-8.56-6.31-1.2,14.29-4.59,25.13-10.18,32.52-2.16-2.46-5.1-4.96-8.83-7.48-.66-.48-1.23-.84-1.71-1.08,5.28-7.21,7.99-18.29,8.11-33.24v-17.39h12.16c-.78-1.56-1.86-3.3-3.24-5.22,4.14-.48,9.04-1.29,14.68-2.43-5.89-1.32-9.79-2.16-11.71-2.52l5.31-3.87h-17.48v-10.36h30v-5.31h13.51v5.31h31.71v10.36h-14.59l2.43,1.26c-3.3,1.92-6.4,3.48-9.28,4.68,1.08.3,5.22,1.53,12.43,3.69l-5.49,4.41h18.92v.02h.01ZM83.4,89.97v5.13c0,2.82-.09,5.83-.27,9.01,3.66-3.6,6.61-8.32,8.83-14.14h-8.56ZM110.24,106.09h-13.6c-1.26,1.74-2.28,3.06-3.06,3.96h16.67v-3.96h-.01ZM97.99,79.34h23.6c-4.86-1.5-8.56-2.61-11.08-3.33-4.56,1.44-8.74,2.55-12.52,3.33ZM117.36,65.29h-17.03c1.62.36,4.98,1.14,10.09,2.34,1.98-.54,4.29-1.32,6.94-2.34Z"/>
    <path class="st2" d="M159.53,137.08v-42.52h36.57v42.16h-13.33v-4.05h-10.63v4.41h-12.61,0ZM228.35,52.95v35.13h-56.57v-35.13h56.57,0ZM182.77,107.45h-10.63v12.43h10.63v-12.43ZM214.66,75.29v-9.46h-30v9.46h30ZM202.68,94.56h37.56v42.16h-13.51v-4.05h-11.26v4.41h-12.79v-42.52h0ZM215.47,119.88h11.26v-12.43h-11.26v12.43Z"/>
    <path class="st2" d="M324.75,118.07h-14.23c10.15,3.72,18.44,7.12,24.86,10.18l-13.6,8.83c-7.93-4.62-16.64-8.62-26.12-11.98l8.2-7.03h-22.88l8.47,6.94c-8.89,4.62-18.8,8.53-29.73,11.71-.3.12-.6.21-.9.27-2.88-3.78-5.95-7.21-9.19-10.27,7.57-1.8,15.49-4.68,23.78-8.65h-12.7v-48.46h23.33c.12-.66.33-1.98.63-3.96h-31.35v-12.16h77.65v12.16h-30.81c-.6,1.8-1.05,3.12-1.35,3.96h25.94v48.46h0ZM274.67,79.61v3.24h35.4v-3.24h-35.4ZM274.67,92.22v3.15h35.4v-3.15h-35.4ZM274.67,104.83v3.24h35.4v-3.24h-35.4Z"/>
    <path class="st2" d="M427.54,66.91h-36.12l-2.07,6.49h34.14v63.69h-13.69v-4.59h-50.08v4.59h-12.88v-63.69h28.29c.12-.72.3-1.8.54-3.24.24-1.44.39-2.52.45-3.24h-32.88v-12.61h84.32v12.61h-.02ZM359.71,85.65v34.59h7.3v-34.59s-7.3,0-7.3,0ZM390.07,89.97v-4.32h-11.17v4.32h11.17ZM390.07,105.19v-4.86h-11.17v4.86h11.17ZM378.9,115.55v4.68h11.17v-4.68h-11.17ZM409.8,120.24v-34.59h-7.75v34.59h7.75Z"/>
    <path class="st2" d="M469.89,48.89h14.05c8.23,12.01,18.41,21.41,30.54,28.2,3,1.68,6.04,3.12,9.1,4.32-2.64,2.76-5.65,6.79-9.01,12.07-10.63-5.77-20.27-13-28.92-21.71-3.3-3.36-6.04-6.54-8.2-9.55-6.07,8.59-14.62,16.73-25.67,24.41-3.54,2.52-7.15,4.77-10.81,6.76-1.86-3.42-4.47-6.85-7.84-10.27-.3-.24-.54-.45-.72-.63,10.45-5.1,20-12.4,28.65-21.89,3.66-4.08,6.61-7.99,8.83-11.71h0ZM485.57,106.63v16.03h31.8v12.07h-78.91v-12.07h9.1v-31.17h13.24v31.17h10.45v-46.66h14.32v18.74h23.6v11.89h-23.6,0Z"/>
    <path class="st2" d="M575.3,53.94v8.83h4.23v7.93h-4.23v9.1h-16.48v2.07h17.3v7.03h-17.3v1.89h20.45v8.2h-51.53v-8.2h19.19v-1.89h-15.22v-7.03h15.22v-2.07h-15.31v-6.85h15.31v-2.25h-19.73v-7.93h19.73v-1.98h-15.04v-6.85h15.04v-4.59h11.89v4.59s16.48,0,16.48,0ZM528.1,135.1l-.81-10.18c15.91-.3,33.3-.78,52.16-1.44l-.36,9.73c-19.4.84-36.39,1.47-50.99,1.89ZM531.43,100.87h44.5v21.53h-44.5v-21.53ZM541.61,106.63v2.25h6.49v-2.25h-6.49ZM541.61,114.38v2.25h6.49v-2.25h-6.49ZM558.82,60.78v1.98h5.22v-1.98h-5.22ZM564.04,72.94v-2.25h-5.22v2.25h5.22ZM565.3,108.89v-2.25h-6.12v2.25h6.12ZM565.3,116.63v-2.25h-6.12v2.25h6.12ZM593.77,60.78v52.79h-12.16v-52.79h12.16ZM599.08,51.41h12.7v70.62c0,5.53-1.17,9.28-3.51,11.26-.48.42-.96.78-1.44,1.08-3.06,1.68-8.56,2.52-16.49,2.52-.54-4.02-1.83-8.41-3.87-13.15,2.94.12,6.49.18,10.63.18,1.26-.12,1.92-.78,1.98-1.98V51.41Z"/>
  </g>
  <g>
    <g>
      <path class="st3" d="M354.31,160.59c1.49.71,2.58,1.28,4.3,2.45l-2.49,2.57c-2.59-1.94-6.11-2.08-8.47.06-2.5,2.26-2.51,6.32-.33,8.82,1.5,1.72,3.84,2.18,6.18,1.56,1.61-.43,3.29-1.91,3.82-3.96l-5.7-.05.07-3.71h9.37c.6,3.66-.38,7.47-3.48,9.81-3.92,2.97-9.79,2.6-13.07-1.18-3.12-3.59-3.13-8.81-.64-12.69,1.24-1.94,3.11-2.88,5.16-3.68h5.3Z"/>
      <path class="st3" d="M375.21,160.59c1.88.83,3.84,1.79,5.07,3.67,2.5,3.82,2.39,8.93-.46,12.53-1.94,2.45-4.99,3.43-7.93,3.29s-5.64-1.53-7.26-4c-2.17-3.29-2.22-7.34-.53-10.81,1.18-2.43,3.33-3.84,5.85-4.67h5.27ZM378.38,169.87c-.18-3.59-2.93-5.95-6.36-5.72-3.11.21-5.49,2.78-5.46,6.09.04,3.58,2.61,6.18,6.12,6.1s5.89-2.79,5.71-6.47Z"/>
    </g>
    <g>
      <path class="st3" d="M336.47,179.39l-.06-12.97-6.85,9.37-6.81-9.29-.05,12.87-3.69.02v-18.35c1.57-.05,2.98-.05,4.45,0l6.09,8.71,6.09-8.72c1.45-.05,2.87-.05,4.44,0v18.34s-3.61,0-3.61,0Z"/>
      <path class="st3" d="M307.09,180.01l-.04-3.44,3.19.02c.85,0,2.01-1.05,2.01-1.99l.03-13.56,3.63-.03-.07,14.21c-.01,2.63-2.36,4.85-4.88,4.83l-3.88-.03Z"/>
    </g>
  </g>
  <g>
    <path class="st5" d="M495.62,166.26h-10.58c-1.5,0-2.36,1.53-2.36,2.81v10.49c-1.11.42-2.22.42-3.48.08v-10.82c.02-3.45,2.92-6.06,6.32-6.06h9.78c3.34.02,6.19,2.69,6.2,6.05l.03,10.81c-1.25.33-2.27.32-3.51,0v-10.56c0-1.22-.81-2.8-2.4-2.8Z"/>
    <path class="st5" d="M424.18,163.05c1.12-.36,2.21-.34,3.44-.08l-.03,11.13c0,3.07-2.72,5.64-5.82,5.71-3.56.09-6.99.09-10.5,0-3.53-.09-5.91-2.98-5.9-6.27l.04-10.59c1.21-.21,2.21-.21,3.44.01v10.55c-.02,1.75,1.12,2.89,2.93,2.89h9.47c1.12,0,1.7,2.05,2.9,1.62v-14.97Z"/>
    <path class="st5" d="M516.79,179.62c-1.3.34-2.31.35-3.48.01v-13.4s-9.4-.01-9.4-.01c-.19-1.32-.19-2.27.1-3.46h21.99c.45,1.14.44,2.23.1,3.46h-9.3s0,13.39,0,13.39Z"/>
    <g>
      <path class="st5" d="M448.78,163.03c1.16-.35,2.33-.33,3.5.02l-.02,10.75c0,3.2-2.62,6.01-5.9,6.02l-10.31.03c-2.98,0-5.98-2.41-5.99-5.48l-.06-11.41c1.23-.21,2.24-.21,3.43,0l.03,11.09c0,.91,1.14,2.31,2.15,2.31h10.98c1.03,0,2.17-1.36,2.17-2.31l.02-11.03Z"/>
      <path class="st5" d="M442.88,173.53c-1.22.27-2.3.26-3.48,0v-10.56c1.16-.21,2.23-.21,3.46-.02l.02,10.58Z"/>
    </g>
    <g>
      <path class="st5" d="M470.57,166.23h-9.89c-1.63.01-2.64,1.39-2.64,2.9v10.54c-1.24.28-2.18.29-3.48-.01l.02-10.82c0-3.46,2.94-6.06,6.35-6.06h9.78c3.34.02,6.15,2.71,6.16,6.06l.03,10.8c-1.22.32-2.25.32-3.5.02l-.02-10.79c0-1.52-1.21-2.63-2.81-2.63Z"/>
      <path class="st5" d="M470.19,174.23l-8.82.02c-.31-1.16-.31-2.25,0-3.41l8.73-.02c.28,1.04.29,2.07.1,3.41Z"/>
    </g>
  </g>
  <g class="st0">
    <text class="st1" transform="translate(292.37 174.64)"><tspan x="0" y="0">X</tspan></text>
  </g>
  <g class="st0">
    <text class="st1" transform="translate(389.33 174.64)"><tspan x="0" y="0">X</tspan></text>
  </g>
</svg>